<svg width="128" height="39" viewBox="0 0 128 39" fill="none" xmlns="http://www.w3.org/2000/svg">
<g clip-path="url(#clip0_3444_2333)">
<path d="M127.185 34.4194C127.185 34.8959 127.091 35.3677 126.908 35.8078C126.725 36.248 126.457 36.6478 126.119 36.9846C125.781 37.3213 125.38 37.5883 124.939 37.7703C124.497 37.9523 124.024 38.0457 123.547 38.0452H4.4876C3.52262 38.0462 2.59675 37.6648 1.91361 36.9848C1.23046 36.3049 0.845984 35.3821 0.844727 34.4194V5.50532C0.845984 4.54219 1.23031 3.61892 1.91332 2.93824C2.59633 2.25755 3.52219 1.8751 4.4876 1.87485H123.546C124.024 1.87485 124.497 1.96876 124.938 2.15122C125.38 2.33368 125.781 2.60111 126.119 2.93825C126.457 3.27538 126.725 3.67561 126.907 4.11607C127.09 4.55654 127.184 5.02861 127.184 5.50532L127.185 34.4194Z" fill="white"/>
<path d="M123.547 38.8886H4.48741C3.29867 38.8884 2.15857 38.4177 1.31729 37.5798C0.476009 36.742 0.00226186 35.6054 0 34.4194L0 5.50626C0.00175858 4.31974 0.475193 3.18236 1.31645 2.34363C2.1577 1.5049 3.29808 1.0333 4.48741 1.0323L123.546 1.0323C124.735 1.0338 125.875 1.50556 126.716 2.34418C127.557 3.1828 128.031 4.31989 128.033 5.50626V34.4194C128.035 36.8845 126.019 38.8886 123.547 38.8886Z" fill="#383A41"/>
<path d="M127.185 34.4194C127.185 34.8959 127.091 35.3677 126.908 35.8078C126.725 36.248 126.457 36.6478 126.119 36.9846C125.781 37.3213 125.38 37.5883 124.939 37.7703C124.497 37.9523 124.024 38.0457 123.547 38.0452H4.4876C3.52262 38.0462 2.59675 37.6648 1.91361 36.9848C1.23046 36.3049 0.845984 35.3821 0.844727 34.4194V5.50532C0.845984 4.54219 1.23031 3.61892 1.91332 2.93824C2.59633 2.25755 3.52219 1.8751 4.4876 1.87485H123.546C124.024 1.87485 124.497 1.96876 124.938 2.15122C125.38 2.33368 125.781 2.60111 126.119 2.93825C126.457 3.27538 126.725 3.67561 126.907 4.11607C127.09 4.55654 127.184 5.02861 127.184 5.50532L127.185 34.4194Z" fill="#131416"/>
<path d="M28.5891 19.7612C28.5616 16.7101 31.0933 15.2257 31.2091 15.1566C29.7753 13.0711 27.5529 12.7862 26.772 12.7634C24.9054 12.5675 23.0949 13.8777 22.1441 13.8777C21.1743 13.8777 19.7101 12.7824 18.1321 12.8146C16.1014 12.8458 14.2017 14.0187 13.1598 15.8401C11.0096 19.5539 12.6132 25.0114 14.6733 28.0133C15.7038 29.4844 16.908 31.125 18.4841 31.0673C20.0261 31.0048 20.6021 30.0875 22.4629 30.0875C24.3067 30.0875 24.8476 31.0673 26.455 31.0304C28.1099 31.0048 29.1518 29.5536 30.1463 28.0701C31.3372 26.386 31.8154 24.7255 31.8344 24.6403C31.7964 24.6271 28.6214 23.4172 28.5891 19.7612ZM25.5526 10.7887C26.3819 9.75397 26.9494 8.34628 26.7919 6.91776C25.5915 6.97077 24.0903 7.74609 23.2259 8.75808C22.461 9.64984 21.7778 11.1115 21.9543 12.4861C23.3027 12.5864 24.6872 11.8073 25.5526 10.7887Z" fill="white"/>
<path d="M123.546 1.0323H59.7744L84.7527 38.8886H123.546C124.735 38.8876 125.875 38.4163 126.716 37.578C127.558 36.7397 128.031 35.6028 128.034 34.4166V5.50626C128.032 4.31982 127.558 3.18258 126.717 2.3439C125.876 1.50523 124.735 1.03355 123.546 1.0323Z" fill="url(#paint0_linear_3444_2333)"/>
<path d="M50.9237 30.8562H48.7688L47.5883 27.1556H43.4852L42.3607 30.8562H40.2627L44.3288 18.2579H46.8396L50.9237 30.8562ZM47.2325 25.6031L46.1649 22.3134C46.052 21.9774 45.8395 21.1859 45.5282 19.9401H45.4903C45.365 20.4759 45.1648 21.2673 44.8905 22.3134L43.841 25.6031H47.2325ZM61.3599 26.2023C61.3599 27.7473 60.9395 28.9685 60.0978 29.865C59.3444 30.663 58.4078 31.0616 57.2909 31.0616C56.0849 31.0616 55.2176 30.6327 54.6909 29.7732V34.5396H52.6678V24.7577C52.6678 23.7874 52.6422 22.7924 52.5929 21.7719H54.3721L54.485 23.2118H54.523C55.1976 22.1269 56.2215 21.5845 57.5955 21.5845C58.6697 21.5845 59.5664 22.0076 60.2838 22.8549C61.0002 23.7041 61.3599 24.8193 61.3599 26.2023ZM59.2988 26.2762C59.2988 25.392 59.0996 24.663 58.6991 24.0884C58.2617 23.4911 57.6743 23.1919 56.9379 23.1919C56.4388 23.1919 55.9852 23.3585 55.58 23.687C55.1739 24.0184 54.9082 24.451 54.7839 24.9868C54.7284 25.1872 54.6969 25.3934 54.69 25.6012V27.1168C54.69 27.7766 54.893 28.3342 55.2992 28.7905C55.7053 29.2449 56.2329 29.4731 56.882 29.4731C57.6439 29.4731 58.237 29.1787 58.6612 28.5946C59.0863 28.0086 59.2988 27.2361 59.2988 26.2762ZM71.833 26.2023C71.833 27.7473 71.4127 28.9685 70.571 29.865C69.8166 30.663 68.881 31.0616 67.7631 31.0616C66.5571 31.0616 65.6898 30.6327 65.1631 29.7732V34.5396H63.14V24.7577C63.14 23.7874 63.1144 22.7924 63.0651 21.7719H64.8443L64.9572 23.2118H64.9952C65.6689 22.1269 66.6928 21.5845 68.0678 21.5845C69.141 21.5845 70.0377 22.0076 70.757 22.8549C71.4725 23.7041 71.833 24.8193 71.833 26.2023ZM69.771 26.2762C69.771 25.392 69.5708 24.663 69.1704 24.0884C68.7329 23.4911 68.1475 23.1919 67.4111 23.1919C66.912 23.1919 66.4584 23.3585 66.0513 23.687C65.6452 24.0184 65.3804 24.451 65.2561 24.9868C65.1944 25.2367 65.1612 25.4403 65.1612 25.6012V27.1168C65.1612 27.7766 65.3652 28.3342 65.7695 28.7905C66.1756 29.244 66.7032 29.4731 67.3542 29.4731C68.1171 29.4731 68.7102 29.1787 69.1334 28.5946C69.5585 28.0086 69.771 27.2361 69.771 26.2762ZM83.5426 27.3222C83.5426 28.3948 83.1669 29.2667 82.4201 29.9398C81.5983 30.6744 80.4511 31.0427 78.9803 31.0427C77.6214 31.0427 76.5321 30.7814 75.7103 30.2579L76.1781 28.5756C77.0653 29.1001 78.0399 29.3614 79.1008 29.3614C79.8637 29.3614 80.4568 29.1891 80.88 28.8473C81.3041 28.5046 81.5186 28.0464 81.5186 27.4747C81.5186 26.9625 81.3411 26.5337 80.9929 26.1843C80.6427 25.836 80.0639 25.5113 79.2507 25.2131C77.0397 24.3904 75.9333 23.1872 75.9333 21.6044C75.9333 20.5706 76.3242 19.7243 77.1042 19.0626C77.8843 18.4018 78.9186 18.0714 80.2053 18.0714C81.3544 18.0714 82.3119 18.2711 83.072 18.6697L82.5643 20.315C81.8488 19.9288 81.0413 19.7356 80.1379 19.7356C79.4243 19.7356 78.8645 19.9108 78.464 20.2591C78.1272 20.5706 77.9564 20.9502 77.9564 21.4008C77.9564 21.8978 78.1509 22.3106 78.5381 22.6343C78.874 22.9325 79.487 23.2572 80.3733 23.6056C81.4607 24.043 82.2597 24.5523 82.7712 25.1373C83.2864 25.7224 83.5426 26.4523 83.5426 27.3222ZM90.2486 23.2866H88.0187V27.6971C88.0187 28.8189 88.4115 29.3784 89.1991 29.3784C89.5606 29.3784 89.8605 29.3481 90.0977 29.2847L90.1537 30.8173C89.7552 30.966 89.2304 31.0408 88.5804 31.0408C87.7814 31.0408 87.157 30.7975 86.7063 30.3109C86.2575 29.8243 86.0316 29.0092 86.0316 27.8618V23.2828H84.7031V21.7681H86.0316V20.1048L88.0187 19.5065V21.7681H90.2486V23.2866ZM100.29 26.2393C100.29 27.6356 99.8896 28.782 99.0906 29.6785C98.2546 30.6015 97.1425 31.0616 95.7561 31.0616C94.4181 31.0616 93.3544 30.6195 92.5611 29.7362C91.7678 28.8511 91.3712 27.7359 91.3712 26.3907C91.3712 24.983 91.7811 23.83 92.5981 22.9335C93.417 22.036 94.5197 21.5873 95.906 21.5873C97.2421 21.5873 98.3153 22.0304 99.1276 22.9146C99.9038 23.7722 100.29 24.8798 100.29 26.2393ZM98.1929 26.2856C98.1929 25.4535 98.0126 24.7397 97.6511 24.1424C97.2269 23.421 96.6196 23.0603 95.8329 23.0603C95.0226 23.0603 94.401 23.421 93.9778 24.1424C93.6153 24.7397 93.435 25.4658 93.435 26.3235C93.435 27.1566 93.6153 27.8723 93.9778 28.4677C94.4153 29.1891 95.0254 29.5498 95.8159 29.5498C96.5892 29.5498 97.1956 29.1815 97.634 28.4497C98.006 27.8382 98.1929 27.1197 98.1929 26.2856ZM106.869 23.5469C106.658 23.509 106.445 23.4903 106.231 23.4911C105.519 23.4911 104.969 23.758 104.582 24.2957C104.246 24.7691 104.077 25.3674 104.077 26.0897V30.8562H102.054V24.6328C102.056 23.6791 102.036 22.7256 101.995 21.7729H103.757L103.831 23.511H103.887C104.102 22.9136 104.438 22.4318 104.899 22.0711C105.321 21.7559 105.834 21.5852 106.361 21.5845C106.548 21.5845 106.717 21.5977 106.867 21.6214L106.869 23.5469ZM115.917 25.8843C115.922 26.1911 115.897 26.4977 115.843 26.7997H109.773C109.796 27.6971 110.09 28.3844 110.654 28.8577C111.165 29.28 111.827 29.492 112.639 29.492C113.538 29.492 114.358 29.35 115.095 29.0632L115.412 30.4633C114.55 30.8382 113.533 31.0247 112.359 31.0247C110.947 31.0247 109.839 30.61 109.032 29.7826C108.228 28.9543 107.824 27.841 107.824 26.4466C107.824 25.0777 108.199 23.937 108.95 23.0272C109.735 22.0559 110.797 21.5703 112.133 21.5703C113.446 21.5703 114.439 22.0559 115.114 23.0272C115.648 23.7968 115.917 24.7511 115.917 25.8843ZM113.988 25.3607C114.002 24.7615 113.869 24.2456 113.595 23.8092C113.245 23.2468 112.706 22.9666 111.983 22.9666C111.322 22.9666 110.783 23.2402 110.373 23.7893C110.036 24.2257 109.836 24.7501 109.774 25.3589L113.988 25.3607Z" fill="white"/>
<path d="M42.901 13.8038C42.3383 13.8038 41.8515 13.7764 41.4463 13.73V7.63911C42.013 7.55177 42.5857 7.50872 43.1591 7.51036C45.4792 7.51036 46.5476 8.6492 46.5476 10.5056C46.5476 12.647 45.2856 13.8038 42.901 13.8038ZM43.2407 8.29136C42.9275 8.29136 42.6609 8.31029 42.4398 8.35573V12.9859C42.5594 13.0048 42.789 13.0133 43.1116 13.0133C44.6318 13.0133 45.4972 12.15 45.4972 10.5331C45.4972 9.0913 44.7143 8.29136 43.2407 8.29136ZM49.8774 13.8502C48.5698 13.8502 47.7224 12.8761 47.7224 11.5536C47.7224 10.1752 48.5878 9.19259 49.9514 9.19259C51.24 9.19259 52.1064 10.1203 52.1064 11.4807C52.1064 12.8761 51.2134 13.8502 49.8774 13.8502ZM49.9153 9.91774C49.197 9.91774 48.7368 10.588 48.7368 11.5252C48.7368 12.4444 49.2065 13.1146 49.9058 13.1146C50.6052 13.1146 51.0749 12.398 51.0749 11.5062C51.0749 10.5974 50.6147 9.91774 49.9153 9.91774ZM59.5629 9.28442L58.1633 13.7489H57.2514L56.6716 11.8101C56.5274 11.3359 56.4074 10.8547 56.312 10.3684H56.293C56.2199 10.8549 56.0814 11.3425 55.9343 11.8101L55.3175 13.7489H54.3961L53.079 9.28442H54.101L54.6077 11.4068C54.7273 11.9124 54.8279 12.3895 54.9114 12.8401H54.9303C55.0034 12.4643 55.123 11.9947 55.2985 11.4163L55.9343 9.28536H56.7447L57.3529 11.3709C57.5 11.8764 57.6196 12.3725 57.7126 12.8411H57.7391C57.8036 12.3819 57.9052 11.8944 58.0428 11.3709L58.5865 9.28536L59.5629 9.28442ZM64.7155 13.7489H63.7211V11.1853C63.7211 10.3958 63.4174 10.0001 62.8187 10.0001C62.2294 10.0001 61.8242 10.5056 61.8242 11.0935V13.7489H60.8297V10.5605C60.8297 10.1658 60.8202 9.7426 60.7927 9.28347H61.6676L61.7141 9.97264H61.7416C62.0092 9.49552 62.552 9.19259 63.1603 9.19259C64.0997 9.19259 64.7165 9.90922 64.7165 11.0755L64.7155 13.7489ZM67.4579 13.7489H66.4625V7.23582H67.4579V13.7489ZM71.0837 13.8502C69.777 13.8502 68.9287 12.8761 68.9287 11.5536C68.9287 10.1752 69.7941 9.19259 71.1568 9.19259C72.4463 9.19259 73.3117 10.1203 73.3117 11.4807C73.3127 12.8761 72.4188 13.8502 71.0837 13.8502ZM71.1207 9.91774C70.4024 9.91774 69.9421 10.588 69.9421 11.5252C69.9421 12.4444 70.4128 13.1146 71.1103 13.1146C71.8106 13.1146 72.2793 12.398 72.2793 11.5062C72.2803 10.5974 71.821 9.91774 71.1207 9.91774ZM77.2326 13.7489L77.1605 13.2349H77.134C76.8303 13.6486 76.3872 13.8502 75.8254 13.8502C75.0236 13.8502 74.4542 13.2898 74.4542 12.5362C74.4542 11.4343 75.4117 10.8644 77.0694 10.8644V10.782C77.0694 10.1942 76.7572 9.89975 76.1404 9.89975C75.6992 9.89975 75.312 10.0105 74.9714 10.2311L74.7693 9.57883C75.183 9.32134 75.6992 9.19259 76.3056 9.19259C77.4746 9.19259 78.0648 9.80792 78.0648 11.0395V12.6839C78.0648 13.1345 78.0848 13.4838 78.1294 13.7499L77.2326 13.7489ZM77.096 11.5252C75.9915 11.5252 75.4373 11.7921 75.4373 12.4255C75.4373 12.8941 75.7229 13.1232 76.1196 13.1232C76.6253 13.1232 77.096 12.7379 77.096 12.2144V11.5252ZM82.8939 13.7489L82.8474 13.0323H82.8198C82.5342 13.5738 82.0541 13.8502 81.3832 13.8502C80.3043 13.8502 79.5053 12.9035 79.5053 11.5716C79.5053 10.1752 80.3337 9.19164 81.4648 9.19164C82.0636 9.19164 82.4877 9.39328 82.7269 9.79846H82.7468V7.23582H83.7422V12.5457C83.7422 12.9774 83.7526 13.3816 83.7792 13.7489H82.8939ZM82.7468 11.1219C82.7468 10.4971 82.3321 9.96412 81.6992 9.96412C80.9619 9.96412 80.5111 10.6164 80.5111 11.5346C80.5111 12.4349 80.979 13.0512 81.6793 13.0512C82.3046 13.0512 82.7468 12.5088 82.7468 11.866V11.1219ZM90.0534 13.8502C88.7468 13.8502 87.8994 12.8761 87.8994 11.5536C87.8994 10.1752 88.7648 9.19259 90.1274 9.19259C91.417 9.19259 92.2824 10.1203 92.2824 11.4807C92.2834 12.8761 91.3904 13.8502 90.0534 13.8502ZM90.0904 9.91774C89.373 9.91774 88.9128 10.588 88.9128 11.5252C88.9128 12.4444 89.3825 13.1146 90.0809 13.1146C90.7812 13.1146 91.25 12.398 91.25 11.5062C91.2519 10.5974 90.7917 9.91774 90.0904 9.91774ZM97.6305 13.7489H96.6351V11.1853C96.6351 10.3958 96.3314 10.0001 95.7327 10.0001C95.1434 10.0001 94.7391 10.5056 94.7391 11.0935V13.7489H93.7437V10.5605C93.7437 10.1658 93.7342 9.7426 93.7067 9.28347H94.5816L94.6281 9.97264H94.6556C94.9223 9.49552 95.466 9.19164 96.0733 9.19164C97.0127 9.19164 97.6305 9.90827 97.6305 11.0746V13.7489ZM104.321 10.0285H103.227V12.1964C103.227 12.7483 103.419 13.0238 103.806 13.0238C103.982 13.0238 104.129 13.0048 104.247 12.9774L104.275 13.7309C104.082 13.8048 103.824 13.8417 103.503 13.8417C102.719 13.8417 102.251 13.41 102.251 12.2797V10.0285H101.598V9.28442H102.251V8.46649L103.227 8.17208V9.28347H104.321V10.0285ZM109.586 13.7489H108.592V11.2043C108.592 10.4053 108.29 10.001 107.69 10.001C107.175 10.001 106.694 10.3504 106.694 11.0575V13.7489H105.701V7.23582H106.694V9.91774H106.714C107.028 9.43115 107.481 9.19164 108.06 9.19164C109.007 9.19164 109.586 9.92626 109.586 11.0935V13.7489ZM114.979 11.7552H111.995C112.014 12.6006 112.575 13.0777 113.405 13.0777C113.846 13.0777 114.253 13.0039 114.611 12.8666L114.766 13.5558C114.343 13.7394 113.845 13.8313 113.265 13.8313C111.865 13.8313 111.037 12.949 111.037 11.581C111.037 10.2122 111.885 9.18312 113.153 9.18312C114.296 9.18312 115.014 10.0285 115.014 11.3056C115.02 11.4563 115.009 11.6072 114.979 11.7552ZM114.068 11.0481C114.068 10.3589 113.719 9.8723 113.084 9.8723C112.512 9.8723 112.061 10.3684 111.996 11.0481H114.068Z" fill="white"/>
</g>
<defs>
<linearGradient id="paint0_linear_3444_2333" x1="93.9029" y1="38.9892" x2="93.9029" y2="-97.5391" gradientUnits="userSpaceOnUse">
<stop stop-color="#1A1A1A" stop-opacity="0.1"/>
<stop offset="0.123" stop-color="#212121" stop-opacity="0.151"/>
<stop offset="0.308" stop-color="#353535" stop-opacity="0.227"/>
<stop offset="0.532" stop-color="#575757" stop-opacity="0.318"/>
<stop offset="0.783" stop-color="#858585" stop-opacity="0.421"/>
<stop offset="1" stop-color="#B3B3B3" stop-opacity="0.51"/>
</linearGradient>
<clipPath id="clip0_3444_2333">
<rect width="128" height="38" fill="white" transform="translate(0 0.960007)"/>
</clipPath>
</defs>
</svg>
