<svg width="22" height="22" viewBox="0 0 22 22" fill="none" xmlns="http://www.w3.org/2000/svg">
<path d="M10.9997 1.83325C16.0622 1.83325 20.1663 5.93731 20.1663 10.9999C20.1663 16.0625 16.0622 20.1666 10.9997 20.1666C5.93706 20.1666 1.83301 16.0625 1.83301 10.9999C1.83301 5.93731 5.93706 1.83325 10.9997 1.83325ZM14.2405 7.68283L9.70314 12.2201L7.75862 10.2756C7.40065 9.91761 6.82025 9.91761 6.46227 10.2756C6.10429 10.6335 6.10429 11.214 6.46227 11.5719L8.99018 14.0998C9.38396 14.4936 10.0224 14.4936 10.4162 14.0998L15.5368 8.97919C15.8948 8.62121 15.8948 8.04081 15.5368 7.68283C15.1788 7.32485 14.5984 7.32485 14.2405 7.68283Z" fill="#FEA735"/>
</svg>
