<svg width="129" height="39" viewBox="0 0 129 39" fill="none" xmlns="http://www.w3.org/2000/svg">
<g clip-path="url(#clip0_3444_45277)">
<path fill-rule="evenodd" clip-rule="evenodd" d="M17.6798 0.886819C14.5539 1.28656 11.4537 2.81275 9.20037 5.06126C6.09301 8.16193 4.59801 12.2921 4.94069 16.8294C5.20605 20.3435 6.22594 22.8031 8.87572 26.3188C10.538 28.5243 12.5393 30.8049 16.9888 35.5639C18.0418 36.6902 19.0502 37.771 19.2296 37.9656L19.5557 38.3195L20.102 37.7532C22.0377 35.7463 25.9803 31.456 27.599 29.5949C30.8481 25.8592 32.6583 23.119 33.4478 20.7409C33.5726 20.3648 33.6898 20.0167 33.708 19.9672C33.7341 19.8964 33.2442 19.8773 31.4073 19.8777L29.0735 19.8781L28.8066 20.3673C27.4199 22.9084 24.9423 24.8353 22.1831 25.5186C21.1568 25.7728 20.567 25.848 19.5886 25.8491C15.6645 25.8539 12.0639 23.6657 10.2596 20.1799C9.93961 19.5617 9.41855 18.1534 9.41855 17.9068C9.41855 17.7995 10.4201 17.79 21.7461 17.79H34.0737L34.1204 17.5146C34.2985 16.4621 34.2808 14.248 34.0848 13.0757C33.7482 11.063 32.8985 8.91117 31.8041 7.29991C29.4077 3.77172 25.7881 1.5073 21.5941 0.91237C20.7715 0.795702 18.5078 0.780874 17.6798 0.886819ZM21.6082 5.16029C25.6475 6.04535 28.7132 8.93341 29.7211 12.803C29.8196 13.1809 29.8842 13.5156 29.8647 13.547C29.8307 13.602 27.3064 13.6435 27.3064 13.5891C27.3064 13.5745 27.2565 13.2771 27.1956 12.9284C27.0027 11.8247 26.6898 11.4973 25.6197 11.2792C25.307 11.2154 24.9918 11.1316 24.9194 11.0929C24.6776 10.9638 24.4369 10.5609 24.3512 10.1419C24.2245 9.52251 23.8223 8.7778 23.426 8.42909C22.7755 7.85662 22.1387 7.6284 21.1988 7.63106C20.5355 7.63286 20.5146 7.61918 20.4249 7.12307C20.3509 6.71362 20.1056 6.56219 19.5165 6.56219C18.8838 6.56219 18.6924 6.70023 18.5807 7.23679L18.5009 7.62062L17.8022 7.63278C16.7148 7.65179 16.0935 7.88375 15.4739 8.502C15.05 8.92492 14.7873 9.42787 14.6341 10.1097C14.4774 10.8069 14.1862 11.1138 13.5651 11.2364C12.2737 11.4914 11.9104 11.8414 11.7665 12.9692C11.6772 13.6689 11.7971 13.6101 10.4604 13.6096C9.68903 13.6092 9.2743 13.5829 9.2743 13.5343C9.2743 13.4932 9.33986 13.2033 9.42007 12.89C10.468 8.79421 13.7845 5.76753 17.9685 5.08825C18.8087 4.95186 20.8405 4.99202 21.6082 5.16029ZM19.1559 9.44111V10.4487H17.4392C16.3089 10.4487 15.696 10.4222 15.6449 10.3712C15.4496 10.1764 15.8781 9.30206 16.3576 8.91635C16.8067 8.55519 17.2717 8.43852 18.2723 8.43586L19.1559 8.43349V9.44111ZM22.1984 8.67028C22.6814 8.907 23.0042 9.25024 23.2523 9.79104C23.5419 10.4222 23.575 10.4095 21.5824 10.432L19.8771 10.4513V9.43535V8.41938L20.8328 8.44443C21.7052 8.46731 21.8242 8.48696 22.1984 8.67028ZM15.5502 13.4176C15.9054 13.6589 16.0706 13.9242 16.1082 14.314C16.1777 15.0365 15.7221 15.5636 14.9834 15.6151C14.6452 15.6387 14.5339 15.6149 14.3299 15.4753C13.6392 15.0023 13.5175 14.1659 14.0589 13.6133C14.3439 13.3224 14.4855 13.2659 14.9437 13.2602C15.212 13.2569 15.3763 13.2996 15.5502 13.4176ZM24.6151 13.3749C25.2109 13.657 25.4441 14.5321 25.069 15.0782C24.5317 15.8607 23.3959 15.7991 22.9691 14.9643C22.6886 14.4157 22.8958 13.7236 23.4395 13.3928C23.7208 13.2216 24.2737 13.2132 24.6151 13.3749ZM15.6463 19.3061C15.4661 19.3729 14.014 20.4125 13.8863 20.566C13.7607 20.717 13.7813 21.0125 13.9287 21.1751C14.1018 21.3659 14.38 21.3534 14.6936 21.1407L14.9531 20.9647L15.1611 21.1829C15.5383 21.5787 16.2248 22.052 16.8874 22.3732C18.5397 23.1745 20.5963 23.1577 22.2468 22.3295C22.8302 22.0368 23.5258 21.546 23.872 21.1828L24.0803 20.9644L24.3117 21.1406C24.5857 21.3491 24.9288 21.3686 25.0953 21.185C25.2674 20.9952 25.2465 20.6502 25.0523 20.4785C24.8361 20.2872 23.6125 19.4088 23.4166 19.3042C23.1104 19.1407 22.7623 19.3871 22.7623 19.7674C22.7623 19.9562 22.8175 20.0514 23.0214 20.2146L23.2804 20.422L22.7626 20.8337C22.1615 21.3116 21.4183 21.6809 20.7171 21.8504C20.0849 22.0031 18.9628 22.0062 18.3169 21.8571C17.6526 21.7037 16.7689 21.2637 16.2084 20.8071L15.7493 20.4331L16.0101 20.1948C16.1946 20.0262 16.2707 19.8956 16.2707 19.7481C16.2707 19.4288 15.9423 19.1963 15.6463 19.3061Z" fill="#FEA735"/>
</g>
<path d="M66.5046 24.3967C66.5696 24.7542 66.7483 25.0792 67.0409 25.3718C67.3334 25.6643 67.4797 25.8918 67.4797 26.0543V26.1275C67.4797 26.355 67.309 26.4688 66.9677 26.4688H63.2624C62.9211 26.4688 62.7504 26.355 62.7504 26.1275V26.0543C62.7504 25.9243 62.9048 25.7049 63.2136 25.3961C63.5224 25.0874 63.6443 24.7542 63.5793 24.3967L61.6291 13.1587L57.1436 25.8593C56.9974 26.2494 56.7617 26.4444 56.4367 26.4444C56.0629 26.4444 55.8029 26.2575 55.6566 25.8837L50.8786 12.8662L49.0747 24.3967C49.026 24.738 49.1641 25.0711 49.4891 25.3961C49.8304 25.7049 50.0011 25.9243 50.0011 26.0543V26.1275C50.0011 26.355 49.8223 26.4688 49.4648 26.4688H47.0026C46.6451 26.4688 46.4663 26.355 46.4663 26.1275V26.0543C46.4663 25.8918 46.6126 25.6562 46.9051 25.3474C47.2139 25.0386 47.3927 24.7217 47.4414 24.3967L49.6354 11.2329C49.6842 10.8753 49.5541 10.5503 49.2454 10.2578C48.9528 9.949 48.8066 9.7296 48.8066 9.59959V9.52646C48.8066 9.28269 48.9528 9.1608 49.2454 9.1608H53.1701C53.4789 9.1608 53.6333 9.28269 53.6333 9.52646V9.59959C53.6333 9.6971 53.552 9.82711 53.3895 9.98963C53.2433 10.1521 53.1132 10.339 52.9995 10.5503C52.8857 10.7453 52.8776 10.9729 52.9751 11.2329L56.8267 22.4221L60.7515 11.111C60.849 10.786 60.7515 10.4772 60.459 10.1846C60.1664 9.87587 60.0202 9.68085 60.0202 9.59959V9.52646C60.0202 9.28269 60.1664 9.1608 60.459 9.1608H64.4812C64.7738 9.1608 64.92 9.27456 64.92 9.50208V9.57521C64.92 9.70523 64.7575 9.93275 64.4325 10.2578C64.1075 10.5828 63.9856 10.9566 64.0668 11.3791L66.5046 24.3967ZM78.658 14.5726C79.1943 14.5076 79.4625 14.6457 79.4625 14.987V25.2499C79.4625 27.2163 78.9099 28.7277 77.8048 29.7841C76.716 30.8404 75.3021 31.3686 73.5631 31.3686C72.1168 31.3686 70.906 31.0111 69.9309 30.296C68.9721 29.5809 68.4926 28.7684 68.4926 27.8583C68.4926 27.5332 68.5983 27.257 68.8096 27.0294C69.0371 26.8182 69.3377 26.7125 69.7115 26.7125C70.1016 26.7125 70.4266 26.9075 70.6866 27.2976C70.9629 27.6876 71.1742 28.1102 71.3204 28.5652C71.4829 29.0365 71.7836 29.4672 72.2224 29.8572C72.6612 30.2635 73.23 30.4666 73.9288 30.4666C75.7165 30.4666 76.6103 28.8577 76.6103 25.6399V25.0305C75.8465 25.9893 74.7251 26.4688 73.2462 26.4688C71.9624 26.4688 70.8979 26.0056 70.0528 25.0792C69.224 24.1366 68.8096 22.9097 68.8096 21.3983V17.181C68.8096 16.8072 68.6552 16.474 68.3464 16.1815C68.0376 15.8727 67.8832 15.6614 67.8832 15.5477V15.4745C67.8832 15.2308 68.0295 15.0845 68.322 15.0358L70.8816 14.6213C71.4342 14.5401 71.7105 14.662 71.7105 14.987L71.6617 21.6664C71.6617 22.8203 71.8649 23.7141 72.2711 24.3479C72.6774 24.9817 73.2544 25.2986 74.0019 25.2986C74.7495 25.2986 75.3671 25.0061 75.8546 24.421C76.3584 23.8197 76.6103 23.064 76.6103 22.154V17.181C76.6103 16.8072 76.4478 16.474 76.1228 16.1815C75.814 15.8727 75.6596 15.6614 75.6596 15.5477V15.4745C75.6596 15.2308 75.7977 15.0845 76.074 15.0358L78.658 14.5726ZM89.9505 26.4688C89.6092 26.4688 89.4385 26.355 89.4385 26.1275V26.0543C89.4385 25.9081 89.5929 25.6968 89.9017 25.4205C90.2268 25.128 90.3893 24.803 90.3893 24.4454V10.4772H87.7321C87.3421 10.4772 87.0008 10.7047 86.7083 11.1597C86.432 11.6148 86.1882 12.0698 85.977 12.5249C85.7657 12.9799 85.5463 13.2074 85.3188 13.2074H85.0262C84.7012 13.2074 84.5631 13.0206 84.6118 12.6468L85.0506 9.77023C85.0994 9.36394 85.3269 9.1608 85.7332 9.1608H97.9706C98.3769 9.1608 98.6126 9.36394 98.6776 9.77023L99.2139 12.6711C99.2464 12.8337 99.222 12.9637 99.1408 13.0612C99.0595 13.1587 98.9457 13.2074 98.7995 13.2074H98.5069C98.3282 13.2074 98.1413 13.0693 97.9463 12.793C97.7512 12.5005 97.5806 12.1836 97.4343 11.8423C97.2881 11.501 97.0849 11.1922 96.8249 10.916C96.5649 10.6234 96.2805 10.4772 95.9717 10.4772H93.3146V24.4454C93.3146 24.803 93.4771 25.128 93.8021 25.4205C94.1271 25.6968 94.2896 25.9081 94.2896 26.0543V26.1275C94.2896 26.355 94.1109 26.4688 93.7533 26.4688H89.9505ZM109.762 15.6696C109.762 15.7671 109.681 15.889 109.518 16.0352C109.356 16.1652 109.193 16.344 109.031 16.5715C108.868 16.799 108.787 17.0672 108.787 17.376V24.4454C108.787 24.803 108.941 25.128 109.25 25.4205C109.559 25.7131 109.713 25.9243 109.713 26.0543V26.1275C109.713 26.355 109.575 26.4688 109.299 26.4688H106.763C106.455 26.4688 106.3 26.3144 106.3 26.0056V25.0305C105.504 26.1518 104.334 26.7125 102.79 26.7125C101.23 26.7125 99.889 26.1518 98.7677 25.0305C97.6626 23.9091 97.11 22.4302 97.11 20.5938C97.11 18.8224 97.6544 17.3679 98.7433 16.2302C99.8484 15.0926 101.214 14.5238 102.839 14.5238C104.253 14.5238 105.406 15.0358 106.3 16.0596V15.1576C106.3 14.9464 106.382 14.792 106.544 14.6945C106.707 14.597 106.926 14.5807 107.202 14.6457L109.323 15.0845C109.616 15.1658 109.762 15.3364 109.762 15.5964V15.6696ZM103.448 25.7862C104.114 25.7862 104.708 25.5099 105.228 24.9574C105.764 24.4048 106.032 23.6328 106.032 22.6415V18.7411C106.032 17.9285 105.723 17.181 105.106 16.4984C104.488 15.7996 103.765 15.4502 102.936 15.4502C102.026 15.4502 101.295 15.824 100.742 16.5715C100.19 17.3028 99.9053 18.3104 99.889 19.5943C99.8565 21.3007 100.165 22.7553 100.815 23.9579C101.482 25.1605 102.359 25.7699 103.448 25.7862ZM121.218 24.3723C121.38 24.5836 121.592 24.803 121.852 25.0305C122.128 25.2418 122.339 25.4286 122.485 25.5912C122.632 25.7374 122.705 25.8837 122.705 26.03V26.1275C122.705 26.355 122.558 26.4688 122.266 26.4688H118.049C117.772 26.4688 117.634 26.3469 117.634 26.1031V26.03C117.634 25.9162 117.732 25.7781 117.927 25.6155C118.122 25.453 118.244 25.3068 118.292 25.1767C118.357 25.0305 118.26 24.7461 118 24.3235L115.928 21.7395L113.636 24.421C113.376 24.8111 113.271 25.0792 113.319 25.2255C113.368 25.3555 113.49 25.5018 113.685 25.6643C113.88 25.8106 113.978 25.9324 113.978 26.03V26.1031C113.978 26.3469 113.831 26.4688 113.539 26.4688H110.54C110.248 26.4688 110.102 26.355 110.102 26.1275V26.03C110.102 25.8837 110.183 25.7537 110.345 25.6399C110.508 25.5099 110.752 25.3311 111.077 25.1036C111.402 24.8761 111.686 24.6161 111.93 24.3235L115.123 20.6913L112.101 16.9128C111.857 16.5878 111.589 16.3196 111.296 16.1084C111.02 15.8808 110.817 15.7183 110.687 15.6208C110.573 15.507 110.516 15.3689 110.516 15.2064V15.1089C110.516 14.8814 110.654 14.7676 110.93 14.7676H115.099C115.392 14.7676 115.538 14.8895 115.538 15.1333V15.2064C115.538 15.3364 115.465 15.507 115.318 15.7183C115.172 15.9133 115.083 16.084 115.05 16.2302C115.018 16.3603 115.099 16.5959 115.294 16.9372L117.317 19.4724L119.609 16.9372C119.836 16.5959 119.918 16.3521 119.853 16.2059C119.804 16.0596 119.682 15.889 119.487 15.6939C119.308 15.4827 119.219 15.3202 119.219 15.2064V15.1333C119.219 14.8895 119.357 14.7676 119.633 14.7676H122.144C122.42 14.7676 122.558 14.8814 122.558 15.1089V15.2064C122.558 15.3527 122.502 15.4989 122.388 15.6452C122.29 15.7752 122.103 15.9621 121.827 16.2059C121.567 16.4334 121.34 16.669 121.145 16.9128L118.097 20.4475L121.218 24.3723ZM125.594 12.7443C124.993 12.7443 124.505 12.5736 124.132 12.2323C123.758 11.8911 123.571 11.4523 123.571 10.916C123.571 10.3797 123.758 9.94088 124.132 9.59959C124.505 9.25831 124.993 9.08767 125.594 9.08767C126.179 9.08767 126.651 9.25831 127.008 9.59959C127.382 9.94088 127.569 10.3797 127.569 10.916C127.569 11.4523 127.382 11.8911 127.008 12.2323C126.651 12.5736 126.179 12.7443 125.594 12.7443ZM123.79 26.4688C123.449 26.4688 123.278 26.3469 123.278 26.1031V26.0056C123.278 25.8593 123.425 25.648 123.717 25.3718C124.026 25.0955 124.18 24.7786 124.18 24.421V18.0342C124.18 17.6604 124.026 17.311 123.717 16.9859C123.425 16.6609 123.278 16.4496 123.278 16.3521V16.279C123.278 16.149 123.425 16.0027 123.717 15.8402L126.155 14.6213C126.431 14.5076 126.642 14.4994 126.789 14.597C126.951 14.6782 127.032 14.8245 127.032 15.0358V24.421C127.032 24.7786 127.195 25.0955 127.52 25.3718C127.861 25.648 128.032 25.8593 128.032 26.0056V26.1031C128.032 26.3469 127.853 26.4688 127.496 26.4688H123.79Z" fill="#FEA735"/>
<defs>
<clipPath id="clip0_3444_45277">
<rect width="38.9379" height="38.9379" fill="white"/>
</clipPath>
</defs>
</svg>
