<svg width="20" height="21" viewBox="0 0 20 21" fill="none" xmlns="http://www.w3.org/2000/svg">
<path d="M10 2.58667C14.1422 2.58667 17.5 5.94454 17.5 10.0867C17.5 12.6482 16.1034 14.7443 14.632 16.2488C13.8247 17.0741 12.9664 17.7511 12.2348 18.2628L11.8803 18.5047C11.8233 18.5427 11.7673 18.5796 11.7126 18.6152L11.3991 18.815L11.1191 18.986L10.7726 19.1875C10.2899 19.4601 9.71008 19.4601 9.22742 19.1875L8.88094 18.986L8.44805 18.7187C8.39576 18.6854 8.34219 18.6509 8.28743 18.6152L7.94541 18.3872C7.17704 17.8629 6.24255 17.1428 5.36802 16.2488C3.89658 14.7443 2.5 12.6482 2.5 10.0867C2.5 5.94454 5.85787 2.58667 10 2.58667ZM10 7.58667C8.61925 7.58667 7.5 8.70596 7.5 10.0867C7.5 11.4674 8.61925 12.5867 10 12.5867C11.3807 12.5867 12.5 11.4674 12.5 10.0867C12.5 8.70596 11.3807 7.58667 10 7.58667Z" fill="#331D00"/>
</svg>
