<svg width="128" height="39" viewBox="0 0 128 39" fill="none" xmlns="http://www.w3.org/2000/svg">
<g clip-path="url(#clip0_3444_2320)">
<path d="M123.259 38.9228H4.74074C2.08593 38.9228 0 36.8369 0 34.1821V5.73763C0 3.08281 2.08593 0.996887 4.74074 0.996887H123.259C125.914 0.996887 128 3.08281 128 5.73763V34.1821C128 36.8369 125.914 38.9228 123.259 38.9228Z" fill="#131416"/>
<path d="M123.259 1.75541C125.44 1.75541 127.241 3.55689 127.241 5.73763V34.1821C127.241 36.3628 125.44 38.1643 123.259 38.1643H4.74074C2.56 38.1643 0.758519 36.3628 0.758519 34.1821V5.73763C0.758519 3.55689 2.56 1.75541 4.74074 1.75541H123.259ZM123.259 0.996887H4.74074C2.08593 0.996887 0 3.17763 0 5.73763V34.1821C0 36.8369 2.08593 38.9228 4.74074 38.9228H123.259C125.914 38.9228 128 36.8369 128 34.1821V5.73763C128 3.17763 125.914 0.996887 123.259 0.996887Z" fill="#383A41"/>
<path d="M44.9418 10.6682C44.9418 11.4267 44.7522 12.0904 44.2781 12.5645C43.7092 13.1333 43.0455 13.4178 42.1922 13.4178C41.3389 13.4178 40.6751 13.1333 40.1063 12.5645C39.5374 11.9956 39.2529 11.3319 39.2529 10.4785C39.2529 9.6252 39.5374 8.9615 40.1063 8.39261C40.6751 7.82372 41.3389 7.53928 42.1922 7.53928C42.5714 7.53928 42.9507 7.63409 43.33 7.82372C43.7092 8.01335 43.9937 8.20298 44.1833 8.48742L43.7092 8.9615C43.33 8.48742 42.8559 8.29779 42.1922 8.29779C41.6233 8.29779 41.0544 8.48742 40.6752 8.9615C40.2011 9.34076 40.0114 9.90965 40.0114 10.5734C40.0114 11.2371 40.2011 11.8059 40.6752 12.1852C41.1492 12.5645 41.6233 12.8489 42.1922 12.8489C42.8559 12.8489 43.33 12.6593 43.804 12.1852C44.0885 11.9008 44.2781 11.5215 44.2781 11.0474H42.1922V10.2889H44.9418V10.6682ZM49.3033 8.29779H46.7433V10.0993H49.1137V10.763H46.7433V12.5645H49.3033V13.323H45.9848V7.63409H49.3033V8.29779ZM52.4322 13.323H51.6737V8.29779H50.0618V7.63409H54.044V8.29779H52.4322V13.323ZM56.7937 13.323V7.63409H57.5522V13.323H56.7937ZM60.7759 13.323H60.0174V8.29779H58.4055V7.63409H62.2929V8.29779H60.6811V13.323H60.7759ZM69.7833 12.5645C69.2144 13.1333 68.5507 13.4178 67.6974 13.4178C66.844 13.4178 66.1803 13.1333 65.6114 12.5645C65.0426 11.9956 64.7581 11.3319 64.7581 10.4785C64.7581 9.6252 65.0426 8.9615 65.6114 8.39261C66.1803 7.82372 66.844 7.53928 67.6974 7.53928C68.5507 7.53928 69.2144 7.82372 69.7833 8.39261C70.3522 8.9615 70.6366 9.6252 70.6366 10.4785C70.6366 11.3319 70.3522 11.9956 69.7833 12.5645ZM66.1803 12.0904C66.5596 12.4696 67.1285 12.7541 67.6974 12.7541C68.2663 12.7541 68.8351 12.5645 69.2144 12.0904C69.5937 11.7111 69.8781 11.1422 69.8781 10.4785C69.8781 9.81483 69.6885 9.24594 69.2144 8.86668C68.8351 8.48742 68.2663 8.20298 67.6974 8.20298C67.1285 8.20298 66.5596 8.39261 66.1803 8.86668C65.8011 9.24594 65.5166 9.81483 65.5166 10.4785C65.5166 11.1422 65.7063 11.7111 66.1803 12.0904ZM71.6796 13.323V7.63409H72.5329L75.2826 12.0904V7.63409H76.0411V13.323H75.2826L72.3433 8.67705V13.323H71.6796Z" fill="white" stroke="white" stroke-width="0.194211" stroke-miterlimit="10"/>
<path d="M64.5687 21.6667C62.2932 21.6667 60.4917 23.3734 60.4917 25.7437C60.4917 28.0193 62.2932 29.8208 64.5687 29.8208C66.8443 29.8208 68.6458 28.1141 68.6458 25.7437C68.6458 23.2785 66.8443 21.6667 64.5687 21.6667ZM64.5687 28.1141C63.3362 28.1141 62.2932 27.0711 62.2932 25.6489C62.2932 24.2267 63.3362 23.1837 64.5687 23.1837C65.8013 23.1837 66.8443 24.1319 66.8443 25.6489C66.8443 27.0711 65.8013 28.1141 64.5687 28.1141ZM55.751 21.6667C53.4754 21.6667 51.6739 23.3734 51.6739 25.7437C51.6739 28.0193 53.4754 29.8208 55.751 29.8208C58.0265 29.8208 59.828 28.1141 59.828 25.7437C59.828 23.2785 58.0265 21.6667 55.751 21.6667ZM55.751 28.1141C54.5184 28.1141 53.4754 27.0711 53.4754 25.6489C53.4754 24.2267 54.5184 23.1837 55.751 23.1837C56.9836 23.1837 58.0265 24.1319 58.0265 25.6489C58.0265 27.0711 56.9836 28.1141 55.751 28.1141ZM45.2265 22.8993V24.6059H49.3036C49.2088 25.5541 48.8295 26.3126 48.3554 26.7867C47.7865 27.3556 46.8384 28.0193 45.2265 28.0193C42.6665 28.0193 40.7702 26.0282 40.7702 23.4682C40.7702 20.9082 42.7613 18.9171 45.2265 18.9171C46.5539 18.9171 47.5969 19.4859 48.3554 20.1496L49.588 18.9171C48.545 17.9689 47.2176 17.2104 45.3213 17.2104C41.908 17.2104 38.9688 20.0548 38.9688 23.4682C38.9688 26.8815 41.908 29.7259 45.3213 29.7259C47.2176 29.7259 48.545 29.1571 49.6828 27.9245C50.8206 26.7867 51.1999 25.1748 51.1999 23.9422C51.1999 23.563 51.1999 23.1837 51.105 22.8993H45.2265ZM88.2724 24.2267C87.8932 23.2785 86.945 21.6667 84.8591 21.6667C82.7732 21.6667 81.0665 23.2785 81.0665 25.7437C81.0665 28.0193 82.7732 29.8208 85.0487 29.8208C86.8502 29.8208 87.988 28.683 88.3673 28.0193L87.0399 27.0711C86.5658 27.7348 85.9969 28.2089 85.0487 28.2089C84.1006 28.2089 83.5317 27.8296 83.0576 26.9763L88.4621 24.7008L88.2724 24.2267ZM82.7732 25.5541C82.7732 24.0371 84.0058 23.1837 84.8591 23.1837C85.5228 23.1837 86.1865 23.563 86.3762 24.0371L82.7732 25.5541ZM78.3169 29.4415H80.1184V17.5896H78.3169V29.4415ZM75.4725 22.52C74.9984 22.0459 74.2399 21.5719 73.2917 21.5719C71.3006 21.5719 69.4043 23.3733 69.4043 25.6489C69.4043 27.9245 71.2058 29.6311 73.2917 29.6311C74.2399 29.6311 74.9984 29.1571 75.3776 28.683H75.4725V29.2519C75.4725 30.7689 74.6191 31.6222 73.2917 31.6222C72.2488 31.6222 71.4902 30.8637 71.3006 30.2L69.7836 30.8637C70.2576 31.9067 71.3954 33.2341 73.3865 33.2341C75.4725 33.2341 77.1791 32.0015 77.1791 29.0622V21.8563H75.4725V22.52ZM73.3865 28.1141C72.1539 28.1141 71.111 27.0711 71.111 25.6489C71.111 24.2267 72.1539 23.1837 73.3865 23.1837C74.6191 23.1837 75.5673 24.2267 75.5673 25.6489C75.5673 27.0711 74.6191 28.1141 73.3865 28.1141ZM96.5213 17.5896H92.2547V29.4415H94.0562V24.9852H96.5213C98.5125 24.9852 100.409 23.563 100.409 21.2874C100.409 19.0119 98.5125 17.5896 96.5213 17.5896ZM96.6162 23.2785H94.0562V19.2015H96.6162C97.9436 19.2015 98.7021 20.3393 98.7021 21.1926C98.6073 22.2356 97.8487 23.2785 96.6162 23.2785ZM107.52 21.5719C106.192 21.5719 104.865 22.1408 104.391 23.3734L106.003 24.0371C106.382 23.3733 106.951 23.1837 107.615 23.1837C108.563 23.1837 109.416 23.7526 109.511 24.7008V24.7956C109.227 24.6059 108.468 24.3215 107.709 24.3215C106.003 24.3215 104.296 25.2696 104.296 26.9763C104.296 28.5882 105.718 29.6311 107.235 29.6311C108.468 29.6311 109.037 29.0622 109.511 28.4933H109.606V29.4415H111.312V24.8904C111.123 22.8045 109.511 21.5719 107.52 21.5719ZM107.33 28.1141C106.761 28.1141 105.908 27.8296 105.908 27.0711C105.908 26.123 106.951 25.8385 107.804 25.8385C108.563 25.8385 108.942 26.0282 109.416 26.2178C109.227 27.3556 108.278 28.1141 107.33 28.1141ZM117.286 21.8563L115.295 26.9763H115.2L113.114 21.8563H111.218L114.347 29.0622L112.545 33.0445H114.347L119.182 21.8563H117.286ZM101.357 29.4415H103.158V17.5896H101.357V29.4415Z" fill="white"/>
<path d="M9.8607 8.10815C9.57626 8.3926 9.48145 8.86667 9.48145 9.43556V30.3896C9.48145 30.9585 9.67107 31.4326 9.95552 31.717L10.0503 31.8119L21.8074 20.0548V19.8652L9.8607 8.10815Z" fill="url(#paint0_linear_3444_2320)"/>
<path d="M25.6003 24.037L21.7129 20.1496V19.8652L25.6003 15.9778L25.6951 16.0726L30.341 18.7274C31.6684 19.4859 31.6684 20.7185 30.341 21.477L25.6003 24.037Z" fill="url(#paint1_linear_3444_2320)"/>
<path d="M25.6944 23.9422L21.7122 19.96L9.86035 31.8119C10.3344 32.2859 10.9981 32.2859 11.8515 31.9067L25.6944 23.9422Z" fill="url(#paint2_linear_3444_2320)"/>
<path d="M25.6944 15.9778L11.8515 8.10816C10.9981 7.63408 10.3344 7.7289 9.86035 8.20297L21.7122 19.96L25.6944 15.9778Z" fill="url(#paint3_linear_3444_2320)"/>
<path opacity="0.2" d="M25.5996 23.8474L11.8515 31.6222C11.0929 32.0963 10.4292 32.0015 9.95517 31.6222L9.86035 31.717L9.95517 31.8119C10.4292 32.1911 11.0929 32.2859 11.8515 31.8119L25.5996 23.8474Z" fill="#131416"/>
<path opacity="0.12" d="M9.8607 31.6222C9.57626 31.3378 9.48145 30.8637 9.48145 30.2948V30.3896C9.48145 30.9585 9.67107 31.4326 9.95552 31.717V31.6222H9.8607ZM30.3407 21.1926L25.6 23.8474L25.6948 23.9422L30.3407 21.2874C31.0044 20.9082 31.2889 20.4341 31.2889 19.96C31.2889 20.4341 30.9096 20.8133 30.3407 21.1926Z" fill="#131416"/>
<path opacity="0.25" d="M11.8518 8.20298L30.3407 18.7274C30.9096 19.1067 31.2889 19.4859 31.2889 19.96C31.2889 19.4859 31.0044 19.0119 30.3407 18.6326L11.8518 8.10817C10.5244 7.34965 9.48145 7.91854 9.48145 9.43557V9.53039C9.48145 8.10817 10.5244 7.44446 11.8518 8.20298Z" fill="white"/>
</g>
<defs>
<linearGradient id="paint0_linear_3444_2320" x1="20.6696" y1="9.25541" x2="4.75682" y2="25.1672" gradientUnits="userSpaceOnUse">
<stop stop-color="#00A0FF"/>
<stop offset="0.007" stop-color="#00A1FF"/>
<stop offset="0.26" stop-color="#00BEFF"/>
<stop offset="0.512" stop-color="#00D2FF"/>
<stop offset="0.76" stop-color="#00DFFF"/>
<stop offset="1" stop-color="#00E3FF"/>
</linearGradient>
<linearGradient id="paint1_linear_3444_2320" x1="32.0799" y1="19.961" x2="9.1376" y2="19.961" gradientUnits="userSpaceOnUse">
<stop stop-color="#FFE000"/>
<stop offset="0.409" stop-color="#FFBD00"/>
<stop offset="0.775" stop-color="#FFA500"/>
<stop offset="1" stop-color="#FF9C00"/>
</linearGradient>
<linearGradient id="paint2_linear_3444_2320" x1="23.5393" y1="22.137" x2="1.96133" y2="43.7149" gradientUnits="userSpaceOnUse">
<stop stop-color="#FF3A44"/>
<stop offset="1" stop-color="#C31162"/>
</linearGradient>
<linearGradient id="paint3_linear_3444_2320" x1="6.91825" y1="1.16392" x2="16.5543" y2="10.8" gradientUnits="userSpaceOnUse">
<stop stop-color="#32A071"/>
<stop offset="0.069" stop-color="#2DA771"/>
<stop offset="0.476" stop-color="#15CF74"/>
<stop offset="0.801" stop-color="#06E775"/>
<stop offset="1" stop-color="#00F076"/>
</linearGradient>
<clipPath id="clip0_3444_2320">
<rect width="128" height="38.08" fill="white" transform="translate(0 0.920013)"/>
</clipPath>
</defs>
</svg>
