<svg width="829" height="174" viewBox="0 0 829 174" fill="none" xmlns="http://www.w3.org/2000/svg">
<path fill-rule="evenodd" clip-rule="evenodd" d="M79.4558 3.96232C65.4067 5.74862 51.4736 12.5686 41.3462 22.6165C27.3807 36.4723 20.6617 54.9286 22.2018 75.2044C23.3944 90.9076 27.9782 101.898 39.8872 117.609C47.358 127.465 56.3527 137.656 76.3503 158.922C81.0828 163.955 85.6147 168.785 86.4209 169.655L87.8865 171.236L90.3421 168.705C99.0418 159.737 116.761 140.566 124.036 132.249C138.639 115.556 146.774 103.31 150.322 92.6833C150.883 91.0028 151.41 89.4472 151.492 89.2259C151.609 88.9094 149.408 88.8242 141.152 88.8261L130.663 88.828L129.463 91.0141C123.231 102.369 112.096 110.98 99.695 114.033C95.0827 115.169 92.4317 115.505 88.0346 115.51C70.3982 115.531 54.2157 105.753 46.1067 90.1763C44.6687 87.4142 42.3269 81.1206 42.3269 80.0188C42.3269 79.5392 46.8279 79.4968 97.7312 79.4968H153.135L153.345 78.2663C154.146 73.5628 154.066 63.6691 153.185 58.4305C151.673 49.436 147.854 39.8204 142.935 32.6202C132.165 16.8539 115.897 6.73504 97.0478 4.0765C93.3507 3.55515 83.177 3.48889 79.4558 3.96232ZM97.1114 23.059C115.265 27.014 129.044 39.9198 133.574 57.2118C134.016 58.9004 134.306 60.3962 134.219 60.5365C134.066 60.7822 122.721 60.9678 122.721 60.7246C122.721 60.659 122.497 59.3304 122.223 57.7721C121.356 52.84 119.95 51.377 115.14 50.4021C113.735 50.1172 112.318 49.7428 111.993 49.5698C110.906 48.9928 109.824 47.1926 109.439 45.3202C108.87 42.5523 107.062 39.2244 105.281 37.6662C102.357 35.108 99.4956 34.0881 95.2714 34.1C92.29 34.1081 92.1963 34.0469 91.793 31.83C91.4604 30.0003 90.3579 29.3236 87.7105 29.3236C84.8669 29.3236 84.0065 29.9405 83.5047 32.3382L83.1458 34.0534L80.0059 34.1077C75.1184 34.1926 72.3264 35.2292 69.5415 37.992C67.6366 39.8818 66.456 42.1293 65.7675 45.1761C65.0631 48.2916 63.7544 49.663 60.9627 50.2111C55.1591 51.3506 53.5262 52.9146 52.8795 57.9545C52.4782 61.081 53.017 60.8185 47.0095 60.8159C43.5425 60.8143 41.6785 60.6969 41.6785 60.4795C41.6785 60.2959 41.9732 59.0004 42.3337 57.6004C47.0435 39.2978 61.9488 25.7725 80.7532 22.7371C84.5294 22.1276 93.6609 22.3071 97.1114 23.059ZM86.0896 42.1885V46.6912H78.3744C73.2944 46.6912 70.5399 46.5729 70.3101 46.3448C69.4325 45.4742 71.3581 41.5671 73.5135 39.8436C75.5318 38.2297 77.6217 37.7083 82.1186 37.6964L86.0896 37.6858V42.1885ZM99.7637 38.7439C101.935 39.8017 103.385 41.3356 104.5 43.7522C105.802 46.5726 105.951 46.5159 96.9953 46.6166L89.3313 46.7028V42.1628V37.6227L93.6265 37.7347C97.5474 37.837 98.0822 37.9248 99.7637 38.7439ZM69.8844 59.9582C71.481 61.0363 72.2233 62.2221 72.3922 63.9637C72.7047 67.1924 70.6573 69.5477 67.3371 69.778C65.8171 69.8835 65.3169 69.777 64.4001 69.1531C61.2959 67.0397 60.7487 63.3021 63.1819 60.8327C64.463 59.5327 65.0994 59.2802 67.1588 59.2548C68.3647 59.24 69.1032 59.4307 69.8844 59.9582ZM110.625 59.7671C113.303 61.0279 114.351 64.9382 112.665 67.3787C110.25 70.8757 105.146 70.6004 103.227 66.8695C101.967 64.4185 102.898 61.3254 105.342 59.8472C106.606 59.0824 109.091 59.0448 110.625 59.7671ZM70.3165 86.2718C69.5068 86.5702 62.9803 91.2158 62.4065 91.9018C61.8418 92.5765 61.9345 93.8971 62.5971 94.6237C63.3748 95.4763 64.6251 95.4203 66.0346 94.4699L67.201 93.6836L68.1359 94.6587C69.8313 96.4273 72.9164 98.5423 75.8942 99.9777C83.3206 103.558 92.5636 103.483 99.9812 99.7825C102.603 98.4745 105.729 96.2813 107.286 94.6581L108.222 93.6823L109.262 94.4693C110.493 95.4014 112.035 95.4885 112.783 94.6681C113.557 93.8196 113.463 92.2781 112.59 91.5107C111.619 90.6561 106.119 86.7307 105.239 86.2634C103.863 85.5327 102.298 86.6339 102.298 88.333C102.298 89.1767 102.546 89.6022 103.462 90.3316L104.627 91.2582L102.3 93.0979C99.5981 95.2335 96.2578 96.884 93.1063 97.6411C90.2652 98.3236 85.2218 98.3378 82.3189 97.6714C79.3333 96.986 75.3619 95.0196 72.8428 92.9792L70.7795 91.3081L71.9513 90.2432C72.7805 89.4896 73.1229 88.9062 73.1229 88.2469C73.1229 86.8201 71.6466 85.781 70.3165 86.2718Z" fill="#FEA735"/>
<path d="M214.585 20.7273H237.341L261.375 79.3636H262.398L286.432 20.7273H309.188V108H291.29V51.196H290.565L267.98 107.574H255.793L233.207 50.983H232.483V108H214.585V20.7273ZM332.856 132.545C330.555 132.545 328.396 132.361 326.379 131.991C324.39 131.651 322.743 131.21 321.436 130.67L325.527 117.119C327.658 117.773 329.575 118.128 331.28 118.185C333.013 118.241 334.504 117.844 335.754 116.991C337.033 116.139 338.069 114.69 338.865 112.645L339.93 109.875L316.45 42.5455H335.541L349.092 90.6136H349.774L363.453 42.5455H382.672L357.231 115.074C356.01 118.597 354.348 121.665 352.246 124.278C350.172 126.92 347.544 128.952 344.362 130.372C341.18 131.821 337.345 132.545 332.856 132.545ZM411.952 35.9403V20.7273H483.628V35.9403H456.909V108H438.671V35.9403H411.952ZM502.45 109.236C498.274 109.236 494.552 108.511 491.285 107.062C488.018 105.585 485.433 103.412 483.529 100.543C481.654 97.6449 480.717 94.0369 480.717 89.7188C480.717 86.0824 481.384 83.0284 482.72 80.5568C484.055 78.0852 485.873 76.0966 488.174 74.5909C490.475 73.0852 493.089 71.9489 496.015 71.1818C498.97 70.4148 502.066 69.875 505.305 69.5625C509.112 69.1648 512.18 68.7955 514.509 68.4545C516.839 68.0852 518.529 67.5455 519.58 66.8352C520.632 66.125 521.157 65.0739 521.157 63.6818V63.4261C521.157 60.7273 520.305 58.6392 518.6 57.1619C516.924 55.6847 514.538 54.946 511.441 54.946C508.174 54.946 505.575 55.6705 503.643 57.1193C501.711 58.5398 500.433 60.3295 499.808 62.4886L483.018 61.125C483.87 57.1477 485.546 53.7102 488.046 50.8125C490.546 47.8864 493.771 45.642 497.72 44.0795C501.697 42.4886 506.299 41.6932 511.526 41.6932C515.163 41.6932 518.643 42.1193 521.967 42.9716C525.319 43.8239 528.288 45.1449 530.873 46.9347C533.487 48.7244 535.546 51.0256 537.052 53.8381C538.558 56.6222 539.311 59.9602 539.311 63.8523V108H522.095V98.9233H521.583C520.532 100.969 519.126 102.773 517.364 104.335C515.603 105.869 513.487 107.077 511.015 107.957C508.543 108.81 505.688 109.236 502.45 109.236ZM507.649 96.7074C510.319 96.7074 512.677 96.1818 514.722 95.1307C516.768 94.0511 518.373 92.6023 519.538 90.7841C520.703 88.9659 521.285 86.9062 521.285 84.6051V77.6591C520.717 78.0284 519.936 78.3693 518.941 78.6818C517.975 78.9659 516.882 79.2358 515.66 79.4915C514.438 79.7187 513.217 79.9318 511.995 80.1307C510.774 80.3011 509.666 80.4574 508.671 80.5994C506.541 80.9119 504.68 81.4091 503.089 82.0909C501.498 82.7727 500.262 83.696 499.382 84.8608C498.501 85.9972 498.061 87.4176 498.061 89.1222C498.061 91.5938 498.955 93.483 500.745 94.7898C502.563 96.0682 504.864 96.7074 507.649 96.7074ZM566.165 42.5455L578.182 65.429L590.497 42.5455H609.119L590.156 75.2727L609.631 108H591.094L578.182 85.3722L565.483 108H546.733L566.165 75.2727L547.415 42.5455H566.165ZM617.501 108V42.5455H635.654V108H617.501ZM626.62 34.108C623.921 34.108 621.606 33.2131 619.674 31.4233C617.77 29.6051 616.819 27.4318 616.819 24.9034C616.819 22.4034 617.77 20.2585 619.674 18.4688C621.606 16.6506 623.921 15.7415 626.62 15.7415C629.319 15.7415 631.62 16.6506 633.523 18.4688C635.455 20.2585 636.421 22.4034 636.421 24.9034C636.421 27.4318 635.455 29.6051 633.523 31.4233C631.62 33.2131 629.319 34.108 626.62 34.108ZM689.277 20.7273L710.371 87.0341H711.181L732.317 20.7273H752.772L722.686 108H698.908L668.78 20.7273H689.277ZM760.365 108V94.7045L791.43 65.9403C794.072 63.3835 796.288 61.0824 798.078 59.0369C799.896 56.9915 801.274 54.9886 802.211 53.0284C803.149 51.0398 803.617 48.8949 803.617 46.5938C803.617 44.0369 803.035 41.8352 801.87 39.9886C800.705 38.1136 799.115 36.679 797.097 35.6847C795.08 34.6619 792.793 34.1506 790.237 34.1506C787.566 34.1506 785.237 34.6903 783.248 35.7699C781.259 36.8494 779.725 38.3977 778.646 40.4148C777.566 42.4318 777.026 44.8324 777.026 47.6165H759.512C759.512 41.9062 760.805 36.9489 763.39 32.7443C765.975 28.5398 769.597 25.2869 774.257 22.9858C778.916 20.6847 784.285 19.5341 790.365 19.5341C796.615 19.5341 802.055 20.642 806.686 22.858C811.345 25.0455 814.967 28.0852 817.552 31.9773C820.137 35.8693 821.43 40.3295 821.43 45.358C821.43 48.6534 820.776 51.9062 819.47 55.1165C818.191 58.3267 815.904 61.892 812.609 65.8125C809.313 69.7045 804.668 74.3778 798.674 79.8324L785.933 92.3182V92.9148H822.58V108H760.365Z" fill="#FEA735"/>
<path d="M257.365 141.727H260.592L267.047 152.591H267.32L273.774 141.727H277.001L268.592 155.409V165H265.774V155.409L257.365 141.727ZM284.905 165.364C283.329 165.364 281.946 164.989 280.757 164.239C279.575 163.489 278.651 162.439 277.984 161.091C277.325 159.742 276.996 158.167 276.996 156.364C276.996 154.545 277.325 152.958 277.984 151.602C278.651 150.246 279.575 149.193 280.757 148.443C281.946 147.693 283.329 147.318 284.905 147.318C286.481 147.318 287.859 147.693 289.041 148.443C290.231 149.193 291.155 150.246 291.814 151.602C292.481 152.958 292.814 154.545 292.814 156.364C292.814 158.167 292.481 159.742 291.814 161.091C291.155 162.439 290.231 163.489 289.041 164.239C287.859 164.989 286.481 165.364 284.905 165.364ZM284.905 162.955C286.102 162.955 287.087 162.648 287.859 162.034C288.632 161.42 289.204 160.614 289.575 159.614C289.946 158.614 290.132 157.53 290.132 156.364C290.132 155.197 289.946 154.11 289.575 153.102C289.204 152.095 288.632 151.28 287.859 150.659C287.087 150.038 286.102 149.727 284.905 149.727C283.708 149.727 282.723 150.038 281.95 150.659C281.178 151.28 280.606 152.095 280.234 153.102C279.863 154.11 279.678 155.197 279.678 156.364C279.678 157.53 279.863 158.614 280.234 159.614C280.606 160.614 281.178 161.42 281.95 162.034C282.723 162.648 283.708 162.955 284.905 162.955ZM307.908 157.864V147.545H310.589V165H307.908V162.045H307.726C307.317 162.932 306.68 163.686 305.817 164.307C304.953 164.92 303.862 165.227 302.544 165.227C301.453 165.227 300.483 164.989 299.635 164.511C298.786 164.027 298.12 163.299 297.635 162.33C297.15 161.352 296.908 160.121 296.908 158.636V147.545H299.589V158.455C299.589 159.727 299.946 160.742 300.658 161.5C301.377 162.258 302.294 162.636 303.408 162.636C304.074 162.636 304.752 162.466 305.442 162.125C306.139 161.784 306.722 161.261 307.192 160.557C307.669 159.852 307.908 158.955 307.908 157.864ZM315.501 165V147.545H318.092V150.182H318.274C318.592 149.318 319.168 148.617 320.001 148.08C320.835 147.542 321.774 147.273 322.82 147.273C323.017 147.273 323.263 147.277 323.558 147.284C323.854 147.292 324.077 147.303 324.229 147.318V150.045C324.138 150.023 323.929 149.989 323.604 149.943C323.286 149.89 322.948 149.864 322.592 149.864C321.744 149.864 320.986 150.042 320.32 150.398C319.661 150.746 319.138 151.231 318.751 151.852C318.373 152.466 318.183 153.167 318.183 153.955V165H315.501ZM336.771 165V141.727H350.726V144.227H339.589V152.091H349.68V154.591H339.589V165H336.771ZM360.325 165.409C359.219 165.409 358.215 165.201 357.314 164.784C356.412 164.36 355.696 163.75 355.166 162.955C354.636 162.152 354.371 161.182 354.371 160.045C354.371 159.045 354.568 158.235 354.962 157.614C355.356 156.985 355.882 156.492 356.541 156.136C357.2 155.78 357.928 155.515 358.723 155.341C359.526 155.159 360.333 155.015 361.143 154.909C362.204 154.773 363.064 154.67 363.723 154.602C364.39 154.527 364.875 154.402 365.178 154.227C365.488 154.053 365.643 153.75 365.643 153.318V153.227C365.643 152.106 365.337 151.235 364.723 150.614C364.117 149.992 363.196 149.682 361.962 149.682C360.681 149.682 359.678 149.962 358.95 150.523C358.223 151.083 357.712 151.682 357.416 152.318L354.871 151.409C355.325 150.348 355.931 149.523 356.689 148.932C357.454 148.333 358.287 147.917 359.189 147.682C360.098 147.439 360.992 147.318 361.871 147.318C362.431 147.318 363.075 147.386 363.803 147.523C364.537 147.652 365.246 147.92 365.928 148.33C366.617 148.739 367.189 149.356 367.643 150.182C368.098 151.008 368.325 152.114 368.325 153.5V165H365.643V162.636H365.507C365.325 163.015 365.022 163.42 364.598 163.852C364.174 164.284 363.609 164.652 362.905 164.955C362.2 165.258 361.34 165.409 360.325 165.409ZM360.734 163C361.795 163 362.689 162.792 363.416 162.375C364.151 161.958 364.704 161.42 365.075 160.761C365.454 160.102 365.643 159.409 365.643 158.682V156.227C365.53 156.364 365.28 156.489 364.893 156.602C364.515 156.708 364.075 156.803 363.575 156.886C363.083 156.962 362.602 157.03 362.132 157.091C361.67 157.144 361.295 157.189 361.007 157.227C360.31 157.318 359.659 157.466 359.053 157.67C358.454 157.867 357.969 158.167 357.598 158.568C357.234 158.962 357.053 159.5 357.053 160.182C357.053 161.114 357.397 161.818 358.087 162.295C358.784 162.765 359.666 163 360.734 163ZM385.584 151.455L383.175 152.136C383.023 151.735 382.8 151.345 382.504 150.966C382.216 150.58 381.822 150.261 381.322 150.011C380.822 149.761 380.182 149.636 379.402 149.636C378.334 149.636 377.444 149.883 376.732 150.375C376.027 150.86 375.675 151.477 375.675 152.227C375.675 152.894 375.917 153.42 376.402 153.807C376.887 154.193 377.644 154.515 378.675 154.773L381.266 155.409C382.826 155.788 383.989 156.367 384.754 157.148C385.519 157.92 385.902 158.917 385.902 160.136C385.902 161.136 385.614 162.03 385.038 162.818C384.47 163.606 383.675 164.227 382.652 164.682C381.629 165.136 380.44 165.364 379.084 165.364C377.304 165.364 375.83 164.977 374.663 164.205C373.497 163.432 372.758 162.303 372.447 160.818L374.993 160.182C375.235 161.121 375.694 161.826 376.368 162.295C377.05 162.765 377.94 163 379.038 163C380.288 163 381.281 162.735 382.016 162.205C382.758 161.667 383.129 161.023 383.129 160.273C383.129 159.667 382.917 159.159 382.493 158.75C382.069 158.333 381.417 158.023 380.538 157.818L377.629 157.136C376.031 156.758 374.857 156.17 374.107 155.375C373.364 154.572 372.993 153.568 372.993 152.364C372.993 151.379 373.269 150.508 373.822 149.75C374.383 148.992 375.144 148.398 376.107 147.966C377.076 147.534 378.175 147.318 379.402 147.318C381.129 147.318 382.485 147.697 383.47 148.455C384.463 149.212 385.167 150.212 385.584 151.455ZM397.53 147.545V149.818H388.484V147.545H397.53ZM391.121 143.364H393.803V160C393.803 160.758 393.912 161.326 394.132 161.705C394.359 162.076 394.647 162.326 394.996 162.455C395.352 162.576 395.727 162.636 396.121 162.636C396.416 162.636 396.659 162.621 396.848 162.591C397.037 162.553 397.189 162.523 397.303 162.5L397.848 164.909C397.666 164.977 397.412 165.045 397.087 165.114C396.761 165.189 396.348 165.227 395.848 165.227C395.09 165.227 394.348 165.064 393.621 164.739C392.901 164.413 392.303 163.917 391.825 163.25C391.356 162.583 391.121 161.742 391.121 160.727V143.364ZM409.655 144.227V141.727H427.109V144.227H419.791V165H416.973V144.227H409.655ZM429.283 165V147.545H431.874V150.182H432.055C432.374 149.318 432.949 148.617 433.783 148.08C434.616 147.542 435.555 147.273 436.601 147.273C436.798 147.273 437.044 147.277 437.339 147.284C437.635 147.292 437.858 147.303 438.01 147.318V150.045C437.919 150.023 437.711 149.989 437.385 149.943C437.067 149.89 436.73 149.864 436.374 149.864C435.525 149.864 434.768 150.042 434.101 150.398C433.442 150.746 432.919 151.231 432.533 151.852C432.154 152.466 431.964 153.167 431.964 153.955V165H429.283ZM446.325 165.409C445.219 165.409 444.215 165.201 443.314 164.784C442.412 164.36 441.696 163.75 441.166 162.955C440.636 162.152 440.371 161.182 440.371 160.045C440.371 159.045 440.568 158.235 440.962 157.614C441.356 156.985 441.882 156.492 442.541 156.136C443.2 155.78 443.928 155.515 444.723 155.341C445.526 155.159 446.333 155.015 447.143 154.909C448.204 154.773 449.064 154.67 449.723 154.602C450.39 154.527 450.875 154.402 451.178 154.227C451.488 154.053 451.643 153.75 451.643 153.318V153.227C451.643 152.106 451.337 151.235 450.723 150.614C450.117 149.992 449.196 149.682 447.962 149.682C446.681 149.682 445.678 149.962 444.95 150.523C444.223 151.083 443.712 151.682 443.416 152.318L440.871 151.409C441.325 150.348 441.931 149.523 442.689 148.932C443.454 148.333 444.287 147.917 445.189 147.682C446.098 147.439 446.992 147.318 447.871 147.318C448.431 147.318 449.075 147.386 449.803 147.523C450.537 147.652 451.246 147.92 451.928 148.33C452.617 148.739 453.189 149.356 453.643 150.182C454.098 151.008 454.325 152.114 454.325 153.5V165H451.643V162.636H451.507C451.325 163.015 451.022 163.42 450.598 163.852C450.174 164.284 449.609 164.652 448.905 164.955C448.2 165.258 447.34 165.409 446.325 165.409ZM446.734 163C447.795 163 448.689 162.792 449.416 162.375C450.151 161.958 450.704 161.42 451.075 160.761C451.454 160.102 451.643 159.409 451.643 158.682V156.227C451.53 156.364 451.28 156.489 450.893 156.602C450.515 156.708 450.075 156.803 449.575 156.886C449.083 156.962 448.602 157.03 448.132 157.091C447.67 157.144 447.295 157.189 447.007 157.227C446.31 157.318 445.659 157.466 445.053 157.67C444.454 157.867 443.969 158.167 443.598 158.568C443.234 158.962 443.053 159.5 443.053 160.182C443.053 161.114 443.397 161.818 444.087 162.295C444.784 162.765 445.666 163 446.734 163ZM466.311 165.364C464.675 165.364 463.266 164.977 462.084 164.205C460.902 163.432 459.993 162.367 459.357 161.011C458.72 159.655 458.402 158.106 458.402 156.364C458.402 154.591 458.728 153.027 459.379 151.67C460.038 150.307 460.955 149.242 462.129 148.477C463.311 147.705 464.69 147.318 466.266 147.318C467.493 147.318 468.599 147.545 469.584 148C470.569 148.455 471.375 149.091 472.004 149.909C472.633 150.727 473.023 151.682 473.175 152.773H470.493C470.288 151.977 469.834 151.273 469.129 150.659C468.432 150.038 467.493 149.727 466.311 149.727C465.266 149.727 464.349 150 463.561 150.545C462.781 151.083 462.171 151.845 461.732 152.83C461.3 153.807 461.084 154.955 461.084 156.273C461.084 157.621 461.296 158.795 461.72 159.795C462.152 160.795 462.758 161.572 463.538 162.125C464.326 162.678 465.25 162.955 466.311 162.955C467.008 162.955 467.641 162.833 468.209 162.591C468.777 162.348 469.258 162 469.652 161.545C470.046 161.091 470.326 160.545 470.493 159.909H473.175C473.023 160.939 472.648 161.867 472.05 162.693C471.459 163.511 470.675 164.163 469.697 164.648C468.728 165.125 467.599 165.364 466.311 165.364ZM479.595 158.636L479.55 155.318H480.095L487.732 147.545H491.05L482.913 155.773H482.686L479.595 158.636ZM477.095 165V141.727H479.777V165H477.095ZM488.186 165L481.368 156.364L483.277 154.5L491.595 165H488.186ZM511.092 147.545V149.818H502.047V147.545H511.092ZM504.683 143.364H507.365V160C507.365 160.758 507.475 161.326 507.695 161.705C507.922 162.076 508.21 162.326 508.558 162.455C508.914 162.576 509.289 162.636 509.683 162.636C509.979 162.636 510.221 162.621 510.411 162.591C510.6 162.553 510.751 162.523 510.865 162.5L511.411 164.909C511.229 164.977 510.975 165.045 510.649 165.114C510.323 165.189 509.911 165.227 509.411 165.227C508.653 165.227 507.911 165.064 507.183 164.739C506.464 164.413 505.865 163.917 505.388 163.25C504.918 162.583 504.683 161.742 504.683 160.727V143.364ZM522.03 165.364C520.454 165.364 519.071 164.989 517.882 164.239C516.7 163.489 515.776 162.439 515.109 161.091C514.45 159.742 514.121 158.167 514.121 156.364C514.121 154.545 514.45 152.958 515.109 151.602C515.776 150.246 516.7 149.193 517.882 148.443C519.071 147.693 520.454 147.318 522.03 147.318C523.606 147.318 524.984 147.693 526.166 148.443C527.356 149.193 528.28 150.246 528.939 151.602C529.606 152.958 529.939 154.545 529.939 156.364C529.939 158.167 529.606 159.742 528.939 161.091C528.28 162.439 527.356 163.489 526.166 164.239C524.984 164.989 523.606 165.364 522.03 165.364ZM522.03 162.955C523.227 162.955 524.212 162.648 524.984 162.034C525.757 161.42 526.329 160.614 526.7 159.614C527.071 158.614 527.257 157.53 527.257 156.364C527.257 155.197 527.071 154.11 526.7 153.102C526.329 152.095 525.757 151.28 524.984 150.659C524.212 150.038 523.227 149.727 522.03 149.727C520.833 149.727 519.848 150.038 519.075 150.659C518.303 151.28 517.731 152.095 517.359 153.102C516.988 154.11 516.803 155.197 516.803 156.364C516.803 157.53 516.988 158.614 517.359 159.614C517.731 160.614 518.303 161.42 519.075 162.034C519.848 162.648 520.833 162.955 522.03 162.955ZM562.124 149H559.305C559.139 148.189 558.847 147.477 558.43 146.864C558.021 146.25 557.521 145.735 556.93 145.318C556.347 144.894 555.699 144.576 554.987 144.364C554.275 144.152 553.533 144.045 552.76 144.045C551.351 144.045 550.074 144.402 548.93 145.114C547.794 145.826 546.889 146.875 546.214 148.261C545.548 149.648 545.214 151.348 545.214 153.364C545.214 155.379 545.548 157.08 546.214 158.466C546.889 159.852 547.794 160.902 548.93 161.614C550.074 162.326 551.351 162.682 552.76 162.682C553.533 162.682 554.275 162.576 554.987 162.364C555.699 162.152 556.347 161.837 556.93 161.42C557.521 160.996 558.021 160.477 558.43 159.864C558.847 159.242 559.139 158.53 559.305 157.727H562.124C561.911 158.917 561.525 159.981 560.964 160.92C560.404 161.86 559.707 162.659 558.874 163.318C558.04 163.97 557.105 164.466 556.067 164.807C555.036 165.148 553.934 165.318 552.76 165.318C550.775 165.318 549.01 164.833 547.464 163.864C545.919 162.894 544.703 161.515 543.817 159.727C542.93 157.939 542.487 155.818 542.487 153.364C542.487 150.909 542.93 148.788 543.817 147C544.703 145.212 545.919 143.833 547.464 142.864C549.01 141.894 550.775 141.409 552.76 141.409C553.934 141.409 555.036 141.58 556.067 141.92C557.105 142.261 558.04 142.761 558.874 143.42C559.707 144.072 560.404 144.867 560.964 145.807C561.525 146.739 561.911 147.803 562.124 149ZM566.314 165V147.545H568.996V165H566.314ZM567.678 144.636C567.155 144.636 566.704 144.458 566.325 144.102C565.954 143.746 565.768 143.318 565.768 142.818C565.768 142.318 565.954 141.89 566.325 141.534C566.704 141.178 567.155 141 567.678 141C568.2 141 568.647 141.178 569.018 141.534C569.397 141.89 569.587 142.318 569.587 142.818C569.587 143.318 569.397 143.746 569.018 144.102C568.647 144.458 568.2 144.636 567.678 144.636ZM581.499 147.545V149.818H572.453V147.545H581.499ZM575.089 143.364H577.771V160C577.771 160.758 577.881 161.326 578.101 161.705C578.328 162.076 578.616 162.326 578.964 162.455C579.321 162.576 579.696 162.636 580.089 162.636C580.385 162.636 580.627 162.621 580.817 162.591C581.006 162.553 581.158 162.523 581.271 162.5L581.817 164.909C581.635 164.977 581.381 165.045 581.055 165.114C580.73 165.189 580.317 165.227 579.817 165.227C579.059 165.227 578.317 165.064 577.589 164.739C576.87 164.413 576.271 163.917 575.794 163.25C575.324 162.583 575.089 161.742 575.089 160.727V143.364ZM587.26 171.545C586.805 171.545 586.4 171.508 586.044 171.432C585.688 171.364 585.442 171.295 585.305 171.227L585.987 168.864C586.639 169.03 587.214 169.091 587.714 169.045C588.214 169 588.658 168.777 589.044 168.375C589.438 167.981 589.798 167.341 590.124 166.455L590.624 165.091L584.169 147.545H587.078L591.896 161.455H592.078L596.896 147.545H599.805L592.396 167.545C592.063 168.447 591.65 169.193 591.158 169.784C590.665 170.383 590.093 170.826 589.442 171.114C588.798 171.402 588.071 171.545 587.26 171.545ZM612.709 165V141.727H626.754V144.227H615.527V152.091H626.027V154.591H615.527V162.5H626.936V165H612.709ZM633.47 147.545L637.652 154.682L641.834 147.545H644.925L639.288 156.273L644.925 165H641.834L637.652 158.227L633.47 165H630.379L635.925 156.273L630.379 147.545H633.47ZM648.751 171.545V147.545H651.342V150.318H651.661C651.857 150.015 652.13 149.629 652.479 149.159C652.835 148.682 653.342 148.258 654.001 147.886C654.668 147.508 655.57 147.318 656.706 147.318C658.176 147.318 659.471 147.686 660.592 148.42C661.714 149.155 662.589 150.197 663.217 151.545C663.846 152.894 664.161 154.485 664.161 156.318C664.161 158.167 663.846 159.769 663.217 161.125C662.589 162.473 661.717 163.519 660.604 164.261C659.49 164.996 658.206 165.364 656.751 165.364C655.63 165.364 654.732 165.178 654.058 164.807C653.384 164.428 652.865 164 652.501 163.523C652.138 163.038 651.857 162.636 651.661 162.318H651.433V171.545H648.751ZM651.388 156.273C651.388 157.591 651.581 158.754 651.967 159.761C652.354 160.761 652.918 161.545 653.661 162.114C654.403 162.674 655.312 162.955 656.388 162.955C657.509 162.955 658.445 162.659 659.195 162.068C659.952 161.47 660.52 160.667 660.899 159.659C661.286 158.644 661.479 157.515 661.479 156.273C661.479 155.045 661.289 153.939 660.911 152.955C660.539 151.962 659.975 151.178 659.217 150.602C658.467 150.019 657.524 149.727 656.388 149.727C655.297 149.727 654.38 150.004 653.638 150.557C652.895 151.102 652.335 151.867 651.956 152.852C651.577 153.83 651.388 154.97 651.388 156.273ZM670.933 141.727V165H668.251V141.727H670.933ZM682.936 165.364C681.36 165.364 679.978 164.989 678.788 164.239C677.607 163.489 676.682 162.439 676.016 161.091C675.357 159.742 675.027 158.167 675.027 156.364C675.027 154.545 675.357 152.958 676.016 151.602C676.682 150.246 677.607 149.193 678.788 148.443C679.978 147.693 681.36 147.318 682.936 147.318C684.512 147.318 685.891 147.693 687.072 148.443C688.262 149.193 689.186 150.246 689.845 151.602C690.512 152.958 690.845 154.545 690.845 156.364C690.845 158.167 690.512 159.742 689.845 161.091C689.186 162.439 688.262 163.489 687.072 164.239C685.891 164.989 684.512 165.364 682.936 165.364ZM682.936 162.955C684.133 162.955 685.118 162.648 685.891 162.034C686.663 161.42 687.235 160.614 687.607 159.614C687.978 158.614 688.163 157.53 688.163 156.364C688.163 155.197 687.978 154.11 687.607 153.102C687.235 152.095 686.663 151.28 685.891 150.659C685.118 150.038 684.133 149.727 682.936 149.727C681.739 149.727 680.754 150.038 679.982 150.659C679.209 151.28 678.637 152.095 678.266 153.102C677.894 154.11 677.709 155.197 677.709 156.364C677.709 157.53 677.894 158.614 678.266 159.614C678.637 160.614 679.209 161.42 679.982 162.034C680.754 162.648 681.739 162.955 682.936 162.955ZM694.939 165V147.545H697.53V150.182H697.712C698.03 149.318 698.606 148.617 699.439 148.08C700.272 147.542 701.212 147.273 702.257 147.273C702.454 147.273 702.7 147.277 702.996 147.284C703.291 147.292 703.515 147.303 703.666 147.318V150.045C703.575 150.023 703.367 149.989 703.041 149.943C702.723 149.89 702.386 149.864 702.03 149.864C701.181 149.864 700.424 150.042 699.757 150.398C699.098 150.746 698.575 151.231 698.189 151.852C697.81 152.466 697.621 153.167 697.621 153.955V165H694.939ZM711.982 165.409C710.875 165.409 709.872 165.201 708.97 164.784C708.069 164.36 707.353 163.75 706.822 162.955C706.292 162.152 706.027 161.182 706.027 160.045C706.027 159.045 706.224 158.235 706.618 157.614C707.012 156.985 707.538 156.492 708.197 156.136C708.857 155.78 709.584 155.515 710.379 155.341C711.182 155.159 711.989 155.015 712.8 154.909C713.86 154.773 714.72 154.67 715.379 154.602C716.046 154.527 716.531 154.402 716.834 154.227C717.144 154.053 717.3 153.75 717.3 153.318V153.227C717.3 152.106 716.993 151.235 716.379 150.614C715.773 149.992 714.853 149.682 713.618 149.682C712.338 149.682 711.334 149.962 710.607 150.523C709.879 151.083 709.368 151.682 709.072 152.318L706.527 151.409C706.982 150.348 707.588 149.523 708.345 148.932C709.11 148.333 709.944 147.917 710.845 147.682C711.754 147.439 712.648 147.318 713.527 147.318C714.088 147.318 714.732 147.386 715.459 147.523C716.194 147.652 716.902 147.92 717.584 148.33C718.273 148.739 718.845 149.356 719.3 150.182C719.754 151.008 719.982 152.114 719.982 153.5V165H717.3V162.636H717.163C716.982 163.015 716.679 163.42 716.254 163.852C715.83 164.284 715.266 164.652 714.561 164.955C713.857 165.258 712.997 165.409 711.982 165.409ZM712.391 163C713.451 163 714.345 162.792 715.072 162.375C715.807 161.958 716.36 161.42 716.732 160.761C717.11 160.102 717.3 159.409 717.3 158.682V156.227C717.186 156.364 716.936 156.489 716.55 156.602C716.171 156.708 715.732 156.803 715.232 156.886C714.739 156.962 714.258 157.03 713.788 157.091C713.326 157.144 712.951 157.189 712.663 157.227C711.966 157.318 711.315 157.466 710.709 157.67C710.11 157.867 709.625 158.167 709.254 158.568C708.891 158.962 708.709 159.5 708.709 160.182C708.709 161.114 709.054 161.818 709.743 162.295C710.44 162.765 711.322 163 712.391 163ZM732.467 147.545V149.818H723.422V147.545H732.467ZM726.058 143.364H728.74V160C728.74 160.758 728.85 161.326 729.07 161.705C729.297 162.076 729.585 162.326 729.933 162.455C730.289 162.576 730.664 162.636 731.058 162.636C731.354 162.636 731.596 162.621 731.786 162.591C731.975 162.553 732.126 162.523 732.24 162.5L732.786 164.909C732.604 164.977 732.35 165.045 732.024 165.114C731.698 165.189 731.286 165.227 730.786 165.227C730.028 165.227 729.286 165.064 728.558 164.739C727.839 164.413 727.24 163.917 726.763 163.25C726.293 162.583 726.058 161.742 726.058 160.727V143.364ZM736.501 165V147.545H739.183V165H736.501ZM737.865 144.636C737.342 144.636 736.892 144.458 736.513 144.102C736.142 143.746 735.956 143.318 735.956 142.818C735.956 142.318 736.142 141.89 736.513 141.534C736.892 141.178 737.342 141 737.865 141C738.388 141 738.835 141.178 739.206 141.534C739.585 141.89 739.774 142.318 739.774 142.818C739.774 143.318 739.585 143.746 739.206 144.102C738.835 144.458 738.388 144.636 737.865 144.636ZM751.186 165.364C749.61 165.364 748.228 164.989 747.038 164.239C745.857 163.489 744.932 162.439 744.266 161.091C743.607 159.742 743.277 158.167 743.277 156.364C743.277 154.545 743.607 152.958 744.266 151.602C744.932 150.246 745.857 149.193 747.038 148.443C748.228 147.693 749.61 147.318 751.186 147.318C752.762 147.318 754.141 147.693 755.322 148.443C756.512 149.193 757.436 150.246 758.095 151.602C758.762 152.958 759.095 154.545 759.095 156.364C759.095 158.167 758.762 159.742 758.095 161.091C757.436 162.439 756.512 163.489 755.322 164.239C754.141 164.989 752.762 165.364 751.186 165.364ZM751.186 162.955C752.383 162.955 753.368 162.648 754.141 162.034C754.913 161.42 755.485 160.614 755.857 159.614C756.228 158.614 756.413 157.53 756.413 156.364C756.413 155.197 756.228 154.11 755.857 153.102C755.485 152.095 754.913 151.28 754.141 150.659C753.368 150.038 752.383 149.727 751.186 149.727C749.989 149.727 749.004 150.038 748.232 150.659C747.459 151.28 746.887 152.095 746.516 153.102C746.144 154.11 745.959 155.197 745.959 156.364C745.959 157.53 746.144 158.614 746.516 159.614C746.887 160.614 747.459 161.42 748.232 162.034C749.004 162.648 749.989 162.955 751.186 162.955ZM765.871 154.5V165H763.189V147.545H765.78V150.273H766.007C766.416 149.386 767.037 148.674 767.871 148.136C768.704 147.591 769.78 147.318 771.098 147.318C772.28 147.318 773.314 147.561 774.2 148.045C775.087 148.523 775.776 149.25 776.268 150.227C776.761 151.197 777.007 152.424 777.007 153.909V165H774.325V154.091C774.325 152.72 773.969 151.652 773.257 150.886C772.545 150.114 771.568 149.727 770.325 149.727C769.469 149.727 768.704 149.913 768.03 150.284C767.363 150.655 766.837 151.197 766.45 151.909C766.064 152.621 765.871 153.485 765.871 154.5Z" fill="#FEA735"/>
</svg>
