<svg width="25" height="24" viewBox="0 0 25 24" fill="none" xmlns="http://www.w3.org/2000/svg">
<path d="M19.989 8.81868C19.875 8.90869 17.8625 10.0628 17.8625 12.6291C17.8625 15.5974 20.4234 16.6475 20.5 16.6735C20.4882 16.7375 20.0932 18.1116 19.1498 19.5118C18.3086 20.7439 17.4301 21.974 16.0937 21.974C14.7572 21.974 14.4133 21.1839 12.8705 21.1839C11.367 21.1839 10.8324 22 9.60994 22C8.38748 22 7.53452 20.8599 6.5538 19.4597C5.41782 17.8156 4.5 15.2613 4.5 12.8371C4.5 8.94869 6.98422 6.88649 9.42912 6.88649C10.7282 6.88649 11.8111 7.75458 12.6268 7.75458C13.4031 7.75458 14.6137 6.83448 16.0917 6.83448C16.6518 6.83448 18.6644 6.88649 19.989 8.81868ZM15.3901 5.18832C16.0013 4.45024 16.4337 3.42614 16.4337 2.40204C16.4337 2.26003 16.4219 2.11601 16.3963 2C15.4019 2.038 14.2187 2.67407 13.5053 3.51615C12.9452 4.16422 12.4224 5.18832 12.4224 6.22642C12.4224 6.38244 12.4479 6.53845 12.4597 6.58846C12.5226 6.60046 12.6248 6.61446 12.727 6.61446C13.6193 6.61446 14.7415 6.0064 15.3901 5.18832Z" fill="black"/>
</svg>
