<svg width="22" height="22" viewBox="0 0 22 22" fill="none" xmlns="http://www.w3.org/2000/svg">
<g id="leading Icon">
<path id="vector" d="M16.5 1.8335C17.5126 1.8335 18.3333 2.65431 18.3333 3.66683V14.2871C18.3333 14.7733 18.1402 15.2397 17.7964 15.5835L13.75 19.6298C13.4062 19.9737 12.9399 20.1668 12.4537 20.1668H5.50001C4.48748 20.1668 3.66667 19.346 3.66667 18.3335V3.66683C3.66667 2.65431 4.48748 1.8335 5.50001 1.8335H16.5ZM16.5 3.66683H5.50001V18.3335H11V14.2085C11 13.4491 11.6156 12.8335 12.375 12.8335H16.5V3.66683ZM16.1203 14.6668H12.8333V17.9538L16.1203 14.6668ZM9.16667 10.0835C9.67295 10.0835 10.0833 10.4939 10.0833 11.0002C10.0833 11.5064 9.67295 11.9168 9.16667 11.9168H8.25001C7.74375 11.9168 7.33334 11.5064 7.33334 11.0002C7.33334 10.4939 7.74375 10.0835 8.25001 10.0835H9.16667ZM13.75 6.41683C14.2563 6.41683 14.6667 6.82723 14.6667 7.3335C14.6667 7.83976 14.2563 8.25016 13.75 8.25016H8.25001C7.74375 8.25016 7.33334 7.83976 7.33334 7.3335C7.33334 6.82723 7.74375 6.41683 8.25001 6.41683H13.75Z" fill="#232529"/>
</g>
</svg>
