<svg width="25" height="24" viewBox="0 0 25 24" fill="none" xmlns="http://www.w3.org/2000/svg">
<path d="M12.7041 10.1819V14.0546H18.1957C17.9546 15.3001 17.2309 16.3547 16.1456 17.0638L19.4573 19.582C21.3868 17.8366 22.5 15.2729 22.5 12.2275C22.5 11.5184 22.4351 10.8365 22.3145 10.182L12.7041 10.1819Z" fill="#4285F4"/>
<path d="M6.98542 13.9034L6.23851 14.4638L3.59467 16.4819C5.27371 19.7455 8.71503 22.0001 12.7039 22.0001C15.459 22.0001 17.7688 21.1092 19.4571 19.582L16.1454 17.0638C15.2363 17.6638 14.0768 18.0274 12.7039 18.0274C10.0508 18.0274 7.79671 16.2729 6.9896 13.9092L6.98542 13.9034Z" fill="#34A853"/>
<path d="M3.59465 7.51819C2.89895 8.8636 2.50011 10.3818 2.50011 12C2.50011 13.6181 2.89895 15.1364 3.59465 16.4818C3.59465 16.4908 6.98991 13.8999 6.98991 13.8999C6.78583 13.2999 6.6652 12.6636 6.6652 11.9999C6.6652 11.3361 6.78583 10.6998 6.98991 10.0998L3.59465 7.51819Z" fill="#FBBC05"/>
<path d="M12.7041 5.98184C14.2069 5.98184 15.5427 6.49092 16.6095 7.47276L19.5316 4.60914C17.7598 2.99098 15.4593 2 12.7041 2C8.71524 2 5.27371 4.24547 3.59467 7.51823L6.98982 10.1001C7.79683 7.73639 10.051 5.98184 12.7041 5.98184Z" fill="#EA4335"/>
</svg>
