<svg fill="none" height="52" viewBox="0 0 52 52" width="52" xmlns="http://www.w3.org/2000/svg">
    <path
        d="M24.3263 44.2691C24.2384 44.6207 24.0355 44.9328 23.7499 45.1558C23.4643 45.3788 23.1124 45.5 22.75 45.5C22.6131 45.5007 22.4766 45.4843 22.3438 45.4513L15.8438 43.8263C15.6628 43.7808 15.491 43.7046 15.336 43.6008L10.461 40.3508C10.1024 40.1116 9.85363 39.7398 9.76925 39.3172C9.68488 38.8945 9.77185 38.4557 10.011 38.0972C10.2502 37.7386 10.6221 37.4898 11.0447 37.4054C11.4673 37.3211 11.9062 37.408 12.2647 37.6472L16.9041 40.7408L23.1319 42.2988C23.34 42.3492 23.536 42.4403 23.7088 42.5668C23.8816 42.6932 24.0277 42.8526 24.1387 43.0357C24.2496 43.2188 24.3234 43.422 24.3556 43.6337C24.3878 43.8453 24.3778 44.0613 24.3263 44.2691ZM51.2789 24.6757C51.1456 25.0807 50.9333 25.4552 50.6544 25.7777C50.3755 26.1002 50.0355 26.3642 49.6539 26.5546L44.8439 28.9596L33.6558 40.1497C33.4572 40.3481 33.2107 40.4917 32.9401 40.5664C32.6696 40.6412 32.3843 40.6446 32.1121 40.5763L19.1121 37.3263C18.9144 37.2767 18.7277 37.1905 18.5616 37.0724L7.28409 29.0205L2.35222 26.5546C1.58143 26.1693 0.995221 25.4936 0.722489 24.6762C0.449758 23.8587 0.512831 22.9664 0.897841 22.1955L5.9455 12.1022C6.33081 11.3314 7.00647 10.7452 7.8239 10.4725C8.64133 10.1998 9.53362 10.2628 10.3046 10.6479L14.7855 12.8822L25.5511 9.80692C25.8432 9.72338 26.1528 9.72338 26.4449 9.80692L37.2105 12.8822L41.6914 10.6479C42.4624 10.2628 43.3547 10.1998 44.1721 10.4725C44.9895 10.7452 45.6652 11.3314 46.0505 12.1022L51.0981 22.1955C51.2907 22.5765 51.4058 22.9918 51.4368 23.4175C51.4678 23.8432 51.4142 24.2708 51.2789 24.6757ZM41.8986 27.3041L36.3716 16.25H29.9082L21.125 24.7813C23.6966 26.4246 27.7286 26.8775 31.3463 23.2314C31.6288 22.9467 32.0067 22.7765 32.4072 22.7536C32.8077 22.7307 33.2025 22.8568 33.5157 23.1075L40.5052 28.7077L41.8986 27.3041ZM3.80456 23.6479L7.39784 25.4455L12.4455 15.3522L8.85221 13.5546L3.80456 23.6479ZM38.1875 31.0091L32.5589 26.5018C28.5899 29.7518 23.5503 30.1804 19.3741 27.5174C18.9633 27.2561 18.6164 26.9058 18.3592 26.4924C18.1019 26.0791 17.9408 25.6132 17.8878 25.1292C17.8347 24.6452 17.8911 24.1555 18.0527 23.6963C18.2144 23.237 18.4771 22.8199 18.8216 22.4758C18.8265 22.4699 18.8319 22.4645 18.8378 22.4596L27.95 13.6216L26 13.065L15.7585 15.9921L10.1989 27.1091L20.1927 34.2489L32.0024 37.2004L38.1875 31.0091ZM48.1894 23.6479L43.1478 13.5546L39.5546 15.3522L44.6022 25.4455L48.1894 23.6479Z"
        fill="#464646" />
</svg>
