<svg width="52" height="52" viewBox="0 0 52 52" fill="none" xmlns="http://www.w3.org/2000/svg">
<g id="Icon">
<g id="Group">
<path id="Vector" fill-rule="evenodd" clip-rule="evenodd" d="M42.0783 10.9331C47.4479 16.3027 47.4479 25.0859 42.0783 30.4524C36.7118 35.822 27.9286 35.822 22.559 30.4524C17.1925 25.0859 17.1925 16.3027 22.559 10.9331C27.9286 5.56656 36.7118 5.56656 42.0783 10.9331Z" fill="#FFD400"/>
<path id="Vector_2" fill-rule="evenodd" clip-rule="evenodd" d="M39.3351 13.6795C43.1924 17.5368 43.1924 23.851 39.3351 27.7083C35.4778 31.5656 29.1636 31.5656 25.3063 27.7083C21.4489 23.851 21.4489 17.5368 25.3063 13.6795C29.1636 9.81908 35.4767 9.81908 39.3351 13.6795Z" fill="#FEA832"/>
<path id="Vector_3" d="M33.1449 27.1843C33.1449 27.6393 32.7762 28.0111 32.3182 28.0111C31.8632 28.0111 31.4945 27.6393 31.4945 27.1843V25.9006C30.5794 25.6558 29.7039 25.0861 29.0671 24.1161C28.9057 23.8714 28.7594 23.5951 28.6325 23.2894C28.4568 22.8689 28.6558 22.3855 29.0763 22.2129C29.4968 22.0371 29.9802 22.2362 30.1528 22.6567C30.2392 22.8608 30.3367 23.0457 30.4464 23.2153C30.8404 23.8145 31.3706 24.1629 31.92 24.3091C32.4695 24.4584 33.0403 24.4127 33.5064 24.2167C33.6161 24.171 33.7228 24.1161 33.8203 24.0501C33.9096 23.9922 33.9868 23.9293 34.0559 23.8602C34.2489 23.6591 34.3758 23.4082 34.4103 23.1523C34.4449 22.9075 34.3931 22.6516 34.2407 22.418C34.1889 22.3378 34.128 22.2626 34.0569 22.1936C33.7837 21.9285 33.1845 21.7843 32.5507 21.635C31.5717 21.4044 30.5296 21.1596 29.7324 20.3421C29.445 20.0455 29.2347 19.6911 29.1047 19.3112C28.9341 18.8008 28.9042 18.2538 29.0184 17.7279C29.1362 17.1957 29.4013 16.6858 29.8248 16.2745C30.1325 15.9749 30.5154 15.7301 30.9826 15.5747C31.0923 15.5371 31.2071 15.5026 31.3279 15.4742C31.3828 15.46 31.4376 15.4488 31.4945 15.4366V14.2016C31.4945 13.7466 31.8632 13.3779 32.3182 13.3779C32.7762 13.3779 33.1449 13.7466 33.1449 14.2016V15.4021C33.4008 15.4427 33.6517 15.5087 33.8934 15.595C34.7658 15.917 35.5001 16.5446 35.8312 17.5268C35.8596 17.607 35.8861 17.6964 35.9094 17.7918C36.0191 18.2326 35.7479 18.6785 35.3082 18.7882C34.8643 18.8948 34.4185 18.6267 34.3088 18.1839C34.2996 18.1432 34.2885 18.1006 34.2712 18.0569C34.1189 17.6019 33.7583 17.3054 33.3236 17.1439C32.826 16.96 32.241 16.9448 31.723 17.0718C31.6539 17.089 31.5849 17.1093 31.5128 17.1347C31.2883 17.2099 31.1096 17.3186 30.9745 17.4546C30.7957 17.6273 30.684 17.8457 30.6322 18.0762C30.5804 18.3149 30.5916 18.5596 30.6668 18.7821C30.7216 18.9375 30.8018 19.0786 30.9146 19.1934C31.3726 19.6626 32.1729 19.8525 32.9265 20.0282C33.7898 20.2324 34.6053 20.4254 35.2066 21.0124C35.3711 21.1739 35.5113 21.3404 35.624 21.5131C36.0039 22.095 36.1278 22.745 36.0445 23.3696C35.9612 23.977 35.6758 24.5559 35.2381 25.0079C35.0796 25.1663 34.91 25.3105 34.7252 25.4314C34.5402 25.5513 34.3447 25.6543 34.1412 25.7391C33.8304 25.8691 33.4932 25.9575 33.1449 26.0072V27.1843Z" fill="#FFD400"/>
<g id="Group_2">
<path id="Vector_4" fill-rule="evenodd" clip-rule="evenodd" d="M30.8963 41.1185L49.2324 31.14C50.7559 30.3112 51.3226 28.3876 50.4938 26.8652C49.6651 25.3418 47.7415 24.7751 46.2191 25.6038L36.7504 30.7571C36.6011 29.58 35.7916 28.5349 34.5942 28.1459C30.9786 26.983 27.365 25.8201 23.7524 24.6542C20.8589 23.7239 18.0233 23.989 15.3542 25.4434L4.23212 31.4944L10.6265 43.2381L14.7753 40.9814C16.707 39.9302 18.7596 39.7373 20.8559 40.4116L24.8168 41.6903C26.912 42.3626 28.9646 42.1697 30.8963 41.1185Z" fill="#FBBD80"/>
<path id="Vector_5" fill-rule="evenodd" clip-rule="evenodd" d="M0.109662 31.013L9.31326 46.9938C9.54076 47.3859 10.0445 47.524 10.4386 47.2965L14.5295 44.9382C14.9215 44.7138 15.0597 44.207 14.8322 43.8149L5.62857 27.8351C5.40107 27.4441 4.89732 27.3049 4.50529 27.5324L0.411303 29.8907C0.0202869 30.1152 -0.115807 30.622 0.109662 31.013Z" fill="#0593FC"/>
<path id="Vector_6" fill-rule="evenodd" clip-rule="evenodd" d="M38.3296 29.896C38.5632 30.7715 38.5571 31.718 38.2606 32.6392C37.4399 35.1925 34.6846 36.6032 32.1313 35.7826L24.053 33.1795C23.731 33.0759 23.5117 32.8108 23.469 32.4747C23.4284 32.1375 23.5787 31.8297 23.8661 31.651L23.8895 31.6368C24.1078 31.4987 24.3526 31.4702 24.5974 31.5474L32.6584 34.1444C34.3078 34.6765 36.0932 33.7615 36.6254 32.1121C36.7696 31.6601 36.8072 31.199 36.7493 30.7562L38.3296 29.896Z" fill="#E2AA73"/>
<path id="Vector_7" fill-rule="evenodd" clip-rule="evenodd" d="M19.1536 29.7951C20.5877 30.2582 22.0238 30.7193 23.4578 31.1824C26.5271 32.1696 29.5932 33.1578 32.6594 34.145C34.3088 34.6772 36.0943 33.7621 36.6264 32.1127C37.1566 30.4633 36.2435 28.6779 34.5942 28.1457L26.1787 25.437L19.1536 29.7951Z" fill="#FBBD80"/>
<path id="Vector_8" fill-rule="evenodd" clip-rule="evenodd" d="M0.109662 31.0128L9.31326 46.9936C9.54076 47.3857 10.0445 47.5238 10.4386 47.2963L11.5933 46.6311C11.2013 46.8555 10.6976 46.7204 10.4731 46.3284L1.26646 30.3455C1.04201 29.9535 1.17708 29.4477 1.56911 29.2222L4.50529 27.5322L0.411303 29.8905C0.0202869 30.115 -0.115807 30.6218 0.109662 31.0128Z" fill="#0584E3"/>
</g>
<path id="Vector_9" fill-rule="evenodd" clip-rule="evenodd" d="M18.9861 24.2104C17.7887 19.6188 18.9769 14.5143 22.5591 10.9332C25.4292 8.06302 29.2754 6.72951 33.0555 6.92857C29.7649 7.10123 26.5291 8.43677 24.0297 10.9332C20.474 14.4889 19.2766 19.5436 20.4313 24.1099C19.9448 24.1099 19.4644 24.1444 18.9861 24.2104Z" fill="#E6BF00"/>
</g>
</g>
</svg>
