<svg width="24" height="24" viewBox="0 0 24 24" fill="none" xmlns="http://www.w3.org/2000/svg">
<path fill-rule="evenodd" clip-rule="evenodd" d="M17.5528 16.1056C18.0115 15.8762 18.5621 16.0325 18.8362 16.4515L18.8944 16.5528L20.8944 20.5528C21.0494 20.8628 21.0329 21.2309 20.8507 21.5257C20.6912 21.7836 20.4249 21.9533 20.1286 21.9917L20 22H4C3.65342 22 3.33156 21.8205 3.14935 21.5257C2.98992 21.2677 2.95731 20.9537 3.05548 20.6715L3.10557 20.5528L5.10557 16.5528C5.35256 16.0588 5.95324 15.8586 6.44721 16.1056C6.90591 16.335 7.11132 16.8692 6.94057 17.3399L6.89443 17.4472L5.61804 20H18.382L17.1056 17.4472C16.8586 16.9532 17.0588 16.3526 17.5528 16.1056ZM12 2C15.866 2 19 5.13401 19 9C19 11.3819 17.7113 13.3172 16.3774 14.69C15.5563 15.535 14.6759 16.2112 13.9594 16.6978L13.5863 16.9444L13.2536 17.1526C13.202 17.184 13.1525 17.2139 13.1051 17.2421L12.8484 17.3914C12.3197 17.6917 11.6803 17.6917 11.1516 17.3914L10.8949 17.2421L10.5856 17.0533C10.5301 17.0186 10.4728 16.9823 10.4137 16.9444L10.0406 16.6978C9.32413 16.2112 8.44376 15.535 7.62263 14.69C6.28868 13.3172 5 11.3819 5 9C5 5.13401 8.13401 2 12 2ZM12 7C10.8954 7 10 7.89543 10 9C10 10.1046 10.8954 11 12 11C13.1046 11 14 10.1046 14 9C14 7.89543 13.1046 7 12 7Z" fill="#09244B"/>
</svg>
