<svg width="20" height="19" viewBox="0 0 20 19" fill="none" xmlns="http://www.w3.org/2000/svg">
<path d="M10.6149 1.03285L18.4065 5.38702C18.8724 5.61994 19.1666 6.09604 19.1666 6.61686V7.93776C19.1666 8.57057 18.6537 9.08362 18.0208 9.08362H17.3333V16.4169H18.25C18.7563 16.4169 19.1666 16.8273 19.1666 17.3335C19.1666 17.8398 18.7563 18.2502 18.25 18.2502H1.74998C1.24372 18.2502 0.833313 17.8398 0.833313 17.3335C0.833313 16.8273 1.24372 16.4169 1.74998 16.4169H2.66665V9.08362H1.97915C1.34632 9.08362 0.833313 8.57057 0.833313 7.93776V6.61686C0.833313 6.13944 1.08057 5.6996 1.48058 5.4502L9.38508 1.03285C9.77219 0.839309 10.2278 0.839309 10.6149 1.03285ZM15.5 9.08362H4.49998V16.4169H7.24998V10.9169H9.08331V16.4169H10.9166V10.9169H12.75V16.4169H15.5V9.08362ZM9.99998 2.77513L2.66665 6.90013V7.25026H17.3333V6.90013L9.99998 2.77513ZM9.99998 4.5002C10.5063 4.5002 10.9166 4.91061 10.9166 5.41687C10.9166 5.92312 10.5063 6.33353 9.99998 6.33353C9.4937 6.33353 9.08331 5.92312 9.08331 5.41687C9.08331 4.91061 9.4937 4.5002 9.99998 4.5002Z" fill="#232529"/>
</svg>
