<svg width="14" height="16" viewBox="0 0 14 16" fill="none" xmlns="http://www.w3.org/2000/svg">
<path fill-rule="evenodd" clip-rule="evenodd" d="M7 0.5C10.728 0.5 13.75 3.52208 13.75 7.25C13.75 9.55535 12.4931 11.4419 11.1688 12.7959C10.4423 13.5387 9.66974 14.148 9.01128 14.6085L8.69229 14.8263C8.64096 14.8605 8.5906 14.8936 8.54132 14.9257L8.25918 15.1055L8.00716 15.2594L7.69532 15.4408C7.26093 15.6861 6.73907 15.6861 6.30468 15.4408L5.99284 15.2594L5.60324 15.0188C5.55619 14.9888 5.50797 14.9578 5.45868 14.9257L5.15087 14.7205C4.45933 14.2486 3.6183 13.6006 2.83121 12.7959C1.50692 11.4419 0.25 9.55535 0.25 7.25C0.25 3.52208 3.27208 0.5 7 0.5ZM7 2C4.10051 2 1.75 4.35051 1.75 7.25C1.75 8.9918 2.70401 10.5206 3.90356 11.747C4.45515 12.3109 5.04066 12.7921 5.56969 13.1797L5.91302 13.4242C6.02402 13.501 6.13123 13.573 6.23367 13.6402L6.52568 13.8271L6.78311 13.9841L7 14.1106L7.34091 13.9094L7.61638 13.7373C7.76251 13.6439 7.9205 13.5394 8.08699 13.4242L8.43032 13.1797C8.95936 12.7921 9.54487 12.3109 10.0964 11.747C11.296 10.5206 12.25 8.9918 12.25 7.25C12.25 4.35051 9.8995 2 7 2ZM7 4.25C8.65683 4.25 10 5.59315 10 7.25C10 8.90683 8.65683 10.25 7 10.25C5.34314 10.25 4 8.90683 4 7.25C4 5.59315 5.34314 4.25 7 4.25ZM7 5.75C6.17155 5.75 5.5 6.42157 5.5 7.25C5.5 8.07845 6.17155 8.75 7 8.75C7.82845 8.75 8.5 8.07845 8.5 7.25C8.5 6.42157 7.82845 5.75 7 5.75Z" fill="#626C78"/>
</svg>
