<svg width="42" height="36" viewBox="0 0 42 36" fill="none" xmlns="http://www.w3.org/2000/svg">
<path d="M4.14733 0.980803C4.92837 0.199743 6.15738 0.139661 7.00734 0.800558L7.21145 0.980803L12.4012 6.1706C15.112 5.30237 18.0015 4.83346 20.9998 4.83346C28.7772 4.83346 35.8219 7.9885 40.9166 13.0833C41.7627 13.9294 41.7627 15.3013 40.9166 16.1474C40.0706 16.9934 38.6986 16.9934 37.8525 16.1474C33.5372 11.8321 27.5819 9.16679 20.9998 9.16679C19.6096 9.16679 18.2474 9.2857 16.9226 9.51395L15.9361 9.70549L19.7691 13.5384C20.176 13.513 20.5864 13.5001 20.9998 13.5001C26.3839 13.5001 31.262 15.6852 34.7884 19.2115C35.6345 20.0578 35.6345 21.4295 34.7884 22.2758C33.9424 23.1219 32.5704 23.1219 31.7243 22.2758C29.9093 20.4608 27.6398 19.1051 25.1007 18.394L24.4604 18.2297L37.8528 31.6221C38.6988 32.4682 38.6988 33.8401 37.8528 34.6862C37.0718 35.4672 35.8427 35.5273 34.9928 34.8665L34.7887 34.6862L4.14733 4.04493C3.30118 3.1988 3.30118 1.82693 4.14733 0.980803ZM21 30.8335L21.2527 30.848C22.3303 30.9732 23.1667 31.889 23.1667 33.0001C23.1667 34.1968 22.1966 35.1668 21 35.1668C19.8034 35.1668 18.8333 34.1968 18.8333 33.0001C18.8333 31.889 19.6697 30.9732 20.7473 30.848L21 30.8335ZM18.2977 22.507L22.4538 26.6631C21.9865 26.5565 21.4998 26.5001 20.9998 26.5001C19.2043 26.5001 17.5823 27.2253 16.4036 28.404C15.5575 29.2501 14.1856 29.2501 13.3395 28.404C12.4934 27.5579 12.4934 26.186 13.3395 25.3399C14.5522 24.1272 16.0539 23.1995 17.732 22.6689L18.2977 22.507ZM11.6662 15.8754L14.9002 19.1094C13.1646 19.8725 11.599 20.9519 10.2754 22.2758C9.42925 23.1219 8.05738 23.1219 7.21126 22.2758C6.36511 21.4295 6.36511 20.0578 7.21126 19.2115C8.52358 17.8991 10.0231 16.7727 11.6662 15.8754ZM5.36133 9.57051L8.49639 12.7056C6.9147 13.6823 5.45554 14.839 4.14713 16.1474C3.30098 16.9934 1.92914 16.9934 1.08299 16.1474C0.236863 15.3013 0.236863 13.9294 1.08299 13.0833C2.38799 11.7783 3.82094 10.6005 5.36133 9.57051Z" fill="#FF3B30"/>
</svg>
