<svg width="20" height="14" viewBox="0 0 20 14" fill="none" xmlns="http://www.w3.org/2000/svg">
<path d="M3.51817 0.517994C3.87615 0.160018 4.45655 0.160018 4.81453 0.517994C5.17251 0.875971 5.17251 1.45638 4.81453 1.81435C3.48646 3.14243 2.66665 4.97451 2.66665 6.9998C2.66665 9.02508 3.48646 10.8572 4.81453 12.1853C5.17251 12.5433 5.17251 13.1237 4.81453 13.4816C4.45655 13.8396 3.87615 13.8396 3.51817 13.4816C1.86033 11.8238 0.833313 9.5309 0.833313 6.9998C0.833313 4.46875 1.86033 2.17583 3.51817 0.517994ZM15.1855 0.517994C15.5434 0.160018 16.1238 0.160018 16.4818 0.517994C18.1396 2.17583 19.1666 4.46875 19.1666 6.9998C19.1666 9.5309 18.1396 11.8238 16.4818 13.4816C16.1238 13.8396 15.5434 13.8396 15.1855 13.4816C14.8274 13.1237 14.8274 12.5433 15.1855 12.1853C16.5135 10.8572 17.3333 9.02508 17.3333 6.9998C17.3333 4.97451 16.5135 3.14243 15.1855 1.81435C14.8274 1.45638 14.8274 0.875971 15.1855 0.517994ZM7.40725 3.11072C7.76524 3.46871 7.76524 4.0491 7.40725 4.40708C6.74271 5.07163 6.33331 5.98707 6.33331 6.9998C6.33331 8.03499 6.76112 8.96871 7.45203 9.63659C7.81604 9.98841 7.8259 10.5687 7.47406 10.9328C7.1222 11.2968 6.54189 11.3066 6.17788 10.9548C5.14439 9.95578 4.49998 8.55227 4.49998 6.9998C4.49998 5.48125 5.11659 4.10502 6.11089 3.11072C6.46887 2.75275 7.04927 2.75275 7.40725 3.11072ZM13.9251 3.14709C14.8983 4.13843 15.5 5.49977 15.5 6.9998C15.5 8.51835 14.8833 9.89463 13.889 10.8889C13.5311 11.2469 12.9507 11.2469 12.5927 10.8889C12.2347 10.5309 12.2347 9.95055 12.5927 9.5925C13.2573 8.92801 13.6666 8.01262 13.6666 6.9998C13.6666 5.99926 13.2671 5.09386 12.6168 4.43139C12.2621 4.07011 12.2675 3.48974 12.6288 3.13508C12.9901 2.78043 13.5704 2.7858 13.9251 3.14709ZM9.99998 5.6248C10.7593 5.6248 11.375 6.24043 11.375 6.9998C11.375 7.75917 10.7593 8.3748 9.99998 8.3748C9.24061 8.3748 8.62498 7.75917 8.62498 6.9998C8.62498 6.24043 9.24061 5.6248 9.99998 5.6248Z" fill="#232529"/>
</svg>
