<svg width="24" height="24" viewBox="0 0 24 24" fill="none" xmlns="http://www.w3.org/2000/svg">
<g id="leading Icon">
<path id="vector" fill-rule="evenodd" clip-rule="evenodd" d="M12 2C12.5523 2 13 2.44772 13 3V3.05493C17.1716 3.51608 20.4839 6.82838 20.9451 11H21C21.5523 11 22 11.4477 22 12C22 12.5523 21.5523 13 21 13H20.9451C20.4839 17.1716 17.1716 20.4839 13 20.9451V21C13 21.5523 12.5523 22 12 22C11.4477 22 11 21.5523 11 21V20.9451C6.82838 20.4839 3.51608 17.1716 3.05493 13H3C2.44772 13 2 12.5523 2 12C2 11.4477 2.44772 11 3 11H3.05493C3.51608 6.82838 6.82838 3.51608 11 3.05493V3C11 2.44772 11.4477 2 12 2ZM12 5C8.13401 5 5 8.13401 5 12C5 15.866 8.13401 19 12 19C15.866 19 19 15.866 19 12C19 8.13401 15.866 5 12 5ZM12 8C14.2091 8 16 9.79086 16 12C16 14.2091 14.2091 16 12 16C9.79086 16 8 14.2091 8 12C8 9.79086 9.79086 8 12 8ZM12 10C10.8954 10 10 10.8954 10 12C10 13.1046 10.8954 14 12 14C13.1046 14 14 13.1046 14 12C14 10.8954 13.1046 10 12 10Z" fill="#27C041"/>
</g>
</svg>
