<svg width="18" height="15" viewBox="0 0 18 15" fill="none" xmlns="http://www.w3.org/2000/svg">
<path fill-rule="evenodd" clip-rule="evenodd" d="M5.31695 0.333008C4.71886 0.333008 4.16662 0.653483 3.86989 1.17277L0.886279 6.39409C0.742379 6.64593 0.666687 6.93092 0.666687 7.22101V10.9696C0.666687 11.2283 0.726929 11.4835 0.842645 11.715L1.77434 13.5783C2.05665 14.143 2.63376 14.4997 3.26505 14.4997H4.00002C4.9205 14.4997 5.66669 13.7535 5.66669 12.833H12.3334C12.3334 13.7535 13.0795 14.4997 14 14.4997H14.735C15.3663 14.4997 15.9434 14.143 16.2257 13.5783L17.1574 11.715C17.2731 11.4835 17.3334 11.2283 17.3334 10.9696V7.22101C17.3334 6.93092 17.2577 6.64593 17.1138 6.39409L14.1302 1.17277C13.8334 0.653483 13.2812 0.333008 12.6831 0.333008H5.31695ZM9.00002 6.99967C7.66894 6.99967 6.4401 6.71409 5.2056 6.25409C4.79403 6.04859 4.29372 6.21551 4.08798 6.62701C3.88215 7.03859 4.049 7.53917 4.46065 7.74501C4.8723 7.95084 6.96634 8.66634 9.00002 8.66634C10.5452 8.66634 12.1401 8.43826 13.5373 7.74601C13.9445 7.54301 14.1158 7.03451 13.912 6.62701C13.7063 6.21543 13.2059 6.04859 12.7944 6.25409C11.6571 6.82201 10.2467 6.99967 9.00002 6.99967Z" fill="#626C78"/>
</svg>
