<svg width="4" height="14" viewBox="0 0 4 14" fill="none" xmlns="http://www.w3.org/2000/svg">
<path d="M2 11.125C2.75937 11.125 3.375 11.7406 3.375 12.5C3.375 13.2594 2.75937 13.875 2 13.875C1.24063 13.875 0.625 13.2594 0.625 12.5C0.625 11.7406 1.24063 11.125 2 11.125ZM2 5.625C2.75937 5.625 3.375 6.24063 3.375 7C3.375 7.75937 2.75937 8.375 2 8.375C1.24063 8.375 0.625 7.75937 0.625 7C0.625 6.24063 1.24063 5.625 2 5.625ZM2 0.125C2.75937 0.125 3.375 0.740606 3.375 1.5C3.375 2.25939 2.75937 2.875 2 2.875C1.24063 2.875 0.625 2.25939 0.625 1.5C0.625 0.740606 1.24063 0.125 2 0.125Z" fill="#131416"/>
</svg>
