<svg width="22" height="22" viewBox="0 0 22 22" fill="none" xmlns="http://www.w3.org/2000/svg">
<g id="leading Icon">
<path id="vector" fill-rule="evenodd" clip-rule="evenodd" d="M3.66666 3.66675C2.65414 3.66675 1.83333 4.48756 1.83333 5.50008V16.5001C1.83333 17.5126 2.65414 18.3334 3.66666 18.3334H18.3333C19.3459 18.3334 20.1667 17.5126 20.1667 16.5001V5.50008C20.1667 4.48756 19.3459 3.66675 18.3333 3.66675H3.66666ZM3.66666 5.50008H18.3333V16.5001H3.66666V5.50008ZM9.39583 8.93758C9.39583 9.82354 8.67762 10.5417 7.79166 10.5417C6.9057 10.5417 6.18749 9.82354 6.18749 8.93758C6.18749 8.05162 6.9057 7.33341 7.79166 7.33341C8.67762 7.33341 9.39583 8.05162 9.39583 8.93758ZM4.58333 13.2917C4.58333 12.0261 5.60934 11.0001 6.87499 11.0001H8.70833C9.97397 11.0001 11 12.0261 11 13.2917V13.7501C11 14.2564 10.5896 14.6667 10.0833 14.6667C9.57705 14.6667 9.16666 14.2564 9.16666 13.7501V13.2917C9.16666 13.0387 8.96146 12.8334 8.70833 12.8334H6.87499C6.62187 12.8334 6.41666 13.0387 6.41666 13.2917V13.7501C6.41666 14.2564 6.00625 14.6667 5.49999 14.6667C4.99374 14.6667 4.58333 14.2564 4.58333 13.7501V13.2917ZM11.9167 10.0834C11.9167 9.57714 12.3271 9.16675 12.8333 9.16675H14.6667C15.1729 9.16675 15.5833 9.57714 15.5833 10.0834C15.5833 10.5897 15.1729 11.0001 14.6667 11.0001H12.8333C12.3271 11.0001 11.9167 10.5897 11.9167 10.0834ZM12.8333 11.9167C12.3271 11.9167 11.9167 12.3271 11.9167 12.8334C11.9167 13.3397 12.3271 13.7501 12.8333 13.7501H16.5C17.0063 13.7501 17.4167 13.3397 17.4167 12.8334C17.4167 12.3271 17.0063 11.9167 16.5 11.9167H12.8333Z" fill="#232529"/>
</g>
</svg>
