<svg width="40" height="40" viewBox="0 0 40 40" fill="none" xmlns="http://www.w3.org/2000/svg">
<rect width="40" height="40" rx="8" fill="white"/>
<path d="M26 10C27.1046 10 28 10.8954 28 12V23.5858C28 24.1162 27.7893 24.6249 27.4142 25L23 29.4142C22.6249 29.7893 22.1162 30 21.5858 30H14C12.8954 30 12 29.1046 12 28V12C12 10.8954 12.8954 10 14 10H26ZM26 12H14V28H20V23.5C20 22.6716 20.6716 22 21.5 22H26V12ZM25.5858 24H22V27.5858L25.5858 24ZM18 19C18.5523 19 19 19.4477 19 20C19 20.5523 18.5523 21 18 21H17C16.4477 21 16 20.5523 16 20C16 19.4477 16.4477 19 17 19H18ZM23 15C23.5523 15 24 15.4477 24 16C24 16.5523 23.5523 17 23 17H17C16.4477 17 16 16.5523 16 16C16 15.4477 16.4477 15 17 15H23Z" fill="#FEA735"/>
</svg>
