<svg width="229" height="116" viewBox="0 0 229 116" fill="none" xmlns="http://www.w3.org/2000/svg">
<path fill-rule="evenodd" clip-rule="evenodd" d="M112.11 1.1842C107.935 1.71804 103.795 3.75621 100.786 6.759C96.636 10.8998 94.6395 16.4155 95.0971 22.4749C95.4515 27.1679 96.8135 30.4525 100.352 35.1476C102.572 38.093 105.245 41.1386 111.187 47.4941C112.593 48.9982 113.94 50.4416 114.179 50.7015L114.615 51.1741L115.344 50.4178C117.93 47.7376 123.195 42.0082 125.356 39.5228C129.695 34.5339 132.113 30.8744 133.167 27.6985C133.334 27.1963 133.49 26.7314 133.515 26.6653C133.55 26.5707 132.895 26.5452 130.442 26.5458L127.326 26.5464L126.969 27.1997C125.117 30.5931 121.808 33.1664 118.124 34.079C116.753 34.4185 115.965 34.5188 114.659 34.5204C109.418 34.5267 104.61 31.6045 102.2 26.9493C101.773 26.1238 101.077 24.243 101.077 23.9137C101.077 23.7704 102.415 23.7577 117.54 23.7577H134.003L134.065 23.39C134.303 21.9844 134.28 19.0276 134.018 17.462C133.568 14.774 132.434 11.9004 130.972 9.74863C127.772 5.03687 122.938 2.01283 117.337 1.21833C116.238 1.06252 113.215 1.04272 112.11 1.1842ZM117.356 6.89126C122.75 8.07322 126.844 11.9301 128.19 17.0979C128.322 17.6025 128.408 18.0495 128.382 18.0914C128.337 18.1649 124.966 18.2203 124.966 18.1476C124.966 18.128 124.899 17.731 124.818 17.2653C124.56 15.7913 124.142 15.3541 122.713 15.0628C122.295 14.9776 121.875 14.8657 121.778 14.814C121.455 14.6416 121.133 14.1036 121.019 13.544C120.85 12.7168 120.313 11.7223 119.784 11.2566C118.915 10.4921 118.064 10.1873 116.809 10.1909C115.923 10.1933 115.895 10.175 115.776 9.51247C115.677 8.96566 115.349 8.76343 114.563 8.76343C113.718 8.76343 113.462 8.94778 113.313 9.66434L113.206 10.1769L112.273 10.1932C110.821 10.2186 109.991 10.5283 109.164 11.354C108.598 11.9188 108.247 12.5904 108.042 13.501C107.833 14.432 107.444 14.8419 106.615 15.0057C104.89 15.3462 104.405 15.8136 104.213 17.3198C104.094 18.2541 104.254 18.1757 102.469 18.1749C101.438 18.1745 100.884 18.1394 100.884 18.0744C100.884 18.0195 100.972 17.6324 101.079 17.214C102.479 11.7442 106.908 7.7022 112.495 6.79505C113.617 6.61291 116.331 6.66654 117.356 6.89126ZM114.081 12.6081V13.9538H111.788C110.279 13.9538 109.46 13.9184 109.392 13.8502C109.131 13.5901 109.704 12.4224 110.344 11.9073C110.944 11.425 111.565 11.2692 112.901 11.2657L114.081 11.2625V12.6081ZM118.144 11.5787C118.789 11.8948 119.22 12.3532 119.552 13.0754C119.938 13.9183 119.983 13.9014 117.321 13.9315L115.044 13.9572V12.6004V11.2436L116.32 11.2771C117.485 11.3077 117.644 11.3339 118.144 11.5787ZM109.266 17.9186C109.74 18.2408 109.961 18.5952 110.011 19.1156C110.104 20.0806 109.495 20.7844 108.509 20.8533C108.057 20.8848 107.908 20.853 107.636 20.6665C106.714 20.0349 106.551 18.9179 107.274 18.1799C107.655 17.7914 107.844 17.716 108.456 17.7084C108.814 17.704 109.034 17.761 109.266 17.9186ZM121.372 17.8615C122.167 18.2383 122.479 19.4069 121.978 20.1362C121.26 21.1813 119.743 21.099 119.173 19.9841C118.799 19.2516 119.075 18.3272 119.802 17.8854C120.177 17.6569 120.916 17.6456 121.372 17.8615ZM109.394 25.7824C109.153 25.8716 107.214 27.2599 107.044 27.465C106.876 27.6666 106.903 28.0613 107.1 28.2784C107.331 28.5332 107.703 28.5165 108.122 28.2325L108.468 27.9974L108.746 28.2889C109.25 28.8174 110.167 29.4495 111.051 29.8785C113.258 30.9485 116.005 30.9261 118.209 29.8201C118.988 29.4292 119.917 28.7738 120.379 28.2887L120.657 27.9971L120.966 28.2323C121.332 28.5108 121.79 28.5369 122.013 28.2917C122.243 28.0381 122.215 27.5774 121.955 27.3481C121.667 27.0927 120.033 25.9196 119.771 25.7799C119.362 25.5616 118.897 25.8907 118.897 26.3984C118.897 26.6506 118.971 26.7777 119.243 26.9957L119.589 27.2726L118.898 27.8224C118.095 28.4606 117.102 28.9539 116.166 29.1802C115.322 29.3841 113.823 29.3884 112.96 29.1892C112.073 28.9844 110.893 28.3967 110.145 27.787L109.532 27.2875L109.88 26.9693C110.126 26.7441 110.228 26.5697 110.228 26.3727C110.228 25.9463 109.789 25.6358 109.394 25.7824Z" fill="#FEA735"/>
<path d="M89.7606 78.256C89.8352 78.6853 90.0406 79.1053 90.3766 79.516C90.7126 79.9267 90.8806 80.2347 90.8806 80.44V80.524C90.8806 80.8413 90.6752 81 90.2646 81H85.1966C84.7859 81 84.5806 80.8413 84.5806 80.524V80.44C84.5806 80.272 84.7579 79.9827 85.1126 79.572C85.4859 79.1427 85.6352 78.704 85.5606 78.256L83.5726 66.888L78.8686 80.216C78.7006 80.72 78.3926 80.972 77.9446 80.972C77.4592 80.972 77.1232 80.7293 76.9366 80.244L71.7286 66.496L69.9366 78.256C69.8619 78.704 70.0112 79.1427 70.3846 79.572C70.7766 79.9827 70.9726 80.272 70.9726 80.44V80.524C70.9726 80.8413 70.7579 81 70.3286 81H67.1926C66.7632 81 66.5486 80.8413 66.5486 80.524V80.44C66.5486 80.2347 66.7166 79.9267 67.0526 79.516C67.4072 79.0867 67.6126 78.6667 67.6686 78.256L69.9926 63.836C70.0486 63.388 69.8899 62.968 69.5166 62.576C69.1619 62.1653 68.9846 61.8667 68.9846 61.68V61.596C68.9846 61.2787 69.1712 61.12 69.5446 61.12H74.8366C75.2286 61.12 75.4246 61.2787 75.4246 61.596V61.68C75.4246 61.7733 75.2566 62.0627 74.9206 62.548C74.6032 63.0147 74.5192 63.4627 74.6686 63.892L78.5326 75.148L82.4526 63.696C82.5646 63.304 82.4339 62.9027 82.0606 62.492C81.7059 62.0627 81.5286 61.792 81.5286 61.68V61.596C81.5286 61.2787 81.7152 61.12 82.0886 61.12H87.5206C87.9126 61.12 88.1086 61.2693 88.1086 61.568V61.68C88.1086 61.8667 87.9966 62.0627 87.7726 62.268C87.5672 62.4733 87.3806 62.716 87.2126 62.996C87.0446 63.2573 86.9979 63.5747 87.0726 63.948L89.7606 78.256ZM103.832 67.364C104.56 67.2893 104.924 67.4667 104.924 67.896V79.432C104.924 81.728 104.243 83.492 102.88 84.724C101.517 85.9747 99.8001 86.6 97.7281 86.6C96.0668 86.6 94.6481 86.2173 93.4721 85.452C92.3148 84.6867 91.7361 83.744 91.7361 82.624C91.7361 82.176 91.8854 81.7933 92.1841 81.476C92.5014 81.1773 92.9121 81.028 93.4161 81.028C93.9761 81.028 94.4334 81.252 94.7881 81.7C95.1428 82.1667 95.4041 82.6707 95.5721 83.212C95.7401 83.7533 96.0388 84.2573 96.4681 84.724C96.9161 85.1907 97.4854 85.424 98.1761 85.424C99.9494 85.424 100.836 83.6227 100.836 80.02V79.684C99.9961 80.5613 98.7921 81 97.2241 81C95.8054 81 94.6014 80.4867 93.6121 79.46C92.6414 78.4333 92.1561 77.0987 92.1561 75.456V70.724C92.1561 70.2573 91.9694 69.828 91.5961 69.436C91.2414 69.0253 91.0641 68.7453 91.0641 68.596V68.512C91.0641 68.176 91.2601 67.98 91.6521 67.924L95.1801 67.392C95.9454 67.2987 96.3281 67.4667 96.3281 67.896L96.2441 75.876C96.2441 78.228 96.9628 79.404 98.4001 79.404C99.0908 79.404 99.6694 79.1147 100.136 78.536C100.603 77.9573 100.836 77.22 100.836 76.324V70.724C100.836 70.2573 100.649 69.828 100.276 69.436C99.9028 69.0253 99.7161 68.7453 99.7161 68.596V68.512C99.7161 68.176 99.9028 67.98 100.276 67.924L103.832 67.364ZM116.326 81C115.915 81 115.71 80.8413 115.71 80.524V80.44C115.71 80.2533 115.897 79.964 116.27 79.572C116.643 79.1613 116.83 78.7413 116.83 78.312V62.94H114.59C114.198 62.94 113.843 63.108 113.526 63.444C113.209 63.78 112.957 64.1533 112.77 64.564C112.602 64.9747 112.397 65.348 112.154 65.684C111.911 66.02 111.669 66.188 111.426 66.188H111.034C110.549 66.188 110.353 65.9453 110.446 65.46L110.95 61.904C111.025 61.3813 111.323 61.12 111.846 61.12H126.042C126.565 61.12 126.863 61.3813 126.938 61.904L127.526 65.488C127.563 65.712 127.526 65.8893 127.414 66.02C127.321 66.132 127.171 66.188 126.966 66.188H126.546C126.303 66.188 126.051 66.02 125.79 65.684C125.547 65.348 125.333 64.9747 125.146 64.564C124.959 64.1533 124.698 63.78 124.362 63.444C124.045 63.108 123.69 62.94 123.298 62.94H121.03V78.312C121.03 78.7413 121.226 79.1613 121.618 79.572C122.01 79.964 122.206 80.2533 122.206 80.44V80.524C122.206 80.8413 121.991 81 121.562 81H116.326ZM140.026 68.736C140.026 68.848 139.83 69.1187 139.438 69.548C139.046 69.9773 138.85 70.4533 138.85 70.976V78.312C138.85 78.7413 139.027 79.1613 139.382 79.572C139.755 79.964 139.942 80.2533 139.942 80.44V80.524C139.942 80.8413 139.755 81 139.382 81H135.938C135.751 81 135.592 80.944 135.462 80.832C135.35 80.72 135.294 80.5707 135.294 80.384V79.712C134.416 80.7573 133.184 81.28 131.598 81.28C129.787 81.28 128.238 80.6547 126.95 79.404C125.662 78.1347 125.018 76.4173 125.018 74.252C125.018 72.2173 125.662 70.5467 126.95 69.24C128.238 67.9333 129.796 67.28 131.626 67.28C133.119 67.28 134.342 67.756 135.294 68.708V68.148C135.294 67.8867 135.406 67.6907 135.63 67.56C135.854 67.4107 136.143 67.3733 136.498 67.448L139.438 67.952C139.83 68.0267 140.026 68.26 140.026 68.652V68.736ZM132.522 80.076C133.156 80.076 133.707 79.8147 134.174 79.292C134.659 78.7507 134.902 78.0133 134.902 77.08V72.152C134.902 71.1627 134.594 70.304 133.978 69.576C133.38 68.848 132.671 68.484 131.85 68.484C130.991 68.484 130.31 68.848 129.806 69.576C129.302 70.2853 129.04 71.2933 129.022 72.6C128.984 73.664 129.087 74.756 129.33 75.876C129.591 76.996 130.002 77.976 130.562 78.816C131.14 79.6373 131.794 80.0573 132.522 80.076ZM153.487 78.256C153.692 78.4987 153.963 78.7693 154.299 79.068C154.635 79.3667 154.896 79.6187 155.083 79.824C155.269 80.0107 155.363 80.2067 155.363 80.412V80.524C155.363 80.8413 155.167 81 154.775 81H149.119C148.764 81 148.587 80.832 148.587 80.496V80.412C148.587 80.2627 148.708 80.0853 148.951 79.88C149.212 79.656 149.371 79.4507 149.427 79.264C149.501 79.0773 149.361 78.7133 149.007 78.172L147.019 75.736L144.807 78.34C144.545 78.6387 144.405 78.9 144.387 79.124C144.368 79.348 144.424 79.516 144.555 79.628C144.685 79.74 144.816 79.8707 144.947 80.02C145.096 80.1507 145.171 80.2813 145.171 80.412V80.496C145.171 80.832 144.984 81 144.611 81H140.803C140.429 81 140.243 80.8413 140.243 80.524V80.412C140.243 80.2253 140.345 80.048 140.551 79.88C140.756 79.6933 141.055 79.4507 141.447 79.152C141.857 78.8533 142.212 78.5453 142.511 78.228L145.983 74.448L142.623 70.332C142.361 70.0147 142.091 69.7347 141.811 69.492C141.549 69.2493 141.335 69.072 141.167 68.96C141.017 68.848 140.887 68.7267 140.775 68.596C140.681 68.4653 140.635 68.316 140.635 68.148V68.008C140.635 67.7093 140.821 67.56 141.195 67.56H146.823C147.196 67.56 147.383 67.7187 147.383 68.036V68.148C147.383 68.316 147.299 68.54 147.131 68.82C146.963 69.1 146.851 69.3333 146.795 69.52C146.757 69.688 146.86 69.9773 147.103 70.388L149.091 72.852L151.303 70.388C151.527 70.1453 151.639 69.912 151.639 69.688C151.639 69.4453 151.573 69.2587 151.443 69.128C151.312 68.9787 151.172 68.8107 151.023 68.624C150.892 68.4373 150.827 68.2787 150.827 68.148V68.036C150.827 67.7187 151.004 67.56 151.359 67.56H154.579C154.952 67.56 155.139 67.7093 155.139 68.008V68.148C155.139 68.3533 155.064 68.5493 154.915 68.736C154.784 68.904 154.541 69.1467 154.187 69.464C153.851 69.7813 153.571 70.0707 153.347 70.332L150.127 74.112L153.487 78.256ZM160.909 64.9C160.424 65.348 159.77 65.572 158.949 65.572C158.128 65.572 157.456 65.348 156.933 64.9C156.429 64.4333 156.177 63.836 156.177 63.108C156.177 62.3987 156.429 61.82 156.933 61.372C157.456 60.9053 158.128 60.672 158.949 60.672C159.77 60.672 160.424 60.9053 160.909 61.372C161.413 61.82 161.665 62.3987 161.665 63.108C161.665 63.836 161.413 64.4333 160.909 64.9ZM156.401 81C155.99 81 155.785 80.8413 155.785 80.524V80.412C155.785 80.2253 155.962 79.936 156.317 79.544C156.672 79.152 156.849 78.732 156.849 78.284V71.956C156.849 71.4893 156.672 71.0507 156.317 70.64C155.962 70.2293 155.785 69.9493 155.785 69.8V69.716C155.785 69.5293 155.981 69.3333 156.373 69.128L159.873 67.392C160.228 67.2427 160.508 67.2333 160.713 67.364C160.918 67.476 161.021 67.672 161.021 67.952V78.284C161.021 78.732 161.217 79.152 161.609 79.544C162.001 79.936 162.197 80.2253 162.197 80.412V80.524C162.197 80.8413 161.982 81 161.553 81H156.401Z" fill="#FEA735"/>
<path d="M0.472212 99.8182H1.88414L4.70801 104.571H4.82733L7.65119 99.8182H9.06312L5.38414 105.804V110H4.15119V105.804L0.472212 99.8182ZM12.5209 110.159C11.8315 110.159 11.2266 109.995 10.7062 109.667C10.1892 109.339 9.78483 108.88 9.49316 108.29C9.20481 107.7 9.06064 107.01 9.06064 106.222C9.06064 105.426 9.20481 104.732 9.49316 104.138C9.78483 103.545 10.1892 103.085 10.7062 102.756C11.2266 102.428 11.8315 102.264 12.5209 102.264C13.2103 102.264 13.8135 102.428 14.3305 102.756C14.8509 103.085 15.2552 103.545 15.5436 104.138C15.8353 104.732 15.9811 105.426 15.9811 106.222C15.9811 107.01 15.8353 107.7 15.5436 108.29C15.2552 108.88 14.8509 109.339 14.3305 109.667C13.8135 109.995 13.2103 110.159 12.5209 110.159ZM12.5209 109.105C13.0445 109.105 13.4754 108.971 13.8135 108.702C14.1515 108.434 14.4018 108.081 14.5642 107.643C14.7266 107.206 14.8078 106.732 14.8078 106.222C14.8078 105.711 14.7266 105.236 14.5642 104.795C14.4018 104.354 14.1515 103.998 13.8135 103.726C13.4754 103.454 13.0445 103.318 12.5209 103.318C11.9972 103.318 11.5663 103.454 11.2282 103.726C10.8902 103.998 10.6399 104.354 10.4775 104.795C10.3151 105.236 10.2339 105.711 10.2339 106.222C10.2339 106.732 10.3151 107.206 10.4775 107.643C10.6399 108.081 10.8902 108.434 11.2282 108.702C11.5663 108.971 11.9972 109.105 12.5209 109.105ZM22.5846 106.878V102.364H23.7579V110H22.5846V108.707H22.5051C22.3261 109.095 22.0477 109.425 21.6698 109.697C21.292 109.965 20.8147 110.099 20.238 110.099C19.7607 110.099 19.3365 109.995 18.9653 109.786C18.5941 109.574 18.3024 109.256 18.0903 108.832C17.8782 108.404 17.7721 107.866 17.7721 107.216V102.364H18.9454V107.136C18.9454 107.693 19.1012 108.137 19.4127 108.469C19.7276 108.8 20.1286 108.966 20.6159 108.966C20.9075 108.966 21.2042 108.891 21.5058 108.742C21.8107 108.593 22.0659 108.364 22.2714 108.056C22.4802 107.748 22.5846 107.355 22.5846 106.878ZM25.9069 110V102.364H27.0404V103.517H27.1199C27.2591 103.139 27.511 102.833 27.8756 102.597C28.2402 102.362 28.6512 102.244 29.1086 102.244C29.1948 102.244 29.3025 102.246 29.4317 102.249C29.561 102.253 29.6588 102.258 29.7251 102.264V103.457C29.6853 103.447 29.5941 103.433 29.4516 103.413C29.3124 103.389 29.1649 103.378 29.0091 103.378C28.6379 103.378 28.3065 103.456 28.0148 103.612C27.7265 103.764 27.4978 103.976 27.3287 104.248C27.163 104.516 27.0802 104.823 27.0802 105.168V110H25.9069ZM35.2124 110V99.8182H41.3176V100.912H36.4454V104.352H40.8602V105.446H36.4454V110H35.2124ZM45.5173 110.179C45.0334 110.179 44.5943 110.088 44.1998 109.906C43.8054 109.72 43.4922 109.453 43.2602 109.105C43.0282 108.754 42.9122 108.33 42.9122 107.832C42.9122 107.395 42.9984 107.04 43.1707 106.768C43.3431 106.493 43.5734 106.278 43.8618 106.122C44.1501 105.966 44.4683 105.85 44.8163 105.774C45.1676 105.695 45.5206 105.632 45.8753 105.585C46.3393 105.526 46.7155 105.481 47.0038 105.451C47.2955 105.418 47.5076 105.363 47.6402 105.287C47.7761 105.211 47.844 105.078 47.844 104.889V104.849C47.844 104.359 47.7098 103.978 47.4413 103.706C47.1762 103.434 46.7735 103.298 46.2332 103.298C45.6731 103.298 45.2339 103.421 44.9157 103.666C44.5976 103.911 44.3738 104.173 44.2446 104.452L43.1309 104.054C43.3298 103.59 43.595 103.229 43.9264 102.97C44.2612 102.708 44.6257 102.526 45.0202 102.423C45.4179 102.317 45.809 102.264 46.1934 102.264C46.4387 102.264 46.7204 102.294 47.0386 102.354C47.3601 102.41 47.67 102.528 47.9683 102.707C48.2699 102.886 48.5202 103.156 48.719 103.517C48.9179 103.878 49.0173 104.362 49.0173 104.969V110H47.844V108.966H47.7844C47.7048 109.132 47.5722 109.309 47.3866 109.498C47.201 109.687 46.9541 109.848 46.6459 109.98C46.3376 110.113 45.9614 110.179 45.5173 110.179ZM45.6963 109.125C46.1603 109.125 46.5514 109.034 46.8696 108.852C47.1911 108.669 47.433 108.434 47.5954 108.146C47.7612 107.857 47.844 107.554 47.844 107.236V106.162C47.7943 106.222 47.6849 106.276 47.5159 106.326C47.3502 106.372 47.1579 106.414 46.9392 106.45C46.7238 106.483 46.5133 106.513 46.3078 106.54C46.1056 106.563 45.9416 106.583 45.8156 106.599C45.5107 106.639 45.2256 106.704 44.9605 106.793C44.6987 106.879 44.4865 107.01 44.3241 107.186C44.165 107.358 44.0855 107.594 44.0855 107.892C44.0855 108.3 44.2363 108.608 44.5379 108.817C44.8428 109.022 45.229 109.125 45.6963 109.125ZM56.5679 104.074L55.5139 104.372C55.4477 104.196 55.3499 104.026 55.2206 103.86C55.0947 103.691 54.9223 103.552 54.7036 103.442C54.4848 103.333 54.2048 103.278 53.8634 103.278C53.396 103.278 53.0066 103.386 52.695 103.602C52.3868 103.814 52.2327 104.084 52.2327 104.412C52.2327 104.704 52.3387 104.934 52.5509 105.103C52.763 105.272 53.0944 105.413 53.5452 105.526L54.6787 105.804C55.3615 105.97 55.8702 106.223 56.205 106.565C56.5397 106.903 56.7071 107.339 56.7071 107.872C56.7071 108.31 56.5812 108.701 56.3293 109.045C56.0807 109.39 55.7327 109.662 55.2852 109.861C54.8378 110.06 54.3174 110.159 53.7242 110.159C52.9453 110.159 52.3006 109.99 51.7902 109.652C51.2798 109.314 50.9566 108.82 50.8208 108.17L51.9344 107.892C52.0405 108.303 52.241 108.611 52.536 108.817C52.8343 109.022 53.2237 109.125 53.7043 109.125C54.2512 109.125 54.6853 109.009 55.0068 108.777C55.3316 108.542 55.4941 108.26 55.4941 107.932C55.4941 107.667 55.4012 107.445 55.2156 107.266C55.03 107.083 54.745 106.947 54.3605 106.858L53.0878 106.56C52.3885 106.394 51.8747 106.137 51.5466 105.789C51.2218 105.438 51.0594 104.999 51.0594 104.472C51.0594 104.041 51.1804 103.66 51.4223 103.328C51.6676 102.997 52.0007 102.737 52.4216 102.548C52.8459 102.359 53.3264 102.264 53.8634 102.264C54.6191 102.264 55.2123 102.43 55.6432 102.761C56.0774 103.093 56.3856 103.53 56.5679 104.074ZM61.7943 102.364V103.358H57.8369V102.364H61.7943ZM58.9903 100.534H60.1636V107.812C60.1636 108.144 60.2117 108.393 60.3078 108.558C60.4072 108.721 60.5332 108.83 60.6856 108.886C60.8414 108.939 61.0055 108.966 61.1778 108.966C61.3071 108.966 61.4131 108.959 61.496 108.946C61.5789 108.929 61.6452 108.916 61.6949 108.906L61.9335 109.96C61.854 109.99 61.7429 110.02 61.6004 110.05C61.4579 110.083 61.2773 110.099 61.0585 110.099C60.7271 110.099 60.4023 110.028 60.0841 109.886C59.7692 109.743 59.5074 109.526 59.2986 109.234C59.0931 108.943 58.9903 108.575 58.9903 108.131V100.534ZM67.099 100.912V99.8182H74.7354V100.912H71.5336V110H70.3007V100.912H67.099ZM75.6862 110V102.364H76.8197V103.517H76.8992C77.0384 103.139 77.2903 102.833 77.6549 102.597C78.0195 102.362 78.4305 102.244 78.8879 102.244C78.974 102.244 79.0818 102.246 79.211 102.249C79.3403 102.253 79.4381 102.258 79.5044 102.264V103.457C79.4646 103.447 79.3734 103.433 79.2309 103.413C79.0917 103.389 78.9442 103.378 78.7884 103.378C78.4172 103.378 78.0858 103.456 77.7941 103.612C77.5058 103.764 77.2771 103.976 77.108 104.248C76.9423 104.516 76.8595 104.823 76.8595 105.168V110H75.6862ZM83.1423 110.179C82.6584 110.179 82.2193 110.088 81.8248 109.906C81.4304 109.72 81.1172 109.453 80.8852 109.105C80.6532 108.754 80.5372 108.33 80.5372 107.832C80.5372 107.395 80.6234 107.04 80.7957 106.768C80.9681 106.493 81.1984 106.278 81.4868 106.122C81.7751 105.966 82.0933 105.85 82.4413 105.774C82.7926 105.695 83.1456 105.632 83.5003 105.585C83.9643 105.526 84.3405 105.481 84.6288 105.451C84.9205 105.418 85.1326 105.363 85.2652 105.287C85.4011 105.211 85.469 105.078 85.469 104.889V104.849C85.469 104.359 85.3348 103.978 85.0663 103.706C84.8012 103.434 84.3985 103.298 83.8582 103.298C83.2981 103.298 82.8589 103.421 82.5407 103.666C82.2226 103.911 81.9988 104.173 81.8696 104.452L80.7559 104.054C80.9548 103.59 81.22 103.229 81.5514 102.97C81.8862 102.708 82.2507 102.526 82.6452 102.423C83.0429 102.317 83.434 102.264 83.8184 102.264C84.0637 102.264 84.3454 102.294 84.6636 102.354C84.9851 102.41 85.295 102.528 85.5933 102.707C85.8949 102.886 86.1452 103.156 86.344 103.517C86.5429 103.878 86.6423 104.362 86.6423 104.969V110H85.469V108.966H85.4094C85.3298 109.132 85.1972 109.309 85.0116 109.498C84.826 109.687 84.5791 109.848 84.2709 109.98C83.9626 110.113 83.5864 110.179 83.1423 110.179ZM83.3213 109.125C83.7853 109.125 84.1764 109.034 84.4946 108.852C84.8161 108.669 85.058 108.434 85.2204 108.146C85.3862 107.857 85.469 107.554 85.469 107.236V106.162C85.4193 106.222 85.3099 106.276 85.1409 106.326C84.9752 106.372 84.7829 106.414 84.5642 106.45C84.3488 106.483 84.1383 106.513 83.9328 106.54C83.7306 106.563 83.5666 106.583 83.4406 106.599C83.1357 106.639 82.8506 106.704 82.5855 106.793C82.3237 106.879 82.1115 107.01 81.9491 107.186C81.79 107.358 81.7105 107.594 81.7105 107.892C81.7105 108.3 81.8613 108.608 82.1629 108.817C82.4678 109.022 82.854 109.125 83.3213 109.125ZM91.8861 110.159C91.1702 110.159 90.5537 109.99 90.0367 109.652C89.5196 109.314 89.1219 108.848 88.8435 108.255C88.5651 107.662 88.4259 106.984 88.4259 106.222C88.4259 105.446 88.5684 104.762 88.8534 104.168C89.1418 103.572 89.5428 103.106 90.0566 102.771C90.5736 102.433 91.1768 102.264 91.8662 102.264C92.4031 102.264 92.887 102.364 93.3179 102.562C93.7488 102.761 94.1018 103.04 94.3769 103.398C94.652 103.756 94.8227 104.173 94.8889 104.651H93.7156C93.6262 104.303 93.4273 103.994 93.1191 103.726C92.8141 103.454 92.4031 103.318 91.8861 103.318C91.4287 103.318 91.0277 103.437 90.683 103.676C90.3416 103.911 90.0748 104.245 89.8825 104.675C89.6936 105.103 89.5992 105.605 89.5992 106.182C89.5992 106.772 89.692 107.286 89.8776 107.723C90.0665 108.161 90.3316 108.5 90.673 108.742C91.0177 108.984 91.4221 109.105 91.8861 109.105C92.191 109.105 92.4678 109.052 92.7164 108.946C92.9649 108.84 93.1754 108.688 93.3477 108.489C93.5201 108.29 93.6427 108.051 93.7156 107.773H94.8889C94.8227 108.223 94.6586 108.629 94.3968 108.991C94.1382 109.349 93.7952 109.634 93.3676 109.846C92.9434 110.055 92.4495 110.159 91.8861 110.159ZM97.6979 107.216L97.678 105.764H97.9166L101.258 102.364H102.709L99.1496 105.963H99.0502L97.6979 107.216ZM96.6041 110V99.8182H97.7774V110H96.6041ZM101.456 110L98.4735 106.222L99.3087 105.406L102.948 110H101.456ZM111.478 102.364V103.358H107.521V102.364H111.478ZM108.674 100.534H109.847V107.812C109.847 108.144 109.895 108.393 109.991 108.558C110.091 108.721 110.217 108.83 110.369 108.886C110.525 108.939 110.689 108.966 110.861 108.966C110.991 108.966 111.097 108.959 111.18 108.946C111.262 108.929 111.329 108.916 111.378 108.906L111.617 109.96C111.538 109.99 111.427 110.02 111.284 110.05C111.141 110.083 110.961 110.099 110.742 110.099C110.411 110.099 110.086 110.028 109.768 109.886C109.453 109.743 109.191 109.526 108.982 109.234C108.777 108.943 108.674 108.575 108.674 108.131V100.534ZM116.263 110.159C115.574 110.159 114.969 109.995 114.448 109.667C113.931 109.339 113.527 108.88 113.235 108.29C112.947 107.7 112.803 107.01 112.803 106.222C112.803 105.426 112.947 104.732 113.235 104.138C113.527 103.545 113.931 103.085 114.448 102.756C114.969 102.428 115.574 102.264 116.263 102.264C116.952 102.264 117.556 102.428 118.073 102.756C118.593 103.085 118.997 103.545 119.286 104.138C119.577 104.732 119.723 105.426 119.723 106.222C119.723 107.01 119.577 107.7 119.286 108.29C118.997 108.88 118.593 109.339 118.073 109.667C117.556 109.995 116.952 110.159 116.263 110.159ZM116.263 109.105C116.787 109.105 117.218 108.971 117.556 108.702C117.894 108.434 118.144 108.081 118.306 107.643C118.469 107.206 118.55 106.732 118.55 106.222C118.55 105.711 118.469 105.236 118.306 104.795C118.144 104.354 117.894 103.998 117.556 103.726C117.218 103.454 116.787 103.318 116.263 103.318C115.739 103.318 115.309 103.454 114.97 103.726C114.632 103.998 114.382 104.354 114.22 104.795C114.057 105.236 113.976 105.711 113.976 106.222C113.976 106.732 114.057 107.206 114.22 107.643C114.382 108.081 114.632 108.434 114.97 108.702C115.309 108.971 115.739 109.105 116.263 109.105ZM133.804 103H132.571C132.498 102.645 132.371 102.334 132.188 102.065C132.009 101.797 131.791 101.571 131.532 101.389C131.277 101.204 130.993 101.064 130.682 100.972C130.37 100.879 130.046 100.832 129.707 100.832C129.091 100.832 128.533 100.988 128.032 101.3C127.535 101.611 127.139 102.07 126.844 102.677C126.552 103.283 126.406 104.027 126.406 104.909C126.406 105.791 126.552 106.535 126.844 107.141C127.139 107.748 127.535 108.207 128.032 108.518C128.533 108.83 129.091 108.986 129.707 108.986C130.046 108.986 130.37 108.939 130.682 108.847C130.993 108.754 131.277 108.616 131.532 108.434C131.791 108.248 132.009 108.021 132.188 107.753C132.371 107.481 132.498 107.17 132.571 106.818H133.804C133.711 107.339 133.542 107.804 133.297 108.215C133.052 108.626 132.747 108.976 132.382 109.264C132.018 109.549 131.608 109.766 131.154 109.915C130.703 110.065 130.221 110.139 129.707 110.139C128.839 110.139 128.067 109.927 127.391 109.503C126.715 109.079 126.183 108.475 125.795 107.693C125.407 106.911 125.213 105.983 125.213 104.909C125.213 103.835 125.407 102.907 125.795 102.125C126.183 101.343 126.715 100.74 127.391 100.315C128.067 99.8911 128.839 99.679 129.707 99.679C130.221 99.679 130.703 99.7536 131.154 99.9027C131.608 100.052 132.018 100.271 132.382 100.559C132.747 100.844 133.052 101.192 133.297 101.603C133.542 102.011 133.711 102.476 133.804 103ZM135.637 110V102.364H136.811V110H135.637ZM136.234 101.091C136.005 101.091 135.808 101.013 135.642 100.857C135.48 100.701 135.399 100.514 135.399 100.295C135.399 100.077 135.48 99.8894 135.642 99.7337C135.808 99.5779 136.005 99.5 136.234 99.5C136.463 99.5 136.658 99.5779 136.821 99.7337C136.986 99.8894 137.069 100.077 137.069 100.295C137.069 100.514 136.986 100.701 136.821 100.857C136.658 101.013 136.463 101.091 136.234 101.091ZM142.281 102.364V103.358H138.323V102.364H142.281ZM139.477 100.534H140.65V107.812C140.65 108.144 140.698 108.393 140.794 108.558C140.894 108.721 141.02 108.83 141.172 108.886C141.328 108.939 141.492 108.966 141.664 108.966C141.793 108.966 141.899 108.959 141.982 108.946C142.065 108.929 142.131 108.916 142.181 108.906L142.42 109.96C142.34 109.99 142.229 110.02 142.087 110.05C141.944 110.083 141.764 110.099 141.545 110.099C141.213 110.099 140.889 110.028 140.57 109.886C140.256 109.743 139.994 109.526 139.785 109.234C139.579 108.943 139.477 108.575 139.477 108.131V100.534ZM144.801 112.864C144.602 112.864 144.425 112.847 144.269 112.814C144.113 112.784 144.006 112.754 143.946 112.724L144.244 111.69C144.529 111.763 144.781 111.79 145 111.77C145.219 111.75 145.413 111.652 145.582 111.477C145.754 111.304 145.912 111.024 146.054 110.636L146.273 110.04L143.449 102.364H144.722L146.83 108.449H146.909L149.017 102.364H150.29L147.048 111.114C146.903 111.508 146.722 111.835 146.506 112.093C146.291 112.355 146.041 112.549 145.756 112.675C145.474 112.801 145.156 112.864 144.801 112.864ZM155.935 110V99.8182H162.08V100.912H157.168V104.352H161.762V105.446H157.168V108.906H162.16V110H155.935ZM165.018 102.364L166.848 105.486L168.677 102.364H170.03L167.564 106.182L170.03 110H168.677L166.848 107.037L165.018 110H163.666L166.092 106.182L163.666 102.364H165.018ZM171.704 112.864V102.364H172.837V103.577H172.976C173.063 103.444 173.182 103.275 173.334 103.07C173.49 102.861 173.712 102.675 174.001 102.513C174.292 102.347 174.687 102.264 175.184 102.264C175.827 102.264 176.394 102.425 176.884 102.746C177.375 103.068 177.757 103.524 178.033 104.114C178.308 104.704 178.445 105.4 178.445 106.202C178.445 107.01 178.308 107.711 178.033 108.305C177.757 108.895 177.376 109.352 176.889 109.677C176.402 109.998 175.84 110.159 175.204 110.159C174.713 110.159 174.32 110.078 174.025 109.915C173.73 109.75 173.503 109.562 173.344 109.354C173.185 109.142 173.063 108.966 172.976 108.827H172.877V112.864H171.704ZM172.857 106.182C172.857 106.759 172.942 107.267 173.111 107.708C173.28 108.146 173.527 108.489 173.851 108.737C174.176 108.982 174.574 109.105 175.045 109.105C175.535 109.105 175.945 108.976 176.273 108.717C176.604 108.455 176.853 108.104 177.018 107.663C177.187 107.219 177.272 106.725 177.272 106.182C177.272 105.645 177.189 105.161 177.023 104.73C176.861 104.296 176.614 103.953 176.283 103.701C175.954 103.446 175.542 103.318 175.045 103.318C174.567 103.318 174.166 103.439 173.842 103.681C173.517 103.92 173.271 104.254 173.106 104.685C172.94 105.113 172.857 105.612 172.857 106.182ZM181.408 99.8182V110H180.235V99.8182H181.408ZM186.66 110.159C185.97 110.159 185.365 109.995 184.845 109.667C184.328 109.339 183.924 108.88 183.632 108.29C183.343 107.7 183.199 107.01 183.199 106.222C183.199 105.426 183.343 104.732 183.632 104.138C183.924 103.545 184.328 103.085 184.845 102.756C185.365 102.428 185.97 102.264 186.66 102.264C187.349 102.264 187.952 102.428 188.469 102.756C188.99 103.085 189.394 103.545 189.682 104.138C189.974 104.732 190.12 105.426 190.12 106.222C190.12 107.01 189.974 107.7 189.682 108.29C189.394 108.88 188.99 109.339 188.469 109.667C187.952 109.995 187.349 110.159 186.66 110.159ZM186.66 109.105C187.183 109.105 187.614 108.971 187.952 108.702C188.29 108.434 188.54 108.081 188.703 107.643C188.865 107.206 188.946 106.732 188.946 106.222C188.946 105.711 188.865 105.236 188.703 104.795C188.54 104.354 188.29 103.998 187.952 103.726C187.614 103.454 187.183 103.318 186.66 103.318C186.136 103.318 185.705 103.454 185.367 103.726C185.029 103.998 184.779 104.354 184.616 104.795C184.454 105.236 184.373 105.711 184.373 106.222C184.373 106.732 184.454 107.206 184.616 107.643C184.779 108.081 185.029 108.434 185.367 108.702C185.705 108.971 186.136 109.105 186.66 109.105ZM191.911 110V102.364H193.044V103.517H193.124C193.263 103.139 193.515 102.833 193.88 102.597C194.244 102.362 194.655 102.244 195.112 102.244C195.199 102.244 195.306 102.246 195.436 102.249C195.565 102.253 195.663 102.258 195.729 102.264V103.457C195.689 103.447 195.598 103.433 195.456 103.413C195.316 103.389 195.169 103.378 195.013 103.378C194.642 103.378 194.31 103.456 194.019 103.612C193.73 103.764 193.502 103.976 193.333 104.248C193.167 104.516 193.084 104.823 193.084 105.168V110H191.911ZM199.367 110.179C198.883 110.179 198.444 110.088 198.049 109.906C197.655 109.72 197.342 109.453 197.11 109.105C196.878 108.754 196.762 108.33 196.762 107.832C196.762 107.395 196.848 107.04 197.02 106.768C197.193 106.493 197.423 106.278 197.711 106.122C198 105.966 198.318 105.85 198.666 105.774C199.017 105.695 199.37 105.632 199.725 105.585C200.189 105.526 200.565 105.481 200.853 105.451C201.145 105.418 201.357 105.363 201.49 105.287C201.626 105.211 201.694 105.078 201.694 104.889V104.849C201.694 104.359 201.559 103.978 201.291 103.706C201.026 103.434 200.623 103.298 200.083 103.298C199.523 103.298 199.084 103.421 198.765 103.666C198.447 103.911 198.223 104.173 198.094 104.452L196.981 104.054C197.179 103.59 197.445 103.229 197.776 102.97C198.111 102.708 198.475 102.526 198.87 102.423C199.267 102.317 199.659 102.264 200.043 102.264C200.288 102.264 200.57 102.294 200.888 102.354C201.21 102.41 201.52 102.528 201.818 102.707C202.12 102.886 202.37 103.156 202.569 103.517C202.767 103.878 202.867 104.362 202.867 104.969V110H201.694V108.966H201.634C201.554 109.132 201.422 109.309 201.236 109.498C201.051 109.687 200.804 109.848 200.495 109.98C200.187 110.113 199.811 110.179 199.367 110.179ZM199.546 109.125C200.01 109.125 200.401 109.034 200.719 108.852C201.041 108.669 201.283 108.434 201.445 108.146C201.611 107.857 201.694 107.554 201.694 107.236V106.162C201.644 106.222 201.535 106.276 201.366 106.326C201.2 106.372 201.008 106.414 200.789 106.45C200.573 106.483 200.363 106.513 200.157 106.54C199.955 106.563 199.791 106.583 199.665 106.599C199.36 106.639 199.075 106.704 198.81 106.793C198.548 106.879 198.336 107.01 198.174 107.186C198.015 107.358 197.935 107.594 197.935 107.892C197.935 108.3 198.086 108.608 198.388 108.817C198.692 109.022 199.079 109.125 199.546 109.125ZM208.329 102.364V103.358H204.372V102.364H208.329ZM205.525 100.534H206.699V107.812C206.699 108.144 206.747 108.393 206.843 108.558C206.942 108.721 207.068 108.83 207.221 108.886C207.377 108.939 207.541 108.966 207.713 108.966C207.842 108.966 207.948 108.959 208.031 108.946C208.114 108.929 208.18 108.916 208.23 108.906L208.469 109.96C208.389 109.99 208.278 110.02 208.136 110.05C207.993 110.083 207.812 110.099 207.594 110.099C207.262 110.099 206.937 110.028 206.619 109.886C206.304 109.743 206.043 109.526 205.834 109.234C205.628 108.943 205.525 108.575 205.525 108.131V100.534ZM210.094 110V102.364H211.268V110H210.094ZM210.691 101.091C210.462 101.091 210.265 101.013 210.099 100.857C209.937 100.701 209.856 100.514 209.856 100.295C209.856 100.077 209.937 99.8894 210.099 99.7337C210.265 99.5779 210.462 99.5 210.691 99.5C210.92 99.5 211.115 99.5779 211.278 99.7337C211.443 99.8894 211.526 100.077 211.526 100.295C211.526 100.514 211.443 100.701 211.278 100.857C211.115 101.013 210.92 101.091 210.691 101.091ZM216.519 110.159C215.83 110.159 215.225 109.995 214.704 109.667C214.187 109.339 213.783 108.88 213.491 108.29C213.203 107.7 213.059 107.01 213.059 106.222C213.059 105.426 213.203 104.732 213.491 104.138C213.783 103.545 214.187 103.085 214.704 102.756C215.225 102.428 215.83 102.264 216.519 102.264C217.208 102.264 217.812 102.428 218.329 102.756C218.849 103.085 219.253 103.545 219.542 104.138C219.833 104.732 219.979 105.426 219.979 106.222C219.979 107.01 219.833 107.7 219.542 108.29C219.253 108.88 218.849 109.339 218.329 109.667C217.812 109.995 217.208 110.159 216.519 110.159ZM216.519 109.105C217.043 109.105 217.473 108.971 217.812 108.702C218.15 108.434 218.4 108.081 218.562 107.643C218.725 107.206 218.806 106.732 218.806 106.222C218.806 105.711 218.725 105.236 218.562 104.795C218.4 104.354 218.15 103.998 217.812 103.726C217.473 103.454 217.043 103.318 216.519 103.318C215.995 103.318 215.564 103.454 215.226 103.726C214.888 103.998 214.638 104.354 214.476 104.795C214.313 105.236 214.232 105.711 214.232 106.222C214.232 106.732 214.313 107.206 214.476 107.643C214.638 108.081 214.888 108.434 215.226 108.702C215.564 108.971 215.995 109.105 216.519 109.105ZM222.943 105.406V110H221.77V102.364H222.904V103.557H223.003C223.182 103.169 223.454 102.857 223.818 102.622C224.183 102.384 224.654 102.264 225.23 102.264C225.747 102.264 226.2 102.37 226.588 102.582C226.975 102.791 227.277 103.109 227.492 103.537C227.708 103.961 227.816 104.498 227.816 105.148V110H226.642V105.227C226.642 104.627 226.487 104.16 226.175 103.825C225.863 103.487 225.436 103.318 224.892 103.318C224.518 103.318 224.183 103.399 223.888 103.562C223.596 103.724 223.366 103.961 223.197 104.273C223.028 104.584 222.943 104.962 222.943 105.406Z" fill="#232529"/>
</svg>
