<svg width="30" height="30" viewBox="0 0 30 30" fill="none" xmlns="http://www.w3.org/2000/svg">
<g clip-path="url(#clip0_73_261)">
<path fill-rule="evenodd" clip-rule="evenodd" d="M13.621 0.679261C11.2125 0.985483 8.82401 2.15463 7.08789 3.87711C4.6938 6.2524 3.54197 9.41634 3.80599 12.8922C4.01044 15.5842 4.79622 17.4683 6.83776 20.1616C8.11847 21.8511 9.66042 23.5982 13.0886 27.2438C13.8999 28.1066 14.6768 28.9346 14.815 29.0837L15.0662 29.3548L15.4872 28.9209C16.9786 27.3835 20.0161 24.097 21.2632 22.6713C23.7666 19.8095 25.1612 17.7104 25.7695 15.8886C25.8657 15.6005 25.956 15.3338 25.97 15.2959C25.9901 15.2416 25.6127 15.227 24.1974 15.2273L22.3993 15.2277L22.1936 15.6024C21.1253 17.549 19.2164 19.0251 17.0905 19.5486C16.2999 19.7433 15.8454 19.8009 15.0916 19.8018C12.0682 19.8054 9.29409 18.1292 7.90396 15.4588C7.65744 14.9853 7.25599 13.9064 7.25599 13.7175C7.25599 13.6353 8.02761 13.628 16.7539 13.628H26.2518L26.2877 13.4171C26.425 12.6108 26.4113 10.9147 26.2603 10.0167C26.001 8.47474 25.3463 6.82636 24.5031 5.59204C22.6568 2.88925 19.8681 1.15458 16.6367 0.698834C16.0029 0.60946 14.2589 0.598101 13.621 0.679261ZM16.6476 3.95298C19.7597 4.63098 22.1217 6.8434 22.8983 9.80775C22.9741 10.0972 23.0239 10.3536 23.0089 10.3777C22.9827 10.4198 21.0378 10.4516 21.0378 10.4099C21.0378 10.3987 20.9994 10.1709 20.9524 9.9038C20.8038 9.05829 20.5628 8.80748 19.7383 8.64037C19.4973 8.59152 19.2545 8.52734 19.1988 8.49768C19.0124 8.39877 18.827 8.09017 18.761 7.76917C18.6633 7.29468 18.3535 6.72419 18.0481 6.45706C17.5469 6.01852 17.0564 5.84368 16.3322 5.84572C15.8211 5.8471 15.805 5.83662 15.7359 5.45658C15.6789 5.14291 15.4899 5.02691 15.036 5.02691C14.5486 5.02691 14.4011 5.13265 14.3151 5.54369L14.2535 5.83773L13.7153 5.84704C12.8774 5.8616 12.3988 6.0393 11.9214 6.51291C11.5948 6.83689 11.3924 7.22218 11.2744 7.74447C11.1536 8.27857 10.9293 8.51367 10.4507 8.60762C9.4558 8.80296 9.17589 9.07109 9.06502 9.93506C8.99622 10.471 9.08858 10.426 8.05873 10.4256C7.46439 10.4253 7.14485 10.4052 7.14485 10.3679C7.14485 10.3364 7.19537 10.1144 7.25716 9.87435C8.06456 6.73676 10.6198 4.41816 13.8434 3.89779C14.4907 3.79331 16.0561 3.82407 16.6476 3.95298ZM14.7582 7.23232V8.00422H13.4356C12.5647 8.00422 12.0925 7.98393 12.0531 7.94484C11.9027 7.79558 12.2328 7.1258 12.6023 6.83033C12.9483 6.55366 13.3065 6.46428 14.0774 6.46224L14.7582 6.46043V7.23232ZM17.1023 6.64182C17.4745 6.82316 17.7232 7.0861 17.9143 7.50039C18.1374 7.98387 18.163 7.97417 16.6277 7.99143L15.3139 8.0062V7.22791V6.44962L16.0502 6.46881C16.7224 6.48634 16.8141 6.50139 17.1023 6.64182ZM11.9802 10.2786C12.2538 10.4634 12.3811 10.6666 12.4101 10.9652C12.4636 11.5187 12.1126 11.9225 11.5435 11.9619C11.2829 11.98 11.1971 11.9618 11.04 11.8548C10.5078 11.4925 10.414 10.8518 10.8311 10.4285C11.0508 10.2056 11.1599 10.1623 11.5129 10.158C11.7196 10.1554 11.8462 10.1881 11.9802 10.2786ZM18.9643 10.2458C19.4233 10.4619 19.603 11.1323 19.314 11.5506C18.9 12.1501 18.025 12.1029 17.6961 11.4634C17.48 11.0432 17.6396 10.5129 18.0585 10.2595C18.2753 10.1284 18.7012 10.122 18.9643 10.2458ZM12.0542 14.7895C11.9154 14.8406 10.7966 15.637 10.6982 15.7546C10.6014 15.8703 10.6173 16.0967 10.7309 16.2212C10.8642 16.3674 11.0786 16.3578 11.3202 16.1949L11.5201 16.06L11.6804 16.2272C11.971 16.5304 12.4999 16.893 13.0104 17.139C14.2835 17.7529 15.868 17.74 17.1396 17.1056C17.5891 16.8813 18.125 16.5054 18.3918 16.2271L18.5522 16.0598L18.7305 16.1947C18.9416 16.3545 19.206 16.3695 19.3342 16.2288C19.4669 16.0834 19.4508 15.8191 19.3012 15.6876C19.1346 15.5411 18.1918 14.8681 18.0409 14.788C17.805 14.6628 17.5368 14.8515 17.5368 15.1428C17.5368 15.2874 17.5793 15.3604 17.7364 15.4854L17.936 15.6443L17.537 15.9596C17.0739 16.3257 16.5013 16.6087 15.961 16.7385C15.474 16.8555 14.6094 16.8579 14.1118 16.7437C13.6 16.6262 12.9191 16.2891 12.4873 15.9393L12.1336 15.6528L12.3345 15.4703C12.4766 15.3411 12.5353 15.2411 12.5353 15.128C12.5353 14.8835 12.2822 14.7053 12.0542 14.7895Z" fill="#FEA735"/>
</g>
<defs>
<clipPath id="clip0_73_261">
<rect width="30" height="29.8286" fill="white"/>
</clipPath>
</defs>
</svg>
