<svg width="20" height="17" viewBox="0 0 20 17" fill="none" xmlns="http://www.w3.org/2000/svg">
<path d="M13.8394 0C14.8486 0 15.7854 0.507006 16.3387 1.34057L16.4441 1.51158L18.4375 5H19.6C19.7933 5 19.9546 5.13712 19.9919 5.31939L20 5.4V5.87538C20 6.20579 19.7977 6.49803 19.4975 6.61805L19.3703 6.6574C19.745 7.43536 19.912 8.29756 19.8544 9.1598L19.8269 9.4471L19.1018 15.2481C18.9833 16.1962 18.2134 16.9202 17.2751 16.9938L17.1172 17H16C14.9456 17 14.0818 16.1841 14.0055 15.1493L14 15H6C6 16.0544 5.18412 16.9182 4.14926 16.9945L4 17H2.88278C1.92723 17 1.11333 16.3259 0.923931 15.404L0.89823 15.2481L0.1731 9.4471C0.065451 8.58589 0.184205 7.71536 0.512501 6.91972L0.62967 6.6574L0.60597 6.6515C0.285453 6.5714 0.0510309 6.30419 0.00735164 5.98392L0 5.87538V5.4C0 5.2067 0.137116 5.04543 0.319387 5.00813L0.4 5H1.56253L3.55592 1.51158C4.05666 0.63528 4.96161 0.0735055 5.95985 0.00670671L6.16065 0H13.8394ZM17.7592 8.0355C17.2657 8.57421 16.5719 8.9402 15.7592 8.99332L15.5536 9H4.44636C3.54512 9 2.77543 8.6191 2.24076 8.0355C2.15842 8.33654 2.12328 8.64968 2.13761 8.96359L2.15766 9.199L2.88278 15H4V14C4 13.4872 4.38604 13.0645 4.88338 13.0067L5 13H15C15.5128 13 15.9355 13.386 15.9933 13.8834L16 14V15H17.1172L17.8423 9.199C17.8913 8.807 17.8622 8.4118 17.7592 8.0355ZM3.73757 9.8983L6.48023 11.3793C6.85325 11.5808 6.69778 12.1479 6.27418 12.131L3.96003 12.0384C3.42372 12.0169 3 11.5759 3 11.0392V10.3382C3 9.9596 3.40444 9.7184 3.73757 9.8983ZM17 10.3382V11.0392C17 11.5759 16.5763 12.0169 16.04 12.0384L13.7258 12.131C13.3022 12.1479 13.1467 11.5808 13.5198 11.3793L16.2624 9.8983C16.5956 9.7184 17 9.9596 17 10.3382ZM13.8394 2H6.16065C5.80179 2 5.47044 2.19229 5.2924 2.50386L3.57812 5.50386C3.19756 6.1705 3.67868 7 4.44636 7H15.5536C16.3215 7 16.8028 6.1705 16.4219 5.50386L14.7076 2.50386C14.5296 2.19229 14.1982 2 13.8394 2Z" fill="#626C78"/>
</svg>
