<svg width="229" height="131" viewBox="0 0 229 131" fill="none" xmlns="http://www.w3.org/2000/svg">
<path fill-rule="evenodd" clip-rule="evenodd" d="M111.707 1.38355C106.83 2.00728 101.992 4.38868 98.4762 7.89715C93.6277 12.7353 91.2949 19.1798 91.8296 26.2597C92.2437 31.7429 93.8351 35.5806 97.9697 41.0664C100.563 44.5078 103.686 48.0663 110.629 55.492C112.272 57.2495 113.845 58.9359 114.125 59.2396L114.634 59.7918L115.487 58.9081C118.507 55.7766 124.659 49.0823 127.185 46.1784C132.254 40.3494 135.079 36.0736 136.311 32.3629C136.506 31.7761 136.688 31.2329 136.717 31.1556C136.758 31.0451 135.993 31.0154 133.127 31.016L129.485 31.0167L129.069 31.78C126.905 35.7449 123.039 38.7516 118.734 39.8178C117.133 40.2145 116.212 40.3317 114.686 40.3335C108.563 40.3409 102.944 36.9267 100.129 31.4875C99.6297 30.523 98.8167 28.3255 98.8167 27.9407C98.8167 27.7733 100.379 27.7585 118.052 27.7585H137.287L137.36 27.3288C137.638 25.6865 137.611 22.2318 137.305 20.4026C136.78 17.2619 135.454 13.9044 133.746 11.3902C130.007 5.88501 124.359 2.35172 117.815 1.42342C116.531 1.24137 112.999 1.21824 111.707 1.38355ZM117.837 8.05168C124.14 9.43267 128.923 13.9391 130.496 19.9771C130.65 20.5667 130.75 21.089 130.72 21.1379C130.667 21.2237 126.728 21.2885 126.728 21.2036C126.728 21.1807 126.65 20.7168 126.555 20.1727C126.254 18.4505 125.766 17.9397 124.096 17.5993C123.608 17.4998 123.117 17.369 123.004 17.3086C122.626 17.1072 122.251 16.4786 122.117 15.8248C121.919 14.8583 121.292 13.6963 120.673 13.1522C119.658 12.2589 118.665 11.9028 117.198 11.9069C116.163 11.9098 116.13 11.8884 115.99 11.1143C115.875 10.4754 115.492 10.2391 114.573 10.2391C113.586 10.2391 113.287 10.4545 113.113 11.2917L112.988 11.8907L111.898 11.9096C110.201 11.9393 109.232 12.3012 108.265 13.2659C107.604 13.9258 107.194 14.7106 106.955 15.7744C106.71 16.8623 106.256 17.3412 105.287 17.5326C103.272 17.9305 102.705 18.4766 102.48 20.2364C102.341 21.3281 102.528 21.2364 100.442 21.2355C99.2387 21.235 98.5916 21.194 98.5916 21.1181C98.5916 21.0539 98.6939 20.6016 98.8191 20.1127C100.454 13.7219 105.629 8.99918 112.158 7.93926C113.469 7.72645 116.639 7.78911 117.837 8.05168ZM114.01 14.7313V16.3035H111.332C109.568 16.3035 108.612 16.2622 108.532 16.1826C108.227 15.8786 108.896 14.5143 109.644 13.9125C110.345 13.3489 111.07 13.1669 112.632 13.1627L114.01 13.159V14.7313ZM118.758 13.5285C119.511 13.8979 120.015 14.4334 120.402 15.2773C120.854 16.2621 120.906 16.2423 117.797 16.2775L115.136 16.3076V14.7223V13.137L116.627 13.1761C117.988 13.2118 118.174 13.2425 118.758 13.5285ZM108.384 20.936C108.938 21.3125 109.196 21.7265 109.255 22.3347C109.363 23.4621 108.652 24.2845 107.5 24.3649C106.972 24.4017 106.798 24.3645 106.48 24.1467C105.402 23.4087 105.212 22.1036 106.057 21.2414C106.502 20.7874 106.723 20.6993 107.438 20.6904C107.857 20.6853 108.113 20.7518 108.384 20.936ZM122.529 20.8693C123.458 21.3095 123.822 22.6749 123.237 23.5271C122.398 24.7482 120.626 24.652 119.96 23.3493C119.523 22.4935 119.846 21.4134 120.694 20.8973C121.133 20.6302 121.996 20.6171 122.529 20.8693ZM108.534 30.1241C108.253 30.2284 105.987 31.8505 105.788 32.09C105.592 32.3256 105.624 32.7867 105.854 33.0404C106.124 33.3381 106.558 33.3186 107.048 32.9867L107.453 32.7122L107.777 33.0527C108.366 33.6702 109.437 34.4087 110.471 34.9099C113.049 36.1602 116.258 36.1341 118.833 34.8418C119.744 34.385 120.829 33.6192 121.369 33.0524L121.694 32.7117L122.055 32.9865C122.483 33.312 123.018 33.3424 123.278 33.0559C123.547 32.7597 123.514 32.2214 123.211 31.9534C122.874 31.6551 120.964 30.2844 120.659 30.1212C120.181 29.8661 119.638 30.2506 119.638 30.8439C119.638 31.1385 119.724 31.287 120.042 31.5417L120.446 31.8653L119.638 32.5077C118.7 33.2534 117.541 33.8297 116.446 34.0941C115.46 34.3324 113.709 34.3373 112.701 34.1046C111.665 33.8653 110.286 33.1787 109.411 32.4662L108.695 31.8827L109.102 31.5109C109.39 31.2477 109.509 31.044 109.509 30.8138C109.509 30.3156 108.996 29.9528 108.534 30.1241Z" fill="#FEA735"/>
<path d="M89.7606 93.0128C89.8352 93.4422 90.0406 93.8622 90.3766 94.2728C90.7126 94.6835 90.8806 94.9915 90.8806 95.1968V95.2808C90.8806 95.5982 90.6752 95.7568 90.2646 95.7568H85.1966C84.7859 95.7568 84.5806 95.5982 84.5806 95.2808V95.1968C84.5806 95.0288 84.7579 94.7395 85.1126 94.3288C85.4859 93.8995 85.6352 93.4608 85.5606 93.0128L83.5726 81.6448L78.8686 94.9728C78.7006 95.4768 78.3926 95.7288 77.9446 95.7288C77.4592 95.7288 77.1232 95.4862 76.9366 95.0008L71.7286 81.2528L69.9366 93.0128C69.8619 93.4608 70.0112 93.8995 70.3846 94.3288C70.7766 94.7395 70.9726 95.0288 70.9726 95.1968V95.2808C70.9726 95.5982 70.7579 95.7568 70.3286 95.7568H67.1926C66.7632 95.7568 66.5486 95.5982 66.5486 95.2808V95.1968C66.5486 94.9915 66.7166 94.6835 67.0526 94.2728C67.4072 93.8435 67.6126 93.4235 67.6686 93.0128L69.9926 78.5928C70.0486 78.1448 69.8899 77.7248 69.5166 77.3328C69.1619 76.9222 68.9846 76.6235 68.9846 76.4368V76.3528C68.9846 76.0355 69.1712 75.8768 69.5446 75.8768H74.8366C75.2286 75.8768 75.4246 76.0355 75.4246 76.3528V76.4368C75.4246 76.5302 75.2566 76.8195 74.9206 77.3048C74.6032 77.7715 74.5192 78.2195 74.6686 78.6488L78.5326 89.9048L82.4526 78.4528C82.5646 78.0608 82.4339 77.6595 82.0606 77.2488C81.7059 76.8195 81.5286 76.5488 81.5286 76.4368V76.3528C81.5286 76.0355 81.7152 75.8768 82.0886 75.8768H87.5206C87.9126 75.8768 88.1086 76.0262 88.1086 76.3248V76.4368C88.1086 76.6235 87.9966 76.8195 87.7726 77.0248C87.5672 77.2302 87.3806 77.4728 87.2126 77.7528C87.0446 78.0142 86.9979 78.3315 87.0726 78.7048L89.7606 93.0128ZM103.832 82.1208C104.56 82.0462 104.924 82.2235 104.924 82.6528V94.1888C104.924 96.4848 104.243 98.2488 102.88 99.4808C101.517 100.732 99.8001 101.357 97.7281 101.357C96.0668 101.357 94.6481 100.974 93.4721 100.209C92.3148 99.4435 91.7361 98.5008 91.7361 97.3808C91.7361 96.9328 91.8854 96.5502 92.1841 96.2328C92.5014 95.9342 92.9121 95.7848 93.4161 95.7848C93.9761 95.7848 94.4334 96.0088 94.7881 96.4568C95.1428 96.9235 95.4041 97.4275 95.5721 97.9688C95.7401 98.5102 96.0388 99.0142 96.4681 99.4808C96.9161 99.9475 97.4854 100.181 98.1761 100.181C99.9494 100.181 100.836 98.3795 100.836 94.7768V94.4408C99.9961 95.3182 98.7921 95.7568 97.2241 95.7568C95.8054 95.7568 94.6014 95.2435 93.6121 94.2168C92.6414 93.1902 92.1561 91.8555 92.1561 90.2128V85.4808C92.1561 85.0142 91.9694 84.5848 91.5961 84.1928C91.2414 83.7822 91.0641 83.5022 91.0641 83.3528V83.2688C91.0641 82.9328 91.2601 82.7368 91.6521 82.6808L95.1801 82.1488C95.9454 82.0555 96.3281 82.2235 96.3281 82.6528L96.2441 90.6328C96.2441 92.9848 96.9628 94.1608 98.4001 94.1608C99.0908 94.1608 99.6694 93.8715 100.136 93.2928C100.603 92.7142 100.836 91.9768 100.836 91.0808V85.4808C100.836 85.0142 100.649 84.5848 100.276 84.1928C99.9028 83.7822 99.7161 83.5022 99.7161 83.3528V83.2688C99.7161 82.9328 99.9028 82.7368 100.276 82.6808L103.832 82.1208ZM116.326 95.7568C115.915 95.7568 115.71 95.5982 115.71 95.2808V95.1968C115.71 95.0102 115.897 94.7208 116.27 94.3288C116.643 93.9182 116.83 93.4982 116.83 93.0688V77.6968H114.59C114.198 77.6968 113.843 77.8648 113.526 78.2008C113.209 78.5368 112.957 78.9102 112.77 79.3208C112.602 79.7315 112.397 80.1048 112.154 80.4408C111.911 80.7768 111.669 80.9448 111.426 80.9448H111.034C110.549 80.9448 110.353 80.7022 110.446 80.2168L110.95 76.6608C111.025 76.1382 111.323 75.8768 111.846 75.8768H126.042C126.565 75.8768 126.863 76.1382 126.938 76.6608L127.526 80.2448C127.563 80.4688 127.526 80.6462 127.414 80.7768C127.321 80.8888 127.171 80.9448 126.966 80.9448H126.546C126.303 80.9448 126.051 80.7768 125.79 80.4408C125.547 80.1048 125.333 79.7315 125.146 79.3208C124.959 78.9102 124.698 78.5368 124.362 78.2008C124.045 77.8648 123.69 77.6968 123.298 77.6968H121.03V93.0688C121.03 93.4982 121.226 93.9182 121.618 94.3288C122.01 94.7208 122.206 95.0102 122.206 95.1968V95.2808C122.206 95.5982 121.991 95.7568 121.562 95.7568H116.326ZM140.026 83.4928C140.026 83.6048 139.83 83.8755 139.438 84.3048C139.046 84.7342 138.85 85.2102 138.85 85.7328V93.0688C138.85 93.4982 139.027 93.9182 139.382 94.3288C139.755 94.7208 139.942 95.0102 139.942 95.1968V95.2808C139.942 95.5982 139.755 95.7568 139.382 95.7568H135.938C135.751 95.7568 135.592 95.7008 135.462 95.5888C135.35 95.4768 135.294 95.3275 135.294 95.1408V94.4688C134.416 95.5142 133.184 96.0368 131.598 96.0368C129.787 96.0368 128.238 95.4115 126.95 94.1608C125.662 92.8915 125.018 91.1742 125.018 89.0088C125.018 86.9742 125.662 85.3035 126.95 83.9968C128.238 82.6902 129.796 82.0368 131.626 82.0368C133.119 82.0368 134.342 82.5128 135.294 83.4648V82.9048C135.294 82.6435 135.406 82.4475 135.63 82.3168C135.854 82.1675 136.143 82.1302 136.498 82.2048L139.438 82.7088C139.83 82.7835 140.026 83.0168 140.026 83.4088V83.4928ZM132.522 94.8328C133.156 94.8328 133.707 94.5715 134.174 94.0488C134.659 93.5075 134.902 92.7702 134.902 91.8368V86.9088C134.902 85.9195 134.594 85.0608 133.978 84.3328C133.38 83.6048 132.671 83.2408 131.85 83.2408C130.991 83.2408 130.31 83.6048 129.806 84.3328C129.302 85.0422 129.04 86.0502 129.022 87.3568C128.984 88.4208 129.087 89.5128 129.33 90.6328C129.591 91.7528 130.002 92.7328 130.562 93.5728C131.14 94.3942 131.794 94.8142 132.522 94.8328ZM153.487 93.0128C153.692 93.2555 153.963 93.5262 154.299 93.8248C154.635 94.1235 154.896 94.3755 155.083 94.5808C155.269 94.7675 155.363 94.9635 155.363 95.1688V95.2808C155.363 95.5982 155.167 95.7568 154.775 95.7568H149.119C148.764 95.7568 148.587 95.5888 148.587 95.2528V95.1688C148.587 95.0195 148.708 94.8422 148.951 94.6368C149.212 94.4128 149.371 94.2075 149.427 94.0208C149.501 93.8342 149.361 93.4702 149.007 92.9288L147.019 90.4928L144.807 93.0968C144.545 93.3955 144.405 93.6568 144.387 93.8808C144.368 94.1048 144.424 94.2728 144.555 94.3848C144.685 94.4968 144.816 94.6275 144.947 94.7768C145.096 94.9075 145.171 95.0382 145.171 95.1688V95.2528C145.171 95.5888 144.984 95.7568 144.611 95.7568H140.803C140.429 95.7568 140.243 95.5982 140.243 95.2808V95.1688C140.243 94.9822 140.345 94.8048 140.551 94.6368C140.756 94.4502 141.055 94.2075 141.447 93.9088C141.857 93.6102 142.212 93.3022 142.511 92.9848L145.983 89.2048L142.623 85.0888C142.361 84.7715 142.091 84.4915 141.811 84.2488C141.549 84.0062 141.335 83.8288 141.167 83.7168C141.017 83.6048 140.887 83.4835 140.775 83.3528C140.681 83.2222 140.635 83.0728 140.635 82.9048V82.7648C140.635 82.4662 140.821 82.3168 141.195 82.3168H146.823C147.196 82.3168 147.383 82.4755 147.383 82.7928V82.9048C147.383 83.0728 147.299 83.2968 147.131 83.5768C146.963 83.8568 146.851 84.0902 146.795 84.2768C146.757 84.4448 146.86 84.7342 147.103 85.1448L149.091 87.6088L151.303 85.1448C151.527 84.9022 151.639 84.6688 151.639 84.4448C151.639 84.2022 151.573 84.0155 151.443 83.8848C151.312 83.7355 151.172 83.5675 151.023 83.3808C150.892 83.1942 150.827 83.0355 150.827 82.9048V82.7928C150.827 82.4755 151.004 82.3168 151.359 82.3168H154.579C154.952 82.3168 155.139 82.4662 155.139 82.7648V82.9048C155.139 83.1102 155.064 83.3062 154.915 83.4928C154.784 83.6608 154.541 83.9035 154.187 84.2208C153.851 84.5382 153.571 84.8275 153.347 85.0888L150.127 88.8688L153.487 93.0128ZM160.909 79.6568C160.424 80.1048 159.77 80.3288 158.949 80.3288C158.128 80.3288 157.456 80.1048 156.933 79.6568C156.429 79.1902 156.177 78.5928 156.177 77.8648C156.177 77.1555 156.429 76.5768 156.933 76.1288C157.456 75.6622 158.128 75.4288 158.949 75.4288C159.77 75.4288 160.424 75.6622 160.909 76.1288C161.413 76.5768 161.665 77.1555 161.665 77.8648C161.665 78.5928 161.413 79.1902 160.909 79.6568ZM156.401 95.7568C155.99 95.7568 155.785 95.5982 155.785 95.2808V95.1688C155.785 94.9822 155.962 94.6928 156.317 94.3008C156.672 93.9088 156.849 93.4888 156.849 93.0408V86.7128C156.849 86.2462 156.672 85.8075 156.317 85.3968C155.962 84.9862 155.785 84.7062 155.785 84.5568V84.4728C155.785 84.2862 155.981 84.0902 156.373 83.8848L159.873 82.1488C160.228 81.9995 160.508 81.9902 160.713 82.1208C160.918 82.2328 161.021 82.4288 161.021 82.7088V93.0408C161.021 93.4888 161.217 93.9088 161.609 94.3008C162.001 94.6928 162.197 94.9822 162.197 95.1688V95.2808C162.197 95.5982 161.982 95.7568 161.553 95.7568H156.401Z" fill="#FEA735"/>
<path d="M0.472212 114.575H1.88414L4.70801 119.328H4.82733L7.65119 114.575H9.06312L5.38414 120.561V124.757H4.15119V120.561L0.472212 114.575ZM12.5209 124.916C11.8315 124.916 11.2266 124.752 10.7062 124.424C10.1892 124.096 9.78483 123.637 9.49316 123.047C9.20481 122.457 9.06064 121.767 9.06064 120.978C9.06064 120.183 9.20481 119.489 9.49316 118.895C9.78483 118.302 10.1892 117.841 10.7062 117.513C11.2266 117.185 11.8315 117.021 12.5209 117.021C13.2103 117.021 13.8135 117.185 14.3305 117.513C14.8509 117.841 15.2552 118.302 15.5436 118.895C15.8353 119.489 15.9811 120.183 15.9811 120.978C15.9811 121.767 15.8353 122.457 15.5436 123.047C15.2552 123.637 14.8509 124.096 14.3305 124.424C13.8135 124.752 13.2103 124.916 12.5209 124.916ZM12.5209 123.862C13.0445 123.862 13.4754 123.728 13.8135 123.459C14.1515 123.191 14.4018 122.838 14.5642 122.4C14.7266 121.963 14.8078 121.489 14.8078 120.978C14.8078 120.468 14.7266 119.992 14.5642 119.552C14.4018 119.111 14.1515 118.754 13.8135 118.483C13.4754 118.211 13.0445 118.075 12.5209 118.075C11.9972 118.075 11.5663 118.211 11.2282 118.483C10.8902 118.754 10.6399 119.111 10.4775 119.552C10.3151 119.992 10.2339 120.468 10.2339 120.978C10.2339 121.489 10.3151 121.963 10.4775 122.4C10.6399 122.838 10.8902 123.191 11.2282 123.459C11.5663 123.728 11.9972 123.862 12.5209 123.862ZM22.5846 121.635V117.12H23.7579V124.757H22.5846V123.464H22.5051C22.3261 123.852 22.0477 124.182 21.6698 124.454C21.292 124.722 20.8147 124.856 20.238 124.856C19.7607 124.856 19.3365 124.752 18.9653 124.543C18.5941 124.331 18.3024 124.013 18.0903 123.589C17.8782 123.161 17.7721 122.622 17.7721 121.973V117.12H18.9454V121.893C18.9454 122.45 19.1012 122.894 19.4127 123.226C19.7276 123.557 20.1286 123.723 20.6159 123.723C20.9075 123.723 21.2042 123.648 21.5058 123.499C21.8107 123.35 22.0659 123.121 22.2714 122.813C22.4802 122.505 22.5846 122.112 22.5846 121.635ZM25.9069 124.757V117.12H27.0404V118.274H27.1199C27.2591 117.896 27.511 117.589 27.8756 117.354C28.2402 117.119 28.6512 117.001 29.1086 117.001C29.1948 117.001 29.3025 117.003 29.4317 117.006C29.561 117.009 29.6588 117.014 29.7251 117.021V118.214C29.6853 118.204 29.5941 118.189 29.4516 118.169C29.3124 118.146 29.1649 118.135 29.0091 118.135C28.6379 118.135 28.3065 118.213 28.0148 118.368C27.7265 118.521 27.4978 118.733 27.3287 119.005C27.163 119.273 27.0802 119.58 27.0802 119.924V124.757H25.9069ZM35.2124 124.757V114.575H41.3176V115.669H36.4454V119.109H40.8602V120.203H36.4454V124.757H35.2124ZM45.5173 124.936C45.0334 124.936 44.5943 124.845 44.1998 124.662C43.8054 124.477 43.4922 124.21 43.2602 123.862C43.0282 123.511 42.9122 123.086 42.9122 122.589C42.9122 122.152 42.9984 121.797 43.1707 121.525C43.3431 121.25 43.5734 121.035 43.8618 120.879C44.1501 120.723 44.4683 120.607 44.8163 120.531C45.1676 120.451 45.5206 120.388 45.8753 120.342C46.3393 120.282 46.7155 120.238 47.0038 120.208C47.2955 120.175 47.5076 120.12 47.6402 120.044C47.7761 119.968 47.844 119.835 47.844 119.646V119.606C47.844 119.116 47.7098 118.735 47.4413 118.463C47.1762 118.191 46.7735 118.055 46.2332 118.055C45.6731 118.055 45.2339 118.178 44.9157 118.423C44.5976 118.668 44.3738 118.93 44.2446 119.209L43.1309 118.811C43.3298 118.347 43.595 117.986 43.9264 117.727C44.2612 117.465 44.6257 117.283 45.0202 117.18C45.4179 117.074 45.809 117.021 46.1934 117.021C46.4387 117.021 46.7204 117.051 47.0386 117.111C47.3601 117.167 47.67 117.285 47.9683 117.464C48.2699 117.642 48.5202 117.913 48.719 118.274C48.9179 118.635 49.0173 119.119 49.0173 119.726V124.757H47.844V123.723H47.7844C47.7048 123.888 47.5722 124.066 47.3866 124.255C47.201 124.444 46.9541 124.604 46.6459 124.737C46.3376 124.87 45.9614 124.936 45.5173 124.936ZM45.6963 123.882C46.1603 123.882 46.5514 123.791 46.8696 123.608C47.1911 123.426 47.433 123.191 47.5954 122.902C47.7612 122.614 47.844 122.311 47.844 121.993V120.919C47.7943 120.978 47.6849 121.033 47.5159 121.083C47.3502 121.129 47.1579 121.171 46.9392 121.207C46.7238 121.24 46.5133 121.27 46.3078 121.297C46.1056 121.32 45.9416 121.34 45.8156 121.356C45.5107 121.396 45.2256 121.461 44.9605 121.55C44.6987 121.636 44.4865 121.767 44.3241 121.943C44.165 122.115 44.0855 122.351 44.0855 122.649C44.0855 123.057 44.2363 123.365 44.5379 123.574C44.8428 123.779 45.229 123.882 45.6963 123.882ZM56.5679 118.831L55.5139 119.129C55.4477 118.953 55.3499 118.783 55.2206 118.617C55.0947 118.448 54.9223 118.309 54.7036 118.199C54.4848 118.09 54.2048 118.035 53.8634 118.035C53.396 118.035 53.0066 118.143 52.695 118.358C52.3868 118.571 52.2327 118.841 52.2327 119.169C52.2327 119.46 52.3387 119.691 52.5509 119.86C52.763 120.029 53.0944 120.17 53.5452 120.282L54.6787 120.561C55.3615 120.727 55.8702 120.98 56.205 121.321C56.5397 121.66 56.7071 122.095 56.7071 122.629C56.7071 123.066 56.5812 123.458 56.3293 123.802C56.0807 124.147 55.7327 124.419 55.2852 124.618C54.8378 124.816 54.3174 124.916 53.7242 124.916C52.9453 124.916 52.3006 124.747 51.7902 124.409C51.2798 124.071 50.9566 123.577 50.8208 122.927L51.9344 122.649C52.0405 123.06 52.241 123.368 52.536 123.574C52.8343 123.779 53.2237 123.882 53.7043 123.882C54.2512 123.882 54.6853 123.766 55.0068 123.534C55.3316 123.299 55.4941 123.017 55.4941 122.689C55.4941 122.424 55.4012 122.201 55.2156 122.022C55.03 121.84 54.745 121.704 54.3605 121.615L53.0878 121.316C52.3885 121.151 51.8747 120.894 51.5466 120.546C51.2218 120.195 51.0594 119.755 51.0594 119.228C51.0594 118.798 51.1804 118.416 51.4223 118.085C51.6676 117.754 52.0007 117.493 52.4216 117.304C52.8459 117.116 53.3264 117.021 53.8634 117.021C54.6191 117.021 55.2123 117.187 55.6432 117.518C56.0774 117.85 56.3856 118.287 56.5679 118.831ZM61.7943 117.12V118.115H57.8369V117.12H61.7943ZM58.9903 115.291H60.1636V122.569C60.1636 122.901 60.2117 123.149 60.3078 123.315C60.4072 123.477 60.5332 123.587 60.6856 123.643C60.8414 123.696 61.0055 123.723 61.1778 123.723C61.3071 123.723 61.4131 123.716 61.496 123.703C61.5789 123.686 61.6452 123.673 61.6949 123.663L61.9335 124.717C61.854 124.747 61.7429 124.777 61.6004 124.807C61.4579 124.84 61.2773 124.856 61.0585 124.856C60.7271 124.856 60.4023 124.785 60.0841 124.642C59.7692 124.5 59.5074 124.283 59.2986 123.991C59.0931 123.7 58.9903 123.332 58.9903 122.888V115.291ZM67.099 115.669V114.575H74.7354V115.669H71.5336V124.757H70.3007V115.669H67.099ZM75.6862 124.757V117.12H76.8197V118.274H76.8992C77.0384 117.896 77.2903 117.589 77.6549 117.354C78.0195 117.119 78.4305 117.001 78.8879 117.001C78.974 117.001 79.0818 117.003 79.211 117.006C79.3403 117.009 79.4381 117.014 79.5044 117.021V118.214C79.4646 118.204 79.3734 118.189 79.2309 118.169C79.0917 118.146 78.9442 118.135 78.7884 118.135C78.4172 118.135 78.0858 118.213 77.7941 118.368C77.5058 118.521 77.2771 118.733 77.108 119.005C76.9423 119.273 76.8595 119.58 76.8595 119.924V124.757H75.6862ZM83.1423 124.936C82.6584 124.936 82.2193 124.845 81.8248 124.662C81.4304 124.477 81.1172 124.21 80.8852 123.862C80.6532 123.511 80.5372 123.086 80.5372 122.589C80.5372 122.152 80.6234 121.797 80.7957 121.525C80.9681 121.25 81.1984 121.035 81.4868 120.879C81.7751 120.723 82.0933 120.607 82.4413 120.531C82.7926 120.451 83.1456 120.388 83.5003 120.342C83.9643 120.282 84.3405 120.238 84.6288 120.208C84.9205 120.175 85.1326 120.12 85.2652 120.044C85.4011 119.968 85.469 119.835 85.469 119.646V119.606C85.469 119.116 85.3348 118.735 85.0663 118.463C84.8012 118.191 84.3985 118.055 83.8582 118.055C83.2981 118.055 82.8589 118.178 82.5407 118.423C82.2226 118.668 81.9988 118.93 81.8696 119.209L80.7559 118.811C80.9548 118.347 81.22 117.986 81.5514 117.727C81.8862 117.465 82.2507 117.283 82.6452 117.18C83.0429 117.074 83.434 117.021 83.8184 117.021C84.0637 117.021 84.3454 117.051 84.6636 117.111C84.9851 117.167 85.295 117.285 85.5933 117.464C85.8949 117.642 86.1452 117.913 86.344 118.274C86.5429 118.635 86.6423 119.119 86.6423 119.726V124.757H85.469V123.723H85.4094C85.3298 123.888 85.1972 124.066 85.0116 124.255C84.826 124.444 84.5791 124.604 84.2709 124.737C83.9626 124.87 83.5864 124.936 83.1423 124.936ZM83.3213 123.882C83.7853 123.882 84.1764 123.791 84.4946 123.608C84.8161 123.426 85.058 123.191 85.2204 122.902C85.3862 122.614 85.469 122.311 85.469 121.993V120.919C85.4193 120.978 85.3099 121.033 85.1409 121.083C84.9752 121.129 84.7829 121.171 84.5642 121.207C84.3488 121.24 84.1383 121.27 83.9328 121.297C83.7306 121.32 83.5666 121.34 83.4406 121.356C83.1357 121.396 82.8506 121.461 82.5855 121.55C82.3237 121.636 82.1115 121.767 81.9491 121.943C81.79 122.115 81.7105 122.351 81.7105 122.649C81.7105 123.057 81.8613 123.365 82.1629 123.574C82.4678 123.779 82.854 123.882 83.3213 123.882ZM91.8861 124.916C91.1702 124.916 90.5537 124.747 90.0367 124.409C89.5196 124.071 89.1219 123.605 88.8435 123.012C88.5651 122.419 88.4259 121.741 88.4259 120.978C88.4259 120.203 88.5684 119.518 88.8534 118.925C89.1418 118.329 89.5428 117.863 90.0566 117.528C90.5736 117.19 91.1768 117.021 91.8662 117.021C92.4031 117.021 92.887 117.12 93.3179 117.319C93.7488 117.518 94.1018 117.797 94.3769 118.155C94.652 118.513 94.8227 118.93 94.8889 119.407H93.7156C93.6262 119.059 93.4273 118.751 93.1191 118.483C92.8141 118.211 92.4031 118.075 91.8861 118.075C91.4287 118.075 91.0277 118.194 90.683 118.433C90.3416 118.668 90.0748 119.001 89.8825 119.432C89.6936 119.86 89.5992 120.362 89.5992 120.939C89.5992 121.529 89.692 122.042 89.8776 122.48C90.0665 122.917 90.3316 123.257 90.673 123.499C91.0177 123.741 91.4221 123.862 91.8861 123.862C92.191 123.862 92.4678 123.809 92.7164 123.703C92.9649 123.597 93.1754 123.444 93.3477 123.245C93.5201 123.047 93.6427 122.808 93.7156 122.53H94.8889C94.8227 122.98 94.6586 123.386 94.3968 123.748C94.1382 124.106 93.7952 124.391 93.3676 124.603C92.9434 124.812 92.4495 124.916 91.8861 124.916ZM97.6979 121.973L97.678 120.521H97.9166L101.258 117.12H102.709L99.1496 120.72H99.0502L97.6979 121.973ZM96.6041 124.757V114.575H97.7774V124.757H96.6041ZM101.456 124.757L98.4735 120.978L99.3087 120.163L102.948 124.757H101.456ZM111.478 117.12V118.115H107.521V117.12H111.478ZM108.674 115.291H109.847V122.569C109.847 122.901 109.895 123.149 109.991 123.315C110.091 123.477 110.217 123.587 110.369 123.643C110.525 123.696 110.689 123.723 110.861 123.723C110.991 123.723 111.097 123.716 111.18 123.703C111.262 123.686 111.329 123.673 111.378 123.663L111.617 124.717C111.538 124.747 111.427 124.777 111.284 124.807C111.141 124.84 110.961 124.856 110.742 124.856C110.411 124.856 110.086 124.785 109.768 124.642C109.453 124.5 109.191 124.283 108.982 123.991C108.777 123.7 108.674 123.332 108.674 122.888V115.291ZM116.263 124.916C115.574 124.916 114.969 124.752 114.448 124.424C113.931 124.096 113.527 123.637 113.235 123.047C112.947 122.457 112.803 121.767 112.803 120.978C112.803 120.183 112.947 119.489 113.235 118.895C113.527 118.302 113.931 117.841 114.448 117.513C114.969 117.185 115.574 117.021 116.263 117.021C116.952 117.021 117.556 117.185 118.073 117.513C118.593 117.841 118.997 118.302 119.286 118.895C119.577 119.489 119.723 120.183 119.723 120.978C119.723 121.767 119.577 122.457 119.286 123.047C118.997 123.637 118.593 124.096 118.073 124.424C117.556 124.752 116.952 124.916 116.263 124.916ZM116.263 123.862C116.787 123.862 117.218 123.728 117.556 123.459C117.894 123.191 118.144 122.838 118.306 122.4C118.469 121.963 118.55 121.489 118.55 120.978C118.55 120.468 118.469 119.992 118.306 119.552C118.144 119.111 117.894 118.754 117.556 118.483C117.218 118.211 116.787 118.075 116.263 118.075C115.739 118.075 115.309 118.211 114.97 118.483C114.632 118.754 114.382 119.111 114.22 119.552C114.057 119.992 113.976 120.468 113.976 120.978C113.976 121.489 114.057 121.963 114.22 122.4C114.382 122.838 114.632 123.191 114.97 123.459C115.309 123.728 115.739 123.862 116.263 123.862ZM133.804 117.757H132.571C132.498 117.402 132.371 117.091 132.188 116.822C132.009 116.554 131.791 116.328 131.532 116.146C131.277 115.96 130.993 115.821 130.682 115.728C130.37 115.636 130.046 115.589 129.707 115.589C129.091 115.589 128.533 115.745 128.032 116.057C127.535 116.368 127.139 116.827 126.844 117.434C126.552 118.04 126.406 118.784 126.406 119.666C126.406 120.548 126.552 121.292 126.844 121.898C127.139 122.505 127.535 122.964 128.032 123.275C128.533 123.587 129.091 123.743 129.707 123.743C130.046 123.743 130.37 123.696 130.682 123.603C130.993 123.511 131.277 123.373 131.532 123.191C131.791 123.005 132.009 122.778 132.188 122.51C132.371 122.238 132.498 121.926 132.571 121.575H133.804C133.711 122.095 133.542 122.561 133.297 122.972C133.052 123.383 132.747 123.733 132.382 124.021C132.018 124.306 131.608 124.523 131.154 124.672C130.703 124.821 130.221 124.896 129.707 124.896C128.839 124.896 128.067 124.684 127.391 124.26C126.715 123.835 126.183 123.232 125.795 122.45C125.407 121.668 125.213 120.74 125.213 119.666C125.213 118.592 125.407 117.664 125.795 116.882C126.183 116.1 126.715 115.496 127.391 115.072C128.067 114.648 128.839 114.436 129.707 114.436C130.221 114.436 130.703 114.51 131.154 114.66C131.608 114.809 132.018 115.027 132.382 115.316C132.747 115.601 133.052 115.949 133.297 116.36C133.542 116.767 133.711 117.233 133.804 117.757ZM135.637 124.757V117.12H136.811V124.757H135.637ZM136.234 115.848C136.005 115.848 135.808 115.77 135.642 115.614C135.48 115.458 135.399 115.271 135.399 115.052C135.399 114.834 135.48 114.646 135.642 114.491C135.808 114.335 136.005 114.257 136.234 114.257C136.463 114.257 136.658 114.335 136.821 114.491C136.986 114.646 137.069 114.834 137.069 115.052C137.069 115.271 136.986 115.458 136.821 115.614C136.658 115.77 136.463 115.848 136.234 115.848ZM142.281 117.12V118.115H138.323V117.12H142.281ZM139.477 115.291H140.65V122.569C140.65 122.901 140.698 123.149 140.794 123.315C140.894 123.477 141.02 123.587 141.172 123.643C141.328 123.696 141.492 123.723 141.664 123.723C141.793 123.723 141.899 123.716 141.982 123.703C142.065 123.686 142.131 123.673 142.181 123.663L142.42 124.717C142.34 124.747 142.229 124.777 142.087 124.807C141.944 124.84 141.764 124.856 141.545 124.856C141.213 124.856 140.889 124.785 140.57 124.642C140.256 124.5 139.994 124.283 139.785 123.991C139.579 123.7 139.477 123.332 139.477 122.888V115.291ZM144.801 127.62C144.602 127.62 144.425 127.604 144.269 127.571C144.113 127.541 144.006 127.511 143.946 127.481L144.244 126.447C144.529 126.52 144.781 126.547 145 126.527C145.219 126.507 145.413 126.409 145.582 126.233C145.754 126.061 145.912 125.781 146.054 125.393L146.273 124.797L143.449 117.12H144.722L146.83 123.206H146.909L149.017 117.12H150.29L147.048 125.87C146.903 126.265 146.722 126.591 146.506 126.85C146.291 127.112 146.041 127.306 145.756 127.432C145.474 127.557 145.156 127.62 144.801 127.62ZM155.935 124.757V114.575H162.08V115.669H157.168V119.109H161.762V120.203H157.168V123.663H162.16V124.757H155.935ZM165.018 117.12L166.848 120.243L168.677 117.12H170.03L167.564 120.939L170.03 124.757H168.677L166.848 121.794L165.018 124.757H163.666L166.092 120.939L163.666 117.12H165.018ZM171.704 127.62V117.12H172.837V118.334H172.976C173.063 118.201 173.182 118.032 173.334 117.826C173.49 117.618 173.712 117.432 174.001 117.27C174.292 117.104 174.687 117.021 175.184 117.021C175.827 117.021 176.394 117.182 176.884 117.503C177.375 117.825 177.757 118.281 178.033 118.87C178.308 119.46 178.445 120.156 178.445 120.959C178.445 121.767 178.308 122.468 178.033 123.062C177.757 123.651 177.376 124.109 176.889 124.434C176.402 124.755 175.84 124.916 175.204 124.916C174.713 124.916 174.32 124.835 174.025 124.672C173.73 124.507 173.503 124.319 173.344 124.111C173.185 123.898 173.063 123.723 172.976 123.584H172.877V127.62H171.704ZM172.857 120.939C172.857 121.515 172.942 122.024 173.111 122.465C173.28 122.902 173.527 123.245 173.851 123.494C174.176 123.739 174.574 123.862 175.045 123.862C175.535 123.862 175.945 123.733 176.273 123.474C176.604 123.212 176.853 122.861 177.018 122.42C177.187 121.976 177.272 121.482 177.272 120.939C177.272 120.402 177.189 119.918 177.023 119.487C176.861 119.053 176.614 118.71 176.283 118.458C175.954 118.203 175.542 118.075 175.045 118.075C174.567 118.075 174.166 118.196 173.842 118.438C173.517 118.677 173.271 119.011 173.106 119.442C172.94 119.87 172.857 120.369 172.857 120.939ZM181.408 114.575V124.757H180.235V114.575H181.408ZM186.66 124.916C185.97 124.916 185.365 124.752 184.845 124.424C184.328 124.096 183.924 123.637 183.632 123.047C183.343 122.457 183.199 121.767 183.199 120.978C183.199 120.183 183.343 119.489 183.632 118.895C183.924 118.302 184.328 117.841 184.845 117.513C185.365 117.185 185.97 117.021 186.66 117.021C187.349 117.021 187.952 117.185 188.469 117.513C188.99 117.841 189.394 118.302 189.682 118.895C189.974 119.489 190.12 120.183 190.12 120.978C190.12 121.767 189.974 122.457 189.682 123.047C189.394 123.637 188.99 124.096 188.469 124.424C187.952 124.752 187.349 124.916 186.66 124.916ZM186.66 123.862C187.183 123.862 187.614 123.728 187.952 123.459C188.29 123.191 188.54 122.838 188.703 122.4C188.865 121.963 188.946 121.489 188.946 120.978C188.946 120.468 188.865 119.992 188.703 119.552C188.54 119.111 188.29 118.754 187.952 118.483C187.614 118.211 187.183 118.075 186.66 118.075C186.136 118.075 185.705 118.211 185.367 118.483C185.029 118.754 184.779 119.111 184.616 119.552C184.454 119.992 184.373 120.468 184.373 120.978C184.373 121.489 184.454 121.963 184.616 122.4C184.779 122.838 185.029 123.191 185.367 123.459C185.705 123.728 186.136 123.862 186.66 123.862ZM191.911 124.757V117.12H193.044V118.274H193.124C193.263 117.896 193.515 117.589 193.88 117.354C194.244 117.119 194.655 117.001 195.112 117.001C195.199 117.001 195.306 117.003 195.436 117.006C195.565 117.009 195.663 117.014 195.729 117.021V118.214C195.689 118.204 195.598 118.189 195.456 118.169C195.316 118.146 195.169 118.135 195.013 118.135C194.642 118.135 194.31 118.213 194.019 118.368C193.73 118.521 193.502 118.733 193.333 119.005C193.167 119.273 193.084 119.58 193.084 119.924V124.757H191.911ZM199.367 124.936C198.883 124.936 198.444 124.845 198.049 124.662C197.655 124.477 197.342 124.21 197.11 123.862C196.878 123.511 196.762 123.086 196.762 122.589C196.762 122.152 196.848 121.797 197.02 121.525C197.193 121.25 197.423 121.035 197.711 120.879C198 120.723 198.318 120.607 198.666 120.531C199.017 120.451 199.37 120.388 199.725 120.342C200.189 120.282 200.565 120.238 200.853 120.208C201.145 120.175 201.357 120.12 201.49 120.044C201.626 119.968 201.694 119.835 201.694 119.646V119.606C201.694 119.116 201.559 118.735 201.291 118.463C201.026 118.191 200.623 118.055 200.083 118.055C199.523 118.055 199.084 118.178 198.765 118.423C198.447 118.668 198.223 118.93 198.094 119.209L196.981 118.811C197.179 118.347 197.445 117.986 197.776 117.727C198.111 117.465 198.475 117.283 198.87 117.18C199.267 117.074 199.659 117.021 200.043 117.021C200.288 117.021 200.57 117.051 200.888 117.111C201.21 117.167 201.52 117.285 201.818 117.464C202.12 117.642 202.37 117.913 202.569 118.274C202.767 118.635 202.867 119.119 202.867 119.726V124.757H201.694V123.723H201.634C201.554 123.888 201.422 124.066 201.236 124.255C201.051 124.444 200.804 124.604 200.495 124.737C200.187 124.87 199.811 124.936 199.367 124.936ZM199.546 123.882C200.01 123.882 200.401 123.791 200.719 123.608C201.041 123.426 201.283 123.191 201.445 122.902C201.611 122.614 201.694 122.311 201.694 121.993V120.919C201.644 120.978 201.535 121.033 201.366 121.083C201.2 121.129 201.008 121.171 200.789 121.207C200.573 121.24 200.363 121.27 200.157 121.297C199.955 121.32 199.791 121.34 199.665 121.356C199.36 121.396 199.075 121.461 198.81 121.55C198.548 121.636 198.336 121.767 198.174 121.943C198.015 122.115 197.935 122.351 197.935 122.649C197.935 123.057 198.086 123.365 198.388 123.574C198.692 123.779 199.079 123.882 199.546 123.882ZM208.329 117.12V118.115H204.372V117.12H208.329ZM205.525 115.291H206.699V122.569C206.699 122.901 206.747 123.149 206.843 123.315C206.942 123.477 207.068 123.587 207.221 123.643C207.377 123.696 207.541 123.723 207.713 123.723C207.842 123.723 207.948 123.716 208.031 123.703C208.114 123.686 208.18 123.673 208.23 123.663L208.469 124.717C208.389 124.747 208.278 124.777 208.136 124.807C207.993 124.84 207.812 124.856 207.594 124.856C207.262 124.856 206.937 124.785 206.619 124.642C206.304 124.5 206.043 124.283 205.834 123.991C205.628 123.7 205.525 123.332 205.525 122.888V115.291ZM210.094 124.757V117.12H211.268V124.757H210.094ZM210.691 115.848C210.462 115.848 210.265 115.77 210.099 115.614C209.937 115.458 209.856 115.271 209.856 115.052C209.856 114.834 209.937 114.646 210.099 114.491C210.265 114.335 210.462 114.257 210.691 114.257C210.92 114.257 211.115 114.335 211.278 114.491C211.443 114.646 211.526 114.834 211.526 115.052C211.526 115.271 211.443 115.458 211.278 115.614C211.115 115.77 210.92 115.848 210.691 115.848ZM216.519 124.916C215.83 124.916 215.225 124.752 214.704 124.424C214.187 124.096 213.783 123.637 213.491 123.047C213.203 122.457 213.059 121.767 213.059 120.978C213.059 120.183 213.203 119.489 213.491 118.895C213.783 118.302 214.187 117.841 214.704 117.513C215.225 117.185 215.83 117.021 216.519 117.021C217.208 117.021 217.812 117.185 218.329 117.513C218.849 117.841 219.253 118.302 219.542 118.895C219.833 119.489 219.979 120.183 219.979 120.978C219.979 121.767 219.833 122.457 219.542 123.047C219.253 123.637 218.849 124.096 218.329 124.424C217.812 124.752 217.208 124.916 216.519 124.916ZM216.519 123.862C217.043 123.862 217.473 123.728 217.812 123.459C218.15 123.191 218.4 122.838 218.562 122.4C218.725 121.963 218.806 121.489 218.806 120.978C218.806 120.468 218.725 119.992 218.562 119.552C218.4 119.111 218.15 118.754 217.812 118.483C217.473 118.211 217.043 118.075 216.519 118.075C215.995 118.075 215.564 118.211 215.226 118.483C214.888 118.754 214.638 119.111 214.476 119.552C214.313 119.992 214.232 120.468 214.232 120.978C214.232 121.489 214.313 121.963 214.476 122.4C214.638 122.838 214.888 123.191 215.226 123.459C215.564 123.728 215.995 123.862 216.519 123.862ZM222.943 120.163V124.757H221.77V117.12H222.904V118.314H223.003C223.182 117.926 223.454 117.614 223.818 117.379C224.183 117.14 224.654 117.021 225.23 117.021C225.747 117.021 226.2 117.127 226.588 117.339C226.975 117.548 227.277 117.866 227.492 118.294C227.708 118.718 227.816 119.255 227.816 119.905V124.757H226.642V119.984C226.642 119.384 226.487 118.917 226.175 118.582C225.863 118.244 225.436 118.075 224.892 118.075C224.518 118.075 224.183 118.156 223.888 118.319C223.596 118.481 223.366 118.718 223.197 119.03C223.028 119.341 222.943 119.719 222.943 120.163Z" fill="white"/>
</svg>
