<svg width="24" height="24" viewBox="0 0 24 24" fill="none" xmlns="http://www.w3.org/2000/svg">
<path d="M12 2C12.9367 2 13.8495 2.10751 14.7263 2.31129C15.2643 2.43631 15.599 2.97376 15.474 3.5117C15.349 4.04965 14.8116 4.3844 14.2736 4.25938C13.7873 4.14636 13.287 4.06875 12.7755 4.02957L12.7005 4.02686C14.3015 4.15012 15.7852 4.69226 17.0421 5.54388L17.6484 4.93758C18.0389 4.54705 18.6721 4.54705 19.0626 4.93758C19.4531 5.3281 19.4531 5.96126 19.0626 6.35179L18.5678 6.84657C20.0763 8.45598 21 10.6201 21 13C21 17.9706 16.9706 22 12 22C7.02944 22 3 17.9706 3 13C3 8.22817 6.71366 4.3237 11.4085 4.01913L11.272 4.02636C10.7439 4.064 10.2277 4.14287 9.72635 4.25938C9.1884 4.3844 8.65096 4.04965 8.52594 3.5117C8.40092 2.97376 8.73566 2.43631 9.27361 2.31129C10.1505 2.10751 11.0633 2 12 2ZM12 6C8.13401 6 5 9.13401 5 13C5 16.866 8.13401 20 12 20C15.866 20 19 16.866 19 13C19 9.13401 15.866 6 12 6ZM12 8C12.5128 8 12.9355 8.38604 12.9933 8.88338L13 9V13C13 13.5523 12.5523 14 12 14C11.4872 14 11.0645 13.614 11.0067 13.1166L11 13V9C11 8.44772 11.4477 8 12 8Z" fill="#09244B"/>
</svg>
