<svg width="24" height="24" viewBox="0 0 24 24" fill="none" xmlns="http://www.w3.org/2000/svg">
<g clip-path="url(#clip0_2565_2229)">
<path d="M12 2C17.5228 2 22 6.47715 22 12C22 17.5228 17.5228 22 12 22C6.47715 22 2 17.5228 2 12C2 6.47715 6.47715 2 12 2ZM12 4C7.58172 4 4 7.58172 4 12C4 16.4183 7.58172 20 12 20C16.4183 20 20 16.4183 20 12C20 7.58172 16.4183 4 12 4ZM12 6C12.5128 6 12.9355 6.38604 12.9933 6.88338L13 7V8H15C15.5523 8 16 8.44772 16 9C16 9.51283 15.614 9.93551 15.1166 9.99327L15 10H10C9.72386 10 9.5 10.2239 9.5 10.5C9.5 10.7454 9.67688 10.9496 9.91012 10.9919L10 11H14C15.3807 11 16.5 12.1193 16.5 13.5C16.5 14.8255 15.4685 15.91 14.1644 15.9947L14 16H13V17C13 17.5523 12.5523 18 12 18C11.4872 18 11.0645 17.614 11.0067 17.1166L11 17V16H9C8.44772 16 8 15.5523 8 15C8 14.4872 8.38604 14.0645 8.88338 14.0067L9 14H14C14.2761 14 14.5 13.7761 14.5 13.5C14.5 13.2546 14.3231 13.0504 14.0899 13.0081L14 13H10C8.61929 13 7.5 11.8807 7.5 10.5C7.5 9.17452 8.53154 8.08996 9.83562 8.00532L10 8H11V7C11 6.44772 11.4477 6 12 6Z" fill="#09244B"/>
</g>
<defs>
<clipPath id="clip0_2565_2229">
<rect width="24" height="24" fill="white"/>
</clipPath>
</defs>
</svg>
