<svg width="28" height="16" viewBox="0 0 28 16" fill="none" xmlns="http://www.w3.org/2000/svg">
<g id="Group">
<path id="Vector" d="M27.1047 15.9378H0.895289C0.400805 15.9378 0 15.537 0 15.0425V0.957545C0 0.463115 0.400805 0.0622559 0.895289 0.0622559H27.1047C27.5991 0.0622559 28 0.463061 28 0.957545V15.0425C28 15.537 27.5992 15.9378 27.1047 15.9378Z" fill="#5EA570"/>
<path id="Vector_2" d="M27.1048 0.0622559H25.9204C26.4149 0.0622559 26.8157 0.463061 26.8157 0.957545V15.0425C26.8157 15.537 26.4149 15.9378 25.9204 15.9378H27.1048C27.5992 15.9378 28.0001 15.537 28.0001 15.0425V0.957545C28.0001 0.463115 27.5993 0.0622559 27.1048 0.0622559Z" fill="#528E61"/>
<path id="Vector_3" d="M24.8779 11.3758C24.9146 11.3728 24.9487 11.3561 24.9736 11.3291C24.9985 11.302 25.0123 11.2666 25.0123 11.2298V4.77005C25.0123 4.7333 24.9985 4.69789 24.9736 4.67085C24.9487 4.64381 24.9146 4.62712 24.8779 4.62409C24.0896 4.55939 23.4612 3.9301 23.3977 3.14134C23.3948 3.10547 23.3785 3.072 23.3521 3.04761C23.3256 3.02322 23.2909 3.00971 23.2549 3.00977H4.74759C4.71084 3.00975 4.67543 3.02355 4.64839 3.04843C4.62135 3.07332 4.60466 3.10746 4.60163 3.14408C4.53698 3.93152 3.90906 4.55945 3.12162 4.62409C3.08498 4.62708 3.05082 4.64376 3.02593 4.67081C3.00104 4.69786 2.98725 4.73329 2.9873 4.77005V11.2298C2.98729 11.2666 3.00109 11.302 3.02597 11.329C3.05086 11.3561 3.085 11.3728 3.12162 11.3758C3.90906 11.4404 4.53698 12.0684 4.60163 12.8558C4.60462 12.8924 4.6213 12.9266 4.64835 12.9515C4.6754 12.9764 4.71083 12.9902 4.74759 12.9901H23.252C23.2887 12.9901 23.3241 12.9763 23.3512 12.9515C23.3782 12.9266 23.3949 12.8924 23.3979 12.8558C23.4626 12.0684 24.0905 11.4404 24.8779 11.3758Z" fill="#8BC852"/>
<path id="Vector_4" d="M24.8782 4.62428C24.0899 4.55958 23.4614 3.93029 23.398 3.14159C23.3951 3.10571 23.3788 3.07224 23.3524 3.04785C23.3259 3.02346 23.2912 3.00995 23.2552 3.01001H21.8286C21.8646 3.00995 21.8993 3.02346 21.9258 3.04785C21.9523 3.07224 21.9685 3.10571 21.9714 3.14159C22.0349 3.93035 22.6633 4.55958 23.4517 4.62428C23.4883 4.62731 23.5224 4.644 23.5473 4.67104C23.5722 4.69808 23.586 4.73349 23.586 4.77024V11.23C23.586 11.2668 23.5722 11.3022 23.5473 11.3293C23.5225 11.3563 23.4883 11.373 23.4517 11.376C22.6642 11.4406 22.0363 12.0686 21.9716 12.856C21.9686 12.8926 21.9519 12.9268 21.9249 12.9516C21.8978 12.9765 21.8624 12.9903 21.8257 12.9903H23.2523C23.289 12.9903 23.3244 12.9765 23.3515 12.9516C23.3785 12.9268 23.3952 12.8926 23.3982 12.856C23.4629 12.0686 24.0908 11.4406 24.8782 11.376C24.9149 11.373 24.949 11.3563 24.9739 11.3293C24.9988 11.3022 25.0126 11.2668 25.0125 11.23V4.77024C25.0126 4.73349 24.9988 4.69807 24.9739 4.67103C24.949 4.64399 24.9149 4.6273 24.8782 4.62428Z" fill="#7DBE3B"/>
<path id="Vector_5" d="M14.0001 14.342C17.5026 14.342 20.342 11.5026 20.342 8.00009C20.342 4.49756 17.5026 1.6582 14.0001 1.6582C10.4976 1.6582 7.6582 4.49756 7.6582 8.00009C7.6582 11.5026 10.4976 14.342 14.0001 14.342Z" fill="#CBE7AF"/>
<path id="Vector_6" d="M13.9999 1.6582C13.7664 1.6582 13.536 1.67122 13.3091 1.69583C16.4865 2.04014 18.9601 4.73109 18.9601 8.00009C18.9601 11.2691 16.4865 13.96 13.3091 14.3044C13.536 14.329 13.7665 14.342 13.9999 14.342C17.5025 14.342 20.3418 11.5026 20.3418 8.00009C20.3418 4.49758 17.5025 1.6582 13.9999 1.6582Z" fill="#AAD880"/>
<path id="Vector_7" d="M14.8138 7.56413C14.6691 7.51316 14.525 7.46047 14.3816 7.40608V5.15471C14.7632 5.23389 14.9913 5.42874 15.0099 5.44515C15.0929 5.51876 15.2016 5.55678 15.3124 5.55099C15.4232 5.54519 15.5272 5.49606 15.6021 5.41419C15.677 5.33233 15.7167 5.22429 15.7126 5.11342C15.7085 5.00255 15.661 4.89773 15.5803 4.8216C15.5541 4.79754 15.1091 4.39701 14.3815 4.29808V3.82022C14.3815 3.70816 14.337 3.60069 14.2578 3.52146C14.1785 3.44222 14.0711 3.39771 13.959 3.39771C13.8469 3.39771 13.7395 3.44222 13.6602 3.52146C13.581 3.60069 13.5365 3.70816 13.5365 3.82022V4.33056C13.4571 4.34707 13.3785 4.36703 13.3009 4.39039C12.6557 4.5847 12.1736 5.1372 12.0427 5.83234C11.9235 6.46485 12.1253 7.07418 12.5693 7.42243C12.8125 7.61318 13.1167 7.78785 13.5365 7.97319V10.7999C13.1518 10.7772 12.8985 10.6927 12.4719 10.4135C12.3781 10.3547 12.265 10.335 12.1569 10.3587C12.0488 10.3824 11.9543 10.4475 11.8937 10.5402C11.8331 10.6328 11.8112 10.7455 11.8328 10.854C11.8544 10.9626 11.9177 11.0583 12.0092 11.1207C12.6036 11.5095 13.0063 11.6194 13.5365 11.6452V12.1796C13.5365 12.2916 13.581 12.3991 13.6602 12.4784C13.7395 12.5576 13.8469 12.6021 13.959 12.6021C14.0711 12.6021 14.1785 12.5576 14.2578 12.4784C14.337 12.3991 14.3815 12.2916 14.3815 12.1796V11.613C15.4157 11.4245 16.0196 10.5784 16.1525 9.78827C16.3213 8.78426 15.7958 7.91123 14.8138 7.56413ZM13.0909 6.75749C12.896 6.60469 12.8125 6.31014 12.8731 5.9888C12.9294 5.69004 13.1334 5.3279 13.5365 5.20234V7.03667C13.3675 6.94813 13.2154 6.8551 13.0909 6.75749ZM15.3191 9.64821C15.2438 10.0961 14.9249 10.5731 14.3815 10.7427V8.30695C14.4308 8.32478 14.4805 8.34266 14.5321 8.36087C15.4109 8.67149 15.3566 9.42476 15.3191 9.64821Z" fill="#5EA570"/>
</g>
</svg>
