<svg width="24" height="24" viewBox="0 0 24 24" fill="none" xmlns="http://www.w3.org/2000/svg">
<path d="M11 3C11.5523 3 12 3.44772 12 4C12 4.51283 11.614 4.93551 11.1166 4.99327L11 5H5V19H19V13C19 12.4477 19.4477 12 20 12C20.5128 12 20.9355 12.386 20.9933 12.8834L21 13V19C21 20.0544 20.1841 20.9182 19.1493 20.9945L19 21H5C3.94564 21 3.08183 20.1841 3.00549 19.1493L3 19V5C3 3.94564 3.81588 3.08183 4.85074 3.00549L5 3H11ZM19.75 3C20.4404 3 21 3.55964 21 4.25V8C21 8.55228 20.5523 9 20 9C19.4477 9 19 8.55228 19 8V6.41421L12.4142 13H14C14.5523 13 15 13.4477 15 14C15 14.5523 14.5523 15 14 15H10.25C9.55964 15 9 14.4404 9 13.75V10C9 9.44772 9.44772 9 10 9C10.5523 9 11 9.44772 11 10V11.5858L17.5858 5H16C15.4477 5 15 4.55228 15 4C15 3.44772 15.4477 3 16 3H19.75Z" fill="#09244B"/>
</svg>
