<svg width="16" height="18" viewBox="0 0 16 18" fill="none" xmlns="http://www.w3.org/2000/svg">
<path d="M1 16C0.44772 16 0 16.4477 0 17C0 17.5523 0.44771 18 1 18H15C15.5523 18 16 17.5523 16 17C16 16.4477 15.5523 16 15 16H1ZM12.9495 8.2974C12.559 7.9069 11.9258 7.9069 11.5353 8.2974L9.0001 10.8327V1C9.0001 0.44772 8.5523 0 8.0001 0C7.4478 0 7.0001 0.44772 7.0001 1V10.8333L4.46423 8.2974C4.0737 7.9069 3.44054 7.9069 3.05001 8.2974C2.65949 8.6879 2.65949 9.3211 3.05001 9.7116L7.2926 13.9543C7.6832 14.3448 8.3163 14.3448 8.7069 13.9543L12.9495 9.7116C13.34 9.3211 13.34 8.6879 12.9495 8.2974Z" fill="#09244B"/>
</svg>
