<svg width="18" height="20" viewBox="0 0 18 20" fill="none" xmlns="http://www.w3.org/2000/svg">
<path d="M11.0893 0.833344C11.8784 0.833344 12.579 1.3383 12.8285 2.08692L13.3274 3.58334H16.3333C16.8396 3.58334 17.25 3.99375 17.25 4.50001C17.25 5.00626 16.8396 5.41666 16.3333 5.41668L16.331 5.48199L15.5359 16.6126C15.4332 18.0517 14.2357 19.1667 12.793 19.1667H5.20705C3.76429 19.1667 2.56683 18.0517 2.46404 16.6126L1.669 5.48199C1.66743 5.46008 1.66665 5.4383 1.66663 5.41668C1.16038 5.41666 0.75 5.00626 0.75 4.50001C0.75 3.99375 1.16041 3.58334 1.66667 3.58334H4.67264L5.17144 2.08692C5.42099 1.3383 6.12158 0.833344 6.9107 0.833344H11.0893ZM14.4977 5.41668H3.50234L4.29272 16.4819C4.32698 16.9617 4.72613 17.3333 5.20705 17.3333H12.793C13.2739 17.3333 13.673 16.9617 13.7073 16.4819L14.4977 5.41668ZM7.16667 8.16668C7.63678 8.16668 8.02422 8.52053 8.07717 8.97644L8.08333 9.08334V13.6667C8.08333 14.173 7.67294 14.5833 7.16667 14.5833C6.69656 14.5833 6.30912 14.2295 6.25617 13.7736L6.25 13.6667V9.08334C6.25 8.57707 6.6604 8.16668 7.16667 8.16668ZM10.8333 8.16668C11.3396 8.16668 11.75 8.57707 11.75 9.08334V13.6667C11.75 14.173 11.3396 14.5833 10.8333 14.5833C10.3271 14.5833 9.91667 14.173 9.91667 13.6667V9.08334C9.91667 8.57707 10.3271 8.16668 10.8333 8.16668ZM11.0893 2.66668H6.9107L6.60514 3.58334H11.3949L11.0893 2.66668Z" fill="#FF3B30"/>
</svg>
