<svg width="20" height="20" viewBox="0 0 20 20" fill="none" xmlns="http://www.w3.org/2000/svg">
<g id="road_line">
<path id="vector" d="M6.86878 2.52508C7.31527 2.6367 7.58674 3.08915 7.47511 3.53565L4.14178 16.869C4.03016 17.3155 3.57771 17.587 3.13122 17.4753C2.68472 17.3637 2.41326 16.9113 2.52488 16.4648L5.85821 3.13142C5.96984 2.68492 6.42228 2.41345 6.86878 2.52508ZM14.1418 3.13142L17.4751 16.4648C17.5868 16.9113 17.3153 17.3637 16.8688 17.4753C16.4223 17.587 15.9698 17.3155 15.8583 16.869L12.5249 3.53565C12.4133 3.08915 12.6848 2.6367 13.1313 2.52508C13.5778 2.41345 14.0302 2.68492 14.1418 3.13142ZM10 14.1669C10.4274 14.1669 10.7796 14.4886 10.8277 14.903L10.8333 15.0002V16.6669C10.8333 17.1271 10.4603 17.5002 10 17.5002C9.57263 17.5002 9.22041 17.1785 9.17228 16.7641L9.16667 16.6669V15.0002C9.16667 14.54 9.53975 14.1669 10 14.1669ZM10 8.33353C10.4603 8.33353 10.8333 8.70662 10.8333 9.16686V10.8335C10.8333 11.2938 10.4603 11.6669 10 11.6669C9.53975 11.6669 9.16667 11.2938 9.16667 10.8335V9.16686C9.16667 8.70662 9.53975 8.33353 10 8.33353ZM10 2.5002C10.4274 2.5002 10.7796 2.8219 10.8277 3.23635L10.8333 3.33353V5.0002C10.8333 5.46044 10.4603 5.83353 10 5.83353C9.57263 5.83353 9.22041 5.51183 9.17228 5.09738L9.16667 5.0002V3.33353C9.16667 2.8733 9.53975 2.5002 10 2.5002Z" fill="#232529"/>
</g>
</svg>
