<svg width="20" height="16" viewBox="0 0 20 16" fill="none" xmlns="http://www.w3.org/2000/svg">
<path d="M9.99967 0.666656C12.5541 0.666656 14.8239 1.81869 16.4399 3.24502C17.2512 3.96117 17.9199 4.76502 18.3912 5.56547C18.854 6.35137 19.1663 7.2024 19.1663 7.99999C19.1663 8.79758 18.854 9.64861 18.3912 10.4345C17.9199 11.235 17.2512 12.0388 16.4399 12.7549C14.8239 14.1813 12.5541 15.3333 9.99967 15.3333C7.44523 15.3333 5.17549 14.1813 3.55946 12.7549C2.74806 12.0388 2.07943 11.235 1.6081 10.4345C1.14536 9.64861 0.833008 8.79758 0.833008 7.99999C0.833008 7.2024 1.14536 6.35137 1.6081 5.56547C2.07943 4.76502 2.74806 3.96117 3.55946 3.24502C5.17549 1.81869 7.44523 0.666656 9.99967 0.666656ZM9.99967 2.49999C7.99778 2.49999 6.14252 3.41046 4.77263 4.61954C4.09106 5.22111 3.55152 5.87819 3.1879 6.49574C2.81569 7.12778 2.66634 7.65175 2.66634 7.99999C2.66634 8.34823 2.81569 8.8722 3.1879 9.50424C3.55152 10.1218 4.09106 10.7789 4.77263 11.3805C6.14252 12.5896 7.99778 13.5 9.99967 13.5C12.0016 13.5 13.8568 12.5896 15.2267 11.3805C15.9083 10.7789 16.4479 10.1218 16.8114 9.50424C17.1837 8.8722 17.333 8.34823 17.333 7.99999C17.333 7.65175 17.1837 7.12778 16.8114 6.49574C16.4479 5.87819 15.9083 5.22111 15.2267 4.61954C13.8568 3.41046 12.0016 2.49999 9.99967 2.49999ZM9.99967 5.24999C10.0803 5.24999 10.1602 5.25346 10.239 5.26027C10.0867 5.52758 9.99967 5.83696 9.99967 6.16666C9.99967 7.17921 10.8205 7.99999 11.833 7.99999C12.1627 7.99999 12.4721 7.913 12.7394 7.76065C12.7462 7.83948 12.7497 7.91932 12.7497 7.99999C12.7497 9.51882 11.5185 10.75 9.99967 10.75C8.48085 10.75 7.24967 9.51882 7.24967 7.99999C7.24967 6.48116 8.48085 5.24999 9.99967 5.24999Z" fill="#7D8793"/>
</svg>
