<svg width="18" height="18" viewBox="0 0 18 18" fill="none" xmlns="http://www.w3.org/2000/svg">
<path fill-rule="evenodd" clip-rule="evenodd" d="M10.7382 0.777511C11.4166 0.0992312 12.4941 0.0635322 13.2144 0.670415L13.331 0.777511L17.2201 4.6666C17.8983 5.34488 17.934 6.42241 17.3272 7.14274L17.2201 7.25935L7.76586 16.7136C7.46022 17.0192 7.05783 17.2058 6.63069 17.2435L6.46949 17.2506H1.6729C1.1957 17.2506 0.802773 16.8895 0.752503 16.4256L0.74707 16.3247V11.5281C0.74707 11.0959 0.899683 10.6794 1.17507 10.3507L1.28404 10.2317L10.7382 0.777511ZM9.15626 4.95222L2.5804 11.5281V15.4172H6.46949L13.0454 8.84134L9.15626 4.95222ZM12.0346 2.07387L10.4526 3.65585L14.3418 7.54499L15.9237 5.96296L12.0346 2.07387Z" fill="#7D8793"/>
</svg>
