<svg width="18" height="18" viewBox="0 0 18 18" fill="none" xmlns="http://www.w3.org/2000/svg">
<path fill-rule="evenodd" clip-rule="evenodd" d="M10.5742 0.137292C9.7839 -0.00220792 9.1418 0.798552 9.4771 1.54557C9.8129 2.29352 10.0002 3.12352 10.0002 3.99996C10.0002 7.3137 7.3139 10 4.0002 10C3.12376 10 2.29376 9.8127 1.54581 9.4769C0.798857 9.1416 -0.00197279 9.7836 0.137537 10.5739C0.882497 14.7941 4.56595 18 9.0002 18C13.9708 18 18.0002 13.9705 18.0002 9C18.0002 4.5657 14.7944 0.882252 10.5742 0.137292ZM11.8811 2.61808C14.31 3.71634 16.0002 6.16146 16.0002 9C16.0002 12.8659 12.8662 16 9.0002 16C6.1617 16 3.71659 14.3098 2.61833 11.8809C3.06754 11.9592 3.52933 12 4.0002 12C8.4185 12 12.0002 8.4182 12.0002 3.99996C12.0002 3.52909 11.9594 3.0673 11.8811 2.61808Z" fill="#626C78"/>
</svg>
