<svg width="22" height="22" viewBox="0 0 22 22" fill="none" xmlns="http://www.w3.org/2000/svg">
<g id="leading Icon">
<path id="vector" d="M14.6667 3.66663C15.1729 3.66663 15.5833 4.07704 15.5833 4.58329C15.5833 5.05339 15.2295 5.44084 14.7736 5.49379L14.6667 5.49996H5.04167C4.78854 5.49996 4.58333 5.70516 4.58333 5.95829C4.58333 6.1833 4.74547 6.37043 4.95928 6.40924L5.04167 6.41663H17.4167C18.3832 6.41663 19.175 7.16451 19.245 8.11314L19.25 8.24996V16.5C19.25 17.4665 18.5021 18.2583 17.5535 18.3283L17.4167 18.3333H4.58333C3.61683 18.3333 2.82502 17.5854 2.75503 16.6368L2.75 16.5V5.95829C2.75 4.74327 3.69558 3.74909 4.89099 3.6715L5.04167 3.66663H14.6667ZM4.58333 8.20412V16.5H17.4167V8.24996H5.04167C4.93703 8.24996 4.83402 8.24295 4.7331 8.22936L4.58333 8.20412ZM14.2083 11C14.9677 11 15.5833 11.6156 15.5833 12.375C15.5833 13.1343 14.9677 13.75 14.2083 13.75C13.449 13.75 12.8333 13.1343 12.8333 12.375C12.8333 11.6156 13.449 11 14.2083 11Z" fill="#232529"/>
</g>
</svg>
