<svg width="24" height="24" viewBox="0 0 24 24" fill="none" xmlns="http://www.w3.org/2000/svg">
<path d="M12 2C17.5228 2 22 6.47715 22 12C22 17.5228 17.5228 22 12 22C6.47715 22 2 17.5228 2 12C2 6.47715 6.47715 2 12 2ZM12 4C7.58172 4 4 7.58172 4 12C4 16.4183 7.58172 20 12 20C16.4183 20 20 16.4183 20 12C20 7.58172 16.4183 4 12 4ZM12 16C12.5523 16 13 16.4477 13 17C13 17.5523 12.5523 18 12 18C11.4477 18 11 17.5523 11 17C11 16.4477 11.4477 16 12 16ZM12 6.5C14.002 6.5 15.625 8.12297 15.625 10.125C15.625 11.6522 14.681 12.9564 13.3484 13.4907C13.2096 13.5463 13.1027 13.6238 13.0428 13.6911C12.9986 13.7408 12.992 13.8045 12.9938 13.8701L13 14C13 14.5523 12.5523 15 12 15C11.4872 15 11.0645 14.614 11.0067 14.1166L11 14V13.75C11 12.5971 11.9293 11.9048 12.6042 11.6343C13.2042 11.3937 13.625 10.8073 13.625 10.125C13.625 9.22754 12.8975 8.5 12 8.5C11.1025 8.5 10.375 9.22754 10.375 10.125C10.375 10.6773 9.92728 11.125 9.375 11.125C8.82272 11.125 8.375 10.6773 8.375 10.125C8.375 8.12297 9.99797 6.5 12 6.5Z" fill="#09244B"/>
</svg>
