<svg width="22" height="22" viewBox="0 0 22 22" fill="none" xmlns="http://www.w3.org/2000/svg">
<path d="M13.75 1.83325C14.3764 1.83325 14.9294 2.1474 15.2601 2.62673L15.338 2.74992H16.5C17.4665 2.74992 18.2583 3.49781 18.3283 4.44643L18.3333 4.58325V15.5833C18.3333 18.0479 16.3879 20.0583 13.9488 20.1623L13.75 20.1666H5.5C4.5335 20.1666 3.74168 19.4187 3.67169 18.4701L3.66666 18.3333V4.58325C3.66666 3.61675 4.41455 2.82493 5.36317 2.75495L5.5 2.74992H6.66193C6.95454 2.24409 7.48189 1.89103 8.09501 1.83971L8.25 1.83325H13.75ZM6.41666 4.58325H5.5V18.3333H13.75C15.2688 18.3333 16.5 17.1021 16.5 15.5833V4.58325H15.5833C15.5833 5.59577 14.7625 6.41658 13.75 6.41658H8.25C7.23747 6.41658 6.41666 5.59577 6.41666 4.58325ZM11 12.8333C11.5063 12.8333 11.9167 13.2436 11.9167 13.7499C11.9167 14.22 11.5628 14.6075 11.1069 14.6604L11 14.6666H8.25C7.74374 14.6666 7.33333 14.2562 7.33333 13.7499C7.33333 13.2798 7.6872 12.8924 8.1431 12.8394L8.25 12.8333H11ZM13.75 9.16658C14.2563 9.16658 14.6667 9.57698 14.6667 10.0833C14.6667 10.5895 14.2563 10.9999 13.75 10.9999H8.25C7.74374 10.9999 7.33333 10.5895 7.33333 10.0833C7.33333 9.57698 7.74374 9.16658 8.25 9.16658H13.75ZM13.75 3.66659H8.25V4.58325H13.75V3.66659Z" fill="#232529"/>
</svg>
