<svg width="20" height="20" viewBox="0 0 20 20" fill="none" xmlns="http://www.w3.org/2000/svg">
<path d="M10 17C10.5523 17 11 17.4477 11 18V19C11 19.5523 10.5523 20 10 20C9.4477 20 9 19.5523 9 19V18C9 17.4477 9.4477 17 10 17ZM16.364 14.9498L17.0711 15.6569C17.4616 16.0474 17.4616 16.6805 17.0711 17.0711C16.6806 17.4616 16.0474 17.4616 15.6569 17.0711L14.9498 16.364C14.5593 15.9734 14.5593 15.3403 14.9498 14.9498C15.3403 14.5592 15.9735 14.5592 16.364 14.9498ZM3.63598 14.9498C4.02651 14.5592 4.65968 14.5592 5.0502 14.9498C5.41068 15.3103 5.43841 15.8775 5.13339 16.2698L5.0502 16.364L4.34309 17.0711C3.95257 17.4616 3.3194 17.4616 2.92888 17.0711C2.56839 16.7106 2.54066 16.1434 2.84569 15.7511L2.92888 15.6569L3.63598 14.9498ZM10 4C13.3137 4 16 6.68629 16 10C16 13.3137 13.3137 16 10 16C6.68629 16 4 13.3137 4 10C4 6.68629 6.68629 4 10 4ZM10 6C7.79086 6 6 7.79086 6 10C6 12.2091 7.79086 14 10 14C12.2091 14 14 12.2091 14 10C14 7.79086 12.2091 6 10 6ZM2 9C2.55228 9 3 9.4477 3 10C3 10.5128 2.61396 10.9355 2.11662 10.9933L2 11H1C0.44772 11 0 10.5523 0 10C0 9.48715 0.386044 9.06449 0.88338 9.00673L1 9H2ZM19 9C19.5523 9 20 9.4477 20 10C20 10.5523 19.5523 11 19 11H18C17.4477 11 17 10.5523 17 10C17 9.4477 17.4477 9 18 9H19ZM2.92891 2.92888C3.28939 2.5684 3.85662 2.54067 4.24891 2.84569L4.34312 2.92888L5.05023 3.63599C5.44075 4.02651 5.44075 4.65968 5.05023 5.0502C4.68974 5.41068 4.12251 5.43841 3.73022 5.13339L3.63601 5.0502L2.92891 4.34309C2.53838 3.95257 2.53838 3.3194 2.92891 2.92888ZM17.0711 2.9289C17.4616 3.31942 17.4616 3.95259 17.0711 4.34311L16.364 5.05022C15.9734 5.44074 15.3403 5.44074 14.9498 5.05022C14.5592 4.65969 14.5592 4.02653 14.9498 3.636L15.6569 2.9289C16.0474 2.53837 16.6805 2.53837 17.0711 2.9289ZM10 0C10.5523 0 11 0.44772 11 1V2C11 2.55228 10.5523 3 10 3C9.4477 3 9 2.55228 9 2V1C9 0.44772 9.4477 0 10 0Z" fill="#232529"/>
</svg>
