<svg width="24" height="24" viewBox="0 0 24 24" fill="none" xmlns="http://www.w3.org/2000/svg">
<path fill-rule="evenodd" clip-rule="evenodd" d="M5 6C4.44772 6 4 6.44772 4 7V17C4 17.5523 4.44772 18 5 18H12.1707C12.5825 16.8348 13.6938 16 15 16C16.3062 16 17.4175 16.8348 17.8293 18H19C19.5523 18 20 17.5523 20 17V7C20 6.44772 19.5523 6 19 6H17.8293C17.4175 7.16519 16.3062 8 15 8C13.6938 8 12.5825 7.16519 12.1707 6H5ZM2 7C2 5.34315 3.34315 4 5 4H13C13.5523 4 14 4.44772 14 5C14 5.55228 14.4477 6 15 6C15.5523 6 16 5.55228 16 5C16 4.44772 16.4477 4 17 4H19C20.6569 4 22 5.34315 22 7V17C22 18.6569 20.6569 20 19 20H17C16.4477 20 16 19.5523 16 19C16 18.4477 15.5523 18 15 18C14.4477 18 14 18.4477 14 19C14 19.5523 13.5523 20 13 20H5C3.34315 20 2 18.6569 2 17V7ZM15 9C15.5523 9 16 9.44772 16 10V10.5C16 11.0523 15.5523 11.5 15 11.5C14.4477 11.5 14 11.0523 14 10.5V10C14 9.44772 14.4477 9 15 9ZM16 13.5C16 12.9477 15.5523 12.5 15 12.5C14.4477 12.5 14 12.9477 14 13.5V14C14 14.5523 14.4477 15 15 15C15.5523 15 16 14.5523 16 14V13.5Z" fill="#09244B"/>
</svg>
