<svg width="20" height="20" viewBox="0 0 20 20" fill="none" xmlns="http://www.w3.org/2000/svg">
<path d="M13.6948 2.5C14.2352 2.5 14.739 2.76173 15.0503 3.19684L15.124 3.30917L17.1437 6.6754C17.3435 7.00844 17.4626 7.38265 17.4925 7.76811L17.5 7.96164V15.8333C17.5 16.712 16.8201 17.4318 15.9577 17.4954L15.8333 17.5H4.16667C3.28803 17.5 2.5682 16.8201 2.50457 15.9577L2.5 15.8333V7.96164C2.5 7.57326 2.59047 7.19114 2.76313 6.84521L2.85627 6.6754L4.876 3.30917C5.15404 2.84578 5.63768 2.54841 6.17091 2.5054L6.30516 2.5H13.6948ZM15.8333 8.33333H4.16667V15.8333H15.8333V8.33333ZM9.16667 4.16667H6.30516L4.80516 6.66667H9.16667V4.16667ZM13.6948 4.16667H10.8333V6.66667H15.1948L13.6948 4.16667Z" fill="#FEA735"/>
</svg>
