<svg width="24" height="24" viewBox="0 0 24 24" fill="none" xmlns="http://www.w3.org/2000/svg">
<path d="M15.8394 4C16.8486 4 17.7854 4.50701 18.3387 5.34057L18.4441 5.51158L20.4375 9H21.6C21.7933 9 21.9546 9.13712 21.9919 9.31939L22 9.4V9.87538C22 10.2058 21.7977 10.498 21.4975 10.6181L21.3703 10.6574C21.745 11.4354 21.912 12.2976 21.8544 13.1598L21.8269 13.4471L21.1018 19.2481C20.9833 20.1962 20.2134 20.9202 19.2751 20.9938L19.1172 21H18C16.9456 21 16.0818 20.1841 16.0055 19.1493L16 19H8C8 20.0544 7.18412 20.9182 6.14926 20.9945L6 21H4.88278C3.92723 21 3.11333 20.3259 2.92393 19.404L2.89823 19.2481L2.1731 13.4471C2.06545 12.5859 2.18421 11.7154 2.5125 10.9197L2.62967 10.6574L2.60597 10.6515C2.28545 10.5714 2.05103 10.3042 2.00735 9.98392L2 9.87538V9.4C2 9.2067 2.13712 9.04543 2.31939 9.00813L2.4 9H3.56253L5.55592 5.51158C6.05666 4.63528 6.96161 4.07351 7.95985 4.00671L8.16065 4H15.8394ZM19.7592 12.0355C19.2657 12.5742 18.5719 12.9402 17.7592 12.9933L17.5536 13H6.44636C5.54512 13 4.77543 12.6191 4.24076 12.0355C4.15842 12.3365 4.12328 12.6497 4.13761 12.9636L4.15766 13.199L4.88278 19H6V18C6 17.4872 6.38604 17.0645 6.88338 17.0067L7 17H17C17.5128 17 17.9355 17.386 17.9933 17.8834L18 18V19H19.1172L19.8423 13.199C19.8913 12.807 19.8622 12.4118 19.7592 12.0355ZM5.73757 13.8983L8.48023 15.3793C8.85325 15.5808 8.69778 16.1479 8.27418 16.131L5.96003 16.0384C5.42372 16.0169 5 15.5759 5 15.0392V14.3382C5 13.9596 5.40444 13.7184 5.73757 13.8983ZM19 14.3382V15.0392C19 15.5759 18.5763 16.0169 18.04 16.0384L15.7258 16.131C15.3022 16.1479 15.1467 15.5808 15.5198 15.3793L18.2624 13.8983C18.5956 13.7184 19 13.9596 19 14.3382ZM15.8394 6H8.16065C7.80179 6 7.47044 6.19229 7.2924 6.50386L5.57812 9.50386C5.19756 10.1705 5.67868 11 6.44636 11H17.5536C18.3215 11 18.8028 10.1705 18.4219 9.50386L16.7076 6.50386C16.5296 6.19229 16.1982 6 15.8394 6Z" fill="#09244B"/>
</svg>
