<svg width="64" height="64" viewBox="0 0 64 64" fill="none" xmlns="http://www.w3.org/2000/svg">
<g clip-path="url(#clip0_2061_5677)">
<g clip-path="url(#clip1_2061_5677)">
<rect y="6" width="52" height="52" rx="26" fill="white"/>
<path d="M64.5 34H-3.5L-1 16L22 1L56 9.5L64.5 34Z" fill="#27C041"/>
<path d="M-3.5 35L64.5 35L62 53L39 68L5 59.5L-3.5 35Z" fill="#7D8793"/>
<path d="M26.9176 36.9999H-1L-0.985156 39.4343C3.24952 48.3717 10.8434 55.4072 20.166 58.9102C11.1137 53.1399 14.2448 36.9999 26.9176 36.9999Z" fill="#5F5E6A"/>
<path d="M0.4495 19.0189C0.343107 19.1379 0.248424 19.267 0.166759 19.4042L-6.58321 28.4001C-6.58321 28.4001 -10.4336 32.2505 -10.4336 36.1009V42.5173L-5.30005 45.0839L7.00757 46.3675H60.1512C61.5671 46.3634 62.7139 45.2167 62.7179 43.8009V33.5212C62.7199 33.0731 62.6041 32.6324 62.3822 32.2431C62.1602 31.8539 61.8398 31.5299 61.4531 31.3035C57.1768 28.8214 48.0069 28.4619 45.4338 28.4096C45.222 28.4047 45.0147 28.3471 44.8308 28.242C44.6469 28.1368 44.4921 27.9875 44.3804 27.8074L39.1554 19.4553C39.1501 19.4303 39.1366 19.4078 39.1172 19.3912L28.5486 18.0183L10.0478 17.8408L0.4495 19.0189Z" fill="#E64C3C"/>
<path d="M39.6165 28.3999L33.1996 18.8958C33.1109 18.6816 32.9638 18.4965 32.7751 18.3618C32.5864 18.227 32.3637 18.1478 32.1323 18.1333H22.933C22.2245 18.1333 21.6492 18.9033 21.6492 19.844V28.3999H39.6165ZM16.5158 19.844V26.6892C16.5158 27.6304 15.9413 28.3999 15.2327 28.3999H2.23068C1.20439 28.3999 0.593493 26.8767 1.16213 25.7399L6.24905 18.8958C6.33795 18.6815 6.48516 18.4965 6.67397 18.3617C6.86278 18.2269 7.08561 18.1478 7.31715 18.1333H15.2327C15.9412 18.1333 16.5158 18.9033 16.5158 19.844Z" fill="#35495E"/>
<path d="M39.1552 19.4552C39.1503 19.4257 39.1371 19.3982 39.117 19.3759C37.2559 15.7387 29.248 13 19.6487 13C10.4596 13 2.73361 15.5156 0.449431 18.9112C0.340856 19.0623 0.246316 19.2229 0.166992 19.3911" fill="#E6E7E8"/>
<path d="M21.6496 28.3999H39.6172V39.9504C39.6172 41.3681 38.468 42.5172 37.0504 42.5172H21.6496C20.2322 42.5172 19.083 41.3681 19.083 39.9504V30.9668C19.083 29.5492 20.232 28.3999 21.6496 28.3999Z" fill="#C03A2B"/>
<path d="M42.1857 33.534H37.0521C36.7151 33.5289 36.3936 33.3914 36.1571 33.1512C35.9206 32.911 35.788 32.5875 35.788 32.2504C35.788 31.9133 35.9206 31.5898 36.1571 31.3496C36.3936 31.1095 36.7151 30.972 37.0521 30.9668H42.1855C42.8939 30.9668 43.4684 31.5419 43.4684 32.2504C43.4684 32.9589 42.894 33.534 42.1857 33.534ZM42.1857 38.6674H37.0521C36.882 38.67 36.713 38.6387 36.555 38.5754C36.397 38.5121 36.2532 38.418 36.1319 38.2986C36.0106 38.1791 35.9143 38.0368 35.8486 37.8798C35.7829 37.7228 35.749 37.5543 35.749 37.3841C35.749 37.2139 35.7829 37.0454 35.8486 36.8884C35.9143 36.7314 36.0106 36.5891 36.1319 36.4696C36.2532 36.3502 36.397 36.2561 36.555 36.1928C36.713 36.1295 36.882 36.0982 37.0521 36.1008H42.1855C42.8939 36.1008 43.4684 36.6753 43.4684 37.3836C43.4684 37.5522 43.4353 37.7191 43.3709 37.8748C43.3064 38.0305 43.212 38.172 43.0928 38.2912C42.9737 38.4104 42.8323 38.505 42.6766 38.5696C42.5209 38.6341 42.3542 38.6673 42.1857 38.6674Z" fill="#802F34"/>
<path d="M25.5012 34.8171H24.2176C23.8773 34.8171 23.551 34.6819 23.3105 34.4413C23.0699 34.2008 22.9347 33.8745 22.9346 33.5342C22.9345 33.3657 22.9676 33.1988 23.0321 33.0431C23.0965 32.8874 23.191 32.7459 23.3101 32.6267C23.4292 32.5075 23.5707 32.4129 23.7264 32.3483C23.882 32.2838 24.0489 32.2505 24.2174 32.2505H25.5012C26.2095 32.2505 26.7848 32.825 26.7848 33.5341C26.7848 34.2426 26.2097 34.8171 25.5012 34.8171Z" fill="#802F34"/>
<path d="M39.6172 19.417H-0.167186C-0.335713 19.4169 -0.502582 19.3837 -0.658266 19.3192C-0.813949 19.2546 -0.955397 19.1601 -1.07454 19.0409C-1.19367 18.9217 -1.28817 18.7802 -1.35262 18.6245C-1.41708 18.4688 -1.45023 18.3019 -1.4502 18.1334C-1.4502 17.4248 -0.875691 16.8503 -0.167186 16.8503H39.6172C39.9576 16.8503 40.284 16.9855 40.5247 17.2262C40.7653 17.4669 40.9005 17.7933 40.9005 18.1337C40.9005 18.474 40.7653 18.8004 40.5247 19.0411C40.284 19.2818 39.9576 19.417 39.6172 19.417Z" fill="#BDC3C7"/>
<path d="M58.8676 43.8006C58.8676 47.3444 55.9949 50.2172 52.4506 50.2172C48.907 50.2172 46.0342 47.3444 46.0342 43.8008C46.0342 40.2565 48.907 37.3838 52.4506 37.3838C55.9949 37.3838 58.8676 40.2563 58.8676 43.8006Z" fill="#2C2F38"/>
<path d="M55.0162 43.8005C55.0162 45.2183 53.867 46.3673 52.4494 46.3673C51.0318 46.3673 49.8828 45.2183 49.8828 43.8007C49.8828 42.383 51.0318 41.2339 52.4494 41.2339C53.867 41.2339 55.0162 42.3829 55.0162 43.8005Z" fill="#E6E7E8"/>
<path d="M7.5342 43.8006C7.5342 47.3444 4.66092 50.2172 1.1172 50.2172C-2.42698 50.2172 -5.2998 47.3444 -5.2998 43.8008C-5.2998 40.2565 -2.42698 37.3838 1.1172 37.3838C4.66092 37.3838 7.5342 40.2563 7.5342 43.8006Z" fill="#2C2F38"/>
<path d="M3.68319 43.8005C3.68319 45.2183 2.53404 46.3673 1.11642 46.3673C-0.301188 46.3673 -1.4502 45.2183 -1.4502 43.8007C-1.4502 42.383 -0.301188 41.2339 1.11642 41.2339C2.53404 41.2339 3.68319 42.3829 3.68319 43.8005Z" fill="#E6E7E8"/>
</g>
<g clip-path="url(#clip2_2061_5677)">
<path d="M0.279578 19.0189C0.173185 19.1379 0.0785017 19.267 -0.00316238 19.4042L-6.75313 28.4001C-6.75313 28.4001 -10.6035 32.2505 -10.6035 36.1009V42.5173L-5.46997 45.0839L6.83765 46.3675H59.9812C61.3972 46.3634 62.5439 45.2167 62.548 43.8009V33.5212C62.55 33.0731 62.4342 32.6324 62.2122 32.2431C61.9903 31.8539 61.6699 31.5299 61.2832 31.3035C57.0069 28.8214 47.8369 28.4619 45.2639 28.4096C45.052 28.4047 44.8448 28.3471 44.6609 28.242C44.4769 28.1368 44.3221 27.9875 44.2105 27.8074L38.9855 19.4553C38.9801 19.4303 38.9667 19.4078 38.9473 19.3912L28.3787 18.0183L9.87786 17.8408L0.279578 19.0189Z" fill="#E64C3C"/>
<path d="M39.4465 28.3999L33.0297 18.8958C32.9409 18.6816 32.7939 18.4965 32.6052 18.3618C32.4165 18.227 32.1938 18.1478 31.9623 18.1333H22.7631C22.0546 18.1333 21.4793 18.9033 21.4793 19.844V28.3999H39.4465ZM16.3459 19.844V26.6892C16.3459 27.6304 15.7714 28.3999 15.0627 28.3999H2.06076C1.03447 28.3999 0.423571 26.8767 0.99221 25.7399L6.07913 18.8958C6.16803 18.6815 6.31524 18.4965 6.50405 18.3617C6.69286 18.2269 6.91569 18.1478 7.14722 18.1333H15.0627C15.7712 18.1333 16.3459 18.9033 16.3459 19.844Z" fill="#35495E"/>
<path d="M38.9853 19.4552C38.9804 19.4257 38.9671 19.3982 38.9471 19.3759C37.086 15.7387 29.0781 13 19.4788 13C10.2897 13 2.56369 15.5156 0.27951 18.9112C0.170934 19.0623 0.0763943 19.2229 -0.00292969 19.3911" fill="#E6E7E8"/>
<path d="M21.4797 28.3999H39.4472V39.9504C39.4472 41.3681 38.2981 42.5172 36.8805 42.5172H21.4797C20.0622 42.5172 18.9131 41.3681 18.9131 39.9504V30.9668C18.9131 29.5492 20.0621 28.3999 21.4797 28.3999Z" fill="#C03A2B"/>
<path d="M42.0158 33.534H36.8822C36.5452 33.5289 36.2237 33.3914 35.9872 33.1512C35.7507 32.911 35.6181 32.5875 35.6181 32.2504C35.6181 31.9133 35.7507 31.5898 35.9872 31.3496C36.2237 31.1095 36.5452 30.972 36.8822 30.9668H42.0156C42.724 30.9668 43.2985 31.5419 43.2985 32.2504C43.2985 32.9589 42.7241 33.534 42.0158 33.534ZM42.0158 38.6674H36.8822C36.712 38.67 36.543 38.6387 36.385 38.5754C36.2271 38.5121 36.0833 38.418 35.962 38.2986C35.8407 38.1791 35.7444 38.0368 35.6787 37.8798C35.613 37.7228 35.5791 37.5543 35.5791 37.3841C35.5791 37.2139 35.613 37.0454 35.6787 36.8884C35.7444 36.7314 35.8407 36.5891 35.962 36.4696C36.0833 36.3502 36.2271 36.2561 36.385 36.1928C36.543 36.1295 36.712 36.0982 36.8822 36.1008H42.0156C42.724 36.1008 43.2985 36.6753 43.2985 37.3836C43.2985 37.5522 43.2654 37.7191 43.2009 37.8748C43.1365 38.0305 43.042 38.172 42.9229 38.2912C42.8038 38.4104 42.6623 38.505 42.5067 38.5696C42.351 38.6341 42.1843 38.6673 42.0158 38.6674Z" fill="#802F34"/>
<path d="M62.5469 36.1008H59.9801C59.8116 36.1007 59.6447 36.0675 59.4891 36.0029C59.3334 35.9384 59.1919 35.8438 59.0728 35.7246C58.9537 35.6054 58.8592 35.4639 58.7948 35.3082C58.7303 35.1525 58.6972 34.9856 58.6973 34.817C58.6973 34.1087 59.2718 33.5342 59.9801 33.5342H62.5469C62.8872 33.5342 63.2137 33.6694 63.4543 33.9101C63.695 34.1507 63.8302 34.4771 63.8302 34.8175C63.8302 35.1578 63.695 35.4843 63.4543 35.7249C63.2137 35.9656 62.8872 36.1008 62.5469 36.1008Z" fill="#F9EAB0"/>
<path d="M25.3313 34.8171H24.0477C23.7074 34.8171 23.3811 34.6819 23.1405 34.4413C22.8999 34.2008 22.7647 33.8745 22.7646 33.5342C22.7646 33.3657 22.7977 33.1988 22.8622 33.0431C22.9266 32.8874 23.0211 32.7459 23.1402 32.6267C23.2593 32.5075 23.4008 32.4129 23.5564 32.3483C23.7121 32.2838 23.879 32.2505 24.0475 32.2505H25.3313C26.0396 32.2505 26.6149 32.825 26.6149 33.5341C26.6149 34.2426 26.0398 34.8171 25.3313 34.8171Z" fill="#802F34"/>
<path d="M39.4473 19.417H-0.337108C-0.505635 19.4169 -0.672504 19.3837 -0.828187 19.3192C-0.983871 19.2546 -1.12532 19.1601 -1.24446 19.0409C-1.3636 18.9217 -1.45809 18.7802 -1.52255 18.6245C-1.587 18.4688 -1.62016 18.3019 -1.62012 18.1334C-1.62012 17.4248 -1.04561 16.8503 -0.337108 16.8503H39.4473C39.7877 16.8503 40.1141 16.9855 40.3547 17.2262C40.5954 17.4669 40.7306 17.7933 40.7306 18.1337C40.7306 18.474 40.5954 18.8004 40.3547 19.0411C40.1141 19.2818 39.7877 19.417 39.4473 19.417Z" fill="#BDC3C7"/>
<path d="M58.6977 43.8006C58.6977 47.3444 55.825 50.2172 52.2807 50.2172C48.7371 50.2172 45.8643 47.3444 45.8643 43.8008C45.8643 40.2565 48.7371 37.3838 52.2807 37.3838C55.825 37.3838 58.6977 40.2563 58.6977 43.8006Z" fill="#2C2F38"/>
<path d="M54.8463 43.8005C54.8463 45.2183 53.6971 46.3673 52.2795 46.3673C50.8619 46.3673 49.7129 45.2183 49.7129 43.8007C49.7129 42.383 50.8619 41.2339 52.2795 41.2339C53.6971 41.2339 54.8463 42.3829 54.8463 43.8005Z" fill="#E6E7E8"/>
</g>
</g>
<defs>
<clipPath id="clip0_2061_5677">
<rect width="64" height="64" fill="white"/>
</clipPath>
<clipPath id="clip1_2061_5677">
<rect y="6" width="52" height="52" rx="26" fill="white"/>
</clipPath>
<clipPath id="clip2_2061_5677">
<rect width="40" height="64" fill="white" transform="translate(24)"/>
</clipPath>
</defs>
</svg>
