<svg width="24" height="24" viewBox="0 0 24 24" fill="none" xmlns="http://www.w3.org/2000/svg">
<g id="Trailing Icon">
<path id="vector" d="M13.5 4C13.5 3.17157 12.8284 2.5 12 2.5C11.1716 2.5 10.5 3.17157 10.5 4V4.5H9.5C7.01472 4.5 5 6.51472 5 9C5 11.4853 7.01472 13.5 9.5 13.5H14.5C15.3284 13.5 16 14.1716 16 15C16 15.8284 15.3284 16.5 14.5 16.5H7C6.17157 16.5 5.5 17.1716 5.5 18C5.5 18.8284 6.17157 19.5 7 19.5H10.5V20C10.5 20.8284 11.1716 21.5 12 21.5C12.8284 21.5 13.5 20.8284 13.5 20V19.5H14.5C16.9853 19.5 19 17.4853 19 15C19 12.5147 16.9853 10.5 14.5 10.5H9.5C8.67157 10.5 8 9.82843 8 9C8 8.17157 8.67157 7.5 9.5 7.5H17C17.8284 7.5 18.5 6.82843 18.5 6C18.5 5.17157 17.8284 4.5 17 4.5H13.5V4Z" fill="#626C78"/>
</g>
</svg>
