<svg width="20" height="20" viewBox="0 0 20 20" fill="none" xmlns="http://www.w3.org/2000/svg">
<g id="calendar_line">
<path id="vector" d="M13.3333 2.5C13.7607 2.5 14.1129 2.8217 14.1611 3.23615L14.1667 3.33333V4.16667H15.8333C16.712 4.16667 17.4318 4.84656 17.4954 5.70895L17.5 5.83333V15.8333C17.5 16.712 16.8201 17.4318 15.9577 17.4954L15.8333 17.5H4.16667C3.28803 17.5 2.5682 16.8201 2.50457 15.9577L2.5 15.8333V5.83333C2.5 4.9547 3.1799 4.23486 4.04228 4.17124L4.16667 4.16667H5.83333V3.33333C5.83333 2.8731 6.20643 2.5 6.66667 2.5C7.09403 2.5 7.44626 2.8217 7.49439 3.23615L7.5 3.33333V4.16667H12.5V3.33333C12.5 2.8731 12.8731 2.5 13.3333 2.5ZM15.8333 10H4.16667V15.8333H15.8333V10ZM15.8333 5.83333H4.16667V8.33333H15.8333V5.83333Z" fill="#232529"/>
</g>
</svg>
