<svg width="16" height="17" viewBox="0 0 16 17" fill="none" xmlns="http://www.w3.org/2000/svg">
<path d="M9.89933 0.196777C10.6167 0.196777 11.2537 0.655827 11.4805 1.33639L11.934 2.69678H14.6667C15.1269 2.69678 15.5 3.06988 15.5 3.53011C15.5 3.99034 15.1269 4.36343 14.6667 4.36344L14.6646 4.42282L13.9417 14.5415C13.8483 15.8499 12.7597 16.8634 11.4482 16.8634H4.55187C3.24027 16.8634 2.15167 15.8499 2.05822 14.5415L1.33545 4.42282C1.33403 4.4029 1.33332 4.3831 1.3333 4.36344C0.873075 4.36343 0.5 3.99034 0.5 3.53011C0.5 3.06988 0.8731 2.69678 1.33333 2.69678H4.06603L4.51949 1.33639C4.74635 0.655827 5.38325 0.196777 6.10063 0.196777H9.89933ZM12.9979 4.36344H3.00213L3.72065 14.4228C3.7518 14.8589 4.11467 15.1968 4.55187 15.1968H11.4482C11.8853 15.1968 12.2482 14.8589 12.2793 14.4228L12.9979 4.36344ZM6.33333 6.86344C6.76071 6.86344 7.11292 7.18513 7.16106 7.59959L7.16667 7.69678V11.8634C7.16667 12.3237 6.79358 12.6968 6.33333 12.6968C5.90597 12.6968 5.55374 12.3751 5.50561 11.9606L5.5 11.8634V7.69678C5.5 7.23653 5.87309 6.86344 6.33333 6.86344ZM9.66667 6.86344C10.1269 6.86344 10.5 7.23653 10.5 7.69678V11.8634C10.5 12.3237 10.1269 12.6968 9.66667 12.6968C9.20642 12.6968 8.83333 12.3237 8.83333 11.8634V7.69678C8.83333 7.23653 9.20642 6.86344 9.66667 6.86344ZM9.89933 1.86344H6.10063L5.82286 2.69678H10.1772L9.89933 1.86344Z" fill="#FF3B30"/>
</svg>
