<svg width="18" height="18" viewBox="0 0 18 18" fill="none" xmlns="http://www.w3.org/2000/svg">
<g id="leading Icon">
<path id="vector" fill-rule="evenodd" clip-rule="evenodd" d="M3 3C2.17157 3 1.5 3.67157 1.5 4.5V13.5C1.5 14.3285 2.17157 15 3 15H15C15.8285 15 16.5 14.3285 16.5 13.5V4.5C16.5 3.67157 15.8285 3 15 3H3ZM3 4.5H15V13.5H3V4.5ZM7.6875 7.3125C7.6875 8.03737 7.09987 8.625 6.375 8.625C5.65013 8.625 5.0625 8.03737 5.0625 7.3125C5.0625 6.58763 5.65013 6 6.375 6C7.09987 6 7.6875 6.58763 7.6875 7.3125ZM3.75 10.875C3.75 9.83948 4.58947 9 5.625 9H7.125C8.16052 9 9 9.83948 9 10.875V11.25C9 11.6642 8.66423 12 8.25 12C7.83577 12 7.5 11.6642 7.5 11.25V10.875C7.5 10.6679 7.33211 10.5 7.125 10.5H5.625C5.4179 10.5 5.25 10.6679 5.25 10.875V11.25C5.25 11.6642 4.91421 12 4.5 12C4.08579 12 3.75 11.6642 3.75 11.25V10.875ZM9.75 8.25C9.75 7.83577 10.0858 7.5 10.5 7.5H12C12.4142 7.5 12.75 7.83577 12.75 8.25C12.75 8.66423 12.4142 9 12 9H10.5C10.0858 9 9.75 8.66423 9.75 8.25ZM10.5 9.75C10.0858 9.75 9.75 10.0858 9.75 10.5C9.75 10.9142 10.0858 11.25 10.5 11.25H13.5C13.9142 11.25 14.25 10.9142 14.25 10.5C14.25 10.0858 13.9142 9.75 13.5 9.75H10.5Z" fill="#FEA735"/>
</g>
</svg>
