<svg width="21" height="20" viewBox="0 0 21 20" fill="none" xmlns="http://www.w3.org/2000/svg">
<g id="leading Icon">
<path id="vector" fill-rule="evenodd" clip-rule="evenodd" d="M14.437 2.52478C13.7861 1.8739 12.7309 1.8739 12.08 2.52478L3.48522 11.1195C3.17266 11.4321 2.99707 11.856 2.99707 12.298V16.6586C2.99707 17.1234 3.37393 17.5003 3.83874 17.5003L17.1668 17.4998C17.627 17.4998 18.0001 17.1267 18.0001 16.6664C18.0001 16.2062 17.627 15.8331 17.1668 15.8331H10.5568L17.9725 8.41736C18.6234 7.76646 18.6234 6.71119 17.9725 6.06031L14.437 2.52478ZM8.19976 15.8331L16.794 7.23882L13.2585 3.70329L4.66374 12.298V15.8336C5.8424 15.8336 7.02112 15.8331 8.19976 15.8331Z" fill="#232529"/>
</g>
</svg>
