<svg width="24" height="24" viewBox="0 0 24 24" fill="none" xmlns="http://www.w3.org/2000/svg">
<g id="car_line">
<path id="vector" d="M15.764 4C16.9003 4 17.9391 4.64201 18.4473 5.65836L19.8298 8.42332C20.0736 8.32394 20.3169 8.22155 20.5533 8.10538C21.0472 7.85869 21.6476 8.05894 21.8945 8.55279C22.1415 9.04676 21.9413 9.64744 21.4473 9.89443C20.9533 10.1414 20.7266 10.2169 20.7266 10.2169L21.6834 12.1305C21.8916 12.5471 22.0001 13.0064 22.0001 13.4721V16C22.0001 16.8885 21.6138 17.6868 21.0001 18.2361V19.5C21.0001 20.3284 20.3285 21 19.5001 21C18.6716 21 18.0001 20.3284 18.0001 19.5V19H6.00004V19.5C6.00004 20.3284 5.32846 21 4.50003 21C3.67161 21 3.00003 20.3284 3.00003 19.5V18.2361C2.38629 17.6868 2.00003 16.8885 2.00003 16V13.4721C2.00003 13.0064 2.10847 12.5471 2.31675 12.1305L3.27356 10.2169C3.03147 10.116 2.79114 10.0105 2.55531 9.89567C2.05884 9.64744 1.85862 9.04676 2.10561 8.55279C2.35219 8.05962 2.96127 7.86667 3.45176 8.10779C3.68718 8.22182 3.92817 8.3246 4.17034 8.42332L5.55282 5.65836C6.061 4.64201 7.09979 4 8.2361 4H15.764ZM18.8342 10.9044C17.134 11.4406 14.7151 12 12.0001 12C9.28505 12 6.86607 11.4406 5.16589 10.9044L4.10561 13.0249C4.03618 13.1638 4.00003 13.3169 4.00003 13.4721V16C4.00003 16.5523 4.44775 17 5.00003 17H19.0001C19.5524 17 20.0001 16.5523 20.0001 16V13.4721C20.0001 13.3169 19.9639 13.1638 19.8945 13.0249L18.8342 10.9044ZM7.50003 13C8.32846 13 9.00003 13.6716 9.00003 14.5C9.00003 15.3284 8.32846 16 7.50003 16C6.67161 16 6.00003 15.3284 6.00003 14.5C6.00003 13.6716 6.67161 13 7.50003 13ZM16.5001 13C17.3285 13 18.0001 13.6716 18.0001 14.5C18.0001 15.3284 17.3285 16 16.5001 16C15.6716 16 15.0001 15.3284 15.0001 14.5C15.0001 13.6716 15.6716 13 16.5001 13ZM15.764 6H8.2361C7.85733 6 7.51107 6.214 7.34168 6.55279L6.07264 9.09086C7.61998 9.55498 9.70509 10 12.0001 10C14.295 10 16.3801 9.55498 17.9275 9.09086L16.6584 6.55279C16.489 6.214 16.1428 6 15.764 6Z" fill="#232529"/>
</g>
</svg>
