<svg width="17" height="14" viewBox="0 0 17 14" fill="none" xmlns="http://www.w3.org/2000/svg">
<path fill-rule="evenodd" clip-rule="evenodd" d="M1.83317 0.333252C0.912696 0.333252 0.166504 1.07944 0.166504 1.99992V11.9999C0.166504 12.9204 0.912696 13.6666 1.83317 13.6666H15.1665C16.087 13.6666 16.8332 12.9204 16.8332 11.9999V1.99992C16.8332 1.07944 16.087 0.333252 15.1665 0.333252H1.83317ZM1.83317 1.99992H15.1665V11.9999H1.83317V1.99992ZM7.0415 5.12492C7.0415 5.93034 6.38859 6.58325 5.58317 6.58325C4.77775 6.58325 4.12484 5.93034 4.12484 5.12492C4.12484 4.3195 4.77775 3.66659 5.58317 3.66659C6.38859 3.66659 7.0415 4.3195 7.0415 5.12492ZM2.6665 9.08325C2.6665 7.93267 3.59925 6.99992 4.74984 6.99992H6.4165C7.56709 6.99992 8.49984 7.93267 8.49984 9.08325V9.49992C8.49984 9.96017 8.12675 10.3333 7.6665 10.3333C7.20625 10.3333 6.83317 9.96017 6.83317 9.49992V9.08325C6.83317 8.85317 6.64662 8.66658 6.4165 8.66658H4.74984C4.51972 8.66658 4.33317 8.85317 4.33317 9.08325V9.49992C4.33317 9.96017 3.96007 10.3333 3.49984 10.3333C3.0396 10.3333 2.6665 9.96017 2.6665 9.49992V9.08325ZM9.33317 6.16658C9.33317 5.70634 9.70625 5.33325 10.1665 5.33325H11.8332C12.2934 5.33325 12.6665 5.70634 12.6665 6.16658C12.6665 6.62684 12.2934 6.99992 11.8332 6.99992H10.1665C9.70625 6.99992 9.33317 6.62684 9.33317 6.16658ZM10.1665 7.83325C9.70625 7.83325 9.33317 8.20634 9.33317 8.66658C9.33317 9.12683 9.70625 9.49992 10.1665 9.49992H13.4998C13.9601 9.49992 14.3332 9.12683 14.3332 8.66658C14.3332 8.20634 13.9601 7.83325 13.4998 7.83325H10.1665Z" fill="#FEA735"/>
</svg>
