<svg width="22" height="22" viewBox="0 0 22 22" fill="none" xmlns="http://www.w3.org/2000/svg">
<g id="leading Icon">
<path id="vector" fill-rule="evenodd" clip-rule="evenodd" d="M11 1.83325C16.0626 1.83325 20.1667 5.93731 20.1667 10.9999C20.1667 14.9414 17.6791 18.3018 14.1883 19.5969C14.1302 19.6284 14.0679 19.6541 14.0018 19.673L13.9152 19.6933C12.9994 20.0003 12.0191 20.1666 11 20.1666C5.93738 20.1666 1.83333 16.0625 1.83333 10.9999C1.83333 5.93731 5.93738 1.83325 11 1.83325ZM13.668 4.16705L13.5065 4.97469C13.2941 6.03655 12.4784 6.87493 11.4227 7.11623L11.0547 7.20033C10.5819 7.30841 10.2751 7.76618 10.3548 8.24465L10.515 9.20554C10.7388 10.5486 9.47228 11.6584 8.17033 11.2602L6.98728 10.8983C5.8312 10.5446 5.04166 9.47743 5.04166 8.26852V6.72393C4.17629 7.92763 3.66666 9.40428 3.66666 10.9999C3.66666 15.05 6.9499 18.3333 11 18.3333C11.5548 18.3333 12.0952 18.2717 12.6147 18.1549L12.0825 16.2918C12.0397 16.1421 11.9594 16.0057 11.8492 15.8955L10.7139 14.7602C10.1344 14.1808 10.1873 13.2261 10.8272 12.7143L12.2611 11.5672C12.8194 11.1205 13.5866 11.0392 14.2262 11.359L15.574 12.0329C16.3964 12.4441 16.9589 13.2392 17.0729 14.1515L17.1739 14.959C17.9077 13.817 18.3333 12.4582 18.3333 10.9999C18.3333 7.89113 16.3989 5.23417 13.668 4.16705ZM13.4063 12.9988L12.3723 13.8259L13.1455 14.5991C13.4289 14.8824 13.6462 15.2235 13.7834 15.5982L13.8452 15.7882L14.3426 17.5289C14.6642 17.3639 14.972 17.1759 15.2639 16.967L15.5503 16.7512L15.2538 14.3788C15.2205 14.1128 15.0728 13.8766 14.8527 13.7299L14.7541 13.6726L13.4063 12.9988ZM11 3.66659C9.46797 3.66659 8.04574 4.13635 6.86939 4.9397C6.87309 4.97315 6.87499 5.00715 6.87499 5.04159V8.26852C6.87499 8.6715 7.13818 9.02722 7.52353 9.1451L8.70658 9.50694L8.54643 8.54605C8.3072 7.11064 9.22762 5.73734 10.6463 5.41309L11.0142 5.32899C11.3661 5.24855 11.638 4.9691 11.7088 4.61514L11.8879 3.71979C11.5968 3.68466 11.3005 3.66659 11 3.66659Z" fill="#232529"/>
</g>
</svg>
