<svg width="18" height="15" viewBox="0 0 18 15" fill="none" xmlns="http://www.w3.org/2000/svg">
<path fill-rule="evenodd" clip-rule="evenodd" d="M9.83335 8.83333C11.6743 8.83333 13.1667 10.3257 13.1667 12.1667V13.8333C13.1667 14.2936 12.7936 14.6667 12.3334 14.6667C11.8731 14.6667 11.5 14.2936 11.5 13.8333V12.1667C11.5 11.2462 10.7539 10.5 9.83335 10.5H4.00002C3.07955 10.5 2.33335 11.2462 2.33335 12.1667V13.8333C2.33335 14.2936 1.96025 14.6667 1.50002 14.6667C1.03979 14.6667 0.666687 14.2936 0.666687 13.8333V12.1667C0.666687 10.3257 2.15907 8.83333 4.00002 8.83333H9.83335ZM14.8333 8.8335C16.214 8.8335 17.3333 9.95283 17.3333 11.3335V13.0002C17.3333 13.4604 16.9602 13.8335 16.4999 13.8335C16.0398 13.8335 15.6666 13.4604 15.6666 13.0002V11.3335C15.6666 10.8733 15.2935 10.5002 14.8333 10.5002H13.6534C13.3635 9.83667 12.9059 9.26325 12.334 8.8335H14.8333ZM6.91667 0.5C8.98777 0.5 10.6667 2.17893 10.6667 4.25C10.6667 6.32107 8.98777 8 6.91667 8C4.8456 8 3.16667 6.32107 3.16667 4.25C3.16667 2.17893 4.8456 0.5 6.91667 0.5ZM14 3C15.3808 3 16.5 4.11929 16.5 5.5C16.5 6.88075 15.3808 8 14 8C12.6193 8 11.5 6.88075 11.5 5.5C11.5 4.11929 12.6193 3 14 3ZM6.91667 2.16667C5.76607 2.16667 4.83334 3.09941 4.83334 4.25C4.83334 5.40059 5.76607 6.33333 6.91667 6.33333C8.06727 6.33333 9.00002 5.40059 9.00002 4.25C9.00002 3.09941 8.06727 2.16667 6.91667 2.16667ZM14 4.66667C13.5398 4.66667 13.1667 5.03977 13.1667 5.5C13.1667 5.96023 13.5398 6.33333 14 6.33333C14.4603 6.33333 14.8334 5.96023 14.8334 5.5C14.8334 5.03977 14.4603 4.66667 14 4.66667Z" fill="#FEA735"/>
</svg>
