<svg width="22" height="22" viewBox="0 0 22 22" fill="none" xmlns="http://www.w3.org/2000/svg">
<g id="leading Icon">
<path id="vector" d="M18.9385 6.41689C21.4699 10.8012 19.9676 16.4075 15.5833 18.9388C11.8043 21.1206 7.11962 20.3056 4.27622 17.2334C3.93235 16.8618 3.95479 16.2819 4.32634 15.9379C4.69789 15.5941 5.27786 15.6166 5.62173 15.9881C7.89627 18.4457 11.6452 19.0955 14.6667 17.3511C18.1741 15.3261 19.3759 10.841 17.3508 7.33356C15.3257 3.82608 10.8408 2.62433 7.33331 4.64937C5.29256 5.8276 4.03135 7.8393 3.73358 10.0078L4.90813 9.70131C5.8677 9.45087 6.57441 10.5907 5.92342 11.3388L3.85967 13.7105C3.33924 14.3087 2.3336 14.1045 2.12533 13.3038C2.02478 12.9173 1.9505 12.5274 1.90185 12.1364C1.46066 8.59221 3.12605 4.96149 6.41664 3.06166C10.801 0.530357 16.4072 2.03255 18.9385 6.41689ZM10.9999 5.50004C11.5062 5.50004 11.9166 5.91045 11.9166 6.41671V10.6204L14.3981 13.1019C14.7561 13.4598 14.7561 14.0403 14.3981 14.3982C14.0401 14.7562 13.4598 14.7562 13.1017 14.3982L10.3517 11.6482C10.1799 11.4763 10.0832 11.2431 10.0832 11V6.41671C10.0832 5.91045 10.4937 5.50004 10.9999 5.50004Z" fill="#232529"/>
</g>
</svg>
