<svg width="38" height="38" viewBox="0 0 38 38" fill="none" xmlns="http://www.w3.org/2000/svg">
<rect width="38" height="38" rx="19" fill="#FFF8F0"/>
<path fill-rule="evenodd" clip-rule="evenodd" d="M24.8334 11.5C26.2141 11.5 27.3334 12.6193 27.3334 14V22.3333C27.3334 23.7141 26.2141 24.8333 24.8334 24.8333H15.1111L12.3334 26.9167C11.6467 27.4317 10.6667 26.9417 10.6667 26.0833V14C10.6667 12.6193 11.786 11.5 13.1667 11.5H24.8334ZM18.1667 19H15.6667C15.2065 19 14.8334 19.3731 14.8334 19.8333C14.8334 20.2936 15.2065 20.6667 15.6667 20.6667H18.1667C18.6269 20.6667 19 20.2936 19 19.8333C19 19.3731 18.6269 19 18.1667 19ZM22.3334 15.6667H15.6667C15.2065 15.6667 14.8334 16.0398 14.8334 16.5C14.8334 16.9274 15.1551 17.2796 15.5695 17.3277L15.6667 17.3333H22.3334C22.7936 17.3333 23.1667 16.9602 23.1667 16.5C23.1667 16.0726 22.845 15.7204 22.4305 15.6723L22.3334 15.6667Z" fill="#FEA735"/>
</svg>
