<svg width="11" height="18" viewBox="0 0 11 18" fill="none" xmlns="http://www.w3.org/2000/svg">
<path fill-rule="evenodd" clip-rule="evenodd" d="M7.00004 0.666992C8.78517 0.666992 10.2426 2.0703 10.3293 3.83396L10.3334 4.00033V14.0003C10.3334 15.7855 8.93004 17.2429 7.16641 17.3296L7.00004 17.3337H3.66671C1.88154 17.3337 0.424142 15.9303 0.337453 14.1667L0.333374 14.0003V4.00033C0.333374 2.21516 1.73668 0.75776 3.50034 0.671072L3.66671 0.666992H7.00004ZM5.33337 11.5003C4.41287 11.5003 3.66671 12.2465 3.66671 13.167C3.66671 14.0875 4.41287 14.8337 5.33337 14.8337C6.25387 14.8337 7.00004 14.0875 7.00004 13.167C7.00004 12.2465 6.25387 11.5003 5.33337 11.5003ZM5.33337 7.33366C4.41287 7.33366 3.66671 8.07983 3.66671 9.00033C3.66671 9.92083 4.41287 10.667 5.33337 10.667C6.25387 10.667 7.00004 9.92083 7.00004 9.00033C7.00004 8.07983 6.25387 7.33366 5.33337 7.33366ZM5.33337 3.16699C4.41287 3.16699 3.66671 3.91318 3.66671 4.83366C3.66671 5.75413 4.41287 6.50033 5.33337 6.50033C6.25387 6.50033 7.00004 5.75413 7.00004 4.83366C7.00004 3.91318 6.25387 3.16699 5.33337 3.16699Z" fill="#626C78"/>
</svg>
