<svg width="80" height="80" viewBox="0 0 80 80" fill="none" xmlns="http://www.w3.org/2000/svg">
<path fill-rule="evenodd" clip-rule="evenodd" d="M62.1703 41.1173L62.2062 41.0676L63.1953 39.4143C63.3238 39.1549 63.5498 38.957 63.8239 38.864C64.098 38.7709 64.3978 38.7903 64.6577 38.9179C64.9175 39.0456 65.1161 39.271 65.21 39.5448C65.304 39.8186 65.2855 40.1184 65.1587 40.3787L62.1703 41.1173ZM65.1587 40.3788L62.1703 41.1173C62.0832 41.2326 62.0198 41.3641 61.9838 41.5041C61.9478 41.6441 61.94 41.7898 61.9606 41.9329C61.9813 42.0759 62.0302 42.2135 62.1043 42.3376C62.1785 42.4616 62.2765 42.5698 62.3927 42.6557C62.5089 42.7417 62.641 42.8038 62.7814 42.8384C62.9217 42.873 63.0675 42.8794 63.2104 42.8573C63.3532 42.8352 63.4903 42.785 63.6136 42.7096C63.7369 42.6342 63.8441 42.5351 63.9289 42.418L63.9331 42.4123L63.9802 42.3474L64.0269 42.2824L64.0734 42.2166L64.1195 42.1507L64.1653 42.0843L64.2105 42.018L64.2552 41.9518L64.3 41.8845L64.3441 41.817L64.3877 41.7496L64.4309 41.6818L64.4737 41.6138L64.5164 41.5452L64.5586 41.4765L64.6003 41.4076L64.6417 41.3382L64.6825 41.2688L64.723 41.1993L64.7631 41.1291L64.8028 41.0588L64.8422 40.9882L64.8811 40.9174L64.9194 40.8465L64.9573 40.7754L64.9952 40.7035L65.0323 40.6316L65.0689 40.5599L65.1052 40.4877L65.1411 40.4149L65.1587 40.3788ZM55.9684 69.4066C55.7692 69.2004 55.659 68.9241 55.6614 68.6373C55.6639 68.3505 55.779 68.0762 55.9818 67.8734C56.1845 67.6706 56.4589 67.5556 56.7457 67.5531C57.0324 67.5506 57.3087 67.6608 57.515 67.8601L60.2122 70.5573C60.4172 70.7624 60.5324 71.0405 60.5324 71.3305C60.5324 71.6206 60.4172 71.8987 60.2122 72.1038L57.515 74.801C57.3087 75.0003 57.0324 75.1105 56.7457 75.108C56.4589 75.1055 56.1845 74.9905 55.9818 74.7877C55.779 74.5849 55.6639 74.3106 55.6614 74.0238C55.659 73.737 55.7692 73.4607 55.9684 73.2545L56.7545 72.4684L56.7986 72.4243H55.903C55.6129 72.4243 55.3347 72.3091 55.1296 72.1039C54.9244 71.8988 54.8092 71.6206 54.8092 71.3305C54.8092 71.0405 54.9244 70.7623 55.1296 70.5572C55.3347 70.352 55.6129 70.2368 55.903 70.2368H56.7986L56.7731 70.2113L55.9684 69.4066ZM42.9092 23.4043C42.6191 23.4043 42.3409 23.2891 42.1358 23.0839C41.9307 22.8788 41.8155 22.6006 41.8155 22.3105C41.8155 22.0205 41.9307 21.7423 42.1358 21.5371C42.3409 21.332 42.6191 21.2168 42.9092 21.2168H45.0967C45.3868 21.2168 45.665 21.332 45.8701 21.5371C46.0752 21.7423 46.1905 22.0205 46.1905 22.3105C46.1905 22.6006 46.0752 22.8788 45.8701 23.0839C45.665 23.2891 45.3868 23.4043 45.0967 23.4043H42.9092ZM51.6591 23.4043C51.369 23.4043 51.0908 23.2891 50.8857 23.0839C50.6805 22.8788 50.5653 22.6006 50.5653 22.3105C50.5653 22.0205 50.6805 21.7423 50.8857 21.5371C51.0908 21.332 51.369 21.2168 51.6591 21.2168H53.1502L53.2361 21.2171L53.3217 21.2179L53.4075 21.2193L53.4933 21.2212L53.5786 21.2237L53.6637 21.2266L53.7492 21.2302L53.8342 21.2343L53.9091 21.2384C54.0536 21.2449 54.1955 21.2801 54.3264 21.3419C54.4573 21.4037 54.5746 21.4908 54.6716 21.5983C54.7685 21.7057 54.8432 21.8314 54.8912 21.9679C54.9393 22.1044 54.9598 22.2491 54.9515 22.3936C54.9432 22.5381 54.9063 22.6796 54.8429 22.8097C54.7796 22.9398 54.691 23.0561 54.5824 23.1518C54.4738 23.2474 54.3473 23.3206 54.2102 23.367C54.0731 23.4134 53.9281 23.4321 53.7837 23.4221L53.7227 23.4188L53.6514 23.4154L53.5803 23.4124L53.5087 23.4099L53.4372 23.4079L53.3656 23.4063L53.2941 23.4052L53.222 23.4045L53.1502 23.4043H51.6591ZM59.3736 25.3148C59.2535 25.2347 59.1505 25.1317 59.0704 25.0116C58.9903 24.8916 58.9348 24.7569 58.907 24.6153C58.8792 24.4737 58.8798 24.328 58.9085 24.1865C58.9373 24.0451 58.9938 23.9108 59.0747 23.7914C59.1557 23.6719 59.2594 23.5696 59.3801 23.4904C59.5007 23.4112 59.6358 23.3567 59.7776 23.3299C59.9194 23.3032 60.0651 23.3048 60.2063 23.3346C60.3475 23.3644 60.4814 23.4219 60.6003 23.5037L60.603 23.5054L60.6691 23.5505L60.735 23.596L60.8011 23.6423L60.8667 23.6887L60.932 23.7354L60.997 23.7826L61.0616 23.8301L61.1259 23.878L61.19 23.9263L61.2539 23.9751L61.3173 24.0241L61.3803 24.0735L61.4434 24.1235L61.5061 24.1737L61.5683 24.2241L61.6303 24.2751L61.692 24.3263L61.7534 24.378L61.8142 24.4299L61.875 24.4823L61.9358 24.5352L61.9955 24.588L62.0552 24.6412L62.1148 24.6951L62.1739 24.7491L62.2327 24.8037L62.2911 24.8584L62.3492 24.9135L62.407 24.969L62.4453 25.0062C62.6502 25.2094 62.7664 25.4854 62.7686 25.774C62.7709 26.0626 62.659 26.3403 62.4573 26.5468C62.2557 26.7532 61.9806 26.8716 61.6921 26.8762C61.4036 26.8807 61.1249 26.771 60.9169 26.571L60.888 26.5429L60.8395 26.4965L60.7909 26.4502L60.7419 26.4043L60.6927 26.3587L60.6431 26.3134L60.5934 26.2685L60.5431 26.2237L60.4925 26.179L60.4422 26.1352L60.3914 26.0915L60.3402 26.0479L60.2887 26.0046L60.237 25.9616L60.1852 25.919L60.1328 25.8765L60.0805 25.8345L60.028 25.7929L59.9748 25.7513L59.9217 25.7102L59.8683 25.6695L59.8147 25.629L59.7606 25.5888L59.7062 25.5488L59.6519 25.5093L59.5972 25.4701L59.5423 25.4312L59.4875 25.3927L59.432 25.3545L59.3762 25.3165L59.3736 25.3148ZM63.923 31.6521C63.8485 31.3717 63.8884 31.0733 64.034 30.8224C64.1796 30.5714 64.4189 30.3886 64.6992 30.3141C64.9796 30.2397 65.278 30.2796 65.529 30.4252C65.7799 30.5707 65.9627 30.81 66.0372 31.0904L66.0553 31.158L66.0762 31.2379L66.0967 31.318L66.1167 31.3982L66.1361 31.4785L66.155 31.559L66.1734 31.6396L66.1916 31.7207L66.2091 31.802L66.2259 31.883L66.2423 31.9643L66.2584 32.046L66.2739 32.1279L66.2889 32.2098L66.3034 32.292L66.3173 32.374L66.3309 32.4565L66.3439 32.5393L66.3564 32.622L66.3684 32.7048L66.3798 32.788L66.3908 32.8712L66.4012 32.9545L66.4112 33.0382L66.4206 33.122L66.4294 33.2055L66.4377 33.2893L66.4455 33.3738L66.4505 33.4316C66.4739 33.7204 66.3818 34.0067 66.1943 34.2276C66.0069 34.4485 65.7395 34.586 65.4508 34.61C65.162 34.634 64.8756 34.5424 64.6543 34.3554C64.433 34.1684 64.295 33.9013 64.2705 33.6126L64.2667 33.5687L64.2602 33.4988L64.2531 33.4285L64.2458 33.3584L64.238 33.2887L64.2297 33.219L64.2209 33.1493L64.2119 33.0796L64.2023 33.0105L64.1923 32.9412L64.1819 32.8721L64.1711 32.8034L64.1598 32.7345L64.1481 32.6655L64.1361 32.5971L64.1236 32.5287L64.1106 32.4605L64.0973 32.3926L64.0836 32.3245L64.0694 32.2565L64.0548 32.189L64.0398 32.1216L64.0244 32.0541L64.0084 31.987L63.9922 31.9199L63.9755 31.853L63.9584 31.7865L63.9409 31.7199L63.923 31.6521ZM57.552 44.8163C57.8175 44.7055 58.116 44.7037 58.3828 44.8114C58.6496 44.9191 58.8632 45.1276 58.9774 45.3917C59.0915 45.6558 59.097 45.9543 58.9927 46.2224C58.8883 46.4905 58.6825 46.7067 58.4198 46.8241L58.4109 46.828L58.3362 46.8601L58.2609 46.8918L58.1859 46.9227L58.1106 46.9534L58.0348 46.9837L57.9592 47.0134L57.8831 47.0427L57.8067 47.0716L57.7302 47.1002L57.6533 47.1282L57.5764 47.1557L57.4992 47.1827L57.4219 47.2093L57.3442 47.2354L57.2666 47.261L57.1886 47.2862L57.1105 47.3109L57.0319 47.3352L56.9531 47.3591L56.8744 47.3824L56.7953 47.4052L56.7164 47.4276L56.6369 47.4495L56.557 47.4709L56.4772 47.4918L56.3972 47.5123L56.3175 47.5321L56.2372 47.5516L56.1586 47.5702C56.0182 47.6041 55.8725 47.6099 55.7298 47.5871C55.5872 47.5644 55.4505 47.5136 55.3275 47.4378C55.2046 47.3619 55.098 47.2624 55.0137 47.1451C54.9294 47.0278 54.8692 46.895 54.8366 46.7543C54.8039 46.6136 54.7995 46.4678 54.8234 46.3254C54.8474 46.1829 54.8994 46.0467 54.9763 45.9244C55.0533 45.8022 55.1536 45.6964 55.2717 45.6131C55.3897 45.5299 55.5231 45.4709 55.6641 45.4395L55.7283 45.4243L55.7955 45.408L55.8628 45.3913L55.9297 45.3743L55.9961 45.357L56.0622 45.3391L56.1284 45.3209L56.1947 45.3021L56.2606 45.283L56.3264 45.2635L56.3919 45.2438L56.4572 45.2237L56.5225 45.203L56.5877 45.1819L56.6528 45.1605L56.7173 45.1388L56.782 45.1166L56.8464 45.0941L56.9108 45.0712L56.9748 45.0479L57.0386 45.0243L57.1022 45.0002L57.1656 44.9757L57.2292 44.9507L57.2923 44.9255L57.3555 44.8999L57.4184 44.8738L57.4806 44.8477L57.5431 44.8209L57.552 44.8163ZM49.373 45.7268C49.663 45.7268 49.9412 45.842 50.1464 46.0471C50.3515 46.2523 50.4667 46.5305 50.4667 46.8205C50.4667 47.1106 50.3515 47.3888 50.1464 47.5939C49.9412 47.7991 49.663 47.9143 49.373 47.9143H47.1855C46.8954 47.9143 46.6172 47.7991 46.4121 47.5939C46.207 47.3888 46.0917 47.1106 46.0917 46.8205C46.0917 46.5305 46.207 46.2523 46.4121 46.0471C46.6172 45.842 46.8954 45.7268 47.1855 45.7268H49.373ZM40.6231 45.7268C40.9132 45.7268 41.1914 45.842 41.3965 46.0471C41.6016 46.2523 41.7169 46.5305 41.7169 46.8205C41.7169 47.1106 41.6016 47.3888 41.3965 47.5939C41.1914 47.7991 40.9132 47.9143 40.6231 47.9143H38.4356C38.1455 47.9143 37.8673 47.7991 37.6622 47.5939C37.4571 47.3888 37.3419 47.1106 37.3419 46.8205C37.3419 46.5305 37.4571 46.2523 37.6622 46.0471C37.8673 45.842 38.1455 45.7268 38.4356 45.7268H40.6231ZM31.8734 45.7268C32.1635 45.7268 32.4417 45.842 32.6468 46.0471C32.8519 46.2523 32.9672 46.5305 32.9672 46.8205C32.9672 47.1106 32.8519 47.3888 32.6468 47.5939C32.4417 47.7991 32.1635 47.9143 31.8734 47.9143H29.6859C29.3959 47.9143 29.1177 47.7991 28.9125 47.5939C28.7074 47.3888 28.5922 47.1106 28.5922 46.8205C28.5922 46.5305 28.7074 46.2523 28.9125 46.0471C29.1177 45.842 29.3959 45.7268 29.6859 45.7268H31.8734ZM22.8233 46.8327C23.0879 46.7214 23.3857 46.7186 23.6524 46.8249C23.9191 46.9312 24.1333 47.1381 24.2488 47.4009C24.3644 47.6638 24.3719 47.9615 24.2699 48.2299C24.1678 48.4982 23.9644 48.7157 23.7034 48.8354L23.6742 48.848L23.612 48.8755L23.5502 48.9034L23.4886 48.9316L23.427 48.9602L23.3661 48.989L23.3048 49.0184L23.2436 49.0482L23.1831 49.0782L23.123 49.1085L23.0627 49.1393L23.0025 49.1705L22.943 49.2018L22.8833 49.2337L22.8236 49.2659L22.7647 49.2982L22.7053 49.3312L22.6467 49.3643L22.5883 49.3977L22.5297 49.4318L22.4719 49.4659L22.4142 49.5002L22.3562 49.5354L22.2986 49.5707L22.2416 49.6062L22.1845 49.6421L22.1278 49.6784L22.0714 49.7149L22.0148 49.752L21.9602 49.7882C21.8413 49.87 21.7074 49.9275 21.5662 49.9573C21.425 49.9871 21.2793 49.9887 21.1375 49.962C20.9957 49.9352 20.8606 49.8807 20.7399 49.8015C20.6193 49.7223 20.5155 49.62 20.4346 49.5005C20.3537 49.381 20.2972 49.2467 20.2684 49.1053C20.2396 48.9639 20.2391 48.8182 20.2669 48.6766C20.2946 48.535 20.3502 48.4003 20.4302 48.2802C20.5103 48.1602 20.6134 48.0572 20.7334 47.9771L20.7433 47.9705L20.8103 47.926L20.8775 47.8821L20.9452 47.8384L21.013 47.7951L21.0811 47.7521L21.1497 47.7095L21.2181 47.6674L21.2867 47.6259L21.3561 47.5845L21.4259 47.5434L21.4953 47.503L21.5655 47.4629L21.6361 47.423L21.7062 47.384L21.7773 47.3449L21.8481 47.3066L21.9192 47.2687L21.9911 47.2309L22.0628 47.1937L22.1348 47.157L22.2073 47.1205L22.2802 47.0846L22.3527 47.0493L22.4255 47.0143L22.4992 46.9795L22.5727 46.9454L22.6464 46.9116L22.7205 46.8784L22.7945 46.8455L22.8233 46.8327ZM16.1033 53.2979C16.2323 53.0413 16.4571 52.8458 16.7291 52.7535C17.001 52.6613 17.2984 52.6797 17.5569 52.8047C17.8154 52.9298 18.0144 53.1515 18.1109 53.422C18.2073 53.6925 18.1935 53.9901 18.0725 54.2505L18.0723 54.251L18.0431 54.312L18.0141 54.3734L17.9855 54.4348L17.9572 54.4965L17.9294 54.5584L17.9019 54.6204L17.8748 54.6824L17.848 54.7452L17.8217 54.8076L17.7959 54.8702L17.7702 54.9334L17.745 54.9965L17.72 55.0601L17.6955 55.1235L17.6714 55.1871L17.6478 55.2509L17.6244 55.3149L17.6014 55.3791L17.5789 55.4437L17.5567 55.5084L17.535 55.5727L17.5136 55.6379L17.4925 55.7032L17.4719 55.7685L17.4516 55.8338L17.4317 55.8993L17.4122 55.9652L17.3931 56.031L17.3744 56.0974L17.372 56.1057C17.3354 56.2455 17.2714 56.3767 17.1838 56.4916C17.0962 56.6065 16.9866 56.703 16.8615 56.7753C16.7364 56.8477 16.5982 56.8945 16.4548 56.9131C16.3115 56.9317 16.1659 56.9217 16.0265 56.8838C15.887 56.8458 15.7565 56.7805 15.6424 56.6918C15.5284 56.603 15.433 56.4926 15.3619 56.3667C15.2907 56.2409 15.2453 56.1023 15.228 55.9588C15.2108 55.8153 15.2222 55.6698 15.2616 55.5307L15.2675 55.5091L15.2898 55.4301L15.3125 55.3509L15.3358 55.2723L15.3597 55.1935L15.3841 55.1149L15.4087 55.0368L15.4339 54.959L15.4595 54.8813L15.4858 54.8034L15.5123 54.7262L15.5394 54.649L15.5669 54.5721L15.5947 54.4954L15.6233 54.4188L15.6522 54.3424L15.6816 54.2663L15.7112 54.1907L15.7416 54.1149L15.7722 54.0398L15.8034 53.9645L15.8352 53.8893L15.867 53.8151L15.8995 53.7405L15.9325 53.6663L15.9658 53.5924L15.9995 53.5187L16.0337 53.4451L16.0683 53.3718L16.1034 53.2985L16.1033 53.2979ZM15.2547 62.5957C15.1795 62.3172 15.2173 62.0203 15.36 61.7696C15.5027 61.5188 15.7387 61.3346 16.0165 61.2571C16.2944 61.1795 16.5916 61.2149 16.8436 61.3554C17.0955 61.496 17.2816 61.7304 17.3616 62.0076L17.3744 62.0538L17.3931 62.1201L17.4122 62.186L17.4317 62.252L17.4516 62.3174L17.4719 62.3827L17.4925 62.4482L17.5136 62.5135L17.535 62.5784L17.5567 62.643L17.5789 62.7077L17.6014 62.7721L17.6244 62.8363L17.6477 62.9004L17.6714 62.9643L17.6955 63.028L17.72 63.0913L17.745 63.1549L17.7702 63.218L17.7958 63.2812L17.8217 63.3438L17.8481 63.4063L17.875 63.469L17.902 63.5309L17.9295 63.593L17.9573 63.6549L17.9856 63.7165L18.0142 63.778L18.0431 63.8391L18.0586 63.8713C18.1808 64.1319 18.1954 64.4301 18.0991 64.7014C18.0029 64.9726 17.8037 65.195 17.5446 65.3203C17.2855 65.4457 16.9875 65.4638 16.7151 65.3709C16.4427 65.2779 16.218 65.0814 16.0895 64.8238L16.0683 64.7796L16.0336 64.7062L15.9995 64.6327L15.9658 64.559L15.9325 64.4849L15.8997 64.4109L15.8672 64.3362L15.8353 64.2618L15.8036 64.1868L15.7725 64.1115L15.7419 64.0362L15.7116 63.9604L15.6819 63.8848L15.6525 63.8085L15.6236 63.7321L15.5952 63.6557L15.5672 63.579L15.5397 63.5021L15.5127 63.4249L15.4861 63.3476L15.46 63.2699L15.4344 63.1921L15.4092 63.1143L15.3845 63.0363L15.3602 62.9577L15.3362 62.879L15.3125 62.8001L15.2897 62.7212L15.2673 62.6421L15.2547 62.5957ZM20.712 70.1596C20.5926 70.0798 20.4901 69.9772 20.4103 69.8578C20.3305 69.7383 20.275 69.6044 20.247 69.4635C20.219 69.3226 20.219 69.1776 20.2471 69.0367C20.2751 68.8958 20.3306 68.7618 20.4105 68.6424C20.4903 68.523 20.5928 68.4205 20.7123 68.3407C20.8317 68.2609 20.9657 68.2054 21.1066 68.1774C21.2475 68.1494 21.3925 68.1494 21.5334 68.1775C21.6743 68.2055 21.8082 68.261 21.9277 68.3409L21.9589 68.362L22.0148 68.3991L22.0714 68.4362L22.1278 68.4727L22.1845 68.509L22.2416 68.5449L22.2986 68.5804L22.3562 68.6157L22.4142 68.6509L22.4719 68.6854L22.5297 68.7195L22.5883 68.7535L22.6467 68.787L22.7053 68.8199L22.7647 68.8531L22.8236 68.8854L22.883 68.9174L22.943 68.9495L23.0027 68.9809L23.0627 69.012L23.123 69.0427L23.1831 69.073L23.2436 69.103L23.3048 69.1329L23.3661 69.1623L23.427 69.191L23.4886 69.2196L23.5502 69.2479L23.612 69.2757L23.6736 69.303C23.9392 69.4198 24.1475 69.6372 24.2527 69.9075C24.358 70.1778 24.3516 70.4789 24.2348 70.7445C24.1181 71.01 23.9007 71.2183 23.6304 71.3236C23.3601 71.4289 23.059 71.4224 22.7934 71.3057L22.72 71.273L22.6459 71.2398L22.5722 71.206L22.4987 71.172L22.425 71.1371L22.3522 71.1021L22.2797 71.0668L22.2069 71.0309L22.1344 70.9945L22.0623 70.9577L21.9905 70.9205L21.9189 70.8829L21.8481 70.8451L21.777 70.8066L21.7059 70.7676L21.6358 70.7285L21.5652 70.6887L21.495 70.6485L21.4256 70.6082L21.3558 70.5671L21.2864 70.5257L21.2178 70.4841L21.1494 70.4421L21.0808 70.3995L21.0127 70.3565L20.9448 70.3132L20.8772 70.2695L20.81 70.2255L20.743 70.181L20.712 70.1596ZM29.6534 72.4243C29.3634 72.4243 29.0852 72.3091 28.88 72.1039C28.6749 71.8988 28.5597 71.6206 28.5597 71.3305C28.5597 71.0405 28.6749 70.7623 28.88 70.5572C29.0852 70.352 29.3634 70.2368 29.6534 70.2368H31.8409C32.131 70.2368 32.4092 70.352 32.6143 70.5572C32.8195 70.7623 32.9347 71.0405 32.9347 71.3305C32.9347 71.6206 32.8195 71.8988 32.6143 72.1039C32.4092 72.3091 32.131 72.4243 31.8409 72.4243H29.6534ZM38.4033 72.4243C38.1132 72.4243 37.835 72.3091 37.6299 72.1039C37.4248 71.8988 37.3095 71.6206 37.3095 71.3305C37.3095 71.0405 37.4248 70.7623 37.6299 70.5572C37.835 70.352 38.1132 70.2368 38.4033 70.2368H40.5908C40.8809 70.2368 41.1591 70.352 41.3642 70.5572C41.5693 70.7623 41.6845 71.0405 41.6845 71.3305C41.6845 71.6206 41.5693 71.8988 41.3642 72.1039C41.1591 72.3091 40.8809 72.4243 40.5908 72.4243H38.4033ZM47.1531 72.4243C46.863 72.4243 46.5848 72.3091 46.3797 72.1039C46.1746 71.8988 46.0594 71.6206 46.0594 71.3305C46.0594 71.0405 46.1746 70.7623 46.3797 70.5572C46.5848 70.352 46.863 70.2368 47.1531 70.2368H49.3406C49.6307 70.2368 49.9089 70.352 50.114 70.5572C50.3191 70.7623 50.4344 71.0405 50.4344 71.3305C50.4344 71.6206 50.3191 71.8988 50.114 72.1039C49.9089 72.3091 49.6307 72.4243 49.3406 72.4243H47.1531Z" fill="#A8B0B8"/>
<path fill-rule="evenodd" clip-rule="evenodd" d="M27.6508 25.3978C27.6508 22.4436 30.0466 20.0478 33.0008 20.0478C35.9548 20.0478 38.3508 22.4436 38.3508 25.3978C38.3508 25.7726 38.312 26.1384 38.2386 26.4915H40.1569C40.447 26.4915 40.7252 26.3763 40.9303 26.1712C41.1354 25.9661 41.2506 25.6879 41.2506 25.3978V19.9681C41.2506 19.8923 41.2428 19.8167 41.2273 19.7425C41.1573 19.2779 40.9523 18.8869 40.6092 18.5715C40.2944 18.2822 39.8812 18.0828 39.3675 17.9761C39.3337 17.9691 39.2997 17.9637 39.2655 17.9598L29.0459 16.5867L24.8548 10.5876C24.7546 10.4438 24.621 10.3264 24.4655 10.2453C24.31 10.1643 24.1372 10.122 23.9619 10.1222V10.1176H4.69625C4.46805 10.1177 4.24558 10.189 4.05994 10.3217C3.87431 10.4545 3.7348 10.6419 3.66094 10.8578L0.714687 17.7898C0.656991 17.9249 0.627278 18.0702 0.627344 18.217H0.625V25.3978C0.625 25.6879 0.740234 25.9661 0.945352 26.1712C1.15047 26.3763 1.42867 26.4915 1.71875 26.4915H3.04594C2.9712 26.1318 2.93361 25.7653 2.93375 25.3978C2.93375 22.4436 5.32953 20.0478 8.28375 20.0478C11.238 20.0478 13.6337 22.4436 13.6337 25.3978C13.6337 25.7726 13.595 26.1384 13.5217 26.4915H27.763C27.6882 26.1318 27.6506 25.7653 27.6508 25.3978ZM25.3809 19.6117H17.5508C17.2607 19.6117 16.9825 19.4965 16.7774 19.2913C16.5723 19.0862 16.457 18.808 16.457 18.5179L16.4592 18.4492L16.3548 13.8572C16.3492 13.5682 16.4586 13.2889 16.6589 13.0806C16.8592 12.8723 17.134 12.7521 17.423 12.7464L17.4444 12.7462V12.7422H22.1622C22.3547 12.7421 22.5438 12.7928 22.7104 12.8892C22.877 12.9857 23.0152 13.1244 23.1109 13.2914L26.2783 17.8984C26.3912 18.0621 26.4573 18.2535 26.4693 18.452C26.4813 18.6504 26.4388 18.8484 26.3464 19.0245C26.254 19.2005 26.1152 19.348 25.9451 19.4509C25.775 19.5538 25.5799 19.6082 25.3811 19.6083L25.3809 19.6117ZM14.7914 13.8304V18.5179C14.7914 18.808 14.6762 19.0862 14.4711 19.2913C14.2659 19.4965 13.9877 19.6117 13.6977 19.6117H5.50281V19.6067C5.32435 19.6067 5.14863 19.5629 4.9911 19.479C4.83358 19.3952 4.69909 19.2738 4.59948 19.1258C4.49988 18.9777 4.43821 18.8074 4.41991 18.6299C4.4016 18.4524 4.42723 18.2731 4.49453 18.1078L6.37187 13.5189C6.43909 13.293 6.57747 13.0948 6.76641 12.9538C6.95535 12.8129 7.18475 12.7367 7.42047 12.7367H13.6977C13.9877 12.7367 14.2659 12.8519 14.4711 13.0571C14.6762 13.2622 14.7914 13.5404 14.7914 13.8304ZM65.2405 55.8498V71.3306C65.2405 71.6207 65.3557 71.8989 65.5608 72.104C65.7659 72.3091 66.0441 72.4244 66.3342 72.4244C66.6243 72.4244 66.9025 72.3091 67.1076 72.104C67.3127 71.8989 67.428 71.6207 67.428 71.3306V64.0108L78.2812 64.0106C78.4975 64.0105 78.7089 63.9463 78.8887 63.8262C79.0685 63.706 79.2086 63.5352 79.2914 63.3354C79.3741 63.1356 79.3958 62.9158 79.3536 62.7037C79.3115 62.4916 79.2074 62.2967 79.0545 62.1437L76.2942 59.3834L79.047 56.6306C79.2021 56.4785 79.3083 56.2837 79.3522 56.071C79.3962 55.8582 79.3757 55.6373 79.2936 55.4362C79.2115 55.2351 79.0713 55.0631 78.891 54.9419C78.7107 54.8208 78.4985 54.7561 78.2812 54.7561H66.3342C66.0441 54.7561 65.7659 54.8713 65.5608 55.0764C65.3557 55.2815 65.2405 55.5597 65.2405 55.8498ZM7.03687 8.55514H21.8347V5.97217C21.8347 5.68209 21.7195 5.40389 21.5143 5.19877C21.3092 4.99365 21.031 4.87842 20.7409 4.87842H8.13062C7.84054 4.87842 7.56235 4.99365 7.35723 5.19877C7.15211 5.40389 7.03687 5.68209 7.03687 5.97217V8.55514Z" fill="#FEA735"/>
<path d="M35.6726 28.0766C37.1517 26.5975 37.1517 24.1994 35.6726 22.7203C34.1935 21.2412 31.7954 21.2412 30.3163 22.7203C28.8372 24.1994 28.8372 26.5975 30.3163 28.0766C31.7954 29.5557 34.1935 29.5557 35.6726 28.0766Z" fill="#FEA735"/>
<path d="M10.2812 28.6148C12.0605 27.515 12.6114 25.181 11.5116 23.4017C10.4118 21.6223 8.0778 21.0715 6.29847 22.1712C4.51915 23.271 3.96828 25.605 5.06807 27.3843C6.16786 29.1637 8.50185 29.7145 10.2812 28.6148Z" fill="#FEA735"/>
<path fill-rule="evenodd" clip-rule="evenodd" d="M7.1264 17.4243H12.6039V14.9243H8.14922L7.1264 17.4243ZM18.5591 14.9296L18.6158 17.4243H23.3059L21.5909 14.9296H18.5591Z" fill="#FEA735"/>
</svg>
