<svg width="24" height="24" viewBox="0 0 24 24" fill="none" xmlns="http://www.w3.org/2000/svg">
<g id="Trailing Icon">
<path id="vector" d="M6.85728 2.44513C8.12043 3.36652 9.07583 4.66145 9.88932 5.8493L10.5266 6.78754C10.9324 7.38061 10.8654 8.18514 10.3502 8.70036L8.99378 10.0567L9.13736 10.3602C9.4871 11.0692 10.0908 12.0911 11 13.0003C11.6994 13.6997 12.4655 14.2183 13.1045 14.5796L13.4711 14.7777L13.7979 14.9392C13.8486 14.9631 13.8971 14.9855 13.9435 15.0065L15.2993 13.6508C15.8149 13.1351 16.6229 13.0671 17.2173 13.479L18.2314 14.182C19.383 14.9922 20.5856 15.9156 21.521 17.1135C21.8626 17.5509 21.9133 18.123 21.7096 18.5984C20.8728 20.5509 18.7552 22.2138 16.5524 22.1327L16.2519 22.116L16.0189 22.0959L15.7611 22.067L15.4796 22.028L15.1753 21.9773L14.8493 21.9138L14.5028 21.8358L14.1367 21.7422L13.7522 21.6314L13.3502 21.5021C11.5039 20.8766 9.16111 19.6467 6.75735 17.2429C4.35357 14.8391 3.12366 12.4963 2.49814 10.65L2.36885 10.2481L2.25808 9.86354L2.16442 9.49748L2.0865 9.15094C2.06299 9.03881 2.04187 8.9301 2.02292 8.82501L1.97229 8.52072L1.93323 8.23916L1.90434 7.98137L1.88425 7.74843L1.86754 7.44791C1.78675 5.25245 3.46855 3.11926 5.41215 2.28629C5.86822 2.09083 6.4206 2.1266 6.85728 2.44513ZM5.92868 4.25344C4.85727 4.81393 3.81907 6.09394 3.86619 7.37436L3.88691 7.70278L3.90753 7.90706L3.93699 8.13658L3.97679 8.39025L4.02843 8.66695L4.09341 8.9656L4.17323 9.28509L4.26939 9.62431L4.38339 9.98217C4.42454 10.1044 4.4689 10.2296 4.51674 10.3576L4.67092 10.7494L4.84745 11.1565C5.47478 12.538 6.49948 14.1566 8.17157 15.8287C9.84367 17.5008 11.4623 18.5255 12.8438 19.1528L13.2509 19.3293L13.6427 19.4835C13.7707 19.5314 13.8959 19.5757 14.0181 19.6169L14.376 19.7309L14.7152 19.8271L15.0347 19.9069L15.3333 19.9719L15.61 20.0235L15.8637 20.0633L16.0932 20.0928L16.2975 20.1134L16.6259 20.1341C17.8904 20.1806 19.1802 19.1485 19.7377 18.0908C19.0259 17.2556 18.142 16.5703 17.1668 15.88L16.4195 15.3589L16.2287 15.5579L15.8235 16.001L15.6081 16.2276C15.0219 16.8244 14.3385 17.3317 13.5186 17.0001L13.2922 16.9053L13.0163 16.7816C12.9666 16.7585 12.9151 16.7341 12.8619 16.7085L12.5239 16.5395L12.1525 16.3388C11.3808 15.9054 10.4477 15.2764 9.58578 14.4145C8.72385 13.5526 8.09491 12.6195 7.66143 11.8478L7.46081 11.4764L7.29173 11.1384L7.09495 10.7081L7.00014 10.4817C6.68901 9.71242 7.11664 9.06281 7.66394 8.50096L7.88778 8.28082L8.44543 7.76845L8.64461 7.57749L8.17203 6.88508C7.46933 5.86602 6.78116 4.94479 5.92868 4.25344ZM14.9917 6.03983L15.1077 6.05345C15.8356 6.18179 16.5042 6.53729 17.0177 7.06897C17.5311 7.60065 17.863 8.28123 17.9659 9.01317C18.0428 9.56008 17.6617 10.0657 17.1148 10.1426C16.607 10.214 16.1347 9.89053 16.0083 9.40606L15.9854 9.29151C15.9413 8.97783 15.799 8.68615 15.579 8.45829C15.3956 8.2684 15.1661 8.13095 14.9141 8.05858L14.7604 8.02306C14.2166 7.92716 13.8534 7.4085 13.9493 6.86461C14.0384 6.35956 14.492 6.01035 14.9917 6.03983ZM15 3.00029C15.7879 3.00029 16.5682 3.15548 17.2961 3.45701C18.0241 3.75854 18.6855 4.2005 19.2427 4.75765C19.7998 5.3148 20.2418 5.97624 20.5433 6.70419C20.8448 7.43214 21 8.21236 21 9.00029C21 9.55257 20.5523 10.0003 20 10.0003C19.4872 10.0003 19.0645 9.61425 19.0067 9.11691L19 9.00029C19 8.475 18.8966 7.95486 18.6955 7.46956C18.4945 6.98425 18.1999 6.5433 17.8284 6.17186C17.457 5.80043 17.0161 5.50579 16.5307 5.30477C16.1263 5.13726 15.6977 5.03749 15.2621 5.00889L15 5.00029C14.4477 5.00029 14 4.55257 14 4.00029C14 3.44801 14.4477 3.00029 15 3.00029Z" fill="#626C78"/>
</g>
</svg>
