<svg width="38" height="38" viewBox="0 0 38 38" fill="none" xmlns="http://www.w3.org/2000/svg">
<rect x="1.5" y="1.5" width="35" height="35" rx="17.5" fill="#F0FDF1"/>
<rect x="1.5" y="1.5" width="35" height="35" rx="17.5" stroke="#F0FDF1" stroke-width="3"/>
<path fill-rule="evenodd" clip-rule="evenodd" d="M22.7936 27.4439C21.5928 27.3997 18.1923 26.9302 14.6311 23.369C11.07 19.8079 10.6005 16.4073 10.5563 15.2065C10.489 13.377 11.8905 11.5993 13.5101 10.9052C13.8902 10.7423 14.3505 10.7721 14.7144 11.0375C16.0467 12.0094 16.9673 13.4787 17.7575 14.6348C18.1145 15.1571 18.0292 15.8701 17.5443 16.2899L15.9183 17.4974C15.7572 17.6171 15.7036 17.8346 15.8002 18.0105C16.1681 18.6802 16.8235 19.6767 17.5734 20.4267C18.3243 21.1774 19.3678 21.8751 20.0835 22.2844C20.2691 22.3906 20.5025 22.3291 20.6198 22.1504L21.6776 20.5392C22.0832 19.9994 22.8407 19.8814 23.3913 20.2625C24.5642 21.0743 25.9323 21.9782 26.9342 23.2612C27.2188 23.6257 27.2611 24.1024 27.0913 24.4985C26.394 26.1257 24.6293 27.5114 22.7936 27.4439Z" fill="#27C041"/>
</svg>
