<svg width="28" height="28" viewBox="0 0 28 28" fill="none" xmlns="http://www.w3.org/2000/svg">
<g id="Component 2">
<path id="Vector" d="M25.2029 7.11401C25.2029 7.11401 24.4277 7.46445 24.3865 7.63967C23.065 13.5271 19.1325 15.1422 13.2272 15.1422L10.2126 15.1018C9.46934 15.1018 8.45313 15.9801 8.32926 16.5758L6.77102 24.275L7.19802 24.8812L6.78507 27.2642C6.70245 27.6146 6.99154 27.965 7.44581 28.0001H12.8968C13.5162 28.0001 14.053 27.6146 14.1769 27.089L14.2183 26.8436L15.2093 21.4469C15.3256 20.8141 15.7373 20.2554 16.5721 20.2554H17.3567C22.5186 20.2554 26.5656 18.4682 27.7632 13.3167C28.2587 11.179 28.0109 9.35675 26.6895 8.09522C26.2766 7.67467 25.781 7.35929 25.2029 7.11401Z" fill="#009BD9"/>
<path id="Vector_2" d="M23.9054 5.97509C22.6043 5.61908 21.1913 5.57227 19.8343 5.57227H11.7817C11.1623 5.57227 10.0789 6.26379 9.95493 6.78945L8.12988 16.2953L8.7671 16.5756C8.89096 15.9798 9.5104 15.5243 10.2124 15.5243H13.227C19.1323 15.5243 23.7314 13.4988 25.0941 7.6114C25.1354 7.43618 25.1605 7.30477 25.2027 7.1138C25.2027 7.1138 24.7702 6.28802 24.4173 6.13538C24.2495 6.07571 24.0787 6.02223 23.9054 5.97509Z" fill="#192A67"/>
<path id="Vector_3" d="M10.5431 7.14891C10.6257 6.62326 11.1625 6.23777 11.8232 6.23777H19.8346C20.7843 6.23777 21.6929 6.30788 22.4775 6.41298C23.0143 6.48309 23.5512 6.5882 24.088 6.72837C24.5009 6.83348 24.8726 6.9737 25.203 7.11386C25.6159 4.94112 25.203 3.46932 23.7989 2.10257C22.3123 0.630766 19.5455 0 15.994 0H5.75278C5.05073 0 4.4313 0.455547 4.30744 1.05131L0.0126544 24.04C-0.0699624 24.4606 0.26044 24.846 0.755948 24.8811H7.19806L8.80857 16.3304L10.5431 7.14891Z" fill="#0A3B82"/>
</g>
</svg>
