<svg width="30" height="14" viewBox="0 0 30 14" fill="none" xmlns="http://www.w3.org/2000/svg">
<g id="Group">
<path id="Vector" fill-rule="evenodd" clip-rule="evenodd" d="M30 7.20828C30 5.07497 28.9667 3.39164 26.9917 3.39164C25.0084 3.39164 23.8083 5.07497 23.8083 7.19164C23.8083 9.7 25.225 10.9666 27.2583 10.9666C28.25 10.9666 29 10.7416 29.5667 10.425V8.75826C29 9.04161 28.35 9.21662 27.525 9.21662C26.7167 9.21662 26 8.93328 25.9083 7.94993H29.9833C29.9834 7.8416 30 7.40826 30 7.20828ZM25.8834 6.4166C25.8834 5.47491 26.4584 5.08323 26.9834 5.08323C27.4917 5.08323 28.0334 5.47491 28.0334 6.4166H25.8834ZM20.5917 3.39164C19.775 3.39164 19.25 3.77494 18.9583 4.04165L18.85 3.52499H17.0167V13.2417L19.1 12.8L19.1083 10.4417C19.4083 10.6584 19.85 10.9667 20.5833 10.9667C22.075 10.9667 23.4333 9.76668 23.4333 7.12502C23.425 4.7083 22.05 3.39164 20.5917 3.39164ZM20.0917 9.13331C19.6 9.13331 19.3083 8.95829 19.1083 8.74162L19.1 5.64993C19.3167 5.40824 19.6167 5.2416 20.0917 5.2416C20.85 5.2416 21.375 6.09159 21.375 7.18327C21.375 8.29996 20.8583 9.13331 20.0917 9.13331ZM14.15 2.89994L16.2417 2.44995V0.758301L14.15 1.19996V2.89994ZM14.15 3.53325H16.2417V10.8249H14.15V3.53325ZM11.9084 4.14993L11.775 3.53325H9.97502V10.8249H12.0584V5.88324C12.55 5.24154 13.3833 5.35826 13.6417 5.44989V3.53325C13.375 3.43329 12.4 3.24996 11.9084 4.14993ZM7.74169 1.72494L5.70833 2.15829L5.70001 8.83326C5.70001 10.0666 6.625 10.975 7.85835 10.975C8.5417 10.975 9.04166 10.8499 9.31669 10.6999V9.00827C9.05004 9.11661 7.73337 9.49991 7.73337 8.26662V5.30828H9.31669V3.53331H7.73337L7.74169 1.72494ZM2.10836 5.64993C2.10836 5.32492 2.37501 5.19994 2.81667 5.19994C3.44998 5.19994 4.24999 5.3916 4.88336 5.7333V3.77494C4.19169 3.49997 3.50834 3.39164 2.81667 3.39164C1.12501 3.39164 0 4.27496 0 5.74994C0 8.04995 3.16669 7.68328 3.16669 8.67494C3.16669 9.05831 2.83337 9.18328 2.36668 9.18328C1.67501 9.18328 0.791688 8.89994 0.0916956 8.51663V10.5C0.866685 10.8333 1.65005 10.975 2.36668 10.975C4.1 10.975 5.29169 10.1166 5.29169 8.62497C5.28337 6.14163 2.10836 6.58329 2.10836 5.64993Z" fill="#635BFF"/>
</g>
</svg>
