<svg width="20" height="20" viewBox="0 0 20 20" fill="none" xmlns="http://www.w3.org/2000/svg">
<g id="time_line">
<path id="vector" d="M10 1.6665C14.6023 1.6665 18.3333 5.39746 18.3333 9.99984C18.3333 14.6022 14.6023 18.3332 10 18.3332C5.39763 18.3332 1.66667 14.6022 1.66667 9.99984C1.66667 5.39746 5.39763 1.6665 10 1.6665ZM10 3.33317C6.31811 3.33317 3.33334 6.31794 3.33334 9.99984C3.33334 13.6818 6.31811 16.6665 10 16.6665C13.6819 16.6665 16.6667 13.6818 16.6667 9.99984C16.6667 6.31794 13.6819 3.33317 10 3.33317ZM10 4.99984C10.4274 4.99984 10.7796 5.32154 10.8277 5.73599L10.8333 5.83317V9.65467L13.0893 11.9106C13.4147 12.236 13.4147 12.7637 13.0893 13.0891C12.7889 13.3895 12.3162 13.4126 11.9893 13.1584L11.9108 13.0891L9.41076 10.5891C9.28055 10.4589 9.19785 10.29 9.1739 10.1094L9.16667 9.99984V5.83317C9.16667 5.37294 9.53976 4.99984 10 4.99984Z" fill="#232529"/>
</g>
</svg>
