<svg width="28" height="28" viewBox="0 0 28 28" fill="none" xmlns="http://www.w3.org/2000/svg">
<path d="M14 0.666992C21.3637 0.666992 27.3333 6.63653 27.3333 14.0003C27.3333 21.3641 21.3637 27.3337 14 27.3337C6.63616 27.3337 0.666626 21.3641 0.666626 14.0003C0.666626 6.63653 6.63616 0.666992 14 0.666992ZM18.7138 9.17547L12.1141 15.7751L9.28571 12.9467C8.76501 12.4261 7.9208 12.4261 7.40009 12.9467C6.8794 13.4674 6.8794 14.3117 7.40009 14.8323L11.0771 18.5093C11.6498 19.0821 12.5785 19.0821 13.1513 18.5093L20.5994 11.0611C21.1201 10.5404 21.1201 9.69617 20.5994 9.17547C20.0788 8.65477 19.2345 8.65477 18.7138 9.17547Z" fill="#27C041"/>
</svg>
