<svg width="24" height="25" viewBox="0 0 24 25" fill="none" xmlns="http://www.w3.org/2000/svg">
<g id="Trailing Icon">
<path id="vector" fill-rule="evenodd" clip-rule="evenodd" d="M11.5 4.5C8.85134 4.5 6.73903 6.88087 7.02729 9.49923C7.08294 10.0047 6.75509 10.4678 6.26851 10.5896C4.96468 10.9159 4 12.0965 4 13.5C4 15.1569 5.34315 16.5 7 16.5H8C8.55228 16.5 9 16.9477 9 17.5C9 18.0523 8.55228 18.5 8 18.5H7C4.23858 18.5 2 16.2614 2 13.5C2 11.4486 3.23468 9.68749 5.00053 8.91614C5.04543 5.36494 7.93814 2.5 11.5 2.5C14.2856 2.5 16.66 4.25154 17.5856 6.71198C20.13 7.40766 22 9.73462 22 12.5C22 15.8137 19.3137 18.5 16 18.5C15.4477 18.5 15 18.0523 15 17.5C15 16.9477 15.4477 16.5 16 16.5C18.2091 16.5 20 14.7091 20 12.5C20 10.5145 18.5524 8.86524 16.6552 8.55324C16.2653 8.48913 15.9477 8.20323 15.8441 7.82051C15.326 5.90663 13.576 4.5 11.5 4.5ZM13 12.9162L14.2934 14.2077C14.6843 14.5979 15.3174 14.5974 15.7077 14.2066C16.0979 13.8157 16.0974 13.1826 15.7066 12.7923L12.8832 9.97341C12.3952 9.48618 11.6048 9.48618 11.1168 9.97341L8.29345 12.7923C7.90262 13.1826 7.90212 13.8157 8.29234 14.2066C8.68256 14.5974 9.31572 14.5979 9.70655 14.2077L11 12.9162V21.5C11 22.0523 11.4477 22.5 12 22.5C12.5523 22.5 13 22.0523 13 21.5V12.9162Z" fill="#FEA735"/>
</g>
</svg>
