<svg width="28" height="28" viewBox="0 0 28 28" fill="none" xmlns="http://www.w3.org/2000/svg">
<g id="wallet_3_fill">
<path id="vector" fill-rule="evenodd" clip-rule="evenodd" d="M5.83333 7.58341C5.83333 7.26125 6.0945 7.00008 6.41667 7.00008H18.6667C19.311 7.00008 19.8333 6.47774 19.8333 5.83341C19.8333 5.18909 19.311 4.66675 18.6667 4.66675H6.41667C4.80584 4.66675 3.5 5.97259 3.5 7.58341V21.0001C3.5 22.2888 4.54467 23.3334 5.83333 23.3334H22.1667C23.4554 23.3334 24.5 22.2888 24.5 21.0001V10.5001C24.5 9.21142 23.4554 8.16675 22.1667 8.16675H6.41667C6.0945 8.16675 5.83333 7.90558 5.83333 7.58341ZM18.0833 17.5001C19.0498 17.5001 19.8333 16.7165 19.8333 15.7501C19.8333 14.7836 19.0498 14.0001 18.0833 14.0001C17.1169 14.0001 16.3333 14.7836 16.3333 15.7501C16.3333 16.7165 17.1169 17.5001 18.0833 17.5001Z" fill="#232529"/>
</g>
</svg>
