<svg width="343" height="222" viewBox="0 0 343 222" fill="none" xmlns="http://www.w3.org/2000/svg">
<g clip-path="url(#clip0_1345_56623)">
<path d="M278.367 68.9419C275.821 67.5544 274.655 68.7106 273.729 67.5544C272.804 66.3982 276.276 63.3841 269.323 60.378C269.323 60.378 268.86 53.8952 259.353 53.664C249.846 53.4327 252.401 60.1467 249.846 61.7654C247.3 63.3841 246.598 60.8404 244.051 62.4591C241.505 64.0778 242.662 67.3232 240.571 67.7857C238.488 68.2481 235.702 65.7045 233.155 67.3232C230.609 68.9419 230.609 70.3293 229.444 70.3293C228.286 70.3293 225.963 69.4044 224.574 70.3293C223.185 71.2543 221.565 72.4105 221.565 72.4105H280.203C280.219 72.4185 280.914 70.3293 278.367 68.9419Z" fill="white" stroke="#232529" stroke-width="0.703998" stroke-miterlimit="10"/>
<path d="M133.983 88.8686C132.826 88.2387 132.299 88.7649 131.876 88.2387C131.453 87.7124 133.033 86.3489 129.88 84.9774C129.88 84.9774 129.673 82.035 125.354 81.9314C121.044 81.8277 122.201 84.8737 121.044 85.6073C119.886 86.3409 119.567 85.1847 118.418 85.9263C117.26 86.6599 117.787 88.135 116.837 88.3423C115.887 88.5497 114.626 87.3934 113.469 88.135C112.311 88.8686 112.311 89.4985 111.784 89.4985C111.257 89.4985 110.204 89.0759 109.573 89.4985C108.943 89.9212 108.208 90.4474 108.208 90.4474H134.829C134.821 90.4474 135.141 89.4985 133.983 88.8686Z" fill="white" stroke="#232529" stroke-width="0.703998" stroke-miterlimit="10"/>
<path d="M155.543 21.9202C153.955 21.051 153.229 21.7767 152.654 21.051C152.079 20.3254 154.242 18.4516 149.908 16.5697C149.908 16.5697 149.621 12.527 143.69 12.3755C137.759 12.232 139.347 16.4182 137.759 17.4309C136.17 18.4436 135.731 16.8568 134.143 17.8615C132.554 18.8742 133.273 20.8995 131.972 21.1866C130.671 21.4737 128.93 19.8869 127.342 20.8995C125.753 21.9122 125.753 22.7814 125.027 22.7814C124.301 22.7814 122.856 22.2072 121.986 22.7814C121.116 23.3635 120.102 24.0811 120.102 24.0811H156.701C156.701 24.0891 157.14 22.7893 155.543 21.9202Z" fill="white" stroke="#232529" stroke-width="0.703998" stroke-miterlimit="10"/>
<path d="M52.6912 101.427H46.1776V107.982H52.6912V101.427Z" stroke="#232529" stroke-width="0.703998" stroke-miterlimit="10"/>
<path d="M41.7795 105.39H39.1373V107.974H41.7795V105.39Z" stroke="#232529" stroke-width="0.703998" stroke-miterlimit="10"/>
<path d="M306.601 142.812H281.927V90.8062H283.572V85.4159H225.756V90.8062H227.759V168.145H212.593V2.21674H160.596V127.701H141.582V113.811H146.563V107.934H104.983V23.7461H107.673V19.3446H57.2092V23.7461H60.8252V108.078H20.9456V168.384H0" stroke="#232529" stroke-width="0.703998" stroke-miterlimit="10"/>
<path d="M214.668 0.398682H158.281V2.20077H214.668V0.398682Z" stroke="#232529" stroke-width="0.703998" stroke-miterlimit="10"/>
<path d="M71.6971 28.642H65.3431V35.4358H71.6971V28.642Z" stroke="#232529" stroke-width="0.703998" stroke-miterlimit="10"/>
<path d="M81.0124 28.642H74.6584V35.4358H81.0124V28.642Z" stroke="#232529" stroke-width="0.703998" stroke-miterlimit="10"/>
<path d="M90.3277 28.642H83.9738V35.4358H90.3277V28.642Z" stroke="#232529" stroke-width="0.703998" stroke-miterlimit="10"/>
<path d="M99.6431 28.642H93.2892V35.4358H99.6431V28.642Z" stroke="#232529" stroke-width="0.703998" stroke-miterlimit="10"/>
<path d="M71.6971 39.4147H65.3431V46.2085H71.6971V39.4147Z" stroke="#232529" stroke-width="0.703998" stroke-miterlimit="10"/>
<path d="M81.0124 39.4147H74.6584V46.2085H81.0124V39.4147Z" stroke="#232529" stroke-width="0.703998" stroke-miterlimit="10"/>
<path d="M90.3277 39.4147H83.9738V46.2085H90.3277V39.4147Z" stroke="#232529" stroke-width="0.703998" stroke-miterlimit="10"/>
<path d="M99.6431 39.4147H93.2892V46.2085H99.6431V39.4147Z" stroke="#232529" stroke-width="0.703998" stroke-miterlimit="10"/>
<path d="M71.6971 50.1794H65.3431V56.9731H71.6971V50.1794Z" stroke="#232529" stroke-width="0.703998" stroke-miterlimit="10"/>
<path d="M81.0124 50.1794H74.6584V56.9731H81.0124V50.1794Z" stroke="#232529" stroke-width="0.703998" stroke-miterlimit="10"/>
<path d="M90.3277 50.1794H83.9738V56.9731H90.3277V50.1794Z" stroke="#232529" stroke-width="0.703998" stroke-miterlimit="10"/>
<path d="M99.6431 50.1794H93.2892V56.9731H99.6431V50.1794Z" stroke="#232529" stroke-width="0.703998" stroke-miterlimit="10"/>
<path d="M71.6971 60.9441H65.3431V67.7378H71.6971V60.9441Z" stroke="#232529" stroke-width="0.703998" stroke-miterlimit="10"/>
<path d="M81.0124 60.9441H74.6584V67.7378H81.0124V60.9441Z" stroke="#232529" stroke-width="0.703998" stroke-miterlimit="10"/>
<path d="M90.3277 60.9441H83.9738V67.7378H90.3277V60.9441Z" stroke="#232529" stroke-width="0.703998" stroke-miterlimit="10"/>
<path d="M99.6431 60.9441H93.2892V67.7378H99.6431V60.9441Z" stroke="#232529" stroke-width="0.703998" stroke-miterlimit="10"/>
<path d="M71.6971 71.7168H65.3431V78.5105H71.6971V71.7168Z" stroke="#232529" stroke-width="0.703998" stroke-miterlimit="10"/>
<path d="M81.0124 71.7168H74.6584V78.5105H81.0124V71.7168Z" stroke="#232529" stroke-width="0.703998" stroke-miterlimit="10"/>
<path d="M90.3277 71.7168H83.9738V78.5105H90.3277V71.7168Z" stroke="#232529" stroke-width="0.703998" stroke-miterlimit="10"/>
<path d="M99.6431 71.7168H93.2892V78.5105H99.6431V71.7168Z" stroke="#232529" stroke-width="0.703998" stroke-miterlimit="10"/>
<path d="M71.6971 82.4814H65.3431V89.2752H71.6971V82.4814Z" stroke="#232529" stroke-width="0.703998" stroke-miterlimit="10"/>
<path d="M81.0124 82.4814H74.6584V89.2752H81.0124V82.4814Z" stroke="#232529" stroke-width="0.703998" stroke-miterlimit="10"/>
<path d="M90.3277 82.4814H83.9738V89.2752H90.3277V82.4814Z" stroke="#232529" stroke-width="0.703998" stroke-miterlimit="10"/>
<path d="M99.6431 82.4814H93.2892V89.2752H99.6431V82.4814Z" stroke="#232529" stroke-width="0.703998" stroke-miterlimit="10"/>
<path d="M71.6971 93.2541H65.3431V100.048H71.6971V93.2541Z" stroke="#232529" stroke-width="0.703998" stroke-miterlimit="10"/>
<path d="M81.0124 93.2541H74.6584V100.048H81.0124V93.2541Z" stroke="#232529" stroke-width="0.703998" stroke-miterlimit="10"/>
<path d="M90.3277 93.2541H83.9738V100.048H90.3277V93.2541Z" stroke="#232529" stroke-width="0.703998" stroke-miterlimit="10"/>
<path d="M99.6431 93.2541H93.2892V100.048H99.6431V93.2541Z" stroke="#232529" stroke-width="0.703998" stroke-miterlimit="10"/>
<path d="M71.6971 104.019H65.3431V110.813H71.6971V104.019Z" stroke="#232529" stroke-width="0.703998" stroke-miterlimit="10"/>
<path d="M81.0124 104.019H74.6584V110.813H81.0124V104.019Z" stroke="#232529" stroke-width="0.703998" stroke-miterlimit="10"/>
<path d="M90.3277 104.019H83.9738V110.813H90.3277V104.019Z" stroke="#232529" stroke-width="0.703998" stroke-miterlimit="10"/>
<path d="M99.6431 104.019H93.2892V110.813H99.6431V104.019Z" stroke="#232529" stroke-width="0.703998" stroke-miterlimit="10"/>
<path d="M71.6971 113.867H65.3431V120.66H71.6971V113.867Z" stroke="#232529" stroke-width="0.703998" stroke-miterlimit="10"/>
<path d="M81.0124 113.867H74.6584V120.66H81.0124V113.867Z" stroke="#232529" stroke-width="0.703998" stroke-miterlimit="10"/>
<path d="M90.3277 113.867H83.9738V120.66H90.3277V113.867Z" stroke="#232529" stroke-width="0.703998" stroke-miterlimit="10"/>
<path d="M99.6431 113.867H93.2892V120.66H99.6431V113.867Z" stroke="#232529" stroke-width="0.703998" stroke-miterlimit="10"/>
<path d="M71.6971 124.639H65.3431V131.433H71.6971V124.639Z" stroke="#232529" stroke-width="0.703998" stroke-miterlimit="10"/>
<path d="M81.0124 124.639H74.6584V131.433H81.0124V124.639Z" stroke="#232529" stroke-width="0.703998" stroke-miterlimit="10"/>
<path d="M90.3277 124.639H83.9738V131.433H90.3277V124.639Z" stroke="#232529" stroke-width="0.703998" stroke-miterlimit="10"/>
<path d="M99.6431 124.639H93.2892V131.433H99.6431V124.639Z" stroke="#232529" stroke-width="0.703998" stroke-miterlimit="10"/>
<path d="M71.6971 135.404H65.3431V142.198H71.6971V135.404Z" stroke="#232529" stroke-width="0.703998" stroke-miterlimit="10"/>
<path d="M81.0124 135.404H74.6584V142.198H81.0124V135.404Z" stroke="#232529" stroke-width="0.703998" stroke-miterlimit="10"/>
<path d="M90.3277 135.404H83.9738V142.198H90.3277V135.404Z" stroke="#232529" stroke-width="0.703998" stroke-miterlimit="10"/>
<path d="M99.6431 135.404H93.2892V142.198H99.6431V135.404Z" stroke="#232529" stroke-width="0.703998" stroke-miterlimit="10"/>
<path d="M71.6971 146.169H65.3431V152.962H71.6971V146.169Z" stroke="#232529" stroke-width="0.703998" stroke-miterlimit="10"/>
<path d="M81.0124 146.169H74.6584V152.962H81.0124V146.169Z" stroke="#232529" stroke-width="0.703998" stroke-miterlimit="10"/>
<path d="M90.3277 146.169H83.9738V152.962H90.3277V146.169Z" stroke="#232529" stroke-width="0.703998" stroke-miterlimit="10"/>
<path d="M99.6431 146.169H93.2892V152.962H99.6431V146.169Z" stroke="#232529" stroke-width="0.703998" stroke-miterlimit="10"/>
<path d="M71.6971 156.941H65.3431V163.735H71.6971V156.941Z" stroke="#232529" stroke-width="0.703998" stroke-miterlimit="10"/>
<path d="M81.0124 156.941H74.6584V163.735H81.0124V156.941Z" stroke="#232529" stroke-width="0.703998" stroke-miterlimit="10"/>
<path d="M90.3277 156.941H83.9738V163.735H90.3277V156.941Z" stroke="#232529" stroke-width="0.703998" stroke-miterlimit="10"/>
<path d="M99.6431 156.941H93.2892V163.735H99.6431V156.941Z" stroke="#232529" stroke-width="0.703998" stroke-miterlimit="10"/>
<path d="M71.6971 167.706H65.3431V174.5H71.6971V167.706Z" stroke="#232529" stroke-width="0.703998" stroke-miterlimit="10"/>
<path d="M81.0124 167.706H74.6584V174.5H81.0124V167.706Z" stroke="#232529" stroke-width="0.703998" stroke-miterlimit="10"/>
<path d="M90.3277 167.706H83.9738V174.5H90.3277V167.706Z" stroke="#232529" stroke-width="0.703998" stroke-miterlimit="10"/>
<path d="M99.6431 167.706H93.2892V174.5H99.6431V167.706Z" stroke="#232529" stroke-width="0.703998" stroke-miterlimit="10"/>
<path d="M71.6971 178.479H65.3431V185.272H71.6971V178.479Z" stroke="#232529" stroke-width="0.703998" stroke-miterlimit="10"/>
<path d="M81.0124 178.479H74.6584V185.272H81.0124V178.479Z" stroke="#232529" stroke-width="0.703998" stroke-miterlimit="10"/>
<path d="M90.3277 178.479H83.9738V185.272H90.3277V178.479Z" stroke="#232529" stroke-width="0.703998" stroke-miterlimit="10"/>
<path d="M99.6431 178.479H93.2892V185.272H99.6431V178.479Z" stroke="#232529" stroke-width="0.703998" stroke-miterlimit="10"/>
<path d="M71.6971 189.243H65.3431V196.037H71.6971V189.243Z" stroke="#232529" stroke-width="0.703998" stroke-miterlimit="10"/>
<path d="M81.0124 189.243H74.6584V196.037H81.0124V189.243Z" stroke="#232529" stroke-width="0.703998" stroke-miterlimit="10"/>
<path d="M90.3277 189.243H83.9738V196.037H90.3277V189.243Z" stroke="#232529" stroke-width="0.703998" stroke-miterlimit="10"/>
<path d="M99.6431 189.243H93.2892V196.037H99.6431V189.243Z" stroke="#232529" stroke-width="0.703998" stroke-miterlimit="10"/>
<path d="M108.081 113.867H101.727V120.66H108.081V113.867Z" stroke="#232529" stroke-width="0.703998" stroke-miterlimit="10"/>
<path d="M117.396 113.867H111.042V120.66H117.396V113.867Z" stroke="#232529" stroke-width="0.703998" stroke-miterlimit="10"/>
<path d="M126.711 113.867H120.357V120.66H126.711V113.867Z" stroke="#232529" stroke-width="0.703998" stroke-miterlimit="10"/>
<path d="M136.027 113.867H129.673V120.66H136.027V113.867Z" stroke="#232529" stroke-width="0.703998" stroke-miterlimit="10"/>
<path d="M108.081 124.639H101.727V131.433H108.081V124.639Z" stroke="#232529" stroke-width="0.703998" stroke-miterlimit="10"/>
<path d="M117.396 124.639H111.042V131.433H117.396V124.639Z" stroke="#232529" stroke-width="0.703998" stroke-miterlimit="10"/>
<path d="M126.711 124.639H120.357V131.433H126.711V124.639Z" stroke="#232529" stroke-width="0.703998" stroke-miterlimit="10"/>
<path d="M136.027 124.639H129.673V131.433H136.027V124.639Z" stroke="#232529" stroke-width="0.703998" stroke-miterlimit="10"/>
<path d="M108.081 135.404H101.727V142.198H108.081V135.404Z" stroke="#232529" stroke-width="0.703998" stroke-miterlimit="10"/>
<path d="M117.396 135.404H111.042V142.198H117.396V135.404Z" stroke="#232529" stroke-width="0.703998" stroke-miterlimit="10"/>
<path d="M126.711 135.404H120.357V142.198H126.711V135.404Z" stroke="#232529" stroke-width="0.703998" stroke-miterlimit="10"/>
<path d="M136.027 135.404H129.673V142.198H136.027V135.404Z" stroke="#232529" stroke-width="0.703998" stroke-miterlimit="10"/>
<path d="M108.081 146.169H101.727V152.962H108.081V146.169Z" stroke="#232529" stroke-width="0.703998" stroke-miterlimit="10"/>
<path d="M117.396 146.169H111.042V152.962H117.396V146.169Z" stroke="#232529" stroke-width="0.703998" stroke-miterlimit="10"/>
<path d="M126.711 146.169H120.357V152.962H126.711V146.169Z" stroke="#232529" stroke-width="0.703998" stroke-miterlimit="10"/>
<path d="M136.027 146.169H129.673V152.962H136.027V146.169Z" stroke="#232529" stroke-width="0.703998" stroke-miterlimit="10"/>
<path d="M108.081 156.941H101.727V163.735H108.081V156.941Z" stroke="#232529" stroke-width="0.703998" stroke-miterlimit="10"/>
<path d="M117.396 156.941H111.042V163.735H117.396V156.941Z" stroke="#232529" stroke-width="0.703998" stroke-miterlimit="10"/>
<path d="M126.711 156.941H120.357V163.735H126.711V156.941Z" stroke="#232529" stroke-width="0.703998" stroke-miterlimit="10"/>
<path d="M136.027 156.941H129.673V163.735H136.027V156.941Z" stroke="#232529" stroke-width="0.703998" stroke-miterlimit="10"/>
<path d="M108.081 167.706H101.727V174.5H108.081V167.706Z" stroke="#232529" stroke-width="0.703998" stroke-miterlimit="10"/>
<path d="M117.396 167.706H111.042V174.5H117.396V167.706Z" stroke="#232529" stroke-width="0.703998" stroke-miterlimit="10"/>
<path d="M126.711 167.706H120.357V174.5H126.711V167.706Z" stroke="#232529" stroke-width="0.703998" stroke-miterlimit="10"/>
<path d="M136.027 167.706H129.673V174.5H136.027V167.706Z" stroke="#232529" stroke-width="0.703998" stroke-miterlimit="10"/>
<path d="M108.081 178.479H101.727V185.272H108.081V178.479Z" stroke="#232529" stroke-width="0.703998" stroke-miterlimit="10"/>
<path d="M117.396 178.479H111.042V185.272H117.396V178.479Z" stroke="#232529" stroke-width="0.703998" stroke-miterlimit="10"/>
<path d="M126.711 178.479H120.357V185.272H126.711V178.479Z" stroke="#232529" stroke-width="0.703998" stroke-miterlimit="10"/>
<path d="M136.027 178.479H129.673V185.272H136.027V178.479Z" stroke="#232529" stroke-width="0.703998" stroke-miterlimit="10"/>
<path d="M108.081 189.243H101.727V196.037H108.081V189.243Z" stroke="#232529" stroke-width="0.703998" stroke-miterlimit="10"/>
<path d="M117.396 189.243H111.042V196.037H117.396V189.243Z" stroke="#232529" stroke-width="0.703998" stroke-miterlimit="10"/>
<path d="M126.711 189.243H120.357V196.037H126.711V189.243Z" stroke="#232529" stroke-width="0.703998" stroke-miterlimit="10"/>
<path d="M136.027 189.243H129.673V196.037H136.027V189.243Z" stroke="#232529" stroke-width="0.703998" stroke-miterlimit="10"/>
<path d="M34.803 113.867H28.4491V120.66H34.803V113.867Z" stroke="#232529" stroke-width="0.703998" stroke-miterlimit="10"/>
<path d="M44.1182 113.867H37.7643V120.66H44.1182V113.867Z" stroke="#232529" stroke-width="0.703998" stroke-miterlimit="10"/>
<path d="M53.4335 113.867H47.0796V120.66H53.4335V113.867Z" stroke="#232529" stroke-width="0.703998" stroke-miterlimit="10"/>
<path d="M62.7491 113.867H56.3951V120.66H62.7491V113.867Z" stroke="#232529" stroke-width="0.703998" stroke-miterlimit="10"/>
<path d="M34.803 124.639H28.4491V131.433H34.803V124.639Z" stroke="#232529" stroke-width="0.703998" stroke-miterlimit="10"/>
<path d="M44.1182 124.639H37.7643V131.433H44.1182V124.639Z" stroke="#232529" stroke-width="0.703998" stroke-miterlimit="10"/>
<path d="M53.4335 124.639H47.0796V131.433H53.4335V124.639Z" stroke="#232529" stroke-width="0.703998" stroke-miterlimit="10"/>
<path d="M62.7491 124.639H56.3951V131.433H62.7491V124.639Z" stroke="#232529" stroke-width="0.703998" stroke-miterlimit="10"/>
<path d="M34.803 135.404H28.4491V142.198H34.803V135.404Z" stroke="#232529" stroke-width="0.703998" stroke-miterlimit="10"/>
<path d="M44.1182 135.404H37.7643V142.198H44.1182V135.404Z" stroke="#232529" stroke-width="0.703998" stroke-miterlimit="10"/>
<path d="M53.4335 135.404H47.0796V142.198H53.4335V135.404Z" stroke="#232529" stroke-width="0.703998" stroke-miterlimit="10"/>
<path d="M62.7491 135.404H56.3951V142.198H62.7491V135.404Z" stroke="#232529" stroke-width="0.703998" stroke-miterlimit="10"/>
<path d="M34.803 146.169H28.4491V152.962H34.803V146.169Z" stroke="#232529" stroke-width="0.703998" stroke-miterlimit="10"/>
<path d="M44.1182 146.169H37.7643V152.962H44.1182V146.169Z" stroke="#232529" stroke-width="0.703998" stroke-miterlimit="10"/>
<path d="M53.4335 146.169H47.0796V152.962H53.4335V146.169Z" stroke="#232529" stroke-width="0.703998" stroke-miterlimit="10"/>
<path d="M62.7491 146.169H56.3951V152.962H62.7491V146.169Z" stroke="#232529" stroke-width="0.703998" stroke-miterlimit="10"/>
<path d="M34.803 156.941H28.4491V163.735H34.803V156.941Z" stroke="#232529" stroke-width="0.703998" stroke-miterlimit="10"/>
<path d="M44.1182 156.941H37.7643V163.735H44.1182V156.941Z" stroke="#232529" stroke-width="0.703998" stroke-miterlimit="10"/>
<path d="M53.4335 156.941H47.0796V163.735H53.4335V156.941Z" stroke="#232529" stroke-width="0.703998" stroke-miterlimit="10"/>
<path d="M62.7491 156.941H56.3951V163.735H62.7491V156.941Z" stroke="#232529" stroke-width="0.703998" stroke-miterlimit="10"/>
<path d="M34.803 167.706H28.4491V174.5H34.803V167.706Z" stroke="#232529" stroke-width="0.703998" stroke-miterlimit="10"/>
<path d="M44.1182 167.706H37.7643V174.5H44.1182V167.706Z" stroke="#232529" stroke-width="0.703998" stroke-miterlimit="10"/>
<path d="M53.4335 167.706H47.0796V174.5H53.4335V167.706Z" stroke="#232529" stroke-width="0.703998" stroke-miterlimit="10"/>
<path d="M62.7491 167.706H56.3951V174.5H62.7491V167.706Z" stroke="#232529" stroke-width="0.703998" stroke-miterlimit="10"/>
<path d="M34.803 178.479H28.4491V185.272H34.803V178.479Z" stroke="#232529" stroke-width="0.703998" stroke-miterlimit="10"/>
<path d="M44.1182 178.479H37.7643V185.272H44.1182V178.479Z" stroke="#232529" stroke-width="0.703998" stroke-miterlimit="10"/>
<path d="M53.4335 178.479H47.0796V185.272H53.4335V178.479Z" stroke="#232529" stroke-width="0.703998" stroke-miterlimit="10"/>
<path d="M62.7491 178.479H56.3951V185.272H62.7491V178.479Z" stroke="#232529" stroke-width="0.703998" stroke-miterlimit="10"/>
<path d="M34.803 189.243H28.4491V196.037H34.803V189.243Z" stroke="#232529" stroke-width="0.703998" stroke-miterlimit="10"/>
<path d="M44.1182 189.243H37.7643V196.037H44.1182V189.243Z" stroke="#232529" stroke-width="0.703998" stroke-miterlimit="10"/>
<path d="M53.4335 189.243H47.0796V196.037H53.4335V189.243Z" stroke="#232529" stroke-width="0.703998" stroke-miterlimit="10"/>
<path d="M62.7491 189.243H56.3951V196.037H62.7491V189.243Z" stroke="#232529" stroke-width="0.703998" stroke-miterlimit="10"/>
<path d="M242.894 92.7598H236.54V99.5535H242.894V92.7598Z" stroke="#232529" stroke-width="0.703998" stroke-miterlimit="10"/>
<path d="M252.209 92.7598H245.855V99.5535H252.209V92.7598Z" stroke="#232529" stroke-width="0.703998" stroke-miterlimit="10"/>
<path d="M261.525 92.7598H255.171V99.5535H261.525V92.7598Z" stroke="#232529" stroke-width="0.703998" stroke-miterlimit="10"/>
<path d="M270.84 92.7598H264.486V99.5535H270.84V92.7598Z" stroke="#232529" stroke-width="0.703998" stroke-miterlimit="10"/>
<path d="M242.894 103.533H236.54V110.326H242.894V103.533Z" stroke="#232529" stroke-width="0.703998" stroke-miterlimit="10"/>
<path d="M252.209 103.533H245.855V110.326H252.209V103.533Z" stroke="#232529" stroke-width="0.703998" stroke-miterlimit="10"/>
<path d="M261.525 103.533H255.171V110.326H261.525V103.533Z" stroke="#232529" stroke-width="0.703998" stroke-miterlimit="10"/>
<path d="M270.84 103.533H264.486V110.326H270.84V103.533Z" stroke="#232529" stroke-width="0.703998" stroke-miterlimit="10"/>
<path d="M242.894 114.297H236.54V121.091H242.894V114.297Z" stroke="#232529" stroke-width="0.703998" stroke-miterlimit="10"/>
<path d="M252.209 114.297H245.855V121.091H252.209V114.297Z" stroke="#232529" stroke-width="0.703998" stroke-miterlimit="10"/>
<path d="M261.525 114.297H255.171V121.091H261.525V114.297Z" stroke="#232529" stroke-width="0.703998" stroke-miterlimit="10"/>
<path d="M270.84 114.297H264.486V121.091H270.84V114.297Z" stroke="#232529" stroke-width="0.703998" stroke-miterlimit="10"/>
<path d="M242.894 125.062H236.54V131.856H242.894V125.062Z" stroke="#232529" stroke-width="0.703998" stroke-miterlimit="10"/>
<path d="M252.209 125.062H245.855V131.856H252.209V125.062Z" stroke="#232529" stroke-width="0.703998" stroke-miterlimit="10"/>
<path d="M261.525 125.062H255.171V131.856H261.525V125.062Z" stroke="#232529" stroke-width="0.703998" stroke-miterlimit="10"/>
<path d="M270.84 125.062H264.486V131.856H270.84V125.062Z" stroke="#232529" stroke-width="0.703998" stroke-miterlimit="10"/>
<path d="M242.894 135.835H236.54V142.628H242.894V135.835Z" stroke="#232529" stroke-width="0.703998" stroke-miterlimit="10"/>
<path d="M252.209 135.835H245.855V142.628H252.209V135.835Z" stroke="#232529" stroke-width="0.703998" stroke-miterlimit="10"/>
<path d="M261.525 135.835H255.171V142.628H261.525V135.835Z" stroke="#232529" stroke-width="0.703998" stroke-miterlimit="10"/>
<path d="M270.84 135.835H264.486V142.628H270.84V135.835Z" stroke="#232529" stroke-width="0.703998" stroke-miterlimit="10"/>
<path d="M242.894 146.599H236.54V153.393H242.894V146.599Z" stroke="#232529" stroke-width="0.703998" stroke-miterlimit="10"/>
<path d="M252.209 146.599H245.855V153.393H252.209V146.599Z" stroke="#232529" stroke-width="0.703998" stroke-miterlimit="10"/>
<path d="M261.525 146.599H255.171V153.393H261.525V146.599Z" stroke="#232529" stroke-width="0.703998" stroke-miterlimit="10"/>
<path d="M270.84 146.599H264.486V153.393H270.84V146.599Z" stroke="#232529" stroke-width="0.703998" stroke-miterlimit="10"/>
<path d="M242.894 157.372H236.54V164.166H242.894V157.372Z" stroke="#232529" stroke-width="0.703998" stroke-miterlimit="10"/>
<path d="M252.209 157.372H245.855V164.166H252.209V157.372Z" stroke="#232529" stroke-width="0.703998" stroke-miterlimit="10"/>
<path d="M261.525 157.372H255.171V164.166H261.525V157.372Z" stroke="#232529" stroke-width="0.703998" stroke-miterlimit="10"/>
<path d="M270.84 157.372H264.486V164.166H270.84V157.372Z" stroke="#232529" stroke-width="0.703998" stroke-miterlimit="10"/>
<path d="M242.894 168.137H236.54V174.93H242.894V168.137Z" stroke="#232529" stroke-width="0.703998" stroke-miterlimit="10"/>
<path d="M252.209 168.137H245.855V174.93H252.209V168.137Z" stroke="#232529" stroke-width="0.703998" stroke-miterlimit="10"/>
<path d="M261.525 168.137H255.171V174.93H261.525V168.137Z" stroke="#232529" stroke-width="0.703998" stroke-miterlimit="10"/>
<path d="M270.84 168.137H264.486V174.93H270.84V168.137Z" stroke="#232529" stroke-width="0.703998" stroke-miterlimit="10"/>
<path d="M165.497 6.1319V202.887" stroke="#232529" stroke-width="0.703998" stroke-miterlimit="10"/>
<path d="M171.795 6.1319V202.887" stroke="#232529" stroke-width="0.703998" stroke-miterlimit="10"/>
<path d="M178.093 6.1319V202.887" stroke="#232529" stroke-width="0.703998" stroke-miterlimit="10"/>
<path d="M184.391 6.1319V202.887" stroke="#232529" stroke-width="0.703998" stroke-miterlimit="10"/>
<path d="M190.689 6.1319V202.887" stroke="#232529" stroke-width="0.703998" stroke-miterlimit="10"/>
<path d="M196.988 6.1319V202.887" stroke="#232529" stroke-width="0.703998" stroke-miterlimit="10"/>
<path d="M203.294 6.1319V202.887" stroke="#232529" stroke-width="0.703998" stroke-miterlimit="10"/>
<path d="M209.592 6.1319V202.887" stroke="#232529" stroke-width="0.703998" stroke-miterlimit="10"/>
<path d="M145.661 199.458H32.7114V205.821H145.661V199.458Z" stroke="#232529" stroke-width="0.703998" stroke-miterlimit="10"/>
<path d="M316.403 199.458H214.98V205.821H316.403V199.458Z" stroke="#232529" stroke-width="0.703998" stroke-miterlimit="10"/>
<path d="M205.504 199.211C205.504 199.211 216.576 200.303 222.188 207.161C222.188 207.161 228.118 199.219 238.767 199.378C241.856 195.654 243.716 190.878 243.716 185.671C243.724 173.798 234.089 164.174 222.203 164.166C210.318 164.158 200.683 173.782 200.675 185.655C200.675 190.798 202.479 195.527 205.504 199.227V199.211Z" fill="#FE7235"/>
<path opacity="0.5" d="M205.504 199.211C205.504 199.211 216.576 200.303 222.188 207.161C222.188 207.161 228.118 199.219 238.767 199.378C241.856 195.654 243.716 190.878 243.716 185.671C243.724 173.798 234.089 164.174 222.203 164.166C210.318 164.158 200.683 173.782 200.675 185.655C200.675 190.798 202.479 195.527 205.504 199.227V199.211Z" fill="white"/>
<path d="M221.82 165.681L221.445 221.123H223.313L221.82 165.681Z" fill="#232529"/>
<path d="M222.379 205.072C222.379 205.072 226.115 198.35 232.844 196.3C232.844 196.3 225.74 197.983 222.196 203.764L222.379 205.072Z" fill="#232529"/>
<path d="M222.379 186.03C222.379 186.03 226.115 179.308 232.844 177.259C232.844 177.259 225.74 178.941 222.196 184.722L222.379 186.03Z" fill="#232529"/>
<path d="M222.379 195.551C222.379 195.551 226.115 188.829 232.844 186.779C232.844 186.779 225.74 188.462 222.196 194.243L222.379 195.551Z" fill="#232529"/>
<path d="M221.828 190.886C221.828 190.886 218.22 184.164 211.731 182.115C211.731 182.115 218.58 183.797 222.012 189.578L221.828 190.886Z" fill="#232529"/>
<path d="M221.828 200.215C221.828 200.215 218.22 193.493 211.731 191.444C211.731 191.444 218.58 193.127 222.012 198.908L221.828 200.215Z" fill="#232529"/>
<path d="M257.653 195.008C257.653 195.008 270.848 196.316 277.537 204.481C277.537 204.481 284.601 195.016 297.293 195.208C300.973 190.774 303.192 185.081 303.192 178.869C303.2 164.724 291.721 153.249 277.553 153.241C263.392 153.233 251.898 164.7 251.898 178.853C251.898 184.985 254.053 190.615 257.653 195.032V195.008Z" fill="#FE7235"/>
<path opacity="0.5" d="M257.653 195.008C257.653 195.008 270.848 196.316 277.537 204.481C277.537 204.481 284.601 195.016 297.293 195.208C300.973 190.774 303.192 185.081 303.192 178.869C303.2 164.724 291.721 153.249 277.553 153.241C263.392 153.233 251.898 164.7 251.898 178.853C251.898 184.985 254.053 190.615 257.653 195.032V195.008Z" fill="white"/>
<path d="M277.098 155.051L276.651 221.123H278.878L277.098 155.051Z" fill="#232529"/>
<path d="M277.768 201.994C277.768 201.994 282.222 193.988 290.237 191.54C290.237 191.54 281.775 193.541 277.545 200.439L277.768 201.994Z" fill="#232529"/>
<path d="M277.768 179.3C277.768 179.3 282.222 171.294 290.237 168.846C290.237 168.846 281.775 170.848 277.545 177.745L277.768 179.3Z" fill="#232529"/>
<path d="M277.768 190.647C277.768 190.647 282.222 182.641 290.237 180.193C290.237 180.193 281.775 182.194 277.545 189.092L277.768 190.647Z" fill="#232529"/>
<path d="M277.106 185.081C277.106 185.081 272.811 177.075 265.068 174.627C265.068 174.627 273.234 176.629 277.321 183.526L277.106 185.081Z" fill="#232529"/>
<path d="M277.106 196.205C277.106 196.205 272.811 188.199 265.068 185.751C265.068 185.751 273.234 187.752 277.321 194.65L277.106 196.205Z" fill="#232529"/>
<path d="M310.767 202.639C310.767 202.639 320.107 203.564 324.84 209.345C324.84 209.345 329.845 202.647 338.825 202.783C341.435 199.641 343 195.614 343 191.221C343 181.206 334.882 173.08 324.848 173.08C314.822 173.08 306.688 181.19 306.688 191.213C306.688 195.551 308.213 199.538 310.759 202.663L310.767 202.639Z" fill="#FE7235"/>
<path opacity="0.5" d="M310.767 202.639C310.767 202.639 320.107 203.564 324.84 209.345C324.84 209.345 329.845 202.647 338.825 202.783C341.435 199.641 343 195.614 343 191.221C343 181.206 334.882 173.08 324.848 173.08C314.822 173.08 306.688 181.19 306.688 191.213C306.688 195.551 308.213 199.538 310.759 202.663L310.767 202.639Z" fill="white"/>
<path d="M324.529 174.356L324.209 221.123H325.79L324.529 174.356Z" fill="#232529"/>
<path d="M325 207.583C325 207.583 328.153 201.914 333.828 200.183C333.828 200.183 327.841 201.603 324.84 206.483L325 207.583Z" fill="#232529"/>
<path d="M325 191.516C325 191.516 328.153 185.846 333.828 184.116C333.828 184.116 327.841 185.536 324.84 190.416L325 191.516Z" fill="#232529"/>
<path d="M325 199.554C325 199.554 328.153 193.884 333.828 192.154C333.828 192.154 327.841 193.573 324.84 198.453L325 199.554Z" fill="#232529"/>
<path d="M324.537 195.614C324.537 195.614 321.495 189.945 316.019 188.215C316.019 188.215 321.799 189.634 324.688 194.514L324.537 195.614Z" fill="#232529"/>
<path d="M324.537 203.485C324.537 203.485 321.495 197.815 316.019 196.085C316.019 196.085 321.799 197.504 324.688 202.384L324.537 203.485Z" fill="#232529"/>
<path d="M12.7078 199.211C12.7078 199.211 23.7793 200.303 29.3909 207.161C29.3909 207.161 35.3217 199.219 45.9701 199.378C49.0593 195.654 50.9192 190.878 50.9192 185.671C50.9272 173.798 41.2925 164.174 29.4068 164.166C17.5212 164.158 7.88652 173.782 7.87854 185.655C7.87854 190.798 9.69053 195.527 12.7078 199.227V199.211Z" fill="#FE7235"/>
<path opacity="0.5" d="M12.7078 199.211C12.7078 199.211 23.7793 200.303 29.3909 207.161C29.3909 207.161 35.3217 199.219 45.9701 199.378C49.0593 195.654 50.9192 190.878 50.9192 185.671C50.9272 173.798 41.2925 164.174 29.4068 164.166C17.5212 164.158 7.88652 173.782 7.87854 185.655C7.87854 190.798 9.69053 195.527 12.7078 199.227V199.211Z" fill="white"/>
<path d="M29.0237 165.681L28.6486 221.123H30.5164L29.0237 165.681Z" fill="#232529"/>
<path d="M29.5826 205.072C29.5826 205.072 33.3184 198.35 40.0475 196.3C40.0475 196.3 32.9432 197.983 29.399 203.764L29.5826 205.072Z" fill="#232529"/>
<path d="M29.5826 186.03C29.5826 186.03 33.3184 179.308 40.0475 177.259C40.0475 177.259 32.9432 178.941 29.399 184.722L29.5826 186.03Z" fill="#232529"/>
<path d="M29.5826 195.551C29.5826 195.551 33.3184 188.829 40.0475 186.779C40.0475 186.779 32.9432 188.462 29.399 194.243L29.5826 195.551Z" fill="#232529"/>
<path d="M29.0317 190.886C29.0317 190.886 25.4237 184.164 18.9341 182.115C18.9341 182.115 25.7829 183.797 29.2153 189.578L29.0317 190.886Z" fill="#232529"/>
<path d="M29.0317 200.215C29.0317 200.215 25.4237 193.493 18.9341 191.444C18.9341 191.444 25.7829 193.127 29.2153 198.908L29.0317 200.215Z" fill="#232529"/>
<path d="M64.8564 195.008C64.8564 195.008 78.0512 196.316 84.7404 204.481C84.7404 204.481 91.8047 195.016 104.497 195.208C108.176 190.774 110.396 185.081 110.396 178.869C110.404 164.724 98.925 153.249 84.7564 153.241C70.5957 153.233 59.1012 164.7 59.1012 178.853C59.1012 184.985 61.2564 190.615 64.8564 195.032V195.008Z" fill="#FE7235"/>
<path opacity="0.5" d="M64.8564 195.008C64.8564 195.008 78.0512 196.316 84.7404 204.481C84.7404 204.481 91.8047 195.016 104.497 195.208C108.176 190.774 110.396 185.081 110.396 178.869C110.404 164.724 98.925 153.249 84.7564 153.241C70.5957 153.233 59.1012 164.7 59.1012 178.853C59.1012 184.985 61.2564 190.615 64.8564 195.032V195.008Z" fill="white"/>
<path d="M84.3013 155.051L83.8542 221.123H86.0813L84.3013 155.051Z" fill="#232529"/>
<path d="M84.9639 201.994C84.9639 201.994 89.418 193.988 97.4322 191.54C97.4322 191.54 88.971 193.541 84.7404 200.439L84.9639 201.994Z" fill="#232529"/>
<path d="M84.9639 179.3C84.9639 179.3 89.418 171.294 97.4322 168.846C97.4322 168.846 88.971 170.848 84.7404 177.745L84.9639 179.3Z" fill="#232529"/>
<path d="M84.9639 190.647C84.9639 190.647 89.418 182.641 97.4322 180.193C97.4322 180.193 88.971 182.194 84.7404 189.092L84.9639 190.647Z" fill="#232529"/>
<path d="M84.3093 185.081C84.3093 185.081 80.0148 177.075 72.272 174.627C72.272 174.627 80.4379 176.629 84.5248 183.526L84.3093 185.081Z" fill="#232529"/>
<path d="M84.3093 196.205C84.3093 196.205 80.0148 188.199 72.272 185.751C72.272 185.751 80.4379 187.752 84.5248 194.65L84.3093 196.205Z" fill="#232529"/>
<path d="M117.963 202.639C117.963 202.639 127.302 203.564 132.036 209.345C132.036 209.345 137.04 202.647 146.021 202.783C148.631 199.641 150.195 195.614 150.195 191.221C150.195 181.206 142.077 173.08 132.044 173.08C122.018 173.08 113.884 181.19 113.884 191.213C113.884 195.551 115.408 199.538 117.955 202.663L117.963 202.639Z" fill="#FE7235"/>
<path opacity="0.5" d="M117.963 202.639C117.963 202.639 127.302 203.564 132.036 209.345C132.036 209.345 137.04 202.647 146.021 202.783C148.631 199.641 150.195 195.614 150.195 191.221C150.195 181.206 142.077 173.08 132.044 173.08C122.018 173.08 113.884 181.19 113.884 191.213C113.884 195.551 115.408 199.538 117.955 202.663L117.963 202.639Z" fill="white"/>
<path d="M131.732 174.356L131.413 221.123H132.994L131.732 174.356Z" fill="#232529"/>
<path d="M132.203 207.583C132.203 207.583 135.356 201.914 141.032 200.183C141.032 200.183 135.045 201.603 132.044 206.483L132.203 207.583Z" fill="#232529"/>
<path d="M132.203 191.516C132.203 191.516 135.356 185.846 141.032 184.116C141.032 184.116 135.045 185.536 132.044 190.416L132.203 191.516Z" fill="#232529"/>
<path d="M132.203 199.554C132.203 199.554 135.356 193.884 141.032 192.154C141.032 192.154 135.045 193.573 132.044 198.453L132.203 199.554Z" fill="#232529"/>
<path d="M131.732 195.614C131.732 195.614 128.691 189.945 123.215 188.215C123.215 188.215 128.994 189.634 131.884 194.514L131.732 195.614Z" fill="#232529"/>
<path d="M131.732 203.485C131.732 203.485 128.691 197.815 123.215 196.085C123.215 196.085 128.994 197.504 131.884 202.384L131.732 203.485Z" fill="#232529"/>
<path d="M11.263 221.123H337.636" stroke="#232529" stroke-width="0.703998" stroke-miterlimit="10" stroke-linecap="round" stroke-linejoin="round"/>
<g clip-path="url(#clip1_1345_56623)">
<path d="M96.3105 205.439C96.3762 204.651 96.4166 203.853 96.4166 203.049C96.4166 188.549 85.7305 176.796 72.5434 176.796C59.816 176.796 49.4129 187.755 48.7106 201.559L96.3105 205.439Z" fill="#263238" stroke="#263238" stroke-width="0.505253" stroke-miterlimit="10"/>
<path d="M259.174 204.555C259.174 190.054 248.488 178.302 235.301 178.302C222.114 178.302 211.427 190.059 211.427 204.555C211.427 205.995 211.539 207.405 211.741 208.779L258.78 209.299C259.032 207.763 259.174 206.177 259.174 204.555Z" fill="#263238" stroke="#263238" stroke-width="0.505253" stroke-miterlimit="10"/>
<path d="M258.845 209.304L262.19 209.34C262.19 209.34 262.195 209.294 262.21 209.208C260.846 209.259 259.664 209.284 258.845 209.304Z" fill="#263238" stroke="#263238" stroke-width="0.505253" stroke-miterlimit="10"/>
<path d="M276.964 201.382L276.282 192.484C276.282 192.484 277.105 191.525 277.105 190.019C277.105 188.513 275.463 181.803 271.906 175.644C268.349 169.485 263.555 166.474 257.123 163.326C250.691 160.179 227.964 156.758 227.964 156.758C227.964 156.758 183.477 128.287 180.193 126.509C176.909 124.73 173.624 124.321 172.392 124.179C171.159 124.043 149.398 121.441 129.819 121.85C110.245 122.259 90.6719 123.083 72.1898 124.998C72.1898 124.998 66.5764 124.589 66.5764 125.958C66.5764 127.327 67.2585 127.736 67.2585 127.736L52.7476 149.503C52.7476 149.503 48.7763 152.514 47.9578 154.156C47.1342 155.798 43.4408 170.991 43.4408 170.991C43.4408 170.991 40.4295 175.099 40.2931 178.656C40.1567 182.213 41.2531 191.11 41.2531 191.11C41.2531 191.11 39.7474 193.162 40.4295 194.258C41.1116 195.354 42.3444 199.184 43.7137 200.144C45.0829 201.104 48.2306 201.513 48.2306 201.513L48.7056 201.569C49.4028 187.755 59.806 176.791 72.5384 176.791C85.7255 176.791 96.4116 188.549 96.4116 203.044C96.4116 204.348 96.3207 205.631 96.1539 206.884L97.0937 206.99L211.119 208.769L211.731 208.774C211.529 207.4 211.417 205.99 211.417 204.55C211.417 190.049 222.104 178.297 235.291 178.297C248.478 178.297 259.164 190.054 259.164 204.55C259.164 206.172 259.022 207.758 258.765 209.299C262.271 209.234 273.008 208.931 274.493 207.672C276.272 206.167 277.095 204.525 277.232 203.565C277.378 202.615 276.964 201.382 276.964 201.382Z" fill="#FE7235" stroke="#263238" stroke-width="0.505253" stroke-miterlimit="10"/>
<path d="M207.153 155.116L98.6043 149.922L96.9673 149.846L92.4453 149.629C90.9093 149.553 89.6108 148.462 89.2672 146.966L85.6395 131.096C85.306 129.651 86.2862 128.242 87.7565 128.029C90.116 127.696 93.3295 127.463 96.9723 127.302C97.513 127.277 98.0536 127.256 98.6094 127.241C113.883 126.695 135.296 127.327 135.296 127.327L167.147 128.262C167.622 128.277 168.082 128.423 168.476 128.696L207.153 155.116Z" fill="#263238" stroke="#263238" stroke-width="0.505253" stroke-miterlimit="10"/>
<path d="M130.991 127.221L131.89 151.514L144.704 152.125L140.712 127.484L135.286 127.322C135.291 127.327 133.664 127.277 130.991 127.221Z" fill="#707070" stroke="#263238" stroke-width="0.505253" stroke-miterlimit="10"/>
<path d="M98.6043 149.922V127.246C98.0485 127.261 97.5079 127.287 96.9673 127.307V149.846" stroke="#263238" stroke-width="0.505253" stroke-miterlimit="10"/>
<path d="M176.494 128.287L215.096 155.803L227.964 156.763C227.964 156.763 193.794 134.896 183.138 128.292H176.494V128.287Z" fill="#263238" stroke="#263238" stroke-width="0.505253" stroke-miterlimit="10"/>
<path d="M198.943 155.525V149.093C198.943 149.093 198.533 147.861 197.164 147.315C195.795 146.769 189.772 145.673 188.403 146.491C187.034 147.315 187.579 155.662 187.579 155.662L201.403 157.031L198.943 155.525Z" fill="#FE7235" stroke="#263238" stroke-width="0.505253" stroke-miterlimit="10"/>
<path d="M254.652 165.656C254.652 165.656 250.817 166.616 251.913 167.161C253.01 167.707 257.527 168.53 261.634 173.047C265.742 177.564 267.793 180.712 269.026 181.536C270.259 182.359 274.503 182.632 274.503 182.632C274.503 182.632 274.367 179.621 270.259 174.558C266.151 169.485 259.856 165.105 254.652 165.656Z" fill="white" stroke="#263238" stroke-width="0.505253" stroke-miterlimit="10"/>
<path d="M221.527 165.524C212.711 164.64 203.323 163.741 203.323 163.741" stroke="#263238" stroke-width="0.505253" stroke-miterlimit="10"/>
<path d="M276.282 192.484H270.825C268.44 192.484 266.308 190.994 265.51 188.751C264.04 184.633 261.215 178.115 257.118 174.553C250.822 169.076 238.499 167.57 236.584 167.161C235.856 167.005 230.87 166.474 224.968 165.873" stroke="#263238" stroke-width="0.505253" stroke-miterlimit="10"/>
<path d="M270.158 202.751H275.6" stroke="#263238" stroke-width="0.505253" stroke-miterlimit="10"/>
<path d="M256.572 185.911C256.572 185.911 260.078 189.175 261.862 200.483C262.069 201.781 263.175 202.751 264.494 202.751H267.334" stroke="#263238" stroke-width="0.505253" stroke-miterlimit="10"/>
<path d="M138.514 157.036C139.055 162.589 139.909 173.027 140.354 187.144" stroke="#263238" stroke-width="0.505253" stroke-miterlimit="10"/>
<path d="M135.291 124.316L136.898 139.483C136.898 139.483 137.458 146.734 137.746 149.684" stroke="#263238" stroke-width="0.505253" stroke-miterlimit="10"/>
<path d="M139.944 193.581C139.944 193.581 139.262 200.973 139.262 201.796" stroke="#263238" stroke-width="0.505253" stroke-miterlimit="10"/>
<path d="M209.083 175.306C208.477 184.001 206.617 194.576 206.198 196.042C205.652 197.956 205.789 202.201 204.283 202.61C202.778 203.019 201.681 202.883 201.681 202.883" stroke="#263238" stroke-width="0.505253" stroke-miterlimit="10"/>
<path d="M207.153 155.116C207.153 155.116 208.659 159.633 209.209 168.121C209.28 169.207 209.29 170.445 209.255 171.779" stroke="#263238" stroke-width="0.505253" stroke-miterlimit="10"/>
<path d="M198.806 202.888L108.189 200.695" stroke="#263238" stroke-width="0.505253" stroke-miterlimit="10"/>
<path d="M94.9918 184.047C93.8752 182.294 92.6525 180.47 91.354 178.656C86.1499 171.4 76.7067 162.503 75.7467 158.532C74.7868 154.56 74.9232 151.003 74.9232 151.003" stroke="#263238" stroke-width="0.505253" stroke-miterlimit="10"/>
<path d="M105.041 200.286C105.041 200.286 102.166 198.507 101.348 195.905C100.807 194.197 98.9125 190.428 96.2043 185.992" stroke="#263238" stroke-width="0.505253" stroke-miterlimit="10"/>
<path d="M76.4237 142.641C77.3736 137.043 79.0157 128.459 80.5365 125.685" stroke="#263238" stroke-width="0.505253" stroke-miterlimit="10"/>
<path d="M75.6102 147.724C75.6102 147.724 75.7567 146.734 76.0094 145.162" stroke="#263238" stroke-width="0.505253" stroke-miterlimit="10"/>
<path d="M94.8453 157.855H82.1078C81.9209 157.855 81.7693 157.703 81.7693 157.516V155.732C81.7693 155.545 81.9209 155.394 82.1078 155.394H94.8453C95.0322 155.394 95.1838 155.545 95.1838 155.732V157.516C95.1838 157.703 95.0322 157.855 94.8453 157.855Z" fill="#263238" stroke="#263238" stroke-width="0.505253" stroke-miterlimit="10"/>
<path d="M154.799 161.411H142.061C141.874 161.411 141.723 161.26 141.723 161.073V159.284C141.723 159.097 141.874 158.946 142.061 158.946H154.799C154.986 158.946 155.137 159.097 155.137 159.284V161.073C155.137 161.26 154.986 161.411 154.799 161.411Z" fill="#263238" stroke="#263238" stroke-width="0.505253" stroke-miterlimit="10"/>
<path d="M44.1278 170.036H48.5084C48.5084 170.036 50.5597 159.906 55.9002 157.718C61.2407 155.53 66.167 155.803 66.167 155.803C66.167 155.803 65.3434 151.423 63.9792 150.877C62.61 150.331 59.053 149.371 52.894 151.837C46.7349 154.302 46.7349 158.405 46.7349 158.405L44.1278 170.036Z" fill="#878787" stroke="#263238" stroke-width="0.505253" stroke-miterlimit="10"/>
<path d="M71.2297 128.696L67.2584 127.736L52.7476 149.503C52.7476 149.503 57.8102 149.366 59.7302 146.218C61.6501 143.071 71.2297 128.696 71.2297 128.696Z" fill="#263238" stroke="#263238" stroke-width="0.505253" stroke-miterlimit="10"/>
<path d="M66.1681 169.22C67.9853 167.402 67.9853 164.456 66.1681 162.639C64.3509 160.822 61.4045 160.822 59.5873 162.639C57.77 164.456 57.77 167.402 59.5873 169.22C61.4045 171.037 64.3509 171.037 66.1681 169.22Z" stroke="#263238" stroke-width="0.505253" stroke-miterlimit="10"/>
<path d="M239.485 220.9C250.282 218.522 257.107 207.842 254.729 197.045C252.351 186.248 241.67 179.423 230.873 181.801C220.076 184.179 213.252 194.859 215.63 205.656C218.008 216.453 228.688 223.278 239.485 220.9Z" fill="#263238" stroke="#263238" stroke-width="0.505253" stroke-miterlimit="10"/>
<path d="M235.174 187.503C227.525 187.503 221.32 193.707 221.32 201.357C221.32 209.006 227.525 215.211 235.174 215.211C242.824 215.211 249.028 209.006 249.028 201.357C249.028 193.707 242.829 187.503 235.174 187.503Z" fill="white" stroke="#263238" stroke-width="0.505253" stroke-miterlimit="10"/>
<path d="M235.174 190.827C229.359 190.827 224.645 195.541 224.645 201.357C224.645 207.172 229.359 211.886 235.174 211.886C240.99 211.886 245.704 207.172 245.704 201.357C245.709 195.541 240.995 190.827 235.174 190.827Z" fill="#263238" stroke="#263238" stroke-width="0.505253" stroke-miterlimit="10"/>
<path d="M248.978 200.291C248.776 197.638 247.826 195.203 246.341 193.177C246.022 193.783 243.799 197.673 239.04 197.385C234.705 197.123 237.66 190.176 238.711 187.973C237.579 187.675 236.397 187.498 235.174 187.498C233.83 187.498 232.542 187.7 231.314 188.053C232.148 189.488 233.426 192.277 232.714 194.96C231.779 198.477 227.095 197.305 223.372 194.127C222.144 196.127 221.411 198.457 221.341 200.958C224.084 200.796 228.879 200.877 229.435 203.317C230.056 206.046 227.181 208.274 223.943 209.431C225.448 211.522 227.52 213.18 229.935 214.165C230.516 211.669 231.936 207.44 234.902 207.218C237.933 206.995 239.232 211.735 239.722 214.418C242.243 213.538 244.436 211.962 246.053 209.906C243.986 209.123 238.742 206.712 240.449 202.923C241.945 199.609 246.477 199.861 248.978 200.291Z" fill="white" stroke="#263238" stroke-width="0.505253" stroke-miterlimit="10"/>
<path d="M87.3121 215.509C95.1296 207.692 95.1296 195.017 87.3121 187.2C79.4946 179.382 66.82 179.382 59.0025 187.2C51.185 195.017 51.185 207.692 59.0025 215.509C66.82 223.327 79.4946 223.327 87.3121 215.509Z" fill="#263238" stroke="#263238" stroke-width="0.505253" stroke-miterlimit="10"/>
<path d="M73.1597 187.503C65.5102 187.503 59.3057 193.707 59.3057 201.357C59.3057 209.006 65.5102 215.211 73.1597 215.211C80.8092 215.211 87.0138 209.006 87.0138 201.357C87.0138 193.707 80.8092 187.503 73.1597 187.503Z" fill="white" stroke="#263238" stroke-width="0.505253" stroke-miterlimit="10"/>
<path d="M73.1597 190.827C67.3443 190.827 62.6302 195.541 62.6302 201.357C62.6302 207.172 67.3443 211.886 73.1597 211.886C78.9752 211.886 83.6892 207.172 83.6892 201.357C83.6892 195.541 78.9752 190.827 73.1597 190.827Z" fill="#263238" stroke="#263238" stroke-width="0.505253" stroke-miterlimit="10"/>
<path d="M86.9583 200.291C86.7562 197.638 85.8063 195.203 84.3209 193.177C84.0026 193.783 81.7794 197.673 77.02 197.385C72.6849 197.123 75.6406 190.176 76.6915 187.973C75.5598 187.675 74.3775 187.498 73.1548 187.498C71.8108 187.498 70.5224 187.7 69.2946 188.053C70.1283 189.488 71.4066 192.277 70.6942 194.96C69.7595 198.477 65.0758 197.305 61.352 194.127C60.1243 196.127 59.3917 198.457 59.3209 200.958C62.0644 200.796 66.8593 200.877 67.4151 203.317C68.0365 206.046 65.1617 208.274 61.923 209.431C63.4286 211.522 65.5002 213.18 67.9153 214.165C68.4963 211.669 69.9161 207.44 72.8819 207.218C75.9134 206.995 77.212 211.735 77.702 214.418C80.2233 213.538 82.4161 211.962 84.0329 209.906C81.9664 209.123 76.7219 206.712 78.4296 202.923C79.9302 199.609 84.4573 199.861 86.9583 200.291Z" fill="white" stroke="#263238" stroke-width="0.505253" stroke-miterlimit="10"/>
<path d="M143.006 58.3751C132.653 58.3751 124.266 66.7674 124.266 77.115C124.266 87.4676 143.006 107.051 143.006 107.051C143.006 107.051 161.746 87.4676 161.746 77.115C161.751 66.7623 153.359 58.3751 143.006 58.3751ZM143.006 85.8306C138.191 85.8306 134.29 81.93 134.29 77.115C134.29 72.2999 138.191 68.3994 143.006 68.3994C147.821 68.3994 151.722 72.2999 151.722 77.115C151.722 81.93 147.821 85.8306 143.006 85.8306Z" fill="#263238" stroke="#263238" stroke-width="0.505253" stroke-miterlimit="10"/>
<path d="M140.793 55.2526C130.44 55.2526 122.053 63.6449 122.053 73.9925C122.053 84.3451 140.793 103.929 140.793 103.929C140.793 103.929 159.533 84.3451 159.533 73.9925C159.538 63.6449 151.146 55.2526 140.793 55.2526ZM140.793 82.7132C135.978 82.7132 132.077 78.8126 132.077 73.9975C132.077 69.1825 135.978 65.2819 140.793 65.2819C145.608 65.2819 149.509 69.1825 149.509 73.9975C149.509 78.8126 145.608 82.7132 140.793 82.7132Z" fill="#FE7235" stroke="#263238" stroke-width="0.505253" stroke-miterlimit="10"/>
<path d="M250.903 104.181C254.308 100.897 256.43 96.2944 256.43 91.1913C256.43 81.2227 248.351 73.1437 238.383 73.1437C228.414 73.1437 220.33 81.2227 220.33 91.1913C220.33 101.16 228.409 109.239 238.383 109.239C241.894 109.239 245.173 108.234 247.947 106.495L252.53 110.386L250.903 104.181Z" fill="white" stroke="#263238" stroke-width="0.505253" stroke-miterlimit="10"/>
<path d="M235.912 69.8292C233.078 69.8292 230.774 72.1281 230.774 74.9676C230.774 77.8021 235.912 83.1729 235.912 83.1729C235.912 83.1729 241.051 77.8071 241.051 74.9676C241.051 72.1281 238.747 69.8292 235.912 69.8292ZM235.912 77.3574C234.593 77.3574 233.522 76.2863 233.522 74.9676C233.522 73.6489 234.593 72.5777 235.912 72.5777C237.231 72.5777 238.302 73.6489 238.302 74.9676C238.302 76.2863 237.231 77.3574 235.912 77.3574Z" fill="#FE7235" stroke="#263238" stroke-width="0.505253" stroke-miterlimit="10"/>
<path d="M248.154 98.5225C249.594 98.5225 250.761 97.3553 250.761 95.9154C250.761 94.4755 249.594 93.3083 248.154 93.3083C246.714 93.3083 245.547 94.4755 245.547 95.9154C245.547 97.3553 246.714 98.5225 248.154 98.5225Z" fill="#263238" stroke="#263238" stroke-width="0.37894" stroke-miterlimit="10"/>
<path d="M248.154 94.1066C247.159 94.1066 246.351 94.915 246.351 95.9104C246.351 96.9057 247.159 97.7141 248.154 97.7141C249.15 97.7141 249.958 96.9057 249.958 95.9104C249.963 94.915 249.155 94.1066 248.154 94.1066Z" fill="#FE7235" stroke="#263238" stroke-width="0.37894" stroke-miterlimit="10"/>
<path d="M248.154 94.5411C247.396 94.5411 246.78 95.1575 246.78 95.9154C246.78 96.6732 247.396 97.2897 248.154 97.2897C248.912 97.2897 249.529 96.6732 249.529 95.9154C249.529 95.1575 248.912 94.5411 248.154 94.5411Z" fill="#263238" stroke="#263238" stroke-width="0.37894" stroke-miterlimit="10"/>
<path d="M249.953 95.774C249.928 95.4304 249.801 95.1121 249.609 94.8443C249.569 94.9251 249.276 95.4304 248.66 95.395C248.094 95.3597 248.478 94.4553 248.619 94.1673C248.473 94.1268 248.316 94.1066 248.159 94.1066C247.982 94.1066 247.816 94.1319 247.654 94.1774C247.76 94.3643 247.927 94.7281 247.836 95.0767C247.715 95.5365 247.103 95.3849 246.618 94.9706C246.457 95.2333 246.361 95.5365 246.356 95.8599C246.714 95.8396 247.336 95.8498 247.412 96.1681C247.492 96.5217 247.119 96.8148 246.694 96.9664C246.891 97.2392 247.159 97.4565 247.477 97.5828C247.553 97.2594 247.74 96.7036 248.124 96.6784C248.518 96.6481 248.69 97.2695 248.75 97.6181C249.079 97.5019 249.367 97.2998 249.574 97.032C249.306 96.931 248.619 96.6177 248.841 96.1226C249.038 95.6881 249.63 95.7184 249.953 95.774Z" fill="#FE7235" stroke="#263238" stroke-width="0.37894" stroke-miterlimit="10"/>
<path d="M227.035 98.5225C228.475 98.5225 229.642 97.3553 229.642 95.9154C229.642 94.4755 228.475 93.3083 227.035 93.3083C225.595 93.3083 224.428 94.4755 224.428 95.9154C224.428 97.3553 225.595 98.5225 227.035 98.5225Z" fill="#263238" stroke="#263238" stroke-width="0.37894" stroke-miterlimit="10"/>
<path d="M227.035 94.1066C226.039 94.1066 225.231 94.915 225.231 95.9104C225.231 96.9057 226.039 97.7141 227.035 97.7141C228.03 97.7141 228.838 96.9057 228.838 95.9104C228.844 94.915 228.035 94.1066 227.035 94.1066Z" fill="#FE7235" stroke="#263238" stroke-width="0.37894" stroke-miterlimit="10"/>
<path d="M227.035 94.5411C226.277 94.5411 225.661 95.1575 225.661 95.9154C225.661 96.6732 226.277 97.2897 227.035 97.2897C227.793 97.2897 228.409 96.6732 228.409 95.9154C228.409 95.1575 227.793 94.5411 227.035 94.5411Z" fill="#263238" stroke="#263238" stroke-width="0.37894" stroke-miterlimit="10"/>
<path d="M228.833 95.774C228.808 95.4304 228.682 95.1121 228.49 94.8443C228.449 94.9251 228.156 95.4304 227.54 95.395C226.974 95.3597 227.358 94.4553 227.494 94.1673C227.348 94.1268 227.191 94.1066 227.035 94.1066C226.858 94.1066 226.691 94.1319 226.529 94.1774C226.636 94.3643 226.802 94.7281 226.711 95.0767C226.59 95.5365 225.979 95.3849 225.494 94.9706C225.332 95.2333 225.236 95.5365 225.231 95.8599C225.59 95.8396 226.211 95.8498 226.287 96.1681C226.368 96.5217 225.994 96.8148 225.569 96.9664C225.767 97.2392 226.034 97.4565 226.353 97.5828C226.428 97.2594 226.615 96.7036 226.999 96.6784C227.393 96.6481 227.565 97.2695 227.626 97.6181C227.954 97.5019 228.242 97.2998 228.449 97.032C228.182 96.931 227.494 96.6177 227.717 96.1226C227.919 95.6881 228.51 95.7184 228.833 95.774Z" fill="#FE7235" stroke="#263238" stroke-width="0.37894" stroke-miterlimit="10"/>
<path d="M253.601 95.9205L253.51 94.7584C253.51 94.7584 253.616 94.6321 253.616 94.435C253.616 94.238 253.404 93.3639 252.939 92.5605C252.474 91.7572 251.853 91.3631 251.014 90.9538C250.175 90.5446 247.215 90.0949 247.215 90.0949C247.215 90.0949 247.21 90.0898 247.194 90.0797C247.189 90.0747 247.184 90.0747 247.179 90.0696C247.169 90.0646 247.154 90.0545 247.139 90.0444C247.134 90.0393 247.124 90.0343 247.114 90.0292C247.103 90.0242 247.093 90.0141 247.083 90.009C247.068 89.9989 247.053 89.9888 247.033 89.9787C247.018 89.9686 246.997 89.9585 246.982 89.9484C246.972 89.9433 246.967 89.9383 246.957 89.9332C246.896 89.8928 246.826 89.8473 246.75 89.8019C246.735 89.7917 246.714 89.7766 246.694 89.7665C246.684 89.7564 246.669 89.7513 246.659 89.7412C246.608 89.7109 246.558 89.6755 246.497 89.6402C246.477 89.625 246.452 89.6099 246.426 89.5947C246.421 89.5896 246.411 89.5846 246.406 89.5795C246.325 89.529 246.245 89.4734 246.154 89.4179C246.098 89.3825 246.042 89.3471 245.982 89.3067C245.941 89.2814 245.901 89.2562 245.861 89.2259C245.835 89.2107 245.815 89.1956 245.79 89.1804C245.598 89.0591 245.391 88.9278 245.178 88.7913C245.113 88.7509 245.047 88.7105 244.981 88.665C244.966 88.6549 244.951 88.6448 244.936 88.6347C244.911 88.6196 244.88 88.5994 244.855 88.5842C244.84 88.5741 244.825 88.564 244.81 88.5539C244.805 88.5539 244.805 88.5488 244.799 88.5488C244.653 88.4579 244.506 88.3619 244.355 88.2659C244.335 88.2558 244.314 88.2406 244.294 88.2305C244.224 88.185 244.148 88.1396 244.077 88.0941C244.072 88.089 244.067 88.089 244.062 88.084C243.824 87.9324 243.592 87.7859 243.365 87.6394C243.349 87.6293 243.329 87.6192 243.314 87.604C243.284 87.5838 243.258 87.5686 243.228 87.5484C243.218 87.5434 243.208 87.5383 243.203 87.5333C243.011 87.412 242.824 87.2907 242.642 87.1796C242.642 87.1796 242.637 87.1796 242.637 87.1745C242.602 87.1543 242.566 87.1291 242.531 87.1089L242.526 87.1038C242.496 87.0836 242.46 87.0634 242.43 87.0432C242.425 87.0381 242.42 87.0381 242.415 87.0331C242.379 87.0129 242.349 86.9926 242.319 86.9724C242.283 86.9522 242.253 86.932 242.218 86.9118C242.213 86.9118 242.213 86.9068 242.208 86.9068C242.177 86.8865 242.147 86.8663 242.117 86.8512C242.112 86.8461 242.106 86.8461 242.101 86.8411C242.016 86.7855 241.93 86.735 241.854 86.6844C241.849 86.6794 241.839 86.6743 241.834 86.6693C241.808 86.6541 241.788 86.639 241.763 86.6238C241.758 86.6188 241.748 86.6137 241.743 86.6087C241.723 86.5935 241.702 86.5834 241.682 86.5682C241.672 86.5632 241.667 86.5581 241.657 86.5531C241.637 86.543 241.616 86.5278 241.601 86.5177C241.591 86.5127 241.581 86.5076 241.571 86.4975C241.556 86.4874 241.536 86.4773 241.52 86.4672C241.51 86.4621 241.5 86.4571 241.49 86.447C241.475 86.4369 241.455 86.4268 241.44 86.4167C241.435 86.4116 241.429 86.4116 241.424 86.4066C241.197 86.2651 241.04 86.1691 240.985 86.1388C240.555 85.9063 240.126 85.8508 239.969 85.8356C239.808 85.8154 236.973 85.4769 234.422 85.5325C231.87 85.588 229.319 85.6941 226.908 85.9417C226.908 85.9417 226.176 85.8861 226.176 86.068C226.176 86.2449 226.267 86.3004 226.267 86.3004L224.377 89.14C224.377 89.14 223.862 89.5341 223.751 89.7463C223.725 89.7968 223.685 89.9332 223.629 90.1151C223.609 90.1656 223.599 90.2061 223.594 90.2364C223.412 90.8881 223.159 91.9391 223.159 91.9391C223.159 91.9391 222.765 92.4746 222.75 92.9395C222.73 93.4043 222.877 94.5613 222.877 94.5613C222.877 94.5613 222.679 94.8291 222.77 94.9706C222.861 95.1121 223.018 95.6123 223.2 95.7386C223.377 95.8649 223.791 95.9154 223.791 95.9154L223.852 95.9205C223.943 94.1218 225.297 92.6919 226.959 92.6919C228.677 92.6919 230.071 94.2228 230.071 96.1125C230.071 96.2843 230.061 96.451 230.036 96.6127L230.157 96.6278L245.022 96.8602H245.103C245.077 96.6834 245.062 96.4965 245.062 96.3095C245.062 94.4199 246.457 92.889 248.175 92.889C249.892 92.889 251.287 94.4199 251.287 96.3095C251.287 96.5217 251.267 96.7289 251.236 96.9259C251.691 96.9158 253.091 96.8754 253.288 96.7137C253.52 96.5167 253.626 96.3045 253.646 96.1782C253.657 96.0771 253.601 95.9205 253.601 95.9205ZM225.085 89.1652H224.564L226.393 86.4116L226.711 86.5228L225.085 89.1652ZM230.354 89.2107L230.142 89.2006L229.551 89.1703C229.349 89.1602 229.182 89.0187 229.137 88.8217L228.662 86.7552C228.616 86.5682 228.748 86.3813 228.94 86.356C229.248 86.3106 229.667 86.2802 230.142 86.26C230.213 86.255 230.284 86.255 230.354 86.2499C231.794 86.1994 233.654 86.2247 234.573 86.2449L234.679 89.4128L230.354 89.2107ZM236.347 89.4987L235.877 86.2903L239.292 86.3914C239.353 86.3914 239.413 86.4116 239.464 86.447L244.506 89.8928L236.347 89.4987ZM245.567 89.9736L240.48 86.5025H241.288L246.815 90.0494L245.567 89.9736Z" fill="#263238"/>
<path d="M268.728 119.511C268.728 119.511 265.141 120.425 264.686 121.8C264.226 123.174 262.473 133.168 262.473 133.168L261.559 133.395C261.559 133.395 259.805 137.361 261.483 139.65C263.16 141.939 263.923 141.863 265.373 140.413C266.823 138.963 267.738 136.902 267.814 136.598C267.889 136.295 267.738 144.228 267.965 144.839C268.193 145.451 268.193 145.451 268.193 145.451C268.193 145.451 282.456 144.612 283.451 144.228C284.442 143.849 284.593 143.465 284.366 142.929C284.138 142.394 286.351 132.86 286.351 132.86C286.351 132.86 287.114 137.973 287.039 138.352C286.963 138.731 285.27 141.747 285.806 143.121C286.341 144.496 288.413 145.061 289.711 143.92C291.01 142.778 291.389 139.115 291.389 139.115C291.389 139.115 290.929 126.908 290.323 124.619C289.711 122.33 286.811 120.117 286.811 120.117L268.728 119.511Z" fill="white" stroke="#263238" stroke-width="0.505253" stroke-miterlimit="10"/>
<path d="M275.251 115.14C275.251 115.14 275.494 116.388 275.443 116.823C275.393 117.257 274.771 118.409 273.569 119.374C272.366 120.334 272.366 120.334 272.366 120.334C272.366 120.334 272.654 121.249 276.408 122.067C280.162 122.886 283.047 120.385 283.047 120.385C283.047 120.385 283.866 119.713 283.047 117.02C282.229 114.327 280.304 111.199 280.304 111.199L278.955 109.709C278.955 109.709 278.04 112.018 277.08 112.978C276.115 113.938 275.251 115.14 275.251 115.14Z" fill="white" stroke="#263238" stroke-width="0.505253" stroke-miterlimit="10"/>
<path d="M272.533 112.649C272.533 112.649 271.441 113.62 270.956 114.711C270.471 115.802 272.048 116.53 271.805 117.015C271.563 117.5 269.203 117.803 267.991 119.319C266.778 120.835 269.506 124.043 272.23 123.922C274.953 123.8 272.048 121.138 273.988 119.44C275.928 117.742 276.155 117.217 275.256 115.15C274.347 113.074 272.533 112.649 272.533 112.649Z" fill="#263238" stroke="#263238" stroke-width="0.505253" stroke-miterlimit="10"/>
<path d="M272.144 103.191C272.144 103.191 271.411 104.727 271.265 107.652C271.118 110.578 271.558 112.043 272.144 113.215C272.73 114.388 273.462 115.701 275.291 115.484C277.12 115.267 278.879 113.069 279.243 112.043C279.606 111.017 279.606 107.946 278.363 104.944C277.12 101.948 273.902 100.266 272.144 103.191Z" fill="white" stroke="#263238" stroke-width="0.505253" stroke-miterlimit="10"/>
<path d="M272.513 109.704L273.245 110.214" stroke="#263238" stroke-width="0.505253" stroke-miterlimit="10"/>
<path d="M272.876 111.311C272.876 111.311 274.998 111.311 275.878 109.845" stroke="#263238" stroke-width="0.505253" stroke-miterlimit="10"/>
<path d="M271.356 106.293C271.356 106.293 271.836 105.525 272.412 106.005" stroke="#263238" stroke-width="0.505253" stroke-miterlimit="10"/>
<path d="M274.003 105.187C274.003 105.187 275.014 103.888 276.024 104.752" stroke="#263238" stroke-width="0.505253" stroke-miterlimit="10"/>
<path d="M275.372 107.445C275.651 107.445 275.878 107.122 275.878 106.723C275.878 106.324 275.651 106 275.372 106C275.093 106 274.867 106.324 274.867 106.723C274.867 107.122 275.093 107.445 275.372 107.445Z" fill="#263238"/>
<path d="M272.533 107.743C272.533 108.087 272.341 108.36 272.098 108.36C271.861 108.36 271.664 108.082 271.664 107.743C271.664 107.405 271.856 107.127 272.098 107.127C272.341 107.122 272.533 107.4 272.533 107.743Z" fill="#263238"/>
<path d="M274.241 101.771C274.241 101.771 276.358 102.347 277.176 105.04C277.995 107.733 278.859 113.458 280.496 115.671C282.133 117.884 283.719 119.521 281.41 122.451C279.101 125.387 278.333 128.125 280.112 130.389C281.89 132.647 285.836 131.157 287.711 128.898C289.585 126.64 289.252 124.907 288.241 123.078C287.231 121.249 287.362 121.653 288.226 122.184C289.09 122.714 290.151 122.906 289.716 120.355C289.282 117.803 287.953 115.282 286.847 114.468C285.74 113.65 284.154 111.821 284.538 108.41C284.922 104.995 283.386 102.448 280.784 100.761C278.187 99.0783 273.377 100.473 272.846 101.241C272.316 102.009 272.316 102.009 272.316 102.009C272.316 102.009 271.063 102.681 271.113 103.646C271.164 104.606 271.881 104.272 271.881 104.272C271.881 104.272 272.558 102.105 274.241 101.771Z" fill="#263238" stroke="#263238" stroke-width="0.505253" stroke-miterlimit="10"/>
<path d="M252.848 122.148C252.848 122.148 252.025 120.496 252.297 119.945C252.57 119.395 254.086 118.202 254.364 118.617C254.637 119.031 254.5 119.213 254.137 119.491C253.768 119.763 253.313 120.223 253.313 120.223L253.773 121.325L252.848 122.148Z" fill="white" stroke="#263238" stroke-width="0.505253" stroke-miterlimit="10"/>
<path d="M253.55 126.61L255.991 129.586C255.991 129.586 259.421 137.442 260.033 138.433C260.644 139.423 261.71 140.337 263.009 139.731C264.307 139.12 264.075 137.215 263.544 136.068C263.009 134.926 259.881 131.49 259.275 130.576C258.664 129.661 258.052 128.439 258.052 128.439C258.052 128.439 257.901 126.15 257.825 125.311C257.749 124.472 254.622 121.421 254.546 121.193C254.47 120.966 253.172 122.259 253.172 122.259L253.55 126.61Z" fill="white" stroke="#263238" stroke-width="0.505253" stroke-miterlimit="10"/>
<path d="M251.514 113.978L255.506 124.442L259.224 124.533L255.187 113.473L251.514 113.978Z" fill="#263238" stroke="#263238" stroke-width="0.505253" stroke-miterlimit="10"/>
<path d="M252.661 123.477C252.661 123.477 252.388 121.501 253.121 121.092C253.854 120.678 256.289 119.854 256.516 120.036C256.744 120.218 256.334 120.632 255.92 120.814C255.506 120.996 253.945 121.638 253.945 121.638L254.172 122.416" fill="white"/>
<path d="M252.661 123.477C252.661 123.477 252.388 121.501 253.121 121.092C253.854 120.678 256.289 119.854 256.516 120.036C256.744 120.218 256.334 120.632 255.92 120.814C255.506 120.996 253.945 121.638 253.945 121.638L254.172 122.416" stroke="#263238" stroke-width="0.505253" stroke-miterlimit="10"/>
<path d="M252.985 125.357C252.985 125.357 252.525 125.862 252.757 126.135C252.984 126.407 253.768 126.135 254.546 126.135C255.324 126.135 256.334 126.18 256.243 125.72C256.152 125.261 255.142 125.124 254.728 125.124C254.313 125.124 253.399 125.175 252.985 125.357Z" fill="white" stroke="#263238" stroke-width="0.505253" stroke-miterlimit="10"/>
<path d="M252.984 125.357C252.984 125.357 252.434 124.392 252.479 123.982C252.525 123.568 253.626 122.467 254.177 122.421C254.728 122.376 256.976 122.052 257.021 122.376C257.067 122.699 256.056 122.835 255.597 123.017C255.137 123.199 254.541 123.341 254.541 123.341L253.944 124.397L254.035 124.72" fill="white"/>
<path d="M252.984 125.357C252.984 125.357 252.434 124.392 252.479 123.982C252.525 123.568 253.626 122.467 254.177 122.421C254.728 122.376 256.976 122.052 257.021 122.376C257.067 122.699 256.056 122.835 255.597 123.017C255.137 123.199 254.541 123.341 254.541 123.341L253.944 124.397L254.035 124.72" stroke="#263238" stroke-width="0.505253" stroke-miterlimit="10"/>
<path d="M296.062 201.65L297.715 205.702C297.715 205.702 299.741 210.734 299.665 212.457C299.589 214.185 300.418 214.786 301.09 214.862C301.767 214.938 303.192 213.134 303.641 211.032C304.091 208.931 302.888 204.126 302.888 203.524C302.888 202.923 303.414 200.068 302.211 199.093C301.009 198.118 299.281 197.891 299.281 197.891L296.062 201.65Z" fill="white" stroke="#263238" stroke-width="0.505253" stroke-miterlimit="10"/>
<path d="M296.062 201.65C296.062 201.65 298.013 202.852 299.665 202.099C301.317 201.347 299.513 199.396 299.513 199.396L296.062 201.65Z" fill="white" stroke="#263238" stroke-width="0.505253" stroke-miterlimit="10"/>
<path d="M303.646 211.037C304.096 208.936 302.894 204.131 302.894 203.529C302.894 202.928 303.419 200.073 302.217 199.098C301.969 198.896 301.701 198.729 301.433 198.588C301.302 199.74 301.989 202.019 302.292 203.524C302.666 205.404 303.267 208.405 302.818 210.659C302.409 212.705 300.58 214.19 300.246 214.443C300.504 214.701 300.807 214.832 301.09 214.862C301.767 214.938 303.197 213.139 303.646 211.037Z" fill="white" stroke="#263238" stroke-width="0.505253" stroke-miterlimit="10"/>
<path d="M267.965 144.839C267.965 144.839 266.404 151.721 267.081 157.279C267.758 162.836 274.438 190.989 274.438 190.989L277.141 207.056L282.32 206.606L281.643 189.185L279.389 167.788C279.389 167.788 284.422 184.006 285.397 185.659C286.372 187.311 295.007 200.826 295.007 200.826C295.007 200.826 296.735 200.978 297.861 200.149C298.988 199.326 299.286 197.896 299.286 197.896C299.286 197.896 295.906 187.457 293.653 183.627C291.399 179.798 290.874 179.722 290.874 179.722C290.874 179.722 291.626 176.119 291.626 175.068C291.626 174.018 291.626 172.441 291.626 171.087C291.626 169.738 289.221 155.096 287.499 150.665C285.771 146.234 283.744 143.758 283.744 143.758L267.965 144.839Z" fill="#FE7235" stroke="#263238" stroke-width="0.505253" stroke-miterlimit="10"/>
<path d="M275.489 159.603L278.717 166.813" stroke="#263238" stroke-width="0.505253" stroke-miterlimit="10"/>
<path d="M277.818 208.259C277.818 208.259 277.742 212.311 277.666 212.765C277.59 213.215 273.311 218.247 272.411 218.849C271.512 219.45 271.209 219.748 271.361 220.349C271.512 220.951 273.24 221.249 274.963 221.026C276.686 220.804 279.616 219 280.293 218.551C280.97 218.101 284.275 217.202 284.275 215.398C284.275 213.594 282.774 210.669 282.774 210.669L282.249 207.667L277.818 208.259Z" fill="white" stroke="#263238" stroke-width="0.505253" stroke-miterlimit="10"/>
<path d="M283.396 212.028C282.895 212.21 282.39 212.336 282.021 212.311C280.97 212.235 279.242 211.709 278.419 211.558C277.954 211.472 277.777 211.861 277.706 212.22C277.691 212.482 277.681 212.679 277.666 212.76C277.59 213.21 273.311 218.242 272.411 218.844C271.512 219.445 271.209 219.743 271.361 220.344C271.512 220.945 273.24 221.244 274.963 221.021C276.691 220.794 279.616 218.995 280.293 218.545C280.97 218.096 284.275 217.196 284.275 215.393C284.275 214.387 283.805 213.033 283.396 212.028Z" fill="white" stroke="#263238" stroke-width="0.505253" stroke-miterlimit="10"/>
<path d="M275.19 220.122C273.958 220.551 272.23 220.177 271.34 219.925C271.315 220.051 271.32 220.188 271.361 220.344C271.512 220.945 273.24 221.244 274.963 221.021C276.691 220.794 279.616 218.995 280.293 218.546C280.971 218.096 284.275 217.197 284.275 215.393C284.275 215.256 284.265 215.115 284.25 214.968C283.522 215.241 282.754 215.554 282.173 215.842C280.672 216.59 276.918 219.521 275.19 220.122Z" stroke="#263238" stroke-width="0.505253" stroke-miterlimit="10"/>
<path d="M276.464 205.48C276.464 205.48 276.762 208.86 277.216 208.936C277.666 209.011 283.072 208.784 283.148 208.112C283.224 207.435 283.224 205.859 282.921 205.257C282.623 204.656 276.767 204.429 276.464 205.48Z" fill="#FE7235" stroke="#263238" stroke-width="0.505253" stroke-miterlimit="10"/>
<path d="M293.587 199.098C291.924 198.77 294.41 201.726 295.39 202.327C296.366 202.928 298.846 201.801 299.518 199.922C300.195 198.042 299.968 196.542 299.443 196.319C298.917 196.092 298.69 196.471 298.69 196.471C298.69 196.471 297.79 199.922 293.587 199.098Z" fill="#FE7235" stroke="#263238" stroke-width="0.505253" stroke-miterlimit="10"/>
<path d="M289.06 139.6C289.06 139.6 284.745 136.634 284.209 135.689C283.669 134.744 283.199 134.209 283.199 134.209C283.199 134.209 283.062 132.051 282.794 130.975C282.527 129.899 281.85 128.211 281.445 127.807C281.041 127.403 279.086 126.862 279.152 127.605C279.217 128.348 280.228 128.146 280.43 128.211C280.632 128.277 281.375 129.56 281.375 129.56C281.375 129.56 279.283 129.495 278.949 129.626C278.611 129.762 277.333 130.702 277.065 131.177C276.797 131.647 278.141 133.673 278.212 133.875C278.278 134.077 278.616 134.618 279.157 134.749C279.697 134.886 280.031 134.209 280.031 134.209C280.031 134.209 280.299 135.623 280.773 136.093C281.243 136.563 282.052 136.634 282.052 136.634C282.052 136.634 285.018 141.419 285.624 142.495C286.23 143.571 287.377 144.854 288.655 143.571C289.934 142.293 289.53 140.342 289.06 139.6Z" fill="white" stroke="#263238" stroke-width="0.505253" stroke-miterlimit="10"/>
<path d="M277.439 132.188C277.439 132.188 278.474 130.717 279.02 130.556C279.566 130.394 281.253 130.338 281.253 130.338" stroke="#263238" stroke-width="0.505253" stroke-miterlimit="10"/>
<path d="M278.116 133.456C278.116 133.456 278.914 132.329 279.576 131.996C280.238 131.662 281.698 131.864 281.698 131.864" stroke="#263238" stroke-width="0.505253" stroke-miterlimit="10"/>
<path d="M119.107 156.551C119.107 156.551 118.329 164.68 117.774 167.015C117.218 169.354 114.99 185.052 113.878 187.053C112.767 189.059 113.211 190.837 112.544 192.065C111.877 193.288 111.433 194.071 111.433 194.071C111.433 194.071 110.21 204.868 109.76 207.541C109.316 210.214 109.538 210.103 109.76 211.325C109.983 212.548 108.538 213.442 108.538 213.442C108.538 213.442 110.099 215.226 110.655 216.226C111.21 217.227 114.439 217.671 116 218.121C117.556 218.566 117.673 219.793 117.334 220.127C117.001 220.46 115.778 220.572 115.778 220.572H98.9681C98.9681 220.572 98.8569 218.232 98.8569 217.01C98.8569 215.787 99.0792 214.226 99.1904 213.892C99.3016 213.559 99.5239 212.781 99.5239 211.219C99.5239 209.658 101.53 207.435 101.641 206.541C101.752 205.651 101.307 201.306 102.086 197.3C102.864 193.293 105.314 183.385 105.314 183.046C105.314 182.713 105.536 171.466 105.536 171.466C105.536 171.466 101.53 161.224 101.085 160.78C100.64 160.335 98.7458 153.656 99.0792 152.65C99.4127 151.65 100.635 149.866 106.759 149.866C112.883 149.866 115.333 152.873 115.889 153.54C116.435 154.217 119.107 156.551 119.107 156.551Z" fill="#263238" stroke="#263238" stroke-width="0.505253" stroke-miterlimit="10"/>
<path d="M108.533 213.448C108.533 213.448 110.094 215.231 110.65 216.231C111.205 217.232 114.434 217.676 115.995 218.126C117.551 218.571 117.668 219.799 117.329 220.132C116.996 220.465 115.773 220.577 115.773 220.577H98.9631C98.9631 220.577 98.8519 218.237 98.8519 217.015C98.8519 216.727 98.8671 216.423 98.8873 216.12C99.2864 216.055 99.721 215.984 100.191 215.898C103.965 215.226 108.533 213.448 108.533 213.448Z" fill="#FE7235" stroke="#263238" stroke-width="0.505253" stroke-miterlimit="10"/>
<path d="M98.8872 218.935L112.984 219.794L117.475 219.703C117.47 219.884 117.415 220.041 117.324 220.127C116.99 220.46 115.768 220.572 115.768 220.572H98.9579C98.9579 220.572 98.9226 219.814 98.8872 218.935Z" fill="white" stroke="#263238" stroke-width="0.505253" stroke-miterlimit="10"/>
<path d="M98.9581 206.879L99.5139 211.219C99.5139 211.219 103.076 216.231 103.521 216.787C103.965 217.343 103.076 217.788 102.187 218.121C101.297 218.455 95.0626 216.004 93.8349 214.893C92.6121 213.781 90.2728 211.331 90.2728 211.331L89.2724 211.997C89.2724 211.997 86.5996 208.658 86.9331 207.88C87.2666 207.102 91.2732 204.095 91.2732 204.095L98.9581 206.879Z" fill="#FE7235" stroke="#263238" stroke-width="0.505253" stroke-miterlimit="10"/>
<path d="M87.7819 206.93C89.1663 208.552 92.9456 212.942 94.3906 214.114C95.9216 215.357 101.823 217.015 103.44 217.454C103.177 217.712 102.687 217.934 102.187 218.121C101.297 218.455 95.0626 216.004 93.8349 214.893C92.6121 213.781 90.2728 211.331 90.2728 211.331L89.2724 211.997C89.2724 211.997 86.5996 208.658 86.9331 207.88C87.019 207.678 87.3474 207.334 87.7819 206.93Z" fill="white" stroke="#263238" stroke-width="0.505253" stroke-miterlimit="10"/>
<path d="M113.651 154.217C113.651 154.217 115.546 164.903 115.657 166.019C115.768 167.131 117.329 179.378 116.213 181.94C115.101 184.502 109.2 195.299 109.2 195.299C109.2 195.299 102.52 202.867 102.076 203.206C101.631 203.539 101.964 204.318 101.742 204.767C101.52 205.212 100.186 205.656 100.186 205.656C100.186 205.656 99.8524 207.101 99.6301 207.662C99.4078 208.218 97.9577 207.551 95.7346 207.107C93.5064 206.662 91.2833 204.1 91.2833 204.1C91.2833 204.1 91.7279 202.206 91.9503 201.872C92.1726 201.539 91.2833 201.65 92.2837 199.866C93.2841 198.083 94.0673 197.305 94.0673 197.305L103.642 184.057L104.865 180.939C104.865 180.939 104.309 176.039 104.42 175.26C104.531 174.482 105.087 172.921 105.087 172.588C105.087 172.254 100.186 161.563 99.9636 160.674C99.7413 159.784 97.7354 156.556 97.6243 155.439C97.5131 154.328 99.0693 152.655 99.0693 152.655C99.0693 152.655 104.081 150.094 105.971 150.094C107.866 150.094 108.422 149.983 109.644 150.65C110.867 151.316 112.873 152.655 112.873 152.655L113.651 154.217Z" fill="#5E5E5E" stroke="#263238" stroke-width="0.505253" stroke-miterlimit="10"/>
<path d="M105.632 179.742C105.632 179.742 108.411 178.858 109.417 178.732C110.427 178.605 110.448 179.302 107.648 180.121" stroke="#263238" stroke-width="0.505253" stroke-miterlimit="10" stroke-linecap="round" stroke-linejoin="round"/>
<path d="M105.127 155C105.127 155 105.506 161.437 106.769 164.089C108.032 166.742 109.043 170.274 109.674 172.926C110.306 175.579 109.043 175.073 109.169 175.831C109.296 176.589 110.685 177.726 110.685 177.726" stroke="#263238" stroke-width="0.505253" stroke-miterlimit="10" stroke-linecap="round" stroke-linejoin="round"/>
<path d="M108.032 181.758C108.032 181.758 107.148 185.547 104.369 189.837C101.59 194.127 96.9218 199.053 96.7955 200.063C96.6692 201.074 97.3008 202.337 97.3008 202.337C97.3008 202.337 95.2798 202.337 95.1534 203.095C95.0271 203.853 94.6482 204.737 94.6482 204.737" stroke="#263238" stroke-width="0.505253" stroke-miterlimit="10" stroke-linecap="round" stroke-linejoin="round"/>
<path d="M118.774 113.241C118.774 113.241 119.552 117.914 119.663 118.586C119.774 119.253 121.558 125.266 120.775 129.833C119.997 134.396 119.663 144.864 119.663 144.864L120.108 157.89C120.108 157.89 118.324 159.001 114.651 156.556C110.978 154.105 110.311 151.655 108.083 151.655C105.855 151.655 102.626 153.327 101.07 153.772C99.5138 154.217 96.6187 155.217 96.6187 155.217C96.6187 155.217 98.4022 142.303 99.4026 138.296C100.403 134.289 101.186 122.82 103.298 118.147C105.415 113.468 107.638 111.245 108.644 110.578C109.644 109.911 110.316 110.022 110.316 110.022C110.316 110.022 116.99 110.684 118.774 113.241Z" fill="white" stroke="#263238" stroke-width="0.505253" stroke-miterlimit="10"/>
<path d="M123.584 97.2897C123.584 97.2897 124.726 100.478 124.483 101.458C124.236 102.438 124.074 102.767 124.236 103.176C124.397 103.585 125.625 105.546 125.216 105.955C124.807 106.364 124.317 106.773 124.317 106.773L121.785 108.734L120.558 110.532L119.497 112.412L111.569 107.754L112.059 106.612C112.059 106.612 110.427 101.463 111.241 99.3411C112.059 97.214 117.289 97.214 119.249 97.1331C121.214 97.0422 123.584 97.2897 123.584 97.2897Z" fill="white" stroke="#263238" stroke-width="0.505253" stroke-miterlimit="10"/>
<path d="M119.113 94.819C119.113 94.819 121.629 93.9399 123.998 95.0817C126.368 96.2236 123.998 98.3507 123.427 98.4316C123.427 98.4316 123.427 100.801 123.018 101.21C122.609 101.62 122.609 101.62 122.609 101.62C122.609 101.62 122.28 104.56 122.447 105.298C122.609 106.036 122.695 106.359 123.099 106.526C123.508 106.687 124.488 105.955 124.327 106.773C124.165 107.592 123.917 108.324 123.917 108.324C123.917 108.324 123.998 110.452 123.917 111.184C123.837 111.922 121.957 111.922 121.219 111.513C120.482 111.103 118.521 109.305 119.092 108.572C119.663 107.834 120.891 106.854 120.891 105.874C120.891 104.894 120.482 101.872 119.421 101.953C118.36 102.034 118.031 102.605 117.95 103.423C117.87 104.242 118.112 104.651 117.87 105.055C117.622 105.465 117.299 106.036 115.419 106.687C113.54 107.339 112.559 107.339 112.069 106.607C111.579 105.869 110.351 101.539 110.351 99.1692C110.351 96.7996 110.599 96.2287 113.54 94.7584C116.475 93.2881 118.228 94.3137 119.113 94.819Z" fill="#263238" stroke="#263238" stroke-width="0.505253" stroke-miterlimit="10"/>
<path d="M118.031 104.399C118.031 104.399 118.36 106.197 119.092 106.526C119.83 106.854 120.153 106.278 120.153 106.278" fill="white"/>
<path d="M118.031 104.399C118.031 104.399 118.36 106.197 119.092 106.526C119.83 106.854 120.153 106.278 120.153 106.278" stroke="#263238" stroke-width="0.505253" stroke-miterlimit="10"/>
<path d="M108.644 110.573C108.644 110.573 109.452 107.188 110.761 106.9C112.069 106.607 115.884 109.35 117.329 110.351C118.774 111.351 120.224 113.357 120.224 113.357L119.668 114.802C119.668 114.802 116.551 111.801 114.884 111.351C113.206 110.906 108.644 110.573 108.644 110.573Z" fill="white" stroke="#263238" stroke-width="0.505253" stroke-miterlimit="10"/>
<path d="M117.218 119.364C117.218 119.364 116.884 120.587 116.329 121.592C115.773 122.593 115.106 124.043 115.106 124.043L115.551 138.074L119.224 146.426L113.211 147.426C113.211 147.426 107.532 137.851 107.421 136.74C107.31 135.628 104.526 121.82 104.526 121.042C104.526 120.264 103.526 118.925 105.971 116.03" fill="white"/>
<path d="M117.218 119.364C117.218 119.364 116.884 120.587 116.329 121.592C115.773 122.593 115.106 124.043 115.106 124.043L115.551 138.074L119.224 146.426L113.211 147.426C113.211 147.426 107.532 137.851 107.421 136.74C107.31 135.628 104.526 121.82 104.526 121.042C104.526 120.264 103.526 118.925 105.971 116.03" stroke="#263238" stroke-width="0.505253" stroke-miterlimit="10"/>
<path d="M103.076 123.709C103.076 123.709 105.082 126.382 105.638 126.716" stroke="#263238" stroke-width="0.505253" stroke-miterlimit="10" stroke-linecap="round" stroke-linejoin="round"/>
<path d="M119.552 147.421C119.552 147.421 123.448 153.656 123.781 154.1C124.115 154.545 125.898 156.884 126.232 157.662C126.565 158.44 127.343 162.003 127.454 162.675C127.565 163.341 127.343 164.008 126.676 163.675C126.009 163.341 126.12 161.336 126.12 161.336L125.12 158.774C125.12 158.774 125.342 163.897 125.12 164.675C124.898 165.453 124.12 164.898 124.12 163.23C124.12 161.558 124.231 160.78 124.231 160.78L123.564 159.557C123.564 159.557 123.008 162.786 122.786 163.786C122.563 164.786 121.785 164.898 121.674 164.008C121.563 163.119 122.008 162.336 122.008 162.003C122.008 161.669 121.563 159.552 121.563 159.552C121.563 159.552 121.452 162.669 120.785 163.003C120.118 163.336 119.896 162.669 120.229 161.891C120.563 161.113 120.563 160.891 120.563 160.446C120.563 160.002 120.118 157.885 120.118 157.885C120.118 157.885 119.896 155.212 119.896 154.878C119.896 154.545 114.105 148.088 114.105 148.088L119.552 147.421Z" fill="white" stroke="#263238" stroke-width="0.505253" stroke-miterlimit="10" stroke-linecap="round" stroke-linejoin="round"/>
<path d="M118.663 144.415C118.663 144.415 121.225 146.976 120.891 147.532C120.558 148.088 114.879 149.088 113.878 148.866C112.878 148.644 112.095 147.866 111.983 147.305C111.872 146.754 116.657 143.97 118.663 144.415Z" fill="white" stroke="#263238" stroke-width="0.505253" stroke-miterlimit="10"/>
</g>
</g>
<defs>
<clipPath id="clip0_1345_56623">
<rect width="343" height="222" fill="white"/>
</clipPath>
<clipPath id="clip1_1345_56623">
<rect width="264" height="166.628" fill="white" transform="translate(40 55)"/>
</clipPath>
</defs>
</svg>
