<svg width="343" height="222" viewBox="0 0 343 222" fill="none" xmlns="http://www.w3.org/2000/svg">
<g clip-path="url(#clip0_1345_56307)">
<path d="M278.367 68.9419C275.821 67.5544 274.655 68.7106 273.729 67.5544C272.804 66.3982 276.276 63.3841 269.323 60.378C269.323 60.378 268.86 53.8952 259.353 53.664C249.846 53.4327 252.401 60.1467 249.846 61.7654C247.3 63.3841 246.598 60.8404 244.051 62.4591C241.505 64.0778 242.662 67.3232 240.571 67.7857C238.488 68.2481 235.702 65.7045 233.155 67.3232C230.609 68.9419 230.609 70.3293 229.444 70.3293C228.286 70.3293 225.963 69.4044 224.574 70.3293C223.185 71.2543 221.565 72.4105 221.565 72.4105H280.203C280.219 72.4185 280.914 70.3293 278.367 68.9419Z" fill="white" stroke="#232529" stroke-width="0.703998" stroke-miterlimit="10"/>
<path d="M133.983 88.8686C132.826 88.2387 132.299 88.7649 131.876 88.2387C131.453 87.7124 133.033 86.3489 129.88 84.9774C129.88 84.9774 129.673 82.035 125.354 81.9314C121.044 81.8277 122.201 84.8737 121.044 85.6073C119.886 86.3409 119.567 85.1847 118.418 85.9263C117.26 86.6599 117.787 88.135 116.837 88.3423C115.887 88.5497 114.626 87.3934 113.469 88.135C112.311 88.8686 112.311 89.4985 111.784 89.4985C111.257 89.4985 110.204 89.0759 109.573 89.4985C108.943 89.9212 108.208 90.4474 108.208 90.4474H134.829C134.821 90.4474 135.141 89.4985 133.983 88.8686Z" fill="white" stroke="#232529" stroke-width="0.703998" stroke-miterlimit="10"/>
<path d="M155.543 21.9202C153.955 21.051 153.228 21.7767 152.654 21.051C152.079 20.3254 154.242 18.4516 149.908 16.5697C149.908 16.5697 149.62 12.527 143.69 12.3755C137.759 12.232 139.347 16.4182 137.759 17.4309C136.17 18.4436 135.731 16.8568 134.143 17.8615C132.554 18.8742 133.273 20.8995 131.972 21.1866C130.67 21.4737 128.93 19.8869 127.342 20.8995C125.753 21.9122 125.753 22.7814 125.027 22.7814C124.301 22.7814 122.856 22.2072 121.986 22.7814C121.116 23.3635 120.102 24.0811 120.102 24.0811H156.701C156.701 24.0891 157.14 22.7893 155.543 21.9202Z" fill="white" stroke="#232529" stroke-width="0.703998" stroke-miterlimit="10"/>
<path d="M52.6912 101.427H46.1777V107.982H52.6912V101.427Z" stroke="#232529" stroke-width="0.703998" stroke-miterlimit="10"/>
<path d="M41.7795 105.39H39.1373V107.974H41.7795V105.39Z" stroke="#232529" stroke-width="0.703998" stroke-miterlimit="10"/>
<path d="M306.601 142.812H281.927V90.8062H283.572V85.4159H225.756V90.8062H227.759V168.145H212.593V2.21674H160.596V127.701H141.582V113.811H146.563V107.934H104.983V23.7461H107.673V19.3446H57.2092V23.7461H60.8252V108.078H20.9456V168.384H0" stroke="#232529" stroke-width="0.703998" stroke-miterlimit="10"/>
<path d="M214.668 0.398682H158.281V2.20077H214.668V0.398682Z" stroke="#232529" stroke-width="0.703998" stroke-miterlimit="10"/>
<path d="M71.6971 28.642H65.3432V35.4358H71.6971V28.642Z" stroke="#232529" stroke-width="0.703998" stroke-miterlimit="10"/>
<path d="M81.0125 28.642H74.6586V35.4358H81.0125V28.642Z" stroke="#232529" stroke-width="0.703998" stroke-miterlimit="10"/>
<path d="M90.3277 28.642H83.9738V35.4358H90.3277V28.642Z" stroke="#232529" stroke-width="0.703998" stroke-miterlimit="10"/>
<path d="M99.6432 28.642H93.2892V35.4358H99.6432V28.642Z" stroke="#232529" stroke-width="0.703998" stroke-miterlimit="10"/>
<path d="M71.6971 39.4147H65.3431V46.2085H71.6971V39.4147Z" stroke="#232529" stroke-width="0.703998" stroke-miterlimit="10"/>
<path d="M81.0125 39.4147H74.6586V46.2085H81.0125V39.4147Z" stroke="#232529" stroke-width="0.703998" stroke-miterlimit="10"/>
<path d="M90.3277 39.4147H83.9738V46.2085H90.3277V39.4147Z" stroke="#232529" stroke-width="0.703998" stroke-miterlimit="10"/>
<path d="M99.6432 39.4147H93.2892V46.2085H99.6432V39.4147Z" stroke="#232529" stroke-width="0.703998" stroke-miterlimit="10"/>
<path d="M71.6971 50.1794H65.3431V56.9731H71.6971V50.1794Z" stroke="#232529" stroke-width="0.703998" stroke-miterlimit="10"/>
<path d="M81.0125 50.1794H74.6586V56.9731H81.0125V50.1794Z" stroke="#232529" stroke-width="0.703998" stroke-miterlimit="10"/>
<path d="M90.3277 50.1794H83.9738V56.9731H90.3277V50.1794Z" stroke="#232529" stroke-width="0.703998" stroke-miterlimit="10"/>
<path d="M99.6432 50.1794H93.2892V56.9731H99.6432V50.1794Z" stroke="#232529" stroke-width="0.703998" stroke-miterlimit="10"/>
<path d="M71.6971 60.9441H65.3431V67.7378H71.6971V60.9441Z" stroke="#232529" stroke-width="0.703998" stroke-miterlimit="10"/>
<path d="M81.0125 60.9441H74.6586V67.7378H81.0125V60.9441Z" stroke="#232529" stroke-width="0.703998" stroke-miterlimit="10"/>
<path d="M90.3277 60.9441H83.9738V67.7378H90.3277V60.9441Z" stroke="#232529" stroke-width="0.703998" stroke-miterlimit="10"/>
<path d="M99.6432 60.9441H93.2892V67.7378H99.6432V60.9441Z" stroke="#232529" stroke-width="0.703998" stroke-miterlimit="10"/>
<path d="M71.6971 71.7168H65.3431V78.5105H71.6971V71.7168Z" stroke="#232529" stroke-width="0.703998" stroke-miterlimit="10"/>
<path d="M81.0125 71.7168H74.6586V78.5105H81.0125V71.7168Z" stroke="#232529" stroke-width="0.703998" stroke-miterlimit="10"/>
<path d="M90.3277 71.7168H83.9738V78.5105H90.3277V71.7168Z" stroke="#232529" stroke-width="0.703998" stroke-miterlimit="10"/>
<path d="M99.6432 71.7168H93.2892V78.5105H99.6432V71.7168Z" stroke="#232529" stroke-width="0.703998" stroke-miterlimit="10"/>
<path d="M71.6971 82.4814H65.3431V89.2752H71.6971V82.4814Z" stroke="#232529" stroke-width="0.703998" stroke-miterlimit="10"/>
<path d="M81.0125 82.4814H74.6586V89.2752H81.0125V82.4814Z" stroke="#232529" stroke-width="0.703998" stroke-miterlimit="10"/>
<path d="M90.3277 82.4814H83.9738V89.2752H90.3277V82.4814Z" stroke="#232529" stroke-width="0.703998" stroke-miterlimit="10"/>
<path d="M99.6432 82.4814H93.2892V89.2752H99.6432V82.4814Z" stroke="#232529" stroke-width="0.703998" stroke-miterlimit="10"/>
<path d="M71.6971 93.2541H65.3431V100.048H71.6971V93.2541Z" stroke="#232529" stroke-width="0.703998" stroke-miterlimit="10"/>
<path d="M81.0125 93.2541H74.6586V100.048H81.0125V93.2541Z" stroke="#232529" stroke-width="0.703998" stroke-miterlimit="10"/>
<path d="M90.3277 93.2541H83.9738V100.048H90.3277V93.2541Z" stroke="#232529" stroke-width="0.703998" stroke-miterlimit="10"/>
<path d="M99.6432 93.2541H93.2892V100.048H99.6432V93.2541Z" stroke="#232529" stroke-width="0.703998" stroke-miterlimit="10"/>
<path d="M71.6971 104.019H65.3431V110.813H71.6971V104.019Z" stroke="#232529" stroke-width="0.703998" stroke-miterlimit="10"/>
<path d="M81.0125 104.019H74.6586V110.813H81.0125V104.019Z" stroke="#232529" stroke-width="0.703998" stroke-miterlimit="10"/>
<path d="M90.3277 104.019H83.9738V110.813H90.3277V104.019Z" stroke="#232529" stroke-width="0.703998" stroke-miterlimit="10"/>
<path d="M99.6432 104.019H93.2892V110.813H99.6432V104.019Z" stroke="#232529" stroke-width="0.703998" stroke-miterlimit="10"/>
<path d="M71.6971 113.867H65.3432V120.66H71.6971V113.867Z" stroke="#232529" stroke-width="0.703998" stroke-miterlimit="10"/>
<path d="M81.0125 113.867H74.6586V120.66H81.0125V113.867Z" stroke="#232529" stroke-width="0.703998" stroke-miterlimit="10"/>
<path d="M90.3277 113.867H83.9738V120.66H90.3277V113.867Z" stroke="#232529" stroke-width="0.703998" stroke-miterlimit="10"/>
<path d="M99.6432 113.867H93.2892V120.66H99.6432V113.867Z" stroke="#232529" stroke-width="0.703998" stroke-miterlimit="10"/>
<path d="M71.6971 124.639H65.3431V131.433H71.6971V124.639Z" stroke="#232529" stroke-width="0.703998" stroke-miterlimit="10"/>
<path d="M81.0125 124.639H74.6586V131.433H81.0125V124.639Z" stroke="#232529" stroke-width="0.703998" stroke-miterlimit="10"/>
<path d="M90.3277 124.639H83.9738V131.433H90.3277V124.639Z" stroke="#232529" stroke-width="0.703998" stroke-miterlimit="10"/>
<path d="M99.6432 124.639H93.2892V131.433H99.6432V124.639Z" stroke="#232529" stroke-width="0.703998" stroke-miterlimit="10"/>
<path d="M71.6971 135.404H65.3431V142.198H71.6971V135.404Z" stroke="#232529" stroke-width="0.703998" stroke-miterlimit="10"/>
<path d="M81.0125 135.404H74.6586V142.198H81.0125V135.404Z" stroke="#232529" stroke-width="0.703998" stroke-miterlimit="10"/>
<path d="M90.3277 135.404H83.9738V142.198H90.3277V135.404Z" stroke="#232529" stroke-width="0.703998" stroke-miterlimit="10"/>
<path d="M99.6432 135.404H93.2892V142.198H99.6432V135.404Z" stroke="#232529" stroke-width="0.703998" stroke-miterlimit="10"/>
<path d="M71.6971 146.169H65.3431V152.962H71.6971V146.169Z" stroke="#232529" stroke-width="0.703998" stroke-miterlimit="10"/>
<path d="M81.0125 146.169H74.6586V152.962H81.0125V146.169Z" stroke="#232529" stroke-width="0.703998" stroke-miterlimit="10"/>
<path d="M90.3277 146.169H83.9738V152.962H90.3277V146.169Z" stroke="#232529" stroke-width="0.703998" stroke-miterlimit="10"/>
<path d="M99.6432 146.169H93.2892V152.962H99.6432V146.169Z" stroke="#232529" stroke-width="0.703998" stroke-miterlimit="10"/>
<path d="M71.6971 156.941H65.3431V163.735H71.6971V156.941Z" stroke="#232529" stroke-width="0.703998" stroke-miterlimit="10"/>
<path d="M81.0125 156.941H74.6586V163.735H81.0125V156.941Z" stroke="#232529" stroke-width="0.703998" stroke-miterlimit="10"/>
<path d="M90.3277 156.941H83.9738V163.735H90.3277V156.941Z" stroke="#232529" stroke-width="0.703998" stroke-miterlimit="10"/>
<path d="M99.6432 156.941H93.2892V163.735H99.6432V156.941Z" stroke="#232529" stroke-width="0.703998" stroke-miterlimit="10"/>
<path d="M71.6971 167.706H65.3431V174.5H71.6971V167.706Z" stroke="#232529" stroke-width="0.703998" stroke-miterlimit="10"/>
<path d="M81.0125 167.706H74.6586V174.5H81.0125V167.706Z" stroke="#232529" stroke-width="0.703998" stroke-miterlimit="10"/>
<path d="M90.3277 167.706H83.9738V174.5H90.3277V167.706Z" stroke="#232529" stroke-width="0.703998" stroke-miterlimit="10"/>
<path d="M99.6432 167.706H93.2892V174.5H99.6432V167.706Z" stroke="#232529" stroke-width="0.703998" stroke-miterlimit="10"/>
<path d="M71.6971 178.479H65.3431V185.272H71.6971V178.479Z" stroke="#232529" stroke-width="0.703998" stroke-miterlimit="10"/>
<path d="M81.0125 178.479H74.6586V185.272H81.0125V178.479Z" stroke="#232529" stroke-width="0.703998" stroke-miterlimit="10"/>
<path d="M90.3277 178.479H83.9738V185.272H90.3277V178.479Z" stroke="#232529" stroke-width="0.703998" stroke-miterlimit="10"/>
<path d="M99.6432 178.479H93.2892V185.272H99.6432V178.479Z" stroke="#232529" stroke-width="0.703998" stroke-miterlimit="10"/>
<path d="M71.6971 189.243H65.3431V196.037H71.6971V189.243Z" stroke="#232529" stroke-width="0.703998" stroke-miterlimit="10"/>
<path d="M81.0125 189.243H74.6586V196.037H81.0125V189.243Z" stroke="#232529" stroke-width="0.703998" stroke-miterlimit="10"/>
<path d="M90.3277 189.243H83.9738V196.037H90.3277V189.243Z" stroke="#232529" stroke-width="0.703998" stroke-miterlimit="10"/>
<path d="M99.6432 189.243H93.2892V196.037H99.6432V189.243Z" stroke="#232529" stroke-width="0.703998" stroke-miterlimit="10"/>
<path d="M108.081 113.867H101.727V120.66H108.081V113.867Z" stroke="#232529" stroke-width="0.703998" stroke-miterlimit="10"/>
<path d="M117.396 113.867H111.042V120.66H117.396V113.867Z" stroke="#232529" stroke-width="0.703998" stroke-miterlimit="10"/>
<path d="M126.711 113.867H120.357V120.66H126.711V113.867Z" stroke="#232529" stroke-width="0.703998" stroke-miterlimit="10"/>
<path d="M136.027 113.867H129.673V120.66H136.027V113.867Z" stroke="#232529" stroke-width="0.703998" stroke-miterlimit="10"/>
<path d="M108.08 124.639H101.727V131.433H108.08V124.639Z" stroke="#232529" stroke-width="0.703998" stroke-miterlimit="10"/>
<path d="M117.396 124.639H111.042V131.433H117.396V124.639Z" stroke="#232529" stroke-width="0.703998" stroke-miterlimit="10"/>
<path d="M126.711 124.639H120.357V131.433H126.711V124.639Z" stroke="#232529" stroke-width="0.703998" stroke-miterlimit="10"/>
<path d="M136.027 124.639H129.673V131.433H136.027V124.639Z" stroke="#232529" stroke-width="0.703998" stroke-miterlimit="10"/>
<path d="M108.08 135.404H101.727V142.198H108.08V135.404Z" stroke="#232529" stroke-width="0.703998" stroke-miterlimit="10"/>
<path d="M117.396 135.404H111.042V142.198H117.396V135.404Z" stroke="#232529" stroke-width="0.703998" stroke-miterlimit="10"/>
<path d="M126.711 135.404H120.357V142.198H126.711V135.404Z" stroke="#232529" stroke-width="0.703998" stroke-miterlimit="10"/>
<path d="M136.027 135.404H129.673V142.198H136.027V135.404Z" stroke="#232529" stroke-width="0.703998" stroke-miterlimit="10"/>
<path d="M108.08 146.169H101.727V152.962H108.08V146.169Z" stroke="#232529" stroke-width="0.703998" stroke-miterlimit="10"/>
<path d="M117.396 146.169H111.042V152.962H117.396V146.169Z" stroke="#232529" stroke-width="0.703998" stroke-miterlimit="10"/>
<path d="M126.711 146.169H120.357V152.962H126.711V146.169Z" stroke="#232529" stroke-width="0.703998" stroke-miterlimit="10"/>
<path d="M136.027 146.169H129.673V152.962H136.027V146.169Z" stroke="#232529" stroke-width="0.703998" stroke-miterlimit="10"/>
<path d="M108.08 156.941H101.727V163.735H108.08V156.941Z" stroke="#232529" stroke-width="0.703998" stroke-miterlimit="10"/>
<path d="M117.396 156.941H111.042V163.735H117.396V156.941Z" stroke="#232529" stroke-width="0.703998" stroke-miterlimit="10"/>
<path d="M126.711 156.941H120.357V163.735H126.711V156.941Z" stroke="#232529" stroke-width="0.703998" stroke-miterlimit="10"/>
<path d="M136.027 156.941H129.673V163.735H136.027V156.941Z" stroke="#232529" stroke-width="0.703998" stroke-miterlimit="10"/>
<path d="M108.08 167.706H101.727V174.5H108.08V167.706Z" stroke="#232529" stroke-width="0.703998" stroke-miterlimit="10"/>
<path d="M117.396 167.706H111.042V174.5H117.396V167.706Z" stroke="#232529" stroke-width="0.703998" stroke-miterlimit="10"/>
<path d="M126.711 167.706H120.357V174.5H126.711V167.706Z" stroke="#232529" stroke-width="0.703998" stroke-miterlimit="10"/>
<path d="M136.027 167.706H129.673V174.5H136.027V167.706Z" stroke="#232529" stroke-width="0.703998" stroke-miterlimit="10"/>
<path d="M108.08 178.479H101.727V185.272H108.08V178.479Z" stroke="#232529" stroke-width="0.703998" stroke-miterlimit="10"/>
<path d="M117.396 178.479H111.042V185.272H117.396V178.479Z" stroke="#232529" stroke-width="0.703998" stroke-miterlimit="10"/>
<path d="M126.711 178.479H120.357V185.272H126.711V178.479Z" stroke="#232529" stroke-width="0.703998" stroke-miterlimit="10"/>
<path d="M136.027 178.479H129.673V185.272H136.027V178.479Z" stroke="#232529" stroke-width="0.703998" stroke-miterlimit="10"/>
<path d="M108.08 189.243H101.727V196.037H108.08V189.243Z" stroke="#232529" stroke-width="0.703998" stroke-miterlimit="10"/>
<path d="M117.396 189.243H111.042V196.037H117.396V189.243Z" stroke="#232529" stroke-width="0.703998" stroke-miterlimit="10"/>
<path d="M126.711 189.243H120.357V196.037H126.711V189.243Z" stroke="#232529" stroke-width="0.703998" stroke-miterlimit="10"/>
<path d="M136.027 189.243H129.673V196.037H136.027V189.243Z" stroke="#232529" stroke-width="0.703998" stroke-miterlimit="10"/>
<path d="M34.803 113.867H28.449V120.66H34.803V113.867Z" stroke="#232529" stroke-width="0.703998" stroke-miterlimit="10"/>
<path d="M44.1182 113.867H37.7643V120.66H44.1182V113.867Z" stroke="#232529" stroke-width="0.703998" stroke-miterlimit="10"/>
<path d="M53.4335 113.867H47.0795V120.66H53.4335V113.867Z" stroke="#232529" stroke-width="0.703998" stroke-miterlimit="10"/>
<path d="M62.749 113.867H56.3951V120.66H62.749V113.867Z" stroke="#232529" stroke-width="0.703998" stroke-miterlimit="10"/>
<path d="M34.803 124.639H28.449V131.433H34.803V124.639Z" stroke="#232529" stroke-width="0.703998" stroke-miterlimit="10"/>
<path d="M44.1182 124.639H37.7643V131.433H44.1182V124.639Z" stroke="#232529" stroke-width="0.703998" stroke-miterlimit="10"/>
<path d="M53.4335 124.639H47.0795V131.433H53.4335V124.639Z" stroke="#232529" stroke-width="0.703998" stroke-miterlimit="10"/>
<path d="M62.749 124.639H56.3951V131.433H62.749V124.639Z" stroke="#232529" stroke-width="0.703998" stroke-miterlimit="10"/>
<path d="M34.803 135.404H28.449V142.198H34.803V135.404Z" stroke="#232529" stroke-width="0.703998" stroke-miterlimit="10"/>
<path d="M44.1182 135.404H37.7643V142.198H44.1182V135.404Z" stroke="#232529" stroke-width="0.703998" stroke-miterlimit="10"/>
<path d="M53.4335 135.404H47.0795V142.198H53.4335V135.404Z" stroke="#232529" stroke-width="0.703998" stroke-miterlimit="10"/>
<path d="M62.749 135.404H56.3951V142.198H62.749V135.404Z" stroke="#232529" stroke-width="0.703998" stroke-miterlimit="10"/>
<path d="M34.803 146.169H28.449V152.962H34.803V146.169Z" stroke="#232529" stroke-width="0.703998" stroke-miterlimit="10"/>
<path d="M44.1182 146.169H37.7643V152.962H44.1182V146.169Z" stroke="#232529" stroke-width="0.703998" stroke-miterlimit="10"/>
<path d="M53.4335 146.169H47.0795V152.962H53.4335V146.169Z" stroke="#232529" stroke-width="0.703998" stroke-miterlimit="10"/>
<path d="M62.749 146.169H56.3951V152.962H62.749V146.169Z" stroke="#232529" stroke-width="0.703998" stroke-miterlimit="10"/>
<path d="M34.803 156.941H28.449V163.735H34.803V156.941Z" stroke="#232529" stroke-width="0.703998" stroke-miterlimit="10"/>
<path d="M44.1182 156.941H37.7643V163.735H44.1182V156.941Z" stroke="#232529" stroke-width="0.703998" stroke-miterlimit="10"/>
<path d="M53.4335 156.941H47.0795V163.735H53.4335V156.941Z" stroke="#232529" stroke-width="0.703998" stroke-miterlimit="10"/>
<path d="M62.749 156.941H56.3951V163.735H62.749V156.941Z" stroke="#232529" stroke-width="0.703998" stroke-miterlimit="10"/>
<path d="M34.803 167.706H28.449V174.5H34.803V167.706Z" stroke="#232529" stroke-width="0.703998" stroke-miterlimit="10"/>
<path d="M44.1182 167.706H37.7643V174.5H44.1182V167.706Z" stroke="#232529" stroke-width="0.703998" stroke-miterlimit="10"/>
<path d="M53.4335 167.706H47.0795V174.5H53.4335V167.706Z" stroke="#232529" stroke-width="0.703998" stroke-miterlimit="10"/>
<path d="M62.749 167.706H56.3951V174.5H62.749V167.706Z" stroke="#232529" stroke-width="0.703998" stroke-miterlimit="10"/>
<path d="M34.803 178.479H28.449V185.272H34.803V178.479Z" stroke="#232529" stroke-width="0.703998" stroke-miterlimit="10"/>
<path d="M44.1182 178.479H37.7643V185.272H44.1182V178.479Z" stroke="#232529" stroke-width="0.703998" stroke-miterlimit="10"/>
<path d="M53.4335 178.479H47.0795V185.272H53.4335V178.479Z" stroke="#232529" stroke-width="0.703998" stroke-miterlimit="10"/>
<path d="M62.749 178.479H56.3951V185.272H62.749V178.479Z" stroke="#232529" stroke-width="0.703998" stroke-miterlimit="10"/>
<path d="M34.803 189.243H28.449V196.037H34.803V189.243Z" stroke="#232529" stroke-width="0.703998" stroke-miterlimit="10"/>
<path d="M44.1182 189.243H37.7643V196.037H44.1182V189.243Z" stroke="#232529" stroke-width="0.703998" stroke-miterlimit="10"/>
<path d="M53.4335 189.243H47.0795V196.037H53.4335V189.243Z" stroke="#232529" stroke-width="0.703998" stroke-miterlimit="10"/>
<path d="M62.749 189.243H56.3951V196.037H62.749V189.243Z" stroke="#232529" stroke-width="0.703998" stroke-miterlimit="10"/>
<path d="M242.894 92.7598H236.54V99.5535H242.894V92.7598Z" stroke="#232529" stroke-width="0.703998" stroke-miterlimit="10"/>
<path d="M252.209 92.7598H245.855V99.5535H252.209V92.7598Z" stroke="#232529" stroke-width="0.703998" stroke-miterlimit="10"/>
<path d="M261.525 92.7598H255.171V99.5535H261.525V92.7598Z" stroke="#232529" stroke-width="0.703998" stroke-miterlimit="10"/>
<path d="M270.84 92.7598H264.486V99.5535H270.84V92.7598Z" stroke="#232529" stroke-width="0.703998" stroke-miterlimit="10"/>
<path d="M242.894 103.533H236.54V110.326H242.894V103.533Z" stroke="#232529" stroke-width="0.703998" stroke-miterlimit="10"/>
<path d="M252.209 103.533H245.855V110.326H252.209V103.533Z" stroke="#232529" stroke-width="0.703998" stroke-miterlimit="10"/>
<path d="M261.525 103.533H255.171V110.326H261.525V103.533Z" stroke="#232529" stroke-width="0.703998" stroke-miterlimit="10"/>
<path d="M270.84 103.533H264.486V110.326H270.84V103.533Z" stroke="#232529" stroke-width="0.703998" stroke-miterlimit="10"/>
<path d="M242.894 114.297H236.54V121.091H242.894V114.297Z" stroke="#232529" stroke-width="0.703998" stroke-miterlimit="10"/>
<path d="M252.209 114.297H245.855V121.091H252.209V114.297Z" stroke="#232529" stroke-width="0.703998" stroke-miterlimit="10"/>
<path d="M261.525 114.297H255.171V121.091H261.525V114.297Z" stroke="#232529" stroke-width="0.703998" stroke-miterlimit="10"/>
<path d="M270.84 114.297H264.486V121.091H270.84V114.297Z" stroke="#232529" stroke-width="0.703998" stroke-miterlimit="10"/>
<path d="M242.894 125.062H236.54V131.856H242.894V125.062Z" stroke="#232529" stroke-width="0.703998" stroke-miterlimit="10"/>
<path d="M252.209 125.062H245.855V131.856H252.209V125.062Z" stroke="#232529" stroke-width="0.703998" stroke-miterlimit="10"/>
<path d="M261.525 125.062H255.171V131.856H261.525V125.062Z" stroke="#232529" stroke-width="0.703998" stroke-miterlimit="10"/>
<path d="M270.84 125.062H264.486V131.856H270.84V125.062Z" stroke="#232529" stroke-width="0.703998" stroke-miterlimit="10"/>
<path d="M242.894 135.835H236.54V142.628H242.894V135.835Z" stroke="#232529" stroke-width="0.703998" stroke-miterlimit="10"/>
<path d="M252.209 135.835H245.855V142.628H252.209V135.835Z" stroke="#232529" stroke-width="0.703998" stroke-miterlimit="10"/>
<path d="M261.525 135.835H255.171V142.628H261.525V135.835Z" stroke="#232529" stroke-width="0.703998" stroke-miterlimit="10"/>
<path d="M270.84 135.835H264.486V142.628H270.84V135.835Z" stroke="#232529" stroke-width="0.703998" stroke-miterlimit="10"/>
<path d="M242.894 146.599H236.54V153.393H242.894V146.599Z" stroke="#232529" stroke-width="0.703998" stroke-miterlimit="10"/>
<path d="M252.209 146.599H245.855V153.393H252.209V146.599Z" stroke="#232529" stroke-width="0.703998" stroke-miterlimit="10"/>
<path d="M261.525 146.599H255.171V153.393H261.525V146.599Z" stroke="#232529" stroke-width="0.703998" stroke-miterlimit="10"/>
<path d="M270.84 146.599H264.486V153.393H270.84V146.599Z" stroke="#232529" stroke-width="0.703998" stroke-miterlimit="10"/>
<path d="M242.894 157.372H236.54V164.166H242.894V157.372Z" stroke="#232529" stroke-width="0.703998" stroke-miterlimit="10"/>
<path d="M252.209 157.372H245.855V164.166H252.209V157.372Z" stroke="#232529" stroke-width="0.703998" stroke-miterlimit="10"/>
<path d="M261.525 157.372H255.171V164.166H261.525V157.372Z" stroke="#232529" stroke-width="0.703998" stroke-miterlimit="10"/>
<path d="M270.84 157.372H264.486V164.166H270.84V157.372Z" stroke="#232529" stroke-width="0.703998" stroke-miterlimit="10"/>
<path d="M242.894 168.137H236.54V174.93H242.894V168.137Z" stroke="#232529" stroke-width="0.703998" stroke-miterlimit="10"/>
<path d="M252.209 168.137H245.855V174.93H252.209V168.137Z" stroke="#232529" stroke-width="0.703998" stroke-miterlimit="10"/>
<path d="M261.525 168.137H255.171V174.93H261.525V168.137Z" stroke="#232529" stroke-width="0.703998" stroke-miterlimit="10"/>
<path d="M270.84 168.137H264.486V174.93H270.84V168.137Z" stroke="#232529" stroke-width="0.703998" stroke-miterlimit="10"/>
<path d="M165.497 6.1319V202.887" stroke="#232529" stroke-width="0.703998" stroke-miterlimit="10"/>
<path d="M171.795 6.1319V202.887" stroke="#232529" stroke-width="0.703998" stroke-miterlimit="10"/>
<path d="M178.093 6.1319V202.887" stroke="#232529" stroke-width="0.703998" stroke-miterlimit="10"/>
<path d="M184.391 6.1319V202.887" stroke="#232529" stroke-width="0.703998" stroke-miterlimit="10"/>
<path d="M190.689 6.1319V202.887" stroke="#232529" stroke-width="0.703998" stroke-miterlimit="10"/>
<path d="M196.988 6.1319V202.887" stroke="#232529" stroke-width="0.703998" stroke-miterlimit="10"/>
<path d="M203.294 6.1319V202.887" stroke="#232529" stroke-width="0.703998" stroke-miterlimit="10"/>
<path d="M209.592 6.1319V202.887" stroke="#232529" stroke-width="0.703998" stroke-miterlimit="10"/>
<path d="M145.661 199.458H32.7115V205.821H145.661V199.458Z" stroke="#232529" stroke-width="0.703998" stroke-miterlimit="10"/>
<path d="M316.403 199.458H214.98V205.821H316.403V199.458Z" stroke="#232529" stroke-width="0.703998" stroke-miterlimit="10"/>
<path d="M205.505 199.211C205.505 199.211 216.576 200.303 222.188 207.161C222.188 207.161 228.118 199.219 238.767 199.378C241.856 195.654 243.716 190.878 243.716 185.671C243.724 173.798 234.089 164.174 222.204 164.166C210.318 164.158 200.683 173.782 200.675 185.655C200.675 190.798 202.479 195.527 205.505 199.227V199.211Z" fill="#1EADFF"/>
<path opacity="0.5" d="M205.505 199.211C205.505 199.211 216.576 200.303 222.188 207.161C222.188 207.161 228.118 199.219 238.767 199.378C241.856 195.654 243.716 190.878 243.716 185.671C243.724 173.798 234.089 164.174 222.204 164.166C210.318 164.158 200.683 173.782 200.675 185.655C200.675 190.798 202.479 195.527 205.505 199.227V199.211Z" fill="white"/>
<path d="M221.821 165.681L221.445 221.123H223.313L221.821 165.681Z" fill="#232529"/>
<path d="M222.379 205.072C222.379 205.072 226.115 198.35 232.844 196.3C232.844 196.3 225.74 197.983 222.196 203.764L222.379 205.072Z" fill="#232529"/>
<path d="M222.379 186.03C222.379 186.03 226.115 179.308 232.844 177.259C232.844 177.259 225.74 178.941 222.196 184.722L222.379 186.03Z" fill="#232529"/>
<path d="M222.379 195.551C222.379 195.551 226.115 188.829 232.844 186.779C232.844 186.779 225.74 188.462 222.196 194.243L222.379 195.551Z" fill="#232529"/>
<path d="M221.829 190.886C221.829 190.886 218.221 184.164 211.731 182.115C211.731 182.115 218.58 183.797 222.012 189.578L221.829 190.886Z" fill="#232529"/>
<path d="M221.829 200.215C221.829 200.215 218.221 193.493 211.731 191.444C211.731 191.444 218.58 193.127 222.012 198.908L221.829 200.215Z" fill="#232529"/>
<path d="M257.653 195.008C257.653 195.008 270.848 196.316 277.537 204.481C277.537 204.481 284.601 195.016 297.293 195.208C300.973 190.774 303.192 185.081 303.192 178.869C303.2 164.724 291.722 153.249 277.553 153.241C263.392 153.233 251.898 164.7 251.898 178.853C251.898 184.985 254.053 190.615 257.653 195.032V195.008Z" fill="#1EADFF"/>
<path opacity="0.5" d="M257.653 195.008C257.653 195.008 270.848 196.316 277.537 204.481C277.537 204.481 284.601 195.016 297.293 195.208C300.973 190.774 303.192 185.081 303.192 178.869C303.2 164.724 291.722 153.249 277.553 153.241C263.392 153.233 251.898 164.7 251.898 178.853C251.898 184.985 254.053 190.615 257.653 195.032V195.008Z" fill="white"/>
<path d="M277.098 155.051L276.651 221.123H278.878L277.098 155.051Z" fill="#232529"/>
<path d="M277.768 201.994C277.768 201.994 282.222 193.988 290.237 191.54C290.237 191.54 281.775 193.541 277.545 200.439L277.768 201.994Z" fill="#232529"/>
<path d="M277.768 179.3C277.768 179.3 282.222 171.294 290.237 168.846C290.237 168.846 281.775 170.848 277.545 177.745L277.768 179.3Z" fill="#232529"/>
<path d="M277.768 190.647C277.768 190.647 282.222 182.641 290.237 180.193C290.237 180.193 281.775 182.194 277.545 189.092L277.768 190.647Z" fill="#232529"/>
<path d="M277.106 185.081C277.106 185.081 272.811 177.075 265.068 174.627C265.068 174.627 273.234 176.629 277.321 183.526L277.106 185.081Z" fill="#232529"/>
<path d="M277.106 196.205C277.106 196.205 272.811 188.199 265.068 185.751C265.068 185.751 273.234 187.752 277.321 194.65L277.106 196.205Z" fill="#232529"/>
<path d="M310.767 202.639C310.767 202.639 320.107 203.564 324.84 209.345C324.84 209.345 329.845 202.647 338.825 202.783C341.435 199.641 343 195.614 343 191.221C343 181.206 334.882 173.08 324.848 173.08C314.822 173.08 306.688 181.19 306.688 191.213C306.688 195.551 308.213 199.538 310.759 202.663L310.767 202.639Z" fill="#1EADFF"/>
<path opacity="0.5" d="M310.767 202.639C310.767 202.639 320.107 203.564 324.84 209.345C324.84 209.345 329.845 202.647 338.825 202.783C341.435 199.641 343 195.614 343 191.221C343 181.206 334.882 173.08 324.848 173.08C314.822 173.08 306.688 181.19 306.688 191.213C306.688 195.551 308.213 199.538 310.759 202.663L310.767 202.639Z" fill="white"/>
<path d="M324.529 174.356L324.209 221.123H325.79L324.529 174.356Z" fill="#232529"/>
<path d="M325 207.583C325 207.583 328.153 201.914 333.828 200.183C333.828 200.183 327.841 201.603 324.84 206.483L325 207.583Z" fill="#232529"/>
<path d="M325 191.516C325 191.516 328.153 185.846 333.828 184.116C333.828 184.116 327.841 185.536 324.84 190.416L325 191.516Z" fill="#232529"/>
<path d="M325 199.554C325 199.554 328.153 193.884 333.828 192.154C333.828 192.154 327.841 193.573 324.84 198.453L325 199.554Z" fill="#232529"/>
<path d="M324.537 195.614C324.537 195.614 321.495 189.945 316.02 188.215C316.02 188.215 321.799 189.634 324.688 194.514L324.537 195.614Z" fill="#232529"/>
<path d="M324.537 203.485C324.537 203.485 321.495 197.815 316.02 196.085C316.02 196.085 321.799 197.504 324.688 202.384L324.537 203.485Z" fill="#232529"/>
<path d="M12.7078 199.211C12.7078 199.211 23.7793 200.303 29.3909 207.161C29.3909 207.161 35.3217 199.219 45.9701 199.378C49.0593 195.654 50.9192 190.878 50.9192 185.671C50.9272 173.798 41.2925 164.174 29.4068 164.166C17.5212 164.158 7.88652 173.782 7.87854 185.655C7.87854 190.798 9.69053 195.527 12.7078 199.227V199.211Z" fill="#1EADFF"/>
<path opacity="0.5" d="M12.7078 199.211C12.7078 199.211 23.7793 200.303 29.3909 207.161C29.3909 207.161 35.3217 199.219 45.9701 199.378C49.0593 195.654 50.9192 190.878 50.9192 185.671C50.9272 173.798 41.2925 164.174 29.4068 164.166C17.5212 164.158 7.88652 173.782 7.87854 185.655C7.87854 190.798 9.69053 195.527 12.7078 199.227V199.211Z" fill="white"/>
<path d="M29.0237 165.681L28.6486 221.123H30.5164L29.0237 165.681Z" fill="#232529"/>
<path d="M29.5826 205.072C29.5826 205.072 33.3183 198.35 40.0474 196.3C40.0474 196.3 32.9431 197.983 29.399 203.764L29.5826 205.072Z" fill="#232529"/>
<path d="M29.5826 186.03C29.5826 186.03 33.3183 179.308 40.0474 177.259C40.0474 177.259 32.9431 178.941 29.399 184.722L29.5826 186.03Z" fill="#232529"/>
<path d="M29.5826 195.551C29.5826 195.551 33.3183 188.829 40.0474 186.779C40.0474 186.779 32.9431 188.462 29.399 194.243L29.5826 195.551Z" fill="#232529"/>
<path d="M29.0318 190.886C29.0318 190.886 25.4238 184.164 18.9341 182.115C18.9341 182.115 25.783 183.797 29.2154 189.578L29.0318 190.886Z" fill="#232529"/>
<path d="M29.0318 200.215C29.0318 200.215 25.4238 193.493 18.9341 191.444C18.9341 191.444 25.783 193.127 29.2154 198.908L29.0318 200.215Z" fill="#232529"/>
<path d="M64.8564 195.008C64.8564 195.008 78.0512 196.316 84.7404 204.481C84.7404 204.481 91.8047 195.016 104.497 195.208C108.176 190.774 110.396 185.081 110.396 178.869C110.404 164.724 98.925 153.249 84.7564 153.241C70.5957 153.233 59.1012 164.7 59.1012 178.853C59.1012 184.985 61.2564 190.615 64.8564 195.032V195.008Z" fill="#1EADFF"/>
<path opacity="0.5" d="M64.8564 195.008C64.8564 195.008 78.0512 196.316 84.7404 204.481C84.7404 204.481 91.8047 195.016 104.497 195.208C108.176 190.774 110.396 185.081 110.396 178.869C110.404 164.724 98.925 153.249 84.7564 153.241C70.5957 153.233 59.1012 164.7 59.1012 178.853C59.1012 184.985 61.2564 190.615 64.8564 195.032V195.008Z" fill="white"/>
<path d="M84.3014 155.051L83.8544 221.123H86.0814L84.3014 155.051Z" fill="#232529"/>
<path d="M84.9639 201.994C84.9639 201.994 89.418 193.988 97.4323 191.54C97.4323 191.54 88.971 193.541 84.7404 200.439L84.9639 201.994Z" fill="#232529"/>
<path d="M84.9639 179.3C84.9639 179.3 89.418 171.294 97.4323 168.846C97.4323 168.846 88.971 170.848 84.7404 177.745L84.9639 179.3Z" fill="#232529"/>
<path d="M84.9639 190.647C84.9639 190.647 89.418 182.641 97.4323 180.193C97.4323 180.193 88.971 182.194 84.7404 189.092L84.9639 190.647Z" fill="#232529"/>
<path d="M84.3094 185.081C84.3094 185.081 80.0149 177.075 72.272 174.627C72.272 174.627 80.4379 176.629 84.5249 183.526L84.3094 185.081Z" fill="#232529"/>
<path d="M84.3094 196.205C84.3094 196.205 80.0149 188.199 72.272 185.751C72.272 185.751 80.4379 187.752 84.5249 194.65L84.3094 196.205Z" fill="#232529"/>
<path d="M117.963 202.639C117.963 202.639 127.302 203.564 132.036 209.345C132.036 209.345 137.04 202.647 146.021 202.783C148.631 199.641 150.195 195.614 150.195 191.221C150.195 181.206 142.077 173.08 132.043 173.08C122.018 173.08 113.884 181.19 113.884 191.213C113.884 195.551 115.408 199.538 117.955 202.663L117.963 202.639Z" fill="#1EADFF"/>
<path opacity="0.5" d="M117.963 202.639C117.963 202.639 127.302 203.564 132.036 209.345C132.036 209.345 137.04 202.647 146.021 202.783C148.631 199.641 150.195 195.614 150.195 191.221C150.195 181.206 142.077 173.08 132.043 173.08C122.018 173.08 113.884 181.19 113.884 191.213C113.884 195.551 115.408 199.538 117.955 202.663L117.963 202.639Z" fill="white"/>
<path d="M131.732 174.356L131.413 221.123H132.993L131.732 174.356Z" fill="#232529"/>
<path d="M132.203 207.583C132.203 207.583 135.356 201.914 141.032 200.183C141.032 200.183 135.045 201.603 132.044 206.483L132.203 207.583Z" fill="#232529"/>
<path d="M132.203 191.516C132.203 191.516 135.356 185.846 141.032 184.116C141.032 184.116 135.045 185.536 132.044 190.416L132.203 191.516Z" fill="#232529"/>
<path d="M132.203 199.554C132.203 199.554 135.356 193.884 141.032 192.154C141.032 192.154 135.045 193.573 132.044 198.453L132.203 199.554Z" fill="#232529"/>
<path d="M131.732 195.614C131.732 195.614 128.691 189.945 123.215 188.215C123.215 188.215 128.994 189.634 131.884 194.514L131.732 195.614Z" fill="#232529"/>
<path d="M131.732 203.485C131.732 203.485 128.691 197.815 123.215 196.085C123.215 196.085 128.994 197.504 131.884 202.384L131.732 203.485Z" fill="#232529"/>
<path d="M11.263 221.123H337.636" stroke="#232529" stroke-width="0.703998" stroke-miterlimit="10" stroke-linecap="round" stroke-linejoin="round"/>
<g clip-path="url(#clip1_1345_56307)">
<path d="M234.383 190.263H228.857L228.776 190.378C228.304 190.31 227.832 190.263 227.346 190.263C220.606 190.263 215.148 197.293 215.148 205.963C215.148 214.632 220.613 221.663 227.346 221.663C227.832 221.663 231.833 221.615 232.298 221.548L228.851 221.663H234.376C241.116 221.663 246.574 214.632 246.574 205.963C246.581 197.293 241.123 190.263 234.383 190.263Z" fill="#263238" stroke="#263238" stroke-width="0.674683" stroke-miterlimit="10" stroke-linecap="round" stroke-linejoin="round"/>
<path d="M121.178 190.263H115.652L115.571 190.378C115.099 190.31 114.627 190.263 114.141 190.263C107.401 190.263 101.943 197.293 101.943 205.963C101.943 214.632 107.408 221.663 114.141 221.663C114.627 221.663 115.099 221.615 115.571 221.548L115.652 221.663H121.178C127.918 221.663 133.376 214.632 133.376 205.963C133.376 197.293 127.911 190.263 121.178 190.263Z" fill="#263238" stroke="#263238" stroke-width="0.674683" stroke-miterlimit="10" stroke-linecap="round" stroke-linejoin="round"/>
<path d="M286.975 190.728H284.323L281.948 174.071C281.658 172.04 279.924 170.535 277.873 170.535H263.01L238.876 144.924C236.265 142.151 232.622 140.579 228.81 140.579H164.823C162.037 140.579 159.365 141.719 157.435 143.73L47.5363 190.121V209.707H212.307L253.659 209.41L284.323 207.4V207.258H286.846C287.4 207.258 287.852 206.806 287.852 206.253V191.599C287.852 191.12 287.46 190.728 286.975 190.728Z" fill="#1EADFF" stroke="#263238" stroke-width="0.674683" stroke-miterlimit="10" stroke-linecap="round" stroke-linejoin="round"/>
<path d="M244.186 144.034H254.563" stroke="#263238" stroke-width="0.674683" stroke-miterlimit="10" stroke-linecap="round" stroke-linejoin="round"/>
<path d="M250.414 153.027H292.251" stroke="#263238" stroke-width="0.674683" stroke-miterlimit="10" stroke-linecap="round" stroke-linejoin="round"/>
<path d="M285.679 177.923H295.705" stroke="#263238" stroke-width="0.674683" stroke-miterlimit="10" stroke-linecap="round" stroke-linejoin="round"/>
<path d="M290.523 205.929H303.295" stroke="#263238" stroke-width="0.674683" stroke-miterlimit="10" stroke-linecap="round" stroke-linejoin="round"/>
<path d="M240.165 206.698V209.512L253.659 209.417L284.323 207.407V207.265H286.846C287.244 207.265 287.575 207.029 287.744 206.698H240.165Z" fill="#263238" stroke="#263238" stroke-width="0.674683" stroke-miterlimit="10" stroke-linecap="round" stroke-linejoin="round"/>
<path d="M253.659 209.417C254.954 209.329 254.893 207.407 253.591 207.407H238.087L180.752 140.573H164.83C162.044 140.573 159.372 141.713 157.442 143.723L47.5363 190.121V209.707H212.307L253.659 209.417Z" fill="#263238" stroke="#263238" stroke-width="0.674683" stroke-miterlimit="10" stroke-linecap="round" stroke-linejoin="round"/>
<path d="M73.2148 190.263H67.6892L64.0661 195.586C62.1702 198.352 61.0165 201.982 61.0165 205.963C61.0165 209.943 62.1702 213.573 64.0661 216.339L67.6892 221.663H73.2148C79.9549 221.663 85.4131 214.632 85.4131 205.963C85.4131 197.293 79.9549 190.263 73.2148 190.263Z" fill="#263238" stroke="#263238" stroke-width="0.674683" stroke-miterlimit="10" stroke-linecap="round" stroke-linejoin="round"/>
<path d="M66.1778 221.663C72.9147 221.663 78.376 214.634 78.376 205.963C78.376 197.292 72.9147 190.263 66.1778 190.263C59.4408 190.263 53.9795 197.292 53.9795 205.963C53.9795 214.634 59.4408 221.663 66.1778 221.663Z" fill="#636363" stroke="#263238" stroke-width="0.674683" stroke-miterlimit="10" stroke-linecap="round" stroke-linejoin="round"/>
<path d="M66.1778 218.485C71.5547 218.485 75.9135 212.879 75.9135 205.963C75.9135 199.047 71.5547 193.441 66.1778 193.441C60.8009 193.441 56.4421 199.047 56.4421 205.963C56.4421 212.879 60.8009 218.485 66.1778 218.485Z" fill="white" stroke="#263238" stroke-width="0.674683" stroke-miterlimit="10" stroke-linecap="round" stroke-linejoin="round"/>
<path d="M68.2356 205.963C68.2356 207.427 67.3181 208.608 66.1778 208.608C65.0444 208.608 64.1201 207.42 64.1201 205.963C64.1201 204.499 65.0376 203.318 66.1778 203.318C67.3113 203.318 68.2356 204.506 68.2356 205.963Z" fill="white" stroke="#263238" stroke-width="0.674683" stroke-miterlimit="10" stroke-linecap="round" stroke-linejoin="round"/>
<path d="M196.358 190.263H190.832L187.209 195.586C185.313 198.352 184.16 201.982 184.16 205.963C184.16 209.943 185.313 213.573 187.209 216.339L190.832 221.663H196.358C203.098 221.663 208.556 214.632 208.556 205.963C208.556 197.293 203.098 190.263 196.358 190.263Z" fill="#263238" stroke="#263238" stroke-width="0.674683" stroke-miterlimit="10" stroke-linecap="round" stroke-linejoin="round"/>
<path d="M189.328 221.663C196.065 221.663 201.526 214.634 201.526 205.963C201.526 197.292 196.065 190.263 189.328 190.263C182.591 190.263 177.129 197.292 177.129 205.963C177.129 214.634 182.591 221.663 189.328 221.663Z" fill="#636363" stroke="#263238" stroke-width="0.674683" stroke-miterlimit="10" stroke-linecap="round" stroke-linejoin="round"/>
<path d="M189.328 218.485C194.704 218.485 199.063 212.879 199.063 205.963C199.063 199.047 194.704 193.441 189.328 193.441C183.951 193.441 179.592 199.047 179.592 205.963C179.592 212.879 183.951 218.485 189.328 218.485Z" fill="white" stroke="#263238" stroke-width="0.674683" stroke-miterlimit="10" stroke-linecap="round" stroke-linejoin="round"/>
<path d="M191.379 205.963C191.379 207.427 190.461 208.608 189.321 208.608C188.187 208.608 187.263 207.42 187.263 205.963C187.263 204.499 188.181 203.318 189.321 203.318C190.461 203.318 191.379 204.506 191.379 205.963Z" fill="white" stroke="#263238" stroke-width="0.674683" stroke-miterlimit="10" stroke-linecap="round" stroke-linejoin="round"/>
<path d="M238.87 144.917C238.667 144.708 238.451 144.513 238.242 144.317H188.397V168.95H261.512L238.87 144.917Z" fill="#263238" stroke="#263238" stroke-width="0.674683" stroke-miterlimit="10" stroke-linecap="round" stroke-linejoin="round"/>
<path d="M244.598 190.729H241.69L238.809 170.535H220.37L196.236 144.924C193.625 142.151 189.982 140.579 186.17 140.579H127.439C124.653 140.579 121.981 141.72 120.051 143.73L82.5321 168.808L47.8196 183.786L42.3884 191.079C41.0525 192.874 40.3306 195.053 40.3306 197.287V209.707H51.274V205.565C51.274 195.445 58.6348 187.234 67.716 187.234C75.8055 187.234 80.8319 193.798 82.0935 202.704L83.0853 209.701H174.559V205.558C174.559 195.438 178.715 187.227 189.881 187.227C199.826 187.227 203.388 193.792 204.94 202.697L206.107 209.404L241.683 207.393V207.252H244.591V190.729H244.598Z" fill="#1EADFF" stroke="#263238" stroke-width="0.674683" stroke-miterlimit="10" stroke-linecap="round" stroke-linejoin="round"/>
<path d="M144.778 174.125H138.261V176.736H144.778V174.125Z" fill="#263238" stroke="#263238" stroke-width="0.674683" stroke-miterlimit="10" stroke-linecap="round" stroke-linejoin="round"/>
<path d="M120.368 147.421L88.1589 168.808H148.361V144.607H127.048C124.531 144.607 122.122 145.619 120.368 147.421Z" fill="#263238" stroke="#263238" stroke-width="0.674683" stroke-miterlimit="10" stroke-linecap="round" stroke-linejoin="round"/>
<path d="M114.026 168.714C113.959 168.39 113.925 168.052 113.925 167.708C113.925 164.942 116.172 162.695 118.938 162.695C121.704 162.695 123.951 164.942 123.951 167.708C123.951 168.052 123.917 168.39 123.85 168.714H126.636C126.677 168.383 126.71 168.052 126.71 167.708C126.71 163.417 123.229 159.936 118.938 159.936C114.647 159.936 111.166 163.417 111.166 167.708C111.166 168.046 111.193 168.383 111.24 168.714H114.026Z" fill="#6E6E6E" stroke="#263238" stroke-width="0.674683" stroke-miterlimit="10" stroke-linecap="round" stroke-linejoin="round"/>
<path d="M134.489 152.548L132.229 155.55L133.484 156.306L135.238 161.569L138.753 160.82L139.003 162.824L144.266 160.82L142.012 157.561L139.003 157.311L134.489 152.548Z" fill="white" stroke="#263238" stroke-width="0.674683" stroke-miterlimit="10" stroke-linecap="round" stroke-linejoin="round"/>
<path d="M136.743 146.274L135.488 148.028C135.488 148.028 125.462 152.292 128.465 153.041C131.474 153.79 140.501 153.54 142.505 153.54C144.509 153.54 148.273 153.79 148.273 153.79L144.259 150.032L139.246 149.026L136.743 146.274Z" fill="white" stroke="#263238" stroke-width="0.674683" stroke-miterlimit="10" stroke-linecap="round" stroke-linejoin="round"/>
<path d="M134.989 168.842L132.735 171.601C132.735 171.601 124.713 167.337 122.959 167.088C121.205 166.838 118.715 168.95 118.715 168.95C118.715 168.95 119.963 168.774 122.831 168.869C125.125 168.95 122.986 170.292 132.985 178.868C133.747 179.522 134.867 179.144 135.495 178.368C136.122 177.592 140.258 170.846 140.258 170.846L134.989 168.842Z" fill="white" stroke="#263238" stroke-width="0.674683" stroke-miterlimit="10" stroke-linecap="round" stroke-linejoin="round"/>
<path d="M140.258 161.319L145.757 159.059L146.937 160.914L142.215 163.107L140.258 161.319Z" fill="white" stroke="#263238" stroke-width="0.674683" stroke-miterlimit="10" stroke-linecap="round" stroke-linejoin="round"/>
<path d="M144.286 165.509C144.441 164.429 144.05 163.343 143.233 162.614C142.363 161.832 141.202 161.049 140.258 161.319C138.504 161.818 132.337 171.635 132.337 171.635L140.649 177.107L144.286 165.509Z" fill="white" stroke="#263238" stroke-width="0.674683" stroke-miterlimit="10" stroke-linecap="round" stroke-linejoin="round"/>
<path d="M120.415 159.207L117.562 160.307L119.862 160.968L120.631 162.614L119.208 163.053C119.208 163.053 120.301 164.146 120.746 164.146C121.185 164.146 122.608 163.815 122.608 163.815L127.432 168.862H133.612L124.335 162.432L121.947 159.646L120.415 159.207Z" fill="white" stroke="#263238" stroke-width="0.674683" stroke-miterlimit="10" stroke-linecap="round" stroke-linejoin="round"/>
<path d="M194.233 148.547L207.929 162.554C208.387 163.019 208.711 163.599 208.866 164.234C209.447 166.555 207.693 168.801 205.297 168.801H152.396V144.607H184.868C188.39 144.607 191.77 146.031 194.233 148.547Z" fill="#263238" stroke="#263238" stroke-width="0.674683" stroke-miterlimit="10" stroke-linecap="round" stroke-linejoin="round"/>
<path d="M181.4 144.607H176.084L156.99 168.808H162.307L181.4 144.607Z" fill="white" stroke="#263238" stroke-width="0.674683" stroke-miterlimit="10" stroke-linecap="round" stroke-linejoin="round"/>
<path d="M152.396 146.321V165.644L168.993 144.607H153.745L152.396 146.321Z" fill="white" stroke="#263238" stroke-width="0.674683" stroke-miterlimit="10" stroke-linecap="round" stroke-linejoin="round"/>
<path d="M238.809 170.535H277.873C279.924 170.535 281.658 172.04 281.948 174.07L284.323 190.728H241.69L238.809 170.535Z" fill="#1EADFF" stroke="#263238" stroke-width="0.674683" stroke-miterlimit="10" stroke-linecap="round" stroke-linejoin="round"/>
<path d="M275.89 179.637H257.363V187.247H275.89V179.637Z" fill="white" stroke="#263238" stroke-width="0.674683" stroke-miterlimit="10" stroke-linecap="round" stroke-linejoin="round"/>
<path d="M286.361 193.839H206.984" stroke="#263238" stroke-width="1.34937" stroke-miterlimit="10" stroke-linecap="round" stroke-linejoin="round"/>
<path d="M171.509 193.839H83.5441" stroke="#263238" stroke-width="1.34937" stroke-miterlimit="10" stroke-linecap="round" stroke-linejoin="round"/>
<path d="M54.337 193.839H44.2708" stroke="#263238" stroke-width="1.34937" stroke-miterlimit="10" stroke-linecap="round" stroke-linejoin="round"/>
<path d="M254.165 179.765H236.663C235.01 179.765 233.499 180.696 232.764 182.174L229.836 188.03C229.249 189.204 230.099 190.58 231.414 190.58H254.171V179.765H254.165Z" fill="white" stroke="#263238" stroke-width="0.674683" stroke-miterlimit="10" stroke-linecap="round" stroke-linejoin="round"/>
<path d="M254.165 179.765H240.064L241.602 190.573H254.165V179.765Z" fill="#263238" stroke="#263238" stroke-width="0.674683" stroke-miterlimit="10" stroke-linecap="round" stroke-linejoin="round"/>
<path d="M282.697 179.765H278.426L278.366 190.573H284.235L282.697 179.765Z" fill="#263238" stroke="#263238" stroke-width="0.674683" stroke-miterlimit="10" stroke-linecap="round" stroke-linejoin="round"/>
<path d="M91.9912 173.268H83.4564C82.7143 173.268 82.1071 172.66 82.1071 171.918V165.111C82.1071 164.369 82.7143 163.761 83.4564 163.761H91.9912C92.7333 163.761 93.3405 164.369 93.3405 165.111V171.918C93.3405 172.667 92.7333 173.268 91.9912 173.268Z" fill="#263238" stroke="#263238" stroke-width="0.674683" stroke-miterlimit="10" stroke-linecap="round" stroke-linejoin="round"/>
<path d="M149.515 171.541V204.384" stroke="#263238" stroke-width="0.674683" stroke-miterlimit="10" stroke-linecap="round" stroke-linejoin="round"/>
<path d="M76.4869 186.235C76.4869 186.235 84.4009 190.701 85.4129 205.97H169.391" stroke="#263238" stroke-width="0.674683" stroke-miterlimit="10" stroke-linecap="round" stroke-linejoin="round"/>
<path d="M209.143 192.712C209.143 192.712 205.007 181.91 191.156 181.91C181.501 181.91 176.886 186.977 174.572 190.985" stroke="#263238" stroke-width="0.674683" stroke-miterlimit="10" stroke-linecap="round" stroke-linejoin="round"/>
</g>
</g>
<defs>
<clipPath id="clip0_1345_56307">
<rect width="343" height="222" fill="white"/>
</clipPath>
<clipPath id="clip1_1345_56307">
<rect width="263.632" height="124" fill="white" transform="translate(40 98)"/>
</clipPath>
</defs>
</svg>
