<svg width="343" height="222" viewBox="0 0 343 222" fill="none" xmlns="http://www.w3.org/2000/svg">
<g clip-path="url(#clip0_1345_55957)">
<path d="M278.367 68.9419C275.821 67.5544 274.655 68.7106 273.73 67.5544C272.804 66.3982 276.276 63.3841 269.323 60.378C269.323 60.378 268.86 53.8952 259.353 53.664C249.846 53.4327 252.401 60.1467 249.846 61.7654C247.3 63.3841 246.598 60.8404 244.051 62.4591C241.505 64.0778 242.662 67.3232 240.571 67.7857C238.488 68.2481 235.702 65.7045 233.155 67.3232C230.609 68.9419 230.609 70.3293 229.444 70.3293C228.286 70.3293 225.963 69.4044 224.574 70.3293C223.185 71.2543 221.565 72.4105 221.565 72.4105H280.203C280.219 72.4185 280.914 70.3293 278.367 68.9419Z" fill="white" stroke="#232529" stroke-width="0.703998" stroke-miterlimit="10"/>
<path d="M133.983 88.8686C132.826 88.2387 132.299 88.7649 131.876 88.2387C131.453 87.7124 133.033 86.3489 129.88 84.9774C129.88 84.9774 129.673 82.035 125.354 81.9314C121.044 81.8277 122.201 84.8737 121.044 85.6073C119.886 86.3409 119.567 85.1847 118.418 85.9263C117.26 86.6599 117.787 88.135 116.837 88.3423C115.887 88.5497 114.626 87.3934 113.469 88.135C112.311 88.8686 112.311 89.4985 111.784 89.4985C111.257 89.4985 110.204 89.0759 109.573 89.4985C108.943 89.9212 108.208 90.4474 108.208 90.4474H134.829C134.821 90.4474 135.141 89.4985 133.983 88.8686Z" fill="white" stroke="#232529" stroke-width="0.703998" stroke-miterlimit="10"/>
<path d="M155.543 21.9202C153.955 21.051 153.228 21.7767 152.654 21.051C152.079 20.3254 154.242 18.4516 149.908 16.5697C149.908 16.5697 149.62 12.527 143.69 12.3755C137.759 12.232 139.347 16.4182 137.759 17.4309C136.17 18.4436 135.731 16.8568 134.143 17.8615C132.554 18.8742 133.273 20.8995 131.972 21.1866C130.67 21.4737 128.93 19.8869 127.342 20.8995C125.753 21.9122 125.753 22.7814 125.027 22.7814C124.301 22.7814 122.856 22.2072 121.986 22.7814C121.116 23.3635 120.102 24.0811 120.102 24.0811H156.701C156.701 24.0891 157.14 22.7893 155.543 21.9202Z" fill="white" stroke="#232529" stroke-width="0.703998" stroke-miterlimit="10"/>
<path d="M52.6912 101.427H46.1777V107.982H52.6912V101.427Z" stroke="#232529" stroke-width="0.703998" stroke-miterlimit="10"/>
<path d="M41.7795 105.39H39.1373V107.974H41.7795V105.39Z" stroke="#232529" stroke-width="0.703998" stroke-miterlimit="10"/>
<path d="M306.601 142.812H281.927V90.8062H283.572V85.4159H225.756V90.8062H227.759V168.145H212.593V2.21674H160.596V127.701H141.582V113.811H146.563V107.934H104.983V23.7461H107.673V19.3446H57.2092V23.7461H60.8252V108.078H20.9456V168.384H0" stroke="#232529" stroke-width="0.703998" stroke-miterlimit="10"/>
<path d="M214.668 0.398682H158.281V2.20077H214.668V0.398682Z" stroke="#232529" stroke-width="0.703998" stroke-miterlimit="10"/>
<path d="M71.6971 28.642H65.3432V35.4358H71.6971V28.642Z" stroke="#232529" stroke-width="0.703998" stroke-miterlimit="10"/>
<path d="M81.0125 28.642H74.6586V35.4358H81.0125V28.642Z" stroke="#232529" stroke-width="0.703998" stroke-miterlimit="10"/>
<path d="M90.3277 28.642H83.9738V35.4358H90.3277V28.642Z" stroke="#232529" stroke-width="0.703998" stroke-miterlimit="10"/>
<path d="M99.6432 28.642H93.2892V35.4358H99.6432V28.642Z" stroke="#232529" stroke-width="0.703998" stroke-miterlimit="10"/>
<path d="M71.6971 39.4147H65.3432V46.2085H71.6971V39.4147Z" stroke="#232529" stroke-width="0.703998" stroke-miterlimit="10"/>
<path d="M81.0125 39.4147H74.6586V46.2085H81.0125V39.4147Z" stroke="#232529" stroke-width="0.703998" stroke-miterlimit="10"/>
<path d="M90.3277 39.4147H83.9738V46.2085H90.3277V39.4147Z" stroke="#232529" stroke-width="0.703998" stroke-miterlimit="10"/>
<path d="M99.6432 39.4147H93.2892V46.2085H99.6432V39.4147Z" stroke="#232529" stroke-width="0.703998" stroke-miterlimit="10"/>
<path d="M71.6971 50.1794H65.3432V56.9731H71.6971V50.1794Z" stroke="#232529" stroke-width="0.703998" stroke-miterlimit="10"/>
<path d="M81.0125 50.1794H74.6586V56.9731H81.0125V50.1794Z" stroke="#232529" stroke-width="0.703998" stroke-miterlimit="10"/>
<path d="M90.3277 50.1794H83.9738V56.9731H90.3277V50.1794Z" stroke="#232529" stroke-width="0.703998" stroke-miterlimit="10"/>
<path d="M99.6432 50.1794H93.2892V56.9731H99.6432V50.1794Z" stroke="#232529" stroke-width="0.703998" stroke-miterlimit="10"/>
<path d="M71.6971 60.9441H65.3432V67.7378H71.6971V60.9441Z" stroke="#232529" stroke-width="0.703998" stroke-miterlimit="10"/>
<path d="M81.0125 60.9441H74.6586V67.7378H81.0125V60.9441Z" stroke="#232529" stroke-width="0.703998" stroke-miterlimit="10"/>
<path d="M90.3277 60.9441H83.9738V67.7378H90.3277V60.9441Z" stroke="#232529" stroke-width="0.703998" stroke-miterlimit="10"/>
<path d="M99.6432 60.9441H93.2892V67.7378H99.6432V60.9441Z" stroke="#232529" stroke-width="0.703998" stroke-miterlimit="10"/>
<path d="M71.6971 71.7168H65.3432V78.5105H71.6971V71.7168Z" stroke="#232529" stroke-width="0.703998" stroke-miterlimit="10"/>
<path d="M81.0125 71.7168H74.6586V78.5105H81.0125V71.7168Z" stroke="#232529" stroke-width="0.703998" stroke-miterlimit="10"/>
<path d="M90.3277 71.7168H83.9738V78.5105H90.3277V71.7168Z" stroke="#232529" stroke-width="0.703998" stroke-miterlimit="10"/>
<path d="M99.6432 71.7168H93.2892V78.5105H99.6432V71.7168Z" stroke="#232529" stroke-width="0.703998" stroke-miterlimit="10"/>
<path d="M71.6971 82.4814H65.3432V89.2752H71.6971V82.4814Z" stroke="#232529" stroke-width="0.703998" stroke-miterlimit="10"/>
<path d="M81.0125 82.4814H74.6586V89.2752H81.0125V82.4814Z" stroke="#232529" stroke-width="0.703998" stroke-miterlimit="10"/>
<path d="M90.3277 82.4814H83.9738V89.2752H90.3277V82.4814Z" stroke="#232529" stroke-width="0.703998" stroke-miterlimit="10"/>
<path d="M99.6432 82.4814H93.2892V89.2752H99.6432V82.4814Z" stroke="#232529" stroke-width="0.703998" stroke-miterlimit="10"/>
<path d="M71.6971 93.2541H65.3432V100.048H71.6971V93.2541Z" stroke="#232529" stroke-width="0.703998" stroke-miterlimit="10"/>
<path d="M81.0125 93.2541H74.6586V100.048H81.0125V93.2541Z" stroke="#232529" stroke-width="0.703998" stroke-miterlimit="10"/>
<path d="M90.3277 93.2541H83.9738V100.048H90.3277V93.2541Z" stroke="#232529" stroke-width="0.703998" stroke-miterlimit="10"/>
<path d="M99.6432 93.2541H93.2892V100.048H99.6432V93.2541Z" stroke="#232529" stroke-width="0.703998" stroke-miterlimit="10"/>
<path d="M71.6971 104.019H65.3432V110.813H71.6971V104.019Z" stroke="#232529" stroke-width="0.703998" stroke-miterlimit="10"/>
<path d="M81.0125 104.019H74.6586V110.813H81.0125V104.019Z" stroke="#232529" stroke-width="0.703998" stroke-miterlimit="10"/>
<path d="M90.3277 104.019H83.9738V110.813H90.3277V104.019Z" stroke="#232529" stroke-width="0.703998" stroke-miterlimit="10"/>
<path d="M99.6432 104.019H93.2892V110.813H99.6432V104.019Z" stroke="#232529" stroke-width="0.703998" stroke-miterlimit="10"/>
<path d="M71.6971 113.867H65.3432V120.66H71.6971V113.867Z" stroke="#232529" stroke-width="0.703998" stroke-miterlimit="10"/>
<path d="M81.0125 113.867H74.6586V120.66H81.0125V113.867Z" stroke="#232529" stroke-width="0.703998" stroke-miterlimit="10"/>
<path d="M90.3277 113.867H83.9738V120.66H90.3277V113.867Z" stroke="#232529" stroke-width="0.703998" stroke-miterlimit="10"/>
<path d="M99.6432 113.867H93.2892V120.66H99.6432V113.867Z" stroke="#232529" stroke-width="0.703998" stroke-miterlimit="10"/>
<path d="M71.6971 124.639H65.3432V131.433H71.6971V124.639Z" stroke="#232529" stroke-width="0.703998" stroke-miterlimit="10"/>
<path d="M81.0125 124.639H74.6586V131.433H81.0125V124.639Z" stroke="#232529" stroke-width="0.703998" stroke-miterlimit="10"/>
<path d="M90.3277 124.639H83.9738V131.433H90.3277V124.639Z" stroke="#232529" stroke-width="0.703998" stroke-miterlimit="10"/>
<path d="M99.6432 124.639H93.2892V131.433H99.6432V124.639Z" stroke="#232529" stroke-width="0.703998" stroke-miterlimit="10"/>
<path d="M71.6971 135.404H65.3432V142.198H71.6971V135.404Z" stroke="#232529" stroke-width="0.703998" stroke-miterlimit="10"/>
<path d="M81.0125 135.404H74.6586V142.198H81.0125V135.404Z" stroke="#232529" stroke-width="0.703998" stroke-miterlimit="10"/>
<path d="M90.3277 135.404H83.9738V142.198H90.3277V135.404Z" stroke="#232529" stroke-width="0.703998" stroke-miterlimit="10"/>
<path d="M99.6432 135.404H93.2892V142.198H99.6432V135.404Z" stroke="#232529" stroke-width="0.703998" stroke-miterlimit="10"/>
<path d="M71.6971 146.169H65.3432V152.962H71.6971V146.169Z" stroke="#232529" stroke-width="0.703998" stroke-miterlimit="10"/>
<path d="M81.0125 146.169H74.6586V152.962H81.0125V146.169Z" stroke="#232529" stroke-width="0.703998" stroke-miterlimit="10"/>
<path d="M90.3277 146.169H83.9738V152.962H90.3277V146.169Z" stroke="#232529" stroke-width="0.703998" stroke-miterlimit="10"/>
<path d="M99.6432 146.169H93.2892V152.962H99.6432V146.169Z" stroke="#232529" stroke-width="0.703998" stroke-miterlimit="10"/>
<path d="M71.6971 156.941H65.3432V163.735H71.6971V156.941Z" stroke="#232529" stroke-width="0.703998" stroke-miterlimit="10"/>
<path d="M81.0125 156.941H74.6586V163.735H81.0125V156.941Z" stroke="#232529" stroke-width="0.703998" stroke-miterlimit="10"/>
<path d="M90.3277 156.941H83.9738V163.735H90.3277V156.941Z" stroke="#232529" stroke-width="0.703998" stroke-miterlimit="10"/>
<path d="M99.6432 156.941H93.2892V163.735H99.6432V156.941Z" stroke="#232529" stroke-width="0.703998" stroke-miterlimit="10"/>
<path d="M71.6971 167.706H65.3432V174.5H71.6971V167.706Z" stroke="#232529" stroke-width="0.703998" stroke-miterlimit="10"/>
<path d="M81.0125 167.706H74.6586V174.5H81.0125V167.706Z" stroke="#232529" stroke-width="0.703998" stroke-miterlimit="10"/>
<path d="M90.3277 167.706H83.9738V174.5H90.3277V167.706Z" stroke="#232529" stroke-width="0.703998" stroke-miterlimit="10"/>
<path d="M99.6432 167.706H93.2892V174.5H99.6432V167.706Z" stroke="#232529" stroke-width="0.703998" stroke-miterlimit="10"/>
<path d="M71.6971 178.479H65.3432V185.272H71.6971V178.479Z" stroke="#232529" stroke-width="0.703998" stroke-miterlimit="10"/>
<path d="M81.0125 178.479H74.6586V185.272H81.0125V178.479Z" stroke="#232529" stroke-width="0.703998" stroke-miterlimit="10"/>
<path d="M90.3277 178.479H83.9738V185.272H90.3277V178.479Z" stroke="#232529" stroke-width="0.703998" stroke-miterlimit="10"/>
<path d="M99.6432 178.479H93.2892V185.272H99.6432V178.479Z" stroke="#232529" stroke-width="0.703998" stroke-miterlimit="10"/>
<path d="M71.6971 189.243H65.3432V196.037H71.6971V189.243Z" stroke="#232529" stroke-width="0.703998" stroke-miterlimit="10"/>
<path d="M81.0125 189.243H74.6586V196.037H81.0125V189.243Z" stroke="#232529" stroke-width="0.703998" stroke-miterlimit="10"/>
<path d="M90.3277 189.243H83.9738V196.037H90.3277V189.243Z" stroke="#232529" stroke-width="0.703998" stroke-miterlimit="10"/>
<path d="M99.6432 189.243H93.2892V196.037H99.6432V189.243Z" stroke="#232529" stroke-width="0.703998" stroke-miterlimit="10"/>
<path d="M108.081 113.867H101.727V120.66H108.081V113.867Z" stroke="#232529" stroke-width="0.703998" stroke-miterlimit="10"/>
<path d="M117.396 113.867H111.042V120.66H117.396V113.867Z" stroke="#232529" stroke-width="0.703998" stroke-miterlimit="10"/>
<path d="M126.711 113.867H120.357V120.66H126.711V113.867Z" stroke="#232529" stroke-width="0.703998" stroke-miterlimit="10"/>
<path d="M136.027 113.867H129.673V120.66H136.027V113.867Z" stroke="#232529" stroke-width="0.703998" stroke-miterlimit="10"/>
<path d="M108.081 124.639H101.727V131.433H108.081V124.639Z" stroke="#232529" stroke-width="0.703998" stroke-miterlimit="10"/>
<path d="M117.396 124.639H111.042V131.433H117.396V124.639Z" stroke="#232529" stroke-width="0.703998" stroke-miterlimit="10"/>
<path d="M126.711 124.639H120.357V131.433H126.711V124.639Z" stroke="#232529" stroke-width="0.703998" stroke-miterlimit="10"/>
<path d="M136.027 124.639H129.673V131.433H136.027V124.639Z" stroke="#232529" stroke-width="0.703998" stroke-miterlimit="10"/>
<path d="M108.081 135.404H101.727V142.198H108.081V135.404Z" stroke="#232529" stroke-width="0.703998" stroke-miterlimit="10"/>
<path d="M117.396 135.404H111.042V142.198H117.396V135.404Z" stroke="#232529" stroke-width="0.703998" stroke-miterlimit="10"/>
<path d="M126.711 135.404H120.357V142.198H126.711V135.404Z" stroke="#232529" stroke-width="0.703998" stroke-miterlimit="10"/>
<path d="M136.027 135.404H129.673V142.198H136.027V135.404Z" stroke="#232529" stroke-width="0.703998" stroke-miterlimit="10"/>
<path d="M108.081 146.169H101.727V152.962H108.081V146.169Z" stroke="#232529" stroke-width="0.703998" stroke-miterlimit="10"/>
<path d="M117.396 146.169H111.042V152.962H117.396V146.169Z" stroke="#232529" stroke-width="0.703998" stroke-miterlimit="10"/>
<path d="M126.711 146.169H120.357V152.962H126.711V146.169Z" stroke="#232529" stroke-width="0.703998" stroke-miterlimit="10"/>
<path d="M136.027 146.169H129.673V152.962H136.027V146.169Z" stroke="#232529" stroke-width="0.703998" stroke-miterlimit="10"/>
<path d="M108.081 156.941H101.727V163.735H108.081V156.941Z" stroke="#232529" stroke-width="0.703998" stroke-miterlimit="10"/>
<path d="M117.396 156.941H111.042V163.735H117.396V156.941Z" stroke="#232529" stroke-width="0.703998" stroke-miterlimit="10"/>
<path d="M126.711 156.941H120.357V163.735H126.711V156.941Z" stroke="#232529" stroke-width="0.703998" stroke-miterlimit="10"/>
<path d="M136.027 156.941H129.673V163.735H136.027V156.941Z" stroke="#232529" stroke-width="0.703998" stroke-miterlimit="10"/>
<path d="M108.081 167.706H101.727V174.5H108.081V167.706Z" stroke="#232529" stroke-width="0.703998" stroke-miterlimit="10"/>
<path d="M117.396 167.706H111.042V174.5H117.396V167.706Z" stroke="#232529" stroke-width="0.703998" stroke-miterlimit="10"/>
<path d="M126.711 167.706H120.357V174.5H126.711V167.706Z" stroke="#232529" stroke-width="0.703998" stroke-miterlimit="10"/>
<path d="M136.027 167.706H129.673V174.5H136.027V167.706Z" stroke="#232529" stroke-width="0.703998" stroke-miterlimit="10"/>
<path d="M108.081 178.479H101.727V185.272H108.081V178.479Z" stroke="#232529" stroke-width="0.703998" stroke-miterlimit="10"/>
<path d="M117.396 178.479H111.042V185.272H117.396V178.479Z" stroke="#232529" stroke-width="0.703998" stroke-miterlimit="10"/>
<path d="M126.711 178.479H120.357V185.272H126.711V178.479Z" stroke="#232529" stroke-width="0.703998" stroke-miterlimit="10"/>
<path d="M136.027 178.479H129.673V185.272H136.027V178.479Z" stroke="#232529" stroke-width="0.703998" stroke-miterlimit="10"/>
<path d="M108.081 189.243H101.727V196.037H108.081V189.243Z" stroke="#232529" stroke-width="0.703998" stroke-miterlimit="10"/>
<path d="M117.396 189.243H111.042V196.037H117.396V189.243Z" stroke="#232529" stroke-width="0.703998" stroke-miterlimit="10"/>
<path d="M126.711 189.243H120.357V196.037H126.711V189.243Z" stroke="#232529" stroke-width="0.703998" stroke-miterlimit="10"/>
<path d="M136.027 189.243H129.673V196.037H136.027V189.243Z" stroke="#232529" stroke-width="0.703998" stroke-miterlimit="10"/>
<path d="M34.803 113.867H28.4491V120.66H34.803V113.867Z" stroke="#232529" stroke-width="0.703998" stroke-miterlimit="10"/>
<path d="M44.1182 113.867H37.7643V120.66H44.1182V113.867Z" stroke="#232529" stroke-width="0.703998" stroke-miterlimit="10"/>
<path d="M53.4335 113.867H47.0796V120.66H53.4335V113.867Z" stroke="#232529" stroke-width="0.703998" stroke-miterlimit="10"/>
<path d="M62.749 113.867H56.3951V120.66H62.749V113.867Z" stroke="#232529" stroke-width="0.703998" stroke-miterlimit="10"/>
<path d="M34.803 124.639H28.4491V131.433H34.803V124.639Z" stroke="#232529" stroke-width="0.703998" stroke-miterlimit="10"/>
<path d="M44.1182 124.639H37.7643V131.433H44.1182V124.639Z" stroke="#232529" stroke-width="0.703998" stroke-miterlimit="10"/>
<path d="M53.4335 124.639H47.0796V131.433H53.4335V124.639Z" stroke="#232529" stroke-width="0.703998" stroke-miterlimit="10"/>
<path d="M62.749 124.639H56.3951V131.433H62.749V124.639Z" stroke="#232529" stroke-width="0.703998" stroke-miterlimit="10"/>
<path d="M34.803 135.404H28.4491V142.198H34.803V135.404Z" stroke="#232529" stroke-width="0.703998" stroke-miterlimit="10"/>
<path d="M44.1182 135.404H37.7643V142.198H44.1182V135.404Z" stroke="#232529" stroke-width="0.703998" stroke-miterlimit="10"/>
<path d="M53.4335 135.404H47.0796V142.198H53.4335V135.404Z" stroke="#232529" stroke-width="0.703998" stroke-miterlimit="10"/>
<path d="M62.749 135.404H56.3951V142.198H62.749V135.404Z" stroke="#232529" stroke-width="0.703998" stroke-miterlimit="10"/>
<path d="M34.803 146.169H28.4491V152.962H34.803V146.169Z" stroke="#232529" stroke-width="0.703998" stroke-miterlimit="10"/>
<path d="M44.1182 146.169H37.7643V152.962H44.1182V146.169Z" stroke="#232529" stroke-width="0.703998" stroke-miterlimit="10"/>
<path d="M53.4335 146.169H47.0796V152.962H53.4335V146.169Z" stroke="#232529" stroke-width="0.703998" stroke-miterlimit="10"/>
<path d="M62.749 146.169H56.3951V152.962H62.749V146.169Z" stroke="#232529" stroke-width="0.703998" stroke-miterlimit="10"/>
<path d="M34.803 156.941H28.4491V163.735H34.803V156.941Z" stroke="#232529" stroke-width="0.703998" stroke-miterlimit="10"/>
<path d="M44.1182 156.941H37.7643V163.735H44.1182V156.941Z" stroke="#232529" stroke-width="0.703998" stroke-miterlimit="10"/>
<path d="M53.4335 156.941H47.0796V163.735H53.4335V156.941Z" stroke="#232529" stroke-width="0.703998" stroke-miterlimit="10"/>
<path d="M62.749 156.941H56.3951V163.735H62.749V156.941Z" stroke="#232529" stroke-width="0.703998" stroke-miterlimit="10"/>
<path d="M34.803 167.706H28.4491V174.5H34.803V167.706Z" stroke="#232529" stroke-width="0.703998" stroke-miterlimit="10"/>
<path d="M44.1182 167.706H37.7643V174.5H44.1182V167.706Z" stroke="#232529" stroke-width="0.703998" stroke-miterlimit="10"/>
<path d="M53.4335 167.706H47.0796V174.5H53.4335V167.706Z" stroke="#232529" stroke-width="0.703998" stroke-miterlimit="10"/>
<path d="M62.749 167.706H56.3951V174.5H62.749V167.706Z" stroke="#232529" stroke-width="0.703998" stroke-miterlimit="10"/>
<path d="M34.803 178.479H28.4491V185.272H34.803V178.479Z" stroke="#232529" stroke-width="0.703998" stroke-miterlimit="10"/>
<path d="M44.1182 178.479H37.7643V185.272H44.1182V178.479Z" stroke="#232529" stroke-width="0.703998" stroke-miterlimit="10"/>
<path d="M53.4335 178.479H47.0796V185.272H53.4335V178.479Z" stroke="#232529" stroke-width="0.703998" stroke-miterlimit="10"/>
<path d="M62.749 178.479H56.3951V185.272H62.749V178.479Z" stroke="#232529" stroke-width="0.703998" stroke-miterlimit="10"/>
<path d="M34.803 189.243H28.4491V196.037H34.803V189.243Z" stroke="#232529" stroke-width="0.703998" stroke-miterlimit="10"/>
<path d="M44.1182 189.243H37.7643V196.037H44.1182V189.243Z" stroke="#232529" stroke-width="0.703998" stroke-miterlimit="10"/>
<path d="M53.4335 189.243H47.0796V196.037H53.4335V189.243Z" stroke="#232529" stroke-width="0.703998" stroke-miterlimit="10"/>
<path d="M62.749 189.243H56.3951V196.037H62.749V189.243Z" stroke="#232529" stroke-width="0.703998" stroke-miterlimit="10"/>
<path d="M242.894 92.7598H236.54V99.5535H242.894V92.7598Z" stroke="#232529" stroke-width="0.703998" stroke-miterlimit="10"/>
<path d="M252.209 92.7598H245.855V99.5535H252.209V92.7598Z" stroke="#232529" stroke-width="0.703998" stroke-miterlimit="10"/>
<path d="M261.525 92.7598H255.171V99.5535H261.525V92.7598Z" stroke="#232529" stroke-width="0.703998" stroke-miterlimit="10"/>
<path d="M270.84 92.7598H264.486V99.5535H270.84V92.7598Z" stroke="#232529" stroke-width="0.703998" stroke-miterlimit="10"/>
<path d="M242.894 103.533H236.54V110.326H242.894V103.533Z" stroke="#232529" stroke-width="0.703998" stroke-miterlimit="10"/>
<path d="M252.209 103.533H245.855V110.326H252.209V103.533Z" stroke="#232529" stroke-width="0.703998" stroke-miterlimit="10"/>
<path d="M261.525 103.533H255.171V110.326H261.525V103.533Z" stroke="#232529" stroke-width="0.703998" stroke-miterlimit="10"/>
<path d="M270.84 103.533H264.486V110.326H270.84V103.533Z" stroke="#232529" stroke-width="0.703998" stroke-miterlimit="10"/>
<path d="M242.894 114.297H236.54V121.091H242.894V114.297Z" stroke="#232529" stroke-width="0.703998" stroke-miterlimit="10"/>
<path d="M252.209 114.297H245.855V121.091H252.209V114.297Z" stroke="#232529" stroke-width="0.703998" stroke-miterlimit="10"/>
<path d="M261.525 114.297H255.171V121.091H261.525V114.297Z" stroke="#232529" stroke-width="0.703998" stroke-miterlimit="10"/>
<path d="M270.84 114.297H264.486V121.091H270.84V114.297Z" stroke="#232529" stroke-width="0.703998" stroke-miterlimit="10"/>
<path d="M242.894 125.062H236.54V131.856H242.894V125.062Z" stroke="#232529" stroke-width="0.703998" stroke-miterlimit="10"/>
<path d="M252.209 125.062H245.855V131.856H252.209V125.062Z" stroke="#232529" stroke-width="0.703998" stroke-miterlimit="10"/>
<path d="M261.525 125.062H255.171V131.856H261.525V125.062Z" stroke="#232529" stroke-width="0.703998" stroke-miterlimit="10"/>
<path d="M270.84 125.062H264.486V131.856H270.84V125.062Z" stroke="#232529" stroke-width="0.703998" stroke-miterlimit="10"/>
<path d="M242.894 135.835H236.54V142.628H242.894V135.835Z" stroke="#232529" stroke-width="0.703998" stroke-miterlimit="10"/>
<path d="M252.209 135.835H245.855V142.628H252.209V135.835Z" stroke="#232529" stroke-width="0.703998" stroke-miterlimit="10"/>
<path d="M261.525 135.835H255.171V142.628H261.525V135.835Z" stroke="#232529" stroke-width="0.703998" stroke-miterlimit="10"/>
<path d="M270.84 135.835H264.486V142.628H270.84V135.835Z" stroke="#232529" stroke-width="0.703998" stroke-miterlimit="10"/>
<path d="M242.894 146.599H236.54V153.393H242.894V146.599Z" stroke="#232529" stroke-width="0.703998" stroke-miterlimit="10"/>
<path d="M252.209 146.599H245.855V153.393H252.209V146.599Z" stroke="#232529" stroke-width="0.703998" stroke-miterlimit="10"/>
<path d="M261.525 146.599H255.171V153.393H261.525V146.599Z" stroke="#232529" stroke-width="0.703998" stroke-miterlimit="10"/>
<path d="M270.84 146.599H264.486V153.393H270.84V146.599Z" stroke="#232529" stroke-width="0.703998" stroke-miterlimit="10"/>
<path d="M242.894 157.372H236.54V164.166H242.894V157.372Z" stroke="#232529" stroke-width="0.703998" stroke-miterlimit="10"/>
<path d="M252.209 157.372H245.855V164.166H252.209V157.372Z" stroke="#232529" stroke-width="0.703998" stroke-miterlimit="10"/>
<path d="M261.525 157.372H255.171V164.166H261.525V157.372Z" stroke="#232529" stroke-width="0.703998" stroke-miterlimit="10"/>
<path d="M270.84 157.372H264.486V164.166H270.84V157.372Z" stroke="#232529" stroke-width="0.703998" stroke-miterlimit="10"/>
<path d="M242.894 168.137H236.54V174.93H242.894V168.137Z" stroke="#232529" stroke-width="0.703998" stroke-miterlimit="10"/>
<path d="M252.209 168.137H245.855V174.93H252.209V168.137Z" stroke="#232529" stroke-width="0.703998" stroke-miterlimit="10"/>
<path d="M261.525 168.137H255.171V174.93H261.525V168.137Z" stroke="#232529" stroke-width="0.703998" stroke-miterlimit="10"/>
<path d="M270.84 168.137H264.486V174.93H270.84V168.137Z" stroke="#232529" stroke-width="0.703998" stroke-miterlimit="10"/>
<path d="M165.497 6.1319V202.887" stroke="#232529" stroke-width="0.703998" stroke-miterlimit="10"/>
<path d="M171.795 6.1319V202.887" stroke="#232529" stroke-width="0.703998" stroke-miterlimit="10"/>
<path d="M178.093 6.1319V202.887" stroke="#232529" stroke-width="0.703998" stroke-miterlimit="10"/>
<path d="M184.391 6.1319V202.887" stroke="#232529" stroke-width="0.703998" stroke-miterlimit="10"/>
<path d="M190.689 6.1319V202.887" stroke="#232529" stroke-width="0.703998" stroke-miterlimit="10"/>
<path d="M196.988 6.1319V202.887" stroke="#232529" stroke-width="0.703998" stroke-miterlimit="10"/>
<path d="M203.294 6.1319V202.887" stroke="#232529" stroke-width="0.703998" stroke-miterlimit="10"/>
<path d="M209.592 6.1319V202.887" stroke="#232529" stroke-width="0.703998" stroke-miterlimit="10"/>
<path d="M145.661 199.458H32.7115V205.821H145.661V199.458Z" stroke="#232529" stroke-width="0.703998" stroke-miterlimit="10"/>
<path d="M316.403 199.458H214.98V205.821H316.403V199.458Z" stroke="#232529" stroke-width="0.703998" stroke-miterlimit="10"/>
<path d="M205.505 199.211C205.505 199.211 216.576 200.303 222.188 207.161C222.188 207.161 228.118 199.219 238.767 199.378C241.856 195.654 243.716 190.878 243.716 185.671C243.724 173.798 234.089 164.174 222.204 164.166C210.318 164.158 200.683 173.782 200.675 185.655C200.675 190.798 202.479 195.527 205.505 199.227V199.211Z" fill="#FEA735"/>
<path opacity="0.5" d="M205.505 199.211C205.505 199.211 216.576 200.303 222.188 207.161C222.188 207.161 228.118 199.219 238.767 199.378C241.856 195.654 243.716 190.878 243.716 185.671C243.724 173.798 234.089 164.174 222.204 164.166C210.318 164.158 200.683 173.782 200.675 185.655C200.675 190.798 202.479 195.527 205.505 199.227V199.211Z" fill="white"/>
<path d="M221.821 165.681L221.445 221.123H223.313L221.821 165.681Z" fill="#232529"/>
<path d="M222.379 205.072C222.379 205.072 226.115 198.35 232.844 196.3C232.844 196.3 225.74 197.983 222.196 203.764L222.379 205.072Z" fill="#232529"/>
<path d="M222.379 186.03C222.379 186.03 226.115 179.308 232.844 177.259C232.844 177.259 225.74 178.941 222.196 184.722L222.379 186.03Z" fill="#232529"/>
<path d="M222.379 195.551C222.379 195.551 226.115 188.829 232.844 186.779C232.844 186.779 225.74 188.462 222.196 194.243L222.379 195.551Z" fill="#232529"/>
<path d="M221.829 190.886C221.829 190.886 218.221 184.164 211.731 182.115C211.731 182.115 218.58 183.797 222.012 189.578L221.829 190.886Z" fill="#232529"/>
<path d="M221.829 200.215C221.829 200.215 218.221 193.493 211.731 191.444C211.731 191.444 218.58 193.127 222.012 198.908L221.829 200.215Z" fill="#232529"/>
<path d="M257.653 195.008C257.653 195.008 270.848 196.316 277.537 204.481C277.537 204.481 284.601 195.016 297.293 195.208C300.973 190.774 303.192 185.081 303.192 178.869C303.2 164.724 291.722 153.249 277.553 153.241C263.392 153.233 251.898 164.7 251.898 178.853C251.898 184.985 254.053 190.615 257.653 195.032V195.008Z" fill="#FEA735"/>
<path opacity="0.5" d="M257.653 195.008C257.653 195.008 270.848 196.316 277.537 204.481C277.537 204.481 284.601 195.016 297.293 195.208C300.973 190.774 303.192 185.081 303.192 178.869C303.2 164.724 291.722 153.249 277.553 153.241C263.392 153.233 251.898 164.7 251.898 178.853C251.898 184.985 254.053 190.615 257.653 195.032V195.008Z" fill="white"/>
<path d="M277.098 155.051L276.651 221.123H278.878L277.098 155.051Z" fill="#232529"/>
<path d="M277.768 201.994C277.768 201.994 282.222 193.988 290.237 191.54C290.237 191.54 281.775 193.541 277.545 200.439L277.768 201.994Z" fill="#232529"/>
<path d="M277.768 179.3C277.768 179.3 282.222 171.294 290.237 168.846C290.237 168.846 281.775 170.848 277.545 177.745L277.768 179.3Z" fill="#232529"/>
<path d="M277.768 190.647C277.768 190.647 282.222 182.641 290.237 180.193C290.237 180.193 281.775 182.194 277.545 189.092L277.768 190.647Z" fill="#232529"/>
<path d="M277.106 185.081C277.106 185.081 272.811 177.075 265.068 174.627C265.068 174.627 273.234 176.629 277.321 183.526L277.106 185.081Z" fill="#232529"/>
<path d="M277.106 196.205C277.106 196.205 272.811 188.199 265.068 185.751C265.068 185.751 273.234 187.752 277.321 194.65L277.106 196.205Z" fill="#232529"/>
<path d="M310.767 202.639C310.767 202.639 320.107 203.564 324.84 209.345C324.84 209.345 329.845 202.647 338.825 202.783C341.435 199.641 343 195.614 343 191.221C343 181.206 334.882 173.08 324.848 173.08C314.822 173.08 306.688 181.19 306.688 191.213C306.688 195.551 308.213 199.538 310.759 202.663L310.767 202.639Z" fill="#FEA735"/>
<path opacity="0.5" d="M310.767 202.639C310.767 202.639 320.107 203.564 324.84 209.345C324.84 209.345 329.845 202.647 338.825 202.783C341.435 199.641 343 195.614 343 191.221C343 181.206 334.882 173.08 324.848 173.08C314.822 173.08 306.688 181.19 306.688 191.213C306.688 195.551 308.213 199.538 310.759 202.663L310.767 202.639Z" fill="white"/>
<path d="M324.529 174.356L324.209 221.123H325.79L324.529 174.356Z" fill="#232529"/>
<path d="M325 207.583C325 207.583 328.153 201.914 333.828 200.183C333.828 200.183 327.841 201.603 324.84 206.483L325 207.583Z" fill="#232529"/>
<path d="M325 191.516C325 191.516 328.153 185.846 333.828 184.116C333.828 184.116 327.841 185.536 324.84 190.416L325 191.516Z" fill="#232529"/>
<path d="M325 199.554C325 199.554 328.153 193.884 333.828 192.154C333.828 192.154 327.841 193.573 324.84 198.453L325 199.554Z" fill="#232529"/>
<path d="M324.537 195.614C324.537 195.614 321.495 189.945 316.02 188.215C316.02 188.215 321.799 189.634 324.688 194.514L324.537 195.614Z" fill="#232529"/>
<path d="M324.537 203.485C324.537 203.485 321.495 197.815 316.02 196.085C316.02 196.085 321.799 197.504 324.688 202.384L324.537 203.485Z" fill="#232529"/>
<path d="M12.7079 199.211C12.7079 199.211 23.7793 200.303 29.3909 207.161C29.3909 207.161 35.3217 199.219 45.9702 199.378C49.0593 195.654 50.9192 190.878 50.9192 185.671C50.9272 173.798 41.2925 164.174 29.4069 164.166C17.5212 164.158 7.88654 173.782 7.87856 185.655C7.87856 190.798 9.69054 195.527 12.7079 199.227V199.211Z" fill="#FEA735"/>
<path opacity="0.5" d="M12.7079 199.211C12.7079 199.211 23.7793 200.303 29.3909 207.161C29.3909 207.161 35.3217 199.219 45.9702 199.378C49.0593 195.654 50.9192 190.878 50.9192 185.671C50.9272 173.798 41.2925 164.174 29.4069 164.166C17.5212 164.158 7.88654 173.782 7.87856 185.655C7.87856 190.798 9.69054 195.527 12.7079 199.227V199.211Z" fill="white"/>
<path d="M29.0238 165.681L28.6486 221.123H30.5165L29.0238 165.681Z" fill="#232529"/>
<path d="M29.5826 205.072C29.5826 205.072 33.3183 198.35 40.0474 196.3C40.0474 196.3 32.9431 197.983 29.399 203.764L29.5826 205.072Z" fill="#232529"/>
<path d="M29.5826 186.03C29.5826 186.03 33.3183 179.308 40.0474 177.259C40.0474 177.259 32.9431 178.941 29.399 184.722L29.5826 186.03Z" fill="#232529"/>
<path d="M29.5826 195.551C29.5826 195.551 33.3183 188.829 40.0474 186.779C40.0474 186.779 32.9431 188.462 29.399 194.243L29.5826 195.551Z" fill="#232529"/>
<path d="M29.0317 190.886C29.0317 190.886 25.4237 184.164 18.9341 182.115C18.9341 182.115 25.7829 183.797 29.2153 189.578L29.0317 190.886Z" fill="#232529"/>
<path d="M29.0317 200.215C29.0317 200.215 25.4237 193.493 18.9341 191.444C18.9341 191.444 25.7829 193.127 29.2153 198.908L29.0317 200.215Z" fill="#232529"/>
<path d="M64.8565 195.008C64.8565 195.008 78.0512 196.316 84.7404 204.481C84.7404 204.481 91.8048 195.016 104.497 195.208C108.176 190.774 110.396 185.081 110.396 178.869C110.404 164.724 98.925 153.249 84.7564 153.241C70.5957 153.233 59.1012 164.7 59.1012 178.853C59.1012 184.985 61.2564 190.615 64.8565 195.032V195.008Z" fill="#FEA735"/>
<path opacity="0.5" d="M64.8565 195.008C64.8565 195.008 78.0512 196.316 84.7404 204.481C84.7404 204.481 91.8048 195.016 104.497 195.208C108.176 190.774 110.396 185.081 110.396 178.869C110.404 164.724 98.925 153.249 84.7564 153.241C70.5957 153.233 59.1012 164.7 59.1012 178.853C59.1012 184.985 61.2564 190.615 64.8565 195.032V195.008Z" fill="white"/>
<path d="M84.3013 155.051L83.8543 221.123H86.0814L84.3013 155.051Z" fill="#232529"/>
<path d="M84.9639 201.994C84.9639 201.994 89.418 193.988 97.4323 191.54C97.4323 191.54 88.971 193.541 84.7404 200.439L84.9639 201.994Z" fill="#232529"/>
<path d="M84.9639 179.3C84.9639 179.3 89.418 171.294 97.4323 168.846C97.4323 168.846 88.971 170.848 84.7404 177.745L84.9639 179.3Z" fill="#232529"/>
<path d="M84.9639 190.647C84.9639 190.647 89.418 182.641 97.4323 180.193C97.4323 180.193 88.971 182.194 84.7404 189.092L84.9639 190.647Z" fill="#232529"/>
<path d="M84.3093 185.081C84.3093 185.081 80.0148 177.075 72.272 174.627C72.272 174.627 80.4379 176.629 84.5249 183.526L84.3093 185.081Z" fill="#232529"/>
<path d="M84.3093 196.205C84.3093 196.205 80.0148 188.199 72.272 185.751C72.272 185.751 80.4379 187.752 84.5249 194.65L84.3093 196.205Z" fill="#232529"/>
<path d="M117.963 202.639C117.963 202.639 127.302 203.564 132.036 209.345C132.036 209.345 137.04 202.647 146.021 202.783C148.631 199.641 150.195 195.614 150.195 191.221C150.195 181.206 142.077 173.08 132.044 173.08C122.018 173.08 113.884 181.19 113.884 191.213C113.884 195.551 115.408 199.538 117.955 202.663L117.963 202.639Z" fill="#FEA735"/>
<path opacity="0.5" d="M117.963 202.639C117.963 202.639 127.302 203.564 132.036 209.345C132.036 209.345 137.04 202.647 146.021 202.783C148.631 199.641 150.195 195.614 150.195 191.221C150.195 181.206 142.077 173.08 132.044 173.08C122.018 173.08 113.884 181.19 113.884 191.213C113.884 195.551 115.408 199.538 117.955 202.663L117.963 202.639Z" fill="white"/>
<path d="M131.732 174.356L131.413 221.123H132.994L131.732 174.356Z" fill="#232529"/>
<path d="M132.203 207.583C132.203 207.583 135.356 201.914 141.032 200.183C141.032 200.183 135.045 201.603 132.044 206.483L132.203 207.583Z" fill="#232529"/>
<path d="M132.203 191.516C132.203 191.516 135.356 185.846 141.032 184.116C141.032 184.116 135.045 185.536 132.044 190.416L132.203 191.516Z" fill="#232529"/>
<path d="M132.203 199.554C132.203 199.554 135.356 193.884 141.032 192.154C141.032 192.154 135.045 193.573 132.044 198.453L132.203 199.554Z" fill="#232529"/>
<path d="M131.732 195.614C131.732 195.614 128.691 189.945 123.215 188.215C123.215 188.215 128.994 189.634 131.884 194.514L131.732 195.614Z" fill="#232529"/>
<path d="M131.732 203.485C131.732 203.485 128.691 197.815 123.215 196.085C123.215 196.085 128.994 197.504 131.884 202.384L131.732 203.485Z" fill="#232529"/>
<path d="M242.54 220.569C254.029 217.893 261.171 206.419 258.492 194.942C255.813 183.465 244.327 176.331 232.838 179.007C221.349 181.683 214.207 193.157 216.886 204.634C219.565 216.111 231.051 223.246 242.54 220.569Z" fill="#232529" stroke="#232529" stroke-width="0.703998" stroke-miterlimit="10"/>
<path d="M103.187 214.857C111.528 206.524 111.528 193.014 103.187 184.681C94.8448 176.348 81.3201 176.348 72.9783 184.681C64.6365 193.014 64.6365 206.524 72.9783 214.857C81.3201 223.19 94.8448 223.19 103.187 214.857Z" fill="#232529" stroke="#232529" stroke-width="0.703998" stroke-miterlimit="10"/>
<path d="M223.281 159.334C223.281 159.334 217.606 155.793 191.727 147.293C165.849 138.793 149.19 135.962 123.662 136.672C98.1346 137.382 63.7468 146.942 57.369 149.422C50.9911 151.902 48.1494 152.612 49.5703 154.382C50.9911 156.152 58.7898 162.523 57.7202 165.362C56.6585 168.192 39.289 183.773 38.2194 186.253C37.1578 188.733 41.7635 197.233 42.474 199.354C43.1844 201.475 47.0798 202.185 50.2727 202.544C53.4656 202.895 280.347 202.544 280.347 202.544C280.347 202.544 283.54 198.645 282.829 193.693C282.119 188.733 281.361 182.195 278.168 178.008C275.581 174.619 272.907 171.031 266.17 170.321C261.948 169.867 224.343 159.692 223.281 159.334Z" fill="#FEA735"/>
<mask id="mask0_1345_55957" style="mask-type:luminance" maskUnits="userSpaceOnUse" x="38" y="136" width="245" height="67">
<path d="M223.281 159.334C223.281 159.334 217.606 155.793 191.727 147.293C165.849 138.793 149.19 135.962 123.662 136.672C98.1346 137.382 63.7468 146.942 57.369 149.422C50.9911 151.902 48.1494 152.612 49.5703 154.382C50.9911 156.152 58.7898 162.523 57.7202 165.362C56.6585 168.192 39.289 183.773 38.2194 186.253C37.1578 188.733 41.7635 197.233 42.474 199.354C43.1844 201.475 47.0798 202.185 50.2727 202.544C53.4656 202.895 280.347 202.544 280.347 202.544C280.347 202.544 283.54 198.645 282.829 193.693C282.119 188.733 281.361 182.195 278.168 178.008C275.581 174.619 272.907 171.031 266.17 170.321C261.948 169.867 224.343 159.692 223.281 159.334Z" fill="white"/>
</mask>
<g mask="url(#mask0_1345_55957)">
<path d="M223.281 159.334C223.281 159.334 217.606 155.793 191.727 147.293C165.849 138.793 149.19 135.962 123.662 136.672C98.1346 137.382 63.7468 146.942 57.369 149.422C50.9911 151.902 48.1494 152.612 49.5703 154.382C50.9911 156.152 58.7898 162.523 57.7202 165.362C56.6585 168.192 39.289 183.773 38.2194 186.253C37.1578 188.733 41.7635 197.233 42.474 199.354C43.1844 201.475 47.0798 202.185 50.2727 202.544C53.4656 202.895 280.347 202.544 280.347 202.544C280.347 202.544 283.54 198.645 282.829 193.693C282.119 188.733 281.361 182.195 278.168 178.008C275.581 174.619 272.907 171.031 266.17 170.321C261.948 169.867 224.343 159.692 223.281 159.334Z" fill="#FEA735"/>
<mask id="mask1_1345_55957" style="mask-type:luminance" maskUnits="userSpaceOnUse" x="38" y="136" width="245" height="67">
<path d="M223.281 159.334C223.281 159.334 217.606 155.793 191.727 147.293C165.849 138.793 149.19 135.962 123.662 136.672C98.1346 137.382 63.7468 146.942 57.369 149.422C50.9911 151.902 48.1494 152.612 49.5703 154.382C50.9911 156.152 58.7898 162.523 57.7202 165.362C56.6585 168.192 39.289 183.773 38.2194 186.253C37.1578 188.733 41.7635 197.233 42.474 199.354C43.1844 201.475 47.0798 202.185 50.2727 202.544C53.4656 202.895 280.347 202.544 280.347 202.544C280.347 202.544 283.54 198.645 282.829 193.693C282.119 188.733 281.361 182.195 278.168 178.008C275.581 174.619 272.907 171.031 266.17 170.321C261.948 169.867 224.343 159.692 223.281 159.334Z" fill="white"/>
</mask>
<g mask="url(#mask1_1345_55957)">
<path opacity="0.15" d="M223.281 159.334C223.281 159.334 217.606 155.793 191.727 147.293C165.849 138.793 149.19 135.962 123.662 136.672C98.1346 137.382 63.7468 146.942 57.369 149.422C50.9911 151.902 48.1494 152.612 49.5703 154.382C50.9911 156.152 58.7898 162.523 57.7202 165.362C56.6585 168.192 39.289 183.773 38.2194 186.253C37.1578 188.733 41.7635 197.233 42.474 199.354C43.1844 201.475 47.0798 202.185 50.2727 202.544C53.4656 202.895 280.347 202.544 280.347 202.544C280.347 202.544 283.54 198.645 282.829 193.693C282.119 188.733 281.361 182.195 278.168 178.008C275.581 174.619 272.907 171.031 266.17 170.321C261.948 169.867 224.343 159.692 223.281 159.334Z" fill="black"/>
</g>
</g>
<path d="M223.281 159.334C223.281 159.334 217.606 155.793 191.727 147.293C165.849 138.793 149.19 135.962 123.662 136.672C98.1346 137.382 63.7468 146.942 57.369 149.422C50.9911 151.902 48.1494 152.612 49.5703 154.382C50.9911 156.152 58.7898 162.523 57.7202 165.362C56.6585 168.192 39.289 183.773 38.2194 186.253C37.1578 188.733 41.7635 197.233 42.474 199.354C43.1844 201.475 47.0798 202.185 50.2727 202.544C53.4656 202.895 280.347 202.544 280.347 202.544C280.347 202.544 283.54 198.645 282.829 193.693C282.119 188.733 281.361 182.195 278.168 178.008C275.581 174.619 272.907 171.031 266.17 170.321C261.948 169.867 224.343 159.692 223.281 159.334Z" stroke="#232529" stroke-width="0.703998" stroke-miterlimit="10"/>
<path d="M280.363 184.124H266.889V187.665H280.363V184.124Z" fill="#232529" stroke="#232529" stroke-width="0.703998" stroke-miterlimit="10"/>
<path d="M260.447 178H262.594C265.404 178 267.926 179.707 268.972 182.306L271.135 187.673H264.111L260.447 178Z" fill="white" stroke="#232529" stroke-width="0.703998" stroke-miterlimit="10"/>
<path d="M280.195 181.62C280.115 181.844 280.044 182.067 279.98 182.298L278.535 187.665H281.903C281.496 185.599 280.969 183.518 280.195 181.62Z" fill="white" stroke="#232529" stroke-width="0.703998" stroke-miterlimit="10"/>
<path d="M223.281 159.334C223.281 159.334 217.606 155.793 191.727 147.293C185.82 145.355 180.392 143.713 175.228 142.333H156.98L153.077 143.394L205.545 159.334H223.281Z" fill="#232529" stroke="#232529" stroke-width="0.703998" stroke-miterlimit="10"/>
<path d="M32.2007 153.656V177.602C32.2007 177.602 46.7844 165.633 44.9883 162.236C43.1923 158.847 32.2007 153.656 32.2007 153.656Z" fill="#8F8F8F" stroke="#232529" stroke-width="0.703998" stroke-miterlimit="10"/>
<path d="M205.561 159.334C205.561 159.334 199.885 155.793 174.007 147.293C148.128 138.793 131.469 135.962 105.941 136.672C80.4139 137.382 46.0261 146.942 39.6482 149.422C33.2703 151.902 30.4286 152.612 31.8495 154.382C33.2703 156.152 41.069 162.523 39.9994 165.362C38.9378 168.192 21.5683 183.773 20.4986 186.253C19.437 188.733 24.0428 197.233 24.7532 199.354C25.4636 201.475 29.359 202.185 32.5519 202.544C35.7448 202.895 262.626 202.544 262.626 202.544C262.626 202.544 265.819 198.645 265.109 193.693C264.398 188.733 263.64 182.195 260.447 178.008C257.861 174.619 255.187 171.031 248.45 170.321C244.219 169.867 206.622 159.692 205.561 159.334Z" fill="#FEA735"/>
<mask id="mask2_1345_55957" style="mask-type:luminance" maskUnits="userSpaceOnUse" x="20" y="136" width="246" height="67">
<path d="M205.561 159.334C205.561 159.334 199.885 155.793 174.007 147.293C148.128 138.793 131.469 135.962 105.941 136.672C80.4139 137.382 46.0261 146.942 39.6482 149.422C33.2703 151.902 30.4286 152.612 31.8495 154.382C33.2703 156.152 41.069 162.523 39.9994 165.362C38.9378 168.192 21.5683 183.773 20.4986 186.253C19.437 188.733 24.0428 197.233 24.7532 199.354C25.4636 201.475 29.359 202.185 32.5519 202.544C35.7448 202.895 262.626 202.544 262.626 202.544C262.626 202.544 265.819 198.645 265.109 193.693C264.398 188.733 263.64 182.195 260.447 178.008C257.861 174.619 255.187 171.031 248.45 170.321C244.219 169.867 206.622 159.692 205.561 159.334Z" fill="white"/>
</mask>
<g mask="url(#mask2_1345_55957)">
<path opacity="0.1" d="M260.447 178C257.861 174.611 255.187 171.023 248.449 170.313C247.332 170.194 243.876 169.396 239.39 168.28C217.965 168.065 206.023 176.716 174.022 179.651C132.331 183.47 103.499 173.056 68.7596 168.894C54.2717 167.156 42.5776 169.285 33.8529 172.355C28.3851 177.865 21.177 184.682 20.5065 186.253C19.4449 188.733 24.0507 197.233 24.7611 199.354C25.4715 201.475 29.3669 202.185 32.5598 202.544C35.7527 202.895 262.634 202.544 262.634 202.544C262.634 202.544 265.827 198.645 265.117 193.693C264.406 188.725 263.648 182.186 260.447 178Z" fill="black"/>
</g>
<path d="M205.561 159.334C205.561 159.334 199.885 155.793 174.006 147.293C148.128 138.793 131.469 135.962 105.941 136.672C80.4139 137.382 46.0261 146.942 39.6482 149.422C33.2703 151.902 30.4286 152.612 31.8495 154.382C33.2703 156.152 41.069 162.523 39.9994 165.362C38.9378 168.192 21.5683 183.773 20.4986 186.253C19.437 188.733 24.0428 197.233 24.7532 199.354C25.4636 201.475 29.359 202.185 32.5519 202.544C35.7448 202.895 262.626 202.544 262.626 202.544C262.626 202.544 265.819 198.645 265.109 193.693C264.398 188.733 263.64 182.195 260.447 178.008C257.861 174.619 255.187 171.031 248.45 170.321C244.219 169.867 206.622 159.692 205.561 159.334Z" stroke="#232529" stroke-width="0.703998" stroke-miterlimit="10"/>
<path d="M71.4897 146.272L85.6742 161.239H189.939V157.85C189.939 157.85 168.563 149.47 145.997 145.076C123.423 140.683 117.835 141.089 107.642 141.289C97.4561 141.48 71.4897 146.272 71.4897 146.272Z" fill="#8F8F8F"/>
<mask id="mask3_1345_55957" style="mask-type:luminance" maskUnits="userSpaceOnUse" x="71" y="141" width="119" height="21">
<path d="M71.4897 146.272L85.6742 161.239H189.939V157.85C189.939 157.85 168.563 149.47 145.997 145.076C123.423 140.683 117.835 141.089 107.642 141.289C97.4561 141.48 71.4897 146.272 71.4897 146.272Z" fill="white"/>
</mask>
<g mask="url(#mask3_1345_55957)">
<path d="M122.329 154.693C104.457 150.754 90.2162 154.772 82.5772 157.97L85.6743 161.239H189.939V157.85C189.939 157.85 186.475 156.495 180.879 154.589C169.145 159.062 145.893 159.884 122.329 154.693Z" fill="#232529" stroke="#232529" stroke-width="0.703998" stroke-miterlimit="10"/>
</g>
<path d="M71.4897 146.272L85.6742 161.239H189.939V157.85C189.939 157.85 168.563 149.47 145.997 145.076C123.423 140.683 117.835 141.089 107.642 141.289C97.4561 141.48 71.4897 146.272 71.4897 146.272Z" stroke="#232529" stroke-width="2.81599" stroke-miterlimit="10"/>
<path d="M118.633 163.233V195.758" stroke="#232529" stroke-width="0.703998" stroke-miterlimit="10"/>
<path d="M68.8071 220.561C80.2987 217.895 87.4512 206.428 84.7827 194.949C82.1142 183.469 70.6351 176.324 59.1435 178.99C47.6519 181.656 40.4994 193.123 43.1679 204.602C45.8364 216.082 57.3155 223.226 68.8071 220.561Z" fill="#232529" stroke="#232529" stroke-width="0.703998" stroke-miterlimit="10"/>
<path d="M63.9782 184.371C55.4691 184.371 48.5644 191.269 48.5644 199.769C48.5644 208.269 55.4691 215.166 63.9782 215.166C72.4874 215.166 79.3921 208.269 79.3921 199.769C79.3921 191.269 72.4954 184.371 63.9782 184.371ZM74.3313 196.683L65.3512 198.366L67.8975 189.714C70.9867 190.918 73.3814 193.493 74.3313 196.683ZM64.7525 198.995V200.542H63.2039V198.995H64.7525ZM60.8891 189.427L62.5733 198.397L53.9125 195.854C55.1179 192.768 57.6961 190.376 60.8891 189.427ZM53.6252 202.855L62.6053 201.172L60.0589 209.824C56.9698 208.628 54.5751 206.052 53.6252 202.855ZM67.0674 210.111L65.3831 201.14L74.0439 203.684C72.8466 206.77 70.2683 209.162 67.0674 210.111Z" fill="white" stroke="#232529" stroke-width="0.703998" stroke-miterlimit="10"/>
<path d="M68.7597 199.769C68.7597 197.13 66.6205 194.993 63.9783 194.993C61.3362 194.993 59.1969 197.13 59.1969 199.769C59.1969 202.408 61.3362 204.545 63.9783 204.545C66.6205 204.545 68.7597 202.408 68.7597 199.769Z" fill="white" stroke="#232529" stroke-width="0.703998" stroke-miterlimit="10"/>
<path d="M229.393 214.856C237.735 206.523 237.735 193.013 229.393 184.68C221.051 176.347 207.527 176.347 199.185 184.68C190.843 193.013 190.843 206.523 199.185 214.856C207.527 223.189 221.051 223.189 229.393 214.856Z" fill="#232529" stroke="#232529" stroke-width="0.703998" stroke-miterlimit="10"/>
<path d="M214.293 184.371C205.784 184.371 198.879 191.269 198.879 199.769C198.879 208.269 205.784 215.166 214.293 215.166C222.802 215.166 229.707 208.269 229.707 199.769C229.707 191.269 222.802 184.371 214.293 184.371ZM224.646 196.683L215.666 198.365L218.212 189.714C221.302 190.918 223.696 193.493 224.646 196.683ZM215.067 198.995V200.542H213.519V198.995H215.067ZM211.204 189.427L212.888 198.397L204.227 195.854C205.425 192.768 208.003 190.376 211.204 189.427ZM203.932 202.855L212.912 201.172L210.366 209.824C207.285 208.628 204.89 206.052 203.932 202.855ZM217.374 210.111L215.69 201.14L224.351 203.684C223.154 206.77 220.575 209.162 217.374 210.111Z" fill="white" stroke="#232529" stroke-width="0.703998" stroke-miterlimit="10"/>
<path d="M219.067 199.769C219.067 197.13 216.927 194.993 214.285 194.993C211.643 194.993 209.504 197.13 209.504 199.769C209.504 202.408 211.643 204.545 214.285 204.545C216.927 204.545 219.067 202.408 219.067 199.769Z" fill="white" stroke="#232529" stroke-width="0.703998" stroke-miterlimit="10"/>
<path d="M260.447 178C260.447 178 244.554 177.187 243.844 178C243.133 178.814 249.16 185.185 251.291 186.604C252.975 187.728 260.91 187.513 264.119 187.378C263.432 183.973 262.395 180.552 260.447 178Z" fill="white" stroke="#232529" stroke-width="0.703998" stroke-miterlimit="10"/>
<path d="M121.243 141.392C120.198 141.321 119.216 141.273 118.258 141.241L115.584 161.175H122.672L121.243 141.392Z" fill="#232529" stroke="#232529" stroke-width="0.703998" stroke-miterlimit="10"/>
<path d="M147.633 214.816C147.633 214.816 145.358 216.275 143.65 216.929C141.941 217.575 140.808 217.981 141.127 219.042C141.455 220.094 143.322 220.987 145.677 221.474C148.032 221.96 152.263 220.908 153.396 220.581C154.538 220.254 154.697 218.388 153.883 217.335C153.077 216.283 149.014 214.249 147.633 214.816Z" fill="#232529" stroke="#232529" stroke-width="0.703998" stroke-miterlimit="10" stroke-linecap="round" stroke-linejoin="round"/>
<path d="M148.359 220.908C146.412 220.908 143.155 220.174 143.155 219.448C143.155 218.715 143.969 218.149 142.995 217.909C142.133 217.694 141.407 218.994 141.239 219.305C141.766 220.246 143.514 221.035 145.677 221.482C148.032 221.968 152.263 220.916 153.396 220.589C153.827 220.469 154.115 220.126 154.266 219.696C153.069 220.182 150.211 220.908 148.359 220.908Z" fill="white" stroke="#232529" stroke-width="0.703998" stroke-miterlimit="10" stroke-linecap="round" stroke-linejoin="round"/>
<path d="M157.627 162.698L158.114 164.325C158.114 164.325 157.06 165.138 157.14 166.358C157.22 167.578 158.521 168.631 158.521 168.631" stroke="#232529" stroke-width="0.703998" stroke-miterlimit="10" stroke-linecap="round" stroke-linejoin="round"/>
<path d="M152.67 159.533C152.67 159.533 151.448 162.946 151.448 163.592C151.448 164.237 151.448 165.378 151.448 165.784C151.448 166.191 149.82 174.795 149.501 180.074C149.173 185.352 148.934 191.524 148.527 192.903C148.12 194.283 148.607 195.017 148.687 196.962C148.766 198.908 148.846 208.732 148.846 208.732C148.846 208.732 148.439 211.331 148.359 211.977C148.279 212.623 147.465 212.87 147.218 213.277C146.97 213.683 146.571 215.31 146.571 215.31C146.571 215.31 148.766 215.876 149.9 217.256C151.041 218.635 154.123 220.341 154.53 220.262C154.937 220.182 155.176 219.042 155.831 217.503C156.477 215.964 156.397 215.151 156.725 214.497C157.052 213.851 157.539 212.79 158.265 207.918C159 203.046 159.646 195.822 160.053 194.849C160.46 193.876 162.576 190.224 162.576 190.224C162.576 190.224 165.904 183.813 167.285 179.268C168.666 174.723 169.401 172.371 169.967 168.551C170.534 164.732 170.702 161.486 170.702 161C170.702 160.514 170.702 160.187 170.702 160.187C170.702 160.187 167.692 161.327 162.328 160.753C156.98 160.187 152.67 159.533 152.67 159.533Z" fill="white" stroke="#232529" stroke-width="0.703998" stroke-miterlimit="10" stroke-linecap="round" stroke-linejoin="round"/>
<path d="M163.885 164.245C163.885 164.245 160.229 166.191 159.662 167.172C159.096 168.145 158.361 172.283 156.733 177.402C155.104 182.513 153.644 186.413 152.263 190.719C150.882 195.024 151.041 195.184 150.555 198.35C150.068 201.515 148.926 209.959 148.926 209.959" stroke="#232529" stroke-width="0.703998" stroke-miterlimit="10" stroke-linecap="round" stroke-linejoin="round"/>
<path d="M154.21 218.794C154.21 218.794 155.998 218.149 155.998 214.489C155.998 210.837 155.352 208.237 155.998 204.745C156.645 201.252 158.273 195.575 159.247 193.868C160.221 192.162 161.362 189.969 161.362 189.969" stroke="#232529" stroke-width="0.703998" stroke-miterlimit="10" stroke-linecap="round" stroke-linejoin="round"/>
<path d="M160.468 188.757C160.468 188.757 163.31 190.703 163.885 189.977C164.452 189.243 165.346 186.971 166.08 185.105C166.814 183.239 167.134 182.346 167.134 182.346C167.134 182.346 167.948 182.266 168.028 181.533C168.107 180.799 168.275 179.42 168.275 179.42C168.275 179.42 167.221 179.42 165.673 179.093C164.132 178.766 163.558 178.845 163.238 179.579C162.919 180.313 163.079 179.826 162.592 181.118C162.105 182.418 160.237 186.803 160.157 187.449C160.061 188.111 159.981 188.271 160.468 188.757Z" fill="white" stroke="#232529" stroke-width="0.703998" stroke-miterlimit="10" stroke-linecap="round" stroke-linejoin="round"/>
<path d="M167.134 182.346C167.134 182.346 164.699 182.187 163.805 181.939C162.911 181.692 163.398 180.56 163.398 180.56" fill="#FEA735"/>
<path d="M167.134 182.346C167.134 182.346 164.699 182.187 163.805 181.939C162.911 181.692 163.398 180.56 163.398 180.56" stroke="#232529" stroke-width="0.703998" stroke-miterlimit="10" stroke-linecap="round" stroke-linejoin="round"/>
<path d="M166 179.101C166 179.101 168.115 172.283 168.435 170.904C168.762 169.524 168.762 169.524 168.762 169.524" stroke="#232529" stroke-width="0.703998" stroke-miterlimit="10" stroke-linecap="round" stroke-linejoin="round"/>
<path d="M166.647 162.372C166.647 162.372 166.08 165.21 166.647 166.757C167.214 168.296 169.169 169.923 169.488 170.082" stroke="#232529" stroke-width="0.703998" stroke-miterlimit="10" stroke-linecap="round" stroke-linejoin="round"/>
<path d="M154.865 163.591C154.865 163.591 159.088 164.811 161.61 163.918" stroke="#232529" stroke-width="0.703998" stroke-miterlimit="10" stroke-linecap="round" stroke-linejoin="round"/>
<path d="M162.584 131.688C162.584 131.688 157.06 133.068 155.432 133.395C153.803 133.722 152.909 133.722 152.67 134.447C152.422 135.181 148.359 141.831 146.491 143.864C144.623 145.898 144.456 147.843 145.031 148.896C145.597 149.948 146.252 150.435 148.686 149.789C151.121 149.143 152.67 147.11 152.67 147.11C152.67 147.11 153.236 153.202 152.422 155.634C151.608 158.066 151.281 160.019 151.855 160.426C152.422 160.833 155.432 162.372 159.902 162.539C164.372 162.698 169.488 162.292 170.303 161.486C171.117 160.673 171.117 160.187 171.117 159.621C171.117 159.054 170.789 155.235 171.763 152.237C172.737 149.231 175.499 141.52 175.587 138.602C175.667 135.675 174.533 135.276 172.338 134.383C170.143 133.49 166.647 131.951 165.84 131.784C165.018 131.608 162.584 131.688 162.584 131.688Z" fill="#232529" stroke="#232529" stroke-width="0.703998" stroke-miterlimit="10" stroke-linecap="round" stroke-linejoin="round"/>
<path d="M161.442 130.229C161.442 130.229 159.654 131.449 159.574 131.688C159.495 131.935 156.645 136.48 156.972 136.48C157.299 136.48 160.876 134.694 160.876 134.694C160.876 134.694 162.664 132.015 162.504 130.963C162.336 129.902 161.442 130.229 161.442 130.229Z" fill="white" stroke="#232529" stroke-width="0.703998" stroke-miterlimit="10" stroke-linecap="round" stroke-linejoin="round"/>
<path d="M160.756 129.328C160.756 129.328 160.915 132.494 160.349 134.686C159.782 136.879 159.375 138.338 160.189 138.586C161.003 138.833 163.685 134.854 164.412 133.714C165.146 132.573 165.385 131.6 165.385 131.6L165.952 125.269C165.952 125.269 162.703 128.762 160.756 129.328Z" fill="white" stroke="#232529" stroke-width="0.703998" stroke-miterlimit="10" stroke-linecap="round" stroke-linejoin="round"/>
<path d="M157.826 114.225C157.826 114.225 157.012 121.123 157.012 123.722C157.012 126.322 158.72 129.647 159.534 129.974C160.349 130.301 162.376 130.62 163.19 130.054C164.005 129.487 166.279 125.995 166.279 125.995C166.279 125.995 167.74 121.29 167.988 118.523C168.235 115.764 167.501 114.465 164.978 113.651C162.464 112.846 159.127 112.846 157.826 114.225Z" fill="white" stroke="#232529" stroke-width="0.703998" stroke-miterlimit="10" stroke-linecap="round" stroke-linejoin="round"/>
<path d="M159.782 120.158C159.782 120.158 159.047 124.137 159.375 124.217C159.702 124.296 160.835 124.296 160.835 124.296" stroke="#232529" stroke-width="0.703998" stroke-miterlimit="10" stroke-linecap="round" stroke-linejoin="round"/>
<path d="M159.694 125.676C159.694 125.676 161.889 126.162 163.023 125.11" stroke="#232529" stroke-width="0.703998" stroke-miterlimit="10" stroke-linecap="round" stroke-linejoin="round"/>
<path d="M162.783 120.23C162.751 120.565 162.576 120.82 162.4 120.804C162.224 120.788 162.105 120.501 162.137 120.166C162.169 119.831 162.344 119.576 162.52 119.592C162.703 119.608 162.815 119.895 162.783 120.23Z" fill="#232529"/>
<path d="M159.375 119.903C159.343 120.238 159.167 120.493 158.992 120.477C158.816 120.461 158.696 120.174 158.728 119.839C158.76 119.504 158.936 119.249 159.111 119.265C159.287 119.281 159.407 119.568 159.375 119.903Z" fill="#232529"/>
<path d="M157.826 118.691C157.826 118.691 158.8 117.551 159.774 118.611" stroke="#232529" stroke-width="0.703998" stroke-miterlimit="10" stroke-linecap="round" stroke-linejoin="round"/>
<path d="M161.323 118.531C161.323 118.531 162.863 117.311 163.677 118.611" stroke="#232529" stroke-width="0.703998" stroke-miterlimit="10" stroke-linecap="round" stroke-linejoin="round"/>
<path d="M156.525 113.093C156.525 113.093 156.525 113.173 156.557 113.293C156.637 113.667 156.98 114.489 158.313 115.039C160.101 115.772 164.324 114.879 165.792 115.366C167.253 115.852 166.607 117.232 165.713 117.718C164.819 118.204 164.659 118.452 165.066 119.018C165.473 119.584 166.447 120.158 166.12 120.804C165.792 121.45 165.633 122.104 166.2 122.183C166.766 122.263 167.173 122.263 167.421 121.936C167.668 121.609 169.289 118.117 169.289 116.091C169.289 114.058 168.315 113.165 166.04 112.272C163.765 111.379 159.047 110.813 157.666 111.626C157.666 111.634 156.772 111.953 156.525 113.093Z" fill="#232529" stroke="#232529" stroke-width="0.703998" stroke-miterlimit="10" stroke-linecap="round" stroke-linejoin="round"/>
<path d="M165.952 125.086C165.952 125.086 166.687 125.835 167.581 125.269C168.475 124.703 168.882 122.67 168.315 121.617C167.748 120.565 166.607 122.59 166.607 122.59" fill="white"/>
<path d="M165.952 125.086C165.952 125.086 166.687 125.835 167.581 125.269C168.475 124.703 168.882 122.67 168.315 121.617C167.748 120.565 166.607 122.59 166.607 122.59" stroke="#232529" stroke-width="0.703998" stroke-miterlimit="10" stroke-linecap="round" stroke-linejoin="round"/>
<path d="M162.584 131.688C162.584 131.688 162.424 138.912 162.911 138.099C163.398 137.286 167.461 131.927 167.461 131.927L166.487 129.089L162.584 131.688Z" fill="white" stroke="#232529" stroke-width="0.703998" stroke-miterlimit="10" stroke-linecap="round" stroke-linejoin="round"/>
<path d="M169.736 139.646L166.974 148.25L172.011 154.661C172.011 154.661 172.258 155.147 172.657 154.581C173.065 154.015 173.392 154.015 174.038 150.929C174.685 147.843 175.667 140.372 175.579 138.594C175.499 136.807 175.172 135.914 173.791 135.667" fill="#232529"/>
<path d="M169.736 139.646L166.974 148.25L172.011 154.661C172.011 154.661 172.258 155.147 172.657 154.581C173.065 154.015 173.392 154.015 174.038 150.929C174.685 147.843 175.667 140.372 175.579 138.594C175.499 136.807 175.172 135.914 173.791 135.667" stroke="#232529" stroke-width="0.703998" stroke-miterlimit="10" stroke-linecap="round" stroke-linejoin="round"/>
<path d="M154.298 149.629C154.298 149.629 166.894 154.422 168.602 154.501C170.311 154.581 170.718 153.449 169.983 151.336C169.249 149.223 167.054 148.011 165.186 147.437C163.318 146.87 160.556 147.03 158.688 147.516C156.813 148.003 154.298 148.984 154.298 149.629Z" fill="white" stroke="#232529" stroke-width="0.703998" stroke-miterlimit="10" stroke-linecap="round" stroke-linejoin="round"/>
<path d="M164.779 147.357C164.779 147.357 167.788 153.848 167.948 154.422C168.108 154.988 171.197 155.394 172.171 155.315C173.144 155.235 172.737 153.776 171.763 151.663C170.79 149.55 169.241 147.684 168.108 147.357C166.974 147.03 164.779 147.357 164.779 147.357Z" fill="white" stroke="#232529" stroke-width="0.703998" stroke-miterlimit="10" stroke-linecap="round" stroke-linejoin="round"/>
<path d="M147.952 145.084C147.952 145.084 146.005 145.244 144.863 145.73C143.722 146.216 143.482 149.629 144.049 150.841C144.616 152.061 146.404 152.061 147.625 151.982C148.846 151.902 149.413 151.088 149.413 151.088L150.307 145.084H147.952Z" fill="#232529" stroke="#232529" stroke-width="0.703998" stroke-miterlimit="10" stroke-linecap="round" stroke-linejoin="round"/>
<path d="M150.315 145.084C150.315 145.084 159.494 145.084 161.777 145.004C164.052 144.925 164.619 145.491 165.106 146.304C165.593 147.117 165.753 147.444 165.753 147.444C165.753 147.444 161.043 147.851 157.299 149.31C153.564 150.769 150.307 152.069 149.173 152.069C148.032 152.069 147.545 149.143 148.032 147.117C148.527 145.084 150.315 145.084 150.315 145.084Z" fill="white" stroke="#232529" stroke-width="0.703998" stroke-miterlimit="10" stroke-linecap="round" stroke-linejoin="round"/>
<path d="M147.713 144.518C147.713 144.518 151.616 144.438 151.536 145.164C151.457 145.898 150.722 151.415 150.483 151.902C150.235 152.388 147.88 152.635 146.747 152.548C145.605 152.468 146.013 148.816 146.747 147.11C147.481 145.403 147.713 144.518 147.713 144.518Z" fill="white" stroke="#232529" stroke-width="0.703998" stroke-miterlimit="10" stroke-linecap="round" stroke-linejoin="round"/>
<path d="M159.335 163.025C159.335 163.025 159.981 163.998 159.742 164.245C159.495 164.493 158.281 165.625 158.361 166.358C158.441 167.092 158.848 167.499 158.848 167.499" stroke="#232529" stroke-width="0.703998" stroke-miterlimit="10" stroke-linecap="round" stroke-linejoin="round"/>
<path d="M11.263 221.123H337.636" stroke="#232529" stroke-width="0.703998" stroke-miterlimit="10" stroke-linecap="round" stroke-linejoin="round"/>
</g>
<defs>
<clipPath id="clip0_1345_55957">
<rect width="343" height="222" fill="white"/>
</clipPath>
</defs>
</svg>
