<?xml version="1.0" encoding="UTF-8"?>
<svg id="Camada_1" xmlns="http://www.w3.org/2000/svg" version="1.1" xmlns:xlink="http://www.w3.org/1999/xlink" viewBox="0 0 1080 1080">
  <!-- Generator: Adobe Illustrator 29.7.1, SVG Export Plug-In . SVG Version: 2.1.1 Build 8)  -->
  <defs>
    <style>
      .st0 {
        fill: url(#Gradiente_sem_nome_321);
      }

      .st1 {
        fill: #c34894;
      }

      .st2 {
        fill: #010101;
      }

      .st3 {
        fill: url(#Gradiente_sem_nome_32);
      }
    </style>
    <linearGradient id="Gradiente_sem_nome_32" data-name="Gradiente sem nome 32" x1="94.07" y1="359.44" x2="595.49" y2="359.44" gradientTransform="translate(-33 21.48) rotate(-2.45)" gradientUnits="userSpaceOnUse">
      <stop offset="0" stop-color="#c44894"/>
      <stop offset="1" stop-color="#862785"/>
    </linearGradient>
    <linearGradient id="Gradiente_sem_nome_321" data-name="Gradiente sem nome 32" x1="1009.58" y1="378.54" x2="490.24" y2="384.42" xlink:href="#Gradiente_sem_nome_32"/>
  </defs>
  <path class="st3" d="M569.51,344.06l-.2-.51c-3.8-9.49-95.09-232.2-273.76-224.56-65.93,2.82-124.37,31.72-164.56,81.37-38.08,47.04-57.49,109.62-54.64,176.22,2.85,66.6,27.53,127.29,69.49,170.91,44.29,46.03,104.98,69.83,170.91,67.01,81.96-3.51,174.78-88.68,215.1-141.7-17.33-24.32-26.01-53.13-36.1-72.49-30.5,48.27-116.26,139.56-182.07,142.38-91.54,3.92-161.15-67.23-165.51-169.18-4.36-101.95,58.92-178.78,150.46-182.7,82.18-3.52,142.72,71,175.65,125.09,30.76,22.32,66.35,36.22,103.33,46.34-5.23-10.92-7.97-17.84-8.1-18.18Z"/>
  <path class="st0" d="M934.16,187.58c-44.29-46.03-104.98-69.83-170.91-67.01-81.29,3.48-163.44,108.06-204.1,161.84,17.36,24.33,27.19,52.88,37.28,71.92,30.91-48.86,105.03-159.17,169.9-161.95,91.54-3.92,161.15,67.23,165.51,169.18,4.36,101.95-58.91,178.78-150.46,182.7-105.94,4.53-173.43-114.37-195.67-160.78-36.98-10.12-72.58-24.02-103.33-46.34,17.68,29.04,27.42,52.21,28.26,54.24,5.37,13.86,93.13,232.42,273.82,224.69,65.93-2.82,124.37-31.72,164.56-81.37,38.08-47.04,57.49-109.62,54.64-176.22-2.85-66.6-27.53-127.29-69.49-170.91Z"/>
  <g>
    <path class="st2" d="M278.52,766.56h-74.37v198.32h-42.5v-198.32h-74.37v-38.96h191.23v38.96Z"/>
    <path class="st2" d="M358.19,791.35c49.93,0,88.53,38.6,88.53,88.54s-38.6,88.54-88.53,88.54-88.54-38.96-88.54-88.54,38.96-88.54,88.54-88.54ZM358.19,746.73l-19.83,25.5h-36.48l33.29-42.14c7.08-8.85,14.17-13.11,23.02-13.11s15.93,4.25,23.02,13.11l33.29,42.14h-36.12l-20.18-25.5ZM358.19,929.47c28.33,0,49.58-21.6,49.58-49.58s-21.25-49.58-49.58-49.58-49.58,21.25-49.58,49.58,21.6,49.58,49.58,49.58Z"/>
    <path class="st1" d="M683.97,858.64h38.96v46.75c0,14.87,9.21,24.08,24.79,24.08v38.96c-21.6,0-40.02-9.21-51-24.09-15.58,14.88-36.83,24.09-60.56,24.09-48.52,0-86.76-38.25-86.76-86.77s38.25-86.77,86.76-86.77h86.77v38.96h-86.77c-26.56,0-47.81,20.9-47.81,47.81s21.25,47.81,47.81,47.81,47.81-20.9,47.81-47.81v-23.02Z"/>
    <path class="st1" d="M913.42,794.89c0,34.35-15.58,61.98-42.14,78.27,13.11,9.56,24.44,23.73,35.77,43.21l27.97,48.52h-44.98l-22.31-38.6c-15.94-27.27-30.1-36.12-58.08-36.12h-1.77v74.72h-38.96v-237.27h38.96v124.3h3.54c39.66,0,63.04-21.25,63.04-57.02h38.95Z"/>
    <path class="st1" d="M998.75,738.23c0,14.16-10.62,24.79-24.79,24.79s-24.79-10.62-24.79-24.79,10.62-24.79,24.79-24.79,24.79,10.62,24.79,24.79ZM954.48,794.89h38.95v169.99h-38.95v-169.99Z"/>
  </g>
</svg>