<?xml version="1.0" encoding="UTF-8" standalone="no"?>
<svg
   id="Camada_1"
   version="1.1"
   viewBox="0 0 229 131"
   sodipodi:docname="splash_logo.svg"
   width="229"
   height="131"
   inkscape:version="1.4.2 (f4327f4, 2025-05-13)"
   xmlns:inkscape="http://www.inkscape.org/namespaces/inkscape"
   xmlns:sodipodi="http://sodipodi.sourceforge.net/DTD/sodipodi-0.dtd"
   xmlns:xlink="http://www.w3.org/1999/xlink"
   xmlns="http://www.w3.org/2000/svg"
   xmlns:svg="http://www.w3.org/2000/svg">
  <sodipodi:namedview
     id="namedview8"
     pagecolor="#ffffff"
     bordercolor="#000000"
     borderopacity="0.25"
     inkscape:showpageshadow="2"
     inkscape:pageopacity="0.0"
     inkscape:pagecheckerboard="0"
     inkscape:deskcolor="#d1d1d1"
     inkscape:zoom="2.5927249"
     inkscape:cx="101.82338"
     inkscape:cy="72.317739"
     inkscape:window-width="1366"
     inkscape:window-height="697"
     inkscape:window-x="-8"
     inkscape:window-y="-8"
     inkscape:window-maximized="1"
     inkscape:current-layer="Camada_1" />
  <!-- Generator: Adobe Illustrator 29.7.1, SVG Export Plug-In . SVG Version: 2.1.1 Build 8)  -->
  <defs
     id="defs2">
    <style
       id="style1">
      .st0 {
        fill: url(#Gradiente_sem_nome_321);
      }

      .st1 {
        fill: #c34894;
      }

      .st2 {
        fill: #010101;
      }

      .st3 {
        fill: url(#Gradiente_sem_nome_32);
      }
    </style>
    <linearGradient
       id="Gradiente_sem_nome_32"
       data-name="Gradiente sem nome 32"
       x1="94.07"
       y1="359.44"
       x2="595.48999"
       y2="359.44"
       gradientTransform="rotate(-2.45,485.75543,782.36148)"
       gradientUnits="userSpaceOnUse">
      <stop
         offset="0"
         stop-color="#c44894"
         id="stop1" />
      <stop
         offset="1"
         stop-color="#862785"
         id="stop2" />
    </linearGradient>
    <linearGradient
       id="Gradiente_sem_nome_321"
       data-name="Gradiente sem nome 32"
       x1="1009.58"
       y1="378.54001"
       x2="490.23999"
       y2="384.42001"
       xlink:href="#Gradiente_sem_nome_32"
       gradientTransform="matrix(0.17369014,0,0,0.15099224,22.112535,-16.638336)" />
    <linearGradient
       inkscape:collect="always"
       xlink:href="#Gradiente_sem_nome_32"
       id="linearGradient8"
       gradientUnits="userSpaceOnUse"
       gradientTransform="matrix(0.17353137,-0.00645455,0.00742482,0.15085422,16.38076,-13.395022)"
       x1="94.07"
       y1="359.44"
       x2="595.48999"
       y2="359.44" />
  </defs>
  <path
     class="st3"
     d="m 121.03081,35.312055 -0.0346,-0.07701 C 120.33608,33.802134 104.4799,0.17464776 73.446679,1.3282319 61.995287,1.7540272 51.844836,6.1177041 44.864231,13.614471 c -6.61412,7.102675 -9.985446,16.551767 -9.490429,26.607854 0.495017,10.056083 4.781689,19.219802 12.069728,25.806082 7.692733,6.95017 18.233988,10.543789 29.685379,10.117989 C 91.364552,75.616419 107.48648,62.756405 114.48966,54.750798 111.47962,51.078667 109.97198,46.728581 108.21944,43.805371 102.92189,51.093766 88.026228,64.877846 76.595682,65.303645 60.696084,65.895537 48.605514,55.152437 47.848226,39.758776 47.090937,24.365118 58.082049,12.764382 73.981641,12.172494 88.2555,11.640999 98.770703,22.892942 104.49032,31.060116 c 5.34272,3.370146 11.52435,5.468937 17.94741,6.99698 -0.9084,-1.648838 -1.38432,-2.693705 -1.4069,-2.745041 z"
     id="path2"
     style="fill:url(#linearGradient8);stroke-width:0.161944" />
  <path
     class="st0"
     d="M 184.36692,11.684788 C 176.67419,4.7346147 166.13294,1.1409981 154.68154,1.5667974 140.56227,2.0922497 126.29363,17.883019 119.23138,26.003386 c 3.01527,3.67364 4.72264,7.984468 6.47517,10.85936 5.36876,-7.377481 18.24268,-24.033434 29.50996,-24.453196 15.89959,-0.591888 27.99017,10.151212 28.74745,25.54487 0.7573,15.393658 -10.23208,26.994393 -26.13341,27.586281 -18.40073,0.683997 -30.12309,-17.268981 -33.98596,-24.276532 -6.42305,-1.528039 -12.60642,-3.626833 -17.9474,-6.996981 3.07084,4.384815 4.76259,7.883306 4.90849,8.189821 0.93272,2.092752 16.17575,35.093615 47.55982,33.92645 11.4514,-0.425799 21.60185,-4.789479 28.58246,-12.28624 6.61412,-7.102676 9.98544,-16.551771 9.49043,-26.607854 -0.49502,-10.056084 -4.78169,-19.219802 -12.06973,-25.806087 z"
     id="path3"
     style="fill:url(#Gradiente_sem_nome_321);stroke-width:0.161944" />
  <g
     id="g8"
     transform="matrix(0.17369014,0,0,0.15099224,22.112535,-16.638336)">
    <path
       class="st2"
       d="m 278.52,766.56 h -74.37 v 198.32 h -42.5 V 766.56 H 87.28 V 727.6 h 191.23 v 38.96 z"
       id="path4" />
    <path
       class="st2"
       d="m 358.19,791.35 c 49.93,0 88.53,38.6 88.53,88.54 0,49.94 -38.6,88.54 -88.53,88.54 -49.93,0 -88.54,-38.96 -88.54,-88.54 0,-49.58 38.96,-88.54 88.54,-88.54 z m 0,-44.62 -19.83,25.5 h -36.48 l 33.29,-42.14 c 7.08,-8.85 14.17,-13.11 23.02,-13.11 8.85,0 15.93,4.25 23.02,13.11 l 33.29,42.14 h -36.12 l -20.18,-25.5 z m 0,182.74 c 28.33,0 49.58,-21.6 49.58,-49.58 0,-27.98 -21.25,-49.58 -49.58,-49.58 -28.33,0 -49.58,21.25 -49.58,49.58 0,28.33 21.6,49.58 49.58,49.58 z"
       id="path5" />
    <path
       class="st1"
       d="m 683.97,858.64 h 38.96 v 46.75 c 0,14.87 9.21,24.08 24.79,24.08 v 38.96 c -21.6,0 -40.02,-9.21 -51,-24.09 -15.58,14.88 -36.83,24.09 -60.56,24.09 -48.52,0 -86.76,-38.25 -86.76,-86.77 0,-48.52 38.25,-86.77 86.76,-86.77 h 86.77 v 38.96 h -86.77 c -26.56,0 -47.81,20.9 -47.81,47.81 0,26.91 21.25,47.81 47.81,47.81 26.56,0 47.81,-20.9 47.81,-47.81 z"
       id="path6" />
    <path
       class="st1"
       d="m 913.42,794.89 c 0,34.35 -15.58,61.98 -42.14,78.27 13.11,9.56 24.44,23.73 35.77,43.21 l 27.97,48.52 h -44.98 l -22.31,-38.6 c -15.94,-27.27 -30.1,-36.12 -58.08,-36.12 h -1.77 v 74.72 H 768.92 V 727.62 h 38.96 v 124.3 h 3.54 c 39.66,0 63.04,-21.25 63.04,-57.02 h 38.95 z"
       id="path7" />
    <path
       class="st1"
       d="m 998.75,738.23 c 0,14.16 -10.62,24.79 -24.79,24.79 -14.17,0 -24.79,-10.62 -24.79,-24.79 0,-14.17 10.62,-24.79 24.79,-24.79 14.17,0 24.79,10.62 24.79,24.79 z m -44.27,56.66 h 38.95 v 169.99 h -38.95 z"
       id="path8" />
  </g>
</svg>
